%TF.GenerationSoftware,KiCad,Pcbnew,8.0.4*%
%TF.CreationDate,2024-10-31T19:52:33+01:00*%
%TF.ProjectId,Keyboard,4b657962-6f61-4726-942e-6b696361645f,rev?*%
%TF.SameCoordinates,Original*%
%TF.FileFunction,Soldermask,Bot*%
%TF.FilePolarity,Negative*%
%FSLAX46Y46*%
G04 Gerber Fmt 4.6, Leading zero omitted, Abs format (unit mm)*
G04 Created by KiCad (PCBNEW 8.0.4) date 2024-10-31 19:52:33*
%MOMM*%
%LPD*%
G01*
G04 APERTURE LIST*
G04 Aperture macros list*
%AMRoundRect*
0 Rectangle with rounded corners*
0 $1 Rounding radius*
0 $2 $3 $4 $5 $6 $7 $8 $9 X,Y pos of 4 corners*
0 Add a 4 corners polygon primitive as box body*
4,1,4,$2,$3,$4,$5,$6,$7,$8,$9,$2,$3,0*
0 Add four circle primitives for the rounded corners*
1,1,$1+$1,$2,$3*
1,1,$1+$1,$4,$5*
1,1,$1+$1,$6,$7*
1,1,$1+$1,$8,$9*
0 Add four rect primitives between the rounded corners*
20,1,$1+$1,$2,$3,$4,$5,0*
20,1,$1+$1,$4,$5,$6,$7,0*
20,1,$1+$1,$6,$7,$8,$9,0*
20,1,$1+$1,$8,$9,$2,$3,0*%
G04 Aperture macros list end*
%ADD10C,3.200000*%
%ADD11C,1.800000*%
%ADD12R,1.800000X1.800000*%
%ADD13O,1.700000X1.700000*%
%ADD14R,1.700000X1.700000*%
%ADD15C,2.000000*%
%ADD16R,3.200000X2.000000*%
%ADD17R,2.000000X2.000000*%
%ADD18R,2.550000X2.500000*%
%ADD19C,1.701800*%
%ADD20C,3.000000*%
%ADD21C,3.987800*%
%ADD22C,1.500000*%
%ADD23O,1.000000X1.800000*%
%ADD24O,1.000000X2.100000*%
%ADD25C,0.650000*%
%ADD26RoundRect,0.150000X0.200000X-0.150000X0.200000X0.150000X-0.200000X0.150000X-0.200000X-0.150000X0*%
%ADD27RoundRect,0.200000X-0.200000X-0.275000X0.200000X-0.275000X0.200000X0.275000X-0.200000X0.275000X0*%
G04 APERTURE END LIST*
D10*
%TO.C,REF\u002A\u002A*%
X150000000Y-82000000D03*
%TD*%
%TO.C,REF\u002A\u002A*%
X75000000Y-82000000D03*
%TD*%
%TO.C,REF\u002A\u002A*%
X150000000Y-195000000D03*
%TD*%
%TO.C,REF\u002A\u002A*%
X75000000Y-195000000D03*
%TD*%
D11*
%TO.C,D6*%
X125515000Y-106000000D03*
D12*
X122975000Y-106000000D03*
%TD*%
D11*
%TO.C,D5*%
X133540000Y-106000000D03*
D12*
X131000000Y-106000000D03*
%TD*%
%TO.C,D4*%
X139000000Y-106000000D03*
D11*
X141540000Y-106000000D03*
%TD*%
D13*
%TO.C,J3*%
X112462000Y-88375000D03*
X109922000Y-88375000D03*
D14*
X107382000Y-88375000D03*
%TD*%
D13*
%TO.C,J2*%
X101540000Y-88375000D03*
X99000000Y-88375000D03*
D14*
X96460000Y-88375000D03*
%TD*%
D15*
%TO.C,SW77*%
X109750000Y-121000000D03*
X109750000Y-126000000D03*
D16*
X102750000Y-129100000D03*
X102750000Y-117900000D03*
D15*
X95250000Y-123500000D03*
X95250000Y-126000000D03*
D17*
X95250000Y-121000000D03*
%TD*%
D18*
%TO.C,SW1*%
X85940000Y-146460000D03*
X99790000Y-143920000D03*
D19*
X98580000Y-149000000D03*
D20*
X96040000Y-143920000D03*
D21*
X93500000Y-149000000D03*
D20*
X89690000Y-146460000D03*
D19*
X88420000Y-149000000D03*
%TD*%
D18*
%TO.C,SW32*%
X104940000Y-184460000D03*
X118790000Y-181920000D03*
D19*
X117580000Y-187000000D03*
D20*
X115040000Y-181920000D03*
D21*
X112500000Y-187000000D03*
D20*
X108690000Y-184460000D03*
D19*
X107420000Y-187000000D03*
%TD*%
D18*
%TO.C,SW18*%
X123940000Y-165460000D03*
X137790000Y-162920000D03*
D19*
X136580000Y-168000000D03*
D20*
X134040000Y-162920000D03*
D21*
X131500000Y-168000000D03*
D20*
X127690000Y-165460000D03*
D19*
X126420000Y-168000000D03*
%TD*%
D18*
%TO.C,SW16*%
X85940000Y-165460000D03*
X99790000Y-162920000D03*
D19*
X98580000Y-168000000D03*
D20*
X96040000Y-162920000D03*
D21*
X93500000Y-168000000D03*
D20*
X89690000Y-165460000D03*
D19*
X88420000Y-168000000D03*
%TD*%
D18*
%TO.C,SW17*%
X104940000Y-165460000D03*
X118790000Y-162920000D03*
D19*
X117580000Y-168000000D03*
D20*
X115040000Y-162920000D03*
D21*
X112500000Y-168000000D03*
D20*
X108690000Y-165460000D03*
D19*
X107420000Y-168000000D03*
%TD*%
D18*
%TO.C,SW3*%
X123940000Y-146460000D03*
X137790000Y-143920000D03*
D19*
X136580000Y-149000000D03*
D20*
X134040000Y-143920000D03*
D21*
X131500000Y-149000000D03*
D20*
X127690000Y-146460000D03*
D19*
X126420000Y-149000000D03*
%TD*%
D11*
%TO.C,D76*%
X126540000Y-83000000D03*
D12*
X124000000Y-83000000D03*
%TD*%
D22*
%TO.C,Y1*%
X86566000Y-102062000D03*
X86566000Y-106942000D03*
%TD*%
D18*
%TO.C,SW31*%
X85940000Y-184460000D03*
X99790000Y-181920000D03*
D19*
X98580000Y-187000000D03*
D20*
X96040000Y-181920000D03*
D21*
X93500000Y-187000000D03*
D20*
X89690000Y-184460000D03*
D19*
X88420000Y-187000000D03*
%TD*%
D18*
%TO.C,SW33*%
X123940000Y-184460000D03*
X137790000Y-181920000D03*
D19*
X136580000Y-187000000D03*
D20*
X134040000Y-181920000D03*
D21*
X131500000Y-187000000D03*
D20*
X127690000Y-184460000D03*
D19*
X126420000Y-187000000D03*
%TD*%
D23*
%TO.C,J1*%
X133680000Y-79425000D03*
D24*
X133680000Y-83605000D03*
D23*
X142320000Y-79425000D03*
D24*
X142320000Y-83605000D03*
D25*
X135110000Y-83105000D03*
X140890000Y-83105000D03*
%TD*%
D18*
%TO.C,SW2*%
X104940000Y-146460000D03*
X118790000Y-143920000D03*
D19*
X117580000Y-149000000D03*
D20*
X115040000Y-143920000D03*
D21*
X112500000Y-149000000D03*
D20*
X108690000Y-146460000D03*
D19*
X107420000Y-149000000D03*
%TD*%
D13*
%TO.C,J4*%
X90613000Y-88375000D03*
X88073000Y-88375000D03*
X85533000Y-88375000D03*
D14*
X82993000Y-88375000D03*
%TD*%
D26*
%TO.C,D32*%
X104500000Y-179720000D03*
X104500000Y-178320000D03*
%TD*%
D27*
%TO.C,R6*%
X94799000Y-138428000D03*
X93149000Y-138428000D03*
%TD*%
D26*
%TO.C,D33*%
X123500000Y-179720000D03*
X123500000Y-178320000D03*
%TD*%
%TO.C,D17*%
X104500000Y-160720000D03*
X104500000Y-159320000D03*
%TD*%
%TO.C,D18*%
X123500000Y-160720000D03*
X123500000Y-159320000D03*
%TD*%
%TO.C,D1*%
X85500000Y-141778000D03*
X85500000Y-140378000D03*
%TD*%
%TO.C,D16*%
X85564000Y-160766000D03*
X85564000Y-159366000D03*
%TD*%
D27*
%TO.C,R8*%
X132391000Y-138428000D03*
X130741000Y-138428000D03*
%TD*%
D26*
%TO.C,D3*%
X123410000Y-141716000D03*
X123410000Y-140316000D03*
%TD*%
%TO.C,D31*%
X85500000Y-179500000D03*
X85500000Y-178100000D03*
%TD*%
D27*
%TO.C,R7*%
X113341000Y-138428000D03*
X111691000Y-138428000D03*
%TD*%
D26*
%TO.C,D2*%
X104500000Y-141716000D03*
X104500000Y-140316000D03*
%TD*%
M02*
