%TF.GenerationSoftware,KiCad,Pcbnew,8.0.4*%
%TF.CreationDate,2024-10-31T19:52:33+01:00*%
%TF.ProjectId,Keyboard,4b657962-6f61-4726-942e-6b696361645f,rev?*%
%TF.SameCoordinates,Original*%
%TF.FileFunction,Legend,Bot*%
%TF.FilePolarity,Positive*%
%FSLAX46Y46*%
G04 Gerber Fmt 4.6, Leading zero omitted, Abs format (unit mm)*
G04 Created by KiCad (PCBNEW 8.0.4) date 2024-10-31 19:52:33*
%MOMM*%
%LPD*%
G01*
G04 APERTURE LIST*
%ADD10C,0.150000*%
%ADD11C,0.120000*%
G04 APERTURE END LIST*
D10*
X94833332Y-141152200D02*
X94690475Y-141199819D01*
X94690475Y-141199819D02*
X94452380Y-141199819D01*
X94452380Y-141199819D02*
X94357142Y-141152200D01*
X94357142Y-141152200D02*
X94309523Y-141104580D01*
X94309523Y-141104580D02*
X94261904Y-141009342D01*
X94261904Y-141009342D02*
X94261904Y-140914104D01*
X94261904Y-140914104D02*
X94309523Y-140818866D01*
X94309523Y-140818866D02*
X94357142Y-140771247D01*
X94357142Y-140771247D02*
X94452380Y-140723628D01*
X94452380Y-140723628D02*
X94642856Y-140676009D01*
X94642856Y-140676009D02*
X94738094Y-140628390D01*
X94738094Y-140628390D02*
X94785713Y-140580771D01*
X94785713Y-140580771D02*
X94833332Y-140485533D01*
X94833332Y-140485533D02*
X94833332Y-140390295D01*
X94833332Y-140390295D02*
X94785713Y-140295057D01*
X94785713Y-140295057D02*
X94738094Y-140247438D01*
X94738094Y-140247438D02*
X94642856Y-140199819D01*
X94642856Y-140199819D02*
X94404761Y-140199819D01*
X94404761Y-140199819D02*
X94261904Y-140247438D01*
X93928570Y-140199819D02*
X93690475Y-141199819D01*
X93690475Y-141199819D02*
X93499999Y-140485533D01*
X93499999Y-140485533D02*
X93309523Y-141199819D01*
X93309523Y-141199819D02*
X93071428Y-140199819D01*
X92166666Y-141199819D02*
X92738094Y-141199819D01*
X92452380Y-141199819D02*
X92452380Y-140199819D01*
X92452380Y-140199819D02*
X92547618Y-140342676D01*
X92547618Y-140342676D02*
X92642856Y-140437914D01*
X92642856Y-140437914D02*
X92738094Y-140485533D01*
X114309523Y-179152200D02*
X114166666Y-179199819D01*
X114166666Y-179199819D02*
X113928571Y-179199819D01*
X113928571Y-179199819D02*
X113833333Y-179152200D01*
X113833333Y-179152200D02*
X113785714Y-179104580D01*
X113785714Y-179104580D02*
X113738095Y-179009342D01*
X113738095Y-179009342D02*
X113738095Y-178914104D01*
X113738095Y-178914104D02*
X113785714Y-178818866D01*
X113785714Y-178818866D02*
X113833333Y-178771247D01*
X113833333Y-178771247D02*
X113928571Y-178723628D01*
X113928571Y-178723628D02*
X114119047Y-178676009D01*
X114119047Y-178676009D02*
X114214285Y-178628390D01*
X114214285Y-178628390D02*
X114261904Y-178580771D01*
X114261904Y-178580771D02*
X114309523Y-178485533D01*
X114309523Y-178485533D02*
X114309523Y-178390295D01*
X114309523Y-178390295D02*
X114261904Y-178295057D01*
X114261904Y-178295057D02*
X114214285Y-178247438D01*
X114214285Y-178247438D02*
X114119047Y-178199819D01*
X114119047Y-178199819D02*
X113880952Y-178199819D01*
X113880952Y-178199819D02*
X113738095Y-178247438D01*
X113404761Y-178199819D02*
X113166666Y-179199819D01*
X113166666Y-179199819D02*
X112976190Y-178485533D01*
X112976190Y-178485533D02*
X112785714Y-179199819D01*
X112785714Y-179199819D02*
X112547619Y-178199819D01*
X112261904Y-178199819D02*
X111642857Y-178199819D01*
X111642857Y-178199819D02*
X111976190Y-178580771D01*
X111976190Y-178580771D02*
X111833333Y-178580771D01*
X111833333Y-178580771D02*
X111738095Y-178628390D01*
X111738095Y-178628390D02*
X111690476Y-178676009D01*
X111690476Y-178676009D02*
X111642857Y-178771247D01*
X111642857Y-178771247D02*
X111642857Y-179009342D01*
X111642857Y-179009342D02*
X111690476Y-179104580D01*
X111690476Y-179104580D02*
X111738095Y-179152200D01*
X111738095Y-179152200D02*
X111833333Y-179199819D01*
X111833333Y-179199819D02*
X112119047Y-179199819D01*
X112119047Y-179199819D02*
X112214285Y-179152200D01*
X112214285Y-179152200D02*
X112261904Y-179104580D01*
X111261904Y-178295057D02*
X111214285Y-178247438D01*
X111214285Y-178247438D02*
X111119047Y-178199819D01*
X111119047Y-178199819D02*
X110880952Y-178199819D01*
X110880952Y-178199819D02*
X110785714Y-178247438D01*
X110785714Y-178247438D02*
X110738095Y-178295057D01*
X110738095Y-178295057D02*
X110690476Y-178390295D01*
X110690476Y-178390295D02*
X110690476Y-178485533D01*
X110690476Y-178485533D02*
X110738095Y-178628390D01*
X110738095Y-178628390D02*
X111309523Y-179199819D01*
X111309523Y-179199819D02*
X110690476Y-179199819D01*
X133309523Y-160152200D02*
X133166666Y-160199819D01*
X133166666Y-160199819D02*
X132928571Y-160199819D01*
X132928571Y-160199819D02*
X132833333Y-160152200D01*
X132833333Y-160152200D02*
X132785714Y-160104580D01*
X132785714Y-160104580D02*
X132738095Y-160009342D01*
X132738095Y-160009342D02*
X132738095Y-159914104D01*
X132738095Y-159914104D02*
X132785714Y-159818866D01*
X132785714Y-159818866D02*
X132833333Y-159771247D01*
X132833333Y-159771247D02*
X132928571Y-159723628D01*
X132928571Y-159723628D02*
X133119047Y-159676009D01*
X133119047Y-159676009D02*
X133214285Y-159628390D01*
X133214285Y-159628390D02*
X133261904Y-159580771D01*
X133261904Y-159580771D02*
X133309523Y-159485533D01*
X133309523Y-159485533D02*
X133309523Y-159390295D01*
X133309523Y-159390295D02*
X133261904Y-159295057D01*
X133261904Y-159295057D02*
X133214285Y-159247438D01*
X133214285Y-159247438D02*
X133119047Y-159199819D01*
X133119047Y-159199819D02*
X132880952Y-159199819D01*
X132880952Y-159199819D02*
X132738095Y-159247438D01*
X132404761Y-159199819D02*
X132166666Y-160199819D01*
X132166666Y-160199819D02*
X131976190Y-159485533D01*
X131976190Y-159485533D02*
X131785714Y-160199819D01*
X131785714Y-160199819D02*
X131547619Y-159199819D01*
X130642857Y-160199819D02*
X131214285Y-160199819D01*
X130928571Y-160199819D02*
X130928571Y-159199819D01*
X130928571Y-159199819D02*
X131023809Y-159342676D01*
X131023809Y-159342676D02*
X131119047Y-159437914D01*
X131119047Y-159437914D02*
X131214285Y-159485533D01*
X130071428Y-159628390D02*
X130166666Y-159580771D01*
X130166666Y-159580771D02*
X130214285Y-159533152D01*
X130214285Y-159533152D02*
X130261904Y-159437914D01*
X130261904Y-159437914D02*
X130261904Y-159390295D01*
X130261904Y-159390295D02*
X130214285Y-159295057D01*
X130214285Y-159295057D02*
X130166666Y-159247438D01*
X130166666Y-159247438D02*
X130071428Y-159199819D01*
X130071428Y-159199819D02*
X129880952Y-159199819D01*
X129880952Y-159199819D02*
X129785714Y-159247438D01*
X129785714Y-159247438D02*
X129738095Y-159295057D01*
X129738095Y-159295057D02*
X129690476Y-159390295D01*
X129690476Y-159390295D02*
X129690476Y-159437914D01*
X129690476Y-159437914D02*
X129738095Y-159533152D01*
X129738095Y-159533152D02*
X129785714Y-159580771D01*
X129785714Y-159580771D02*
X129880952Y-159628390D01*
X129880952Y-159628390D02*
X130071428Y-159628390D01*
X130071428Y-159628390D02*
X130166666Y-159676009D01*
X130166666Y-159676009D02*
X130214285Y-159723628D01*
X130214285Y-159723628D02*
X130261904Y-159818866D01*
X130261904Y-159818866D02*
X130261904Y-160009342D01*
X130261904Y-160009342D02*
X130214285Y-160104580D01*
X130214285Y-160104580D02*
X130166666Y-160152200D01*
X130166666Y-160152200D02*
X130071428Y-160199819D01*
X130071428Y-160199819D02*
X129880952Y-160199819D01*
X129880952Y-160199819D02*
X129785714Y-160152200D01*
X129785714Y-160152200D02*
X129738095Y-160104580D01*
X129738095Y-160104580D02*
X129690476Y-160009342D01*
X129690476Y-160009342D02*
X129690476Y-159818866D01*
X129690476Y-159818866D02*
X129738095Y-159723628D01*
X129738095Y-159723628D02*
X129785714Y-159676009D01*
X129785714Y-159676009D02*
X129880952Y-159628390D01*
X95309523Y-160152200D02*
X95166666Y-160199819D01*
X95166666Y-160199819D02*
X94928571Y-160199819D01*
X94928571Y-160199819D02*
X94833333Y-160152200D01*
X94833333Y-160152200D02*
X94785714Y-160104580D01*
X94785714Y-160104580D02*
X94738095Y-160009342D01*
X94738095Y-160009342D02*
X94738095Y-159914104D01*
X94738095Y-159914104D02*
X94785714Y-159818866D01*
X94785714Y-159818866D02*
X94833333Y-159771247D01*
X94833333Y-159771247D02*
X94928571Y-159723628D01*
X94928571Y-159723628D02*
X95119047Y-159676009D01*
X95119047Y-159676009D02*
X95214285Y-159628390D01*
X95214285Y-159628390D02*
X95261904Y-159580771D01*
X95261904Y-159580771D02*
X95309523Y-159485533D01*
X95309523Y-159485533D02*
X95309523Y-159390295D01*
X95309523Y-159390295D02*
X95261904Y-159295057D01*
X95261904Y-159295057D02*
X95214285Y-159247438D01*
X95214285Y-159247438D02*
X95119047Y-159199819D01*
X95119047Y-159199819D02*
X94880952Y-159199819D01*
X94880952Y-159199819D02*
X94738095Y-159247438D01*
X94404761Y-159199819D02*
X94166666Y-160199819D01*
X94166666Y-160199819D02*
X93976190Y-159485533D01*
X93976190Y-159485533D02*
X93785714Y-160199819D01*
X93785714Y-160199819D02*
X93547619Y-159199819D01*
X92642857Y-160199819D02*
X93214285Y-160199819D01*
X92928571Y-160199819D02*
X92928571Y-159199819D01*
X92928571Y-159199819D02*
X93023809Y-159342676D01*
X93023809Y-159342676D02*
X93119047Y-159437914D01*
X93119047Y-159437914D02*
X93214285Y-159485533D01*
X91785714Y-159199819D02*
X91976190Y-159199819D01*
X91976190Y-159199819D02*
X92071428Y-159247438D01*
X92071428Y-159247438D02*
X92119047Y-159295057D01*
X92119047Y-159295057D02*
X92214285Y-159437914D01*
X92214285Y-159437914D02*
X92261904Y-159628390D01*
X92261904Y-159628390D02*
X92261904Y-160009342D01*
X92261904Y-160009342D02*
X92214285Y-160104580D01*
X92214285Y-160104580D02*
X92166666Y-160152200D01*
X92166666Y-160152200D02*
X92071428Y-160199819D01*
X92071428Y-160199819D02*
X91880952Y-160199819D01*
X91880952Y-160199819D02*
X91785714Y-160152200D01*
X91785714Y-160152200D02*
X91738095Y-160104580D01*
X91738095Y-160104580D02*
X91690476Y-160009342D01*
X91690476Y-160009342D02*
X91690476Y-159771247D01*
X91690476Y-159771247D02*
X91738095Y-159676009D01*
X91738095Y-159676009D02*
X91785714Y-159628390D01*
X91785714Y-159628390D02*
X91880952Y-159580771D01*
X91880952Y-159580771D02*
X92071428Y-159580771D01*
X92071428Y-159580771D02*
X92166666Y-159628390D01*
X92166666Y-159628390D02*
X92214285Y-159676009D01*
X92214285Y-159676009D02*
X92261904Y-159771247D01*
X114309523Y-160152200D02*
X114166666Y-160199819D01*
X114166666Y-160199819D02*
X113928571Y-160199819D01*
X113928571Y-160199819D02*
X113833333Y-160152200D01*
X113833333Y-160152200D02*
X113785714Y-160104580D01*
X113785714Y-160104580D02*
X113738095Y-160009342D01*
X113738095Y-160009342D02*
X113738095Y-159914104D01*
X113738095Y-159914104D02*
X113785714Y-159818866D01*
X113785714Y-159818866D02*
X113833333Y-159771247D01*
X113833333Y-159771247D02*
X113928571Y-159723628D01*
X113928571Y-159723628D02*
X114119047Y-159676009D01*
X114119047Y-159676009D02*
X114214285Y-159628390D01*
X114214285Y-159628390D02*
X114261904Y-159580771D01*
X114261904Y-159580771D02*
X114309523Y-159485533D01*
X114309523Y-159485533D02*
X114309523Y-159390295D01*
X114309523Y-159390295D02*
X114261904Y-159295057D01*
X114261904Y-159295057D02*
X114214285Y-159247438D01*
X114214285Y-159247438D02*
X114119047Y-159199819D01*
X114119047Y-159199819D02*
X113880952Y-159199819D01*
X113880952Y-159199819D02*
X113738095Y-159247438D01*
X113404761Y-159199819D02*
X113166666Y-160199819D01*
X113166666Y-160199819D02*
X112976190Y-159485533D01*
X112976190Y-159485533D02*
X112785714Y-160199819D01*
X112785714Y-160199819D02*
X112547619Y-159199819D01*
X111642857Y-160199819D02*
X112214285Y-160199819D01*
X111928571Y-160199819D02*
X111928571Y-159199819D01*
X111928571Y-159199819D02*
X112023809Y-159342676D01*
X112023809Y-159342676D02*
X112119047Y-159437914D01*
X112119047Y-159437914D02*
X112214285Y-159485533D01*
X111309523Y-159199819D02*
X110642857Y-159199819D01*
X110642857Y-159199819D02*
X111071428Y-160199819D01*
X132833332Y-141152200D02*
X132690475Y-141199819D01*
X132690475Y-141199819D02*
X132452380Y-141199819D01*
X132452380Y-141199819D02*
X132357142Y-141152200D01*
X132357142Y-141152200D02*
X132309523Y-141104580D01*
X132309523Y-141104580D02*
X132261904Y-141009342D01*
X132261904Y-141009342D02*
X132261904Y-140914104D01*
X132261904Y-140914104D02*
X132309523Y-140818866D01*
X132309523Y-140818866D02*
X132357142Y-140771247D01*
X132357142Y-140771247D02*
X132452380Y-140723628D01*
X132452380Y-140723628D02*
X132642856Y-140676009D01*
X132642856Y-140676009D02*
X132738094Y-140628390D01*
X132738094Y-140628390D02*
X132785713Y-140580771D01*
X132785713Y-140580771D02*
X132833332Y-140485533D01*
X132833332Y-140485533D02*
X132833332Y-140390295D01*
X132833332Y-140390295D02*
X132785713Y-140295057D01*
X132785713Y-140295057D02*
X132738094Y-140247438D01*
X132738094Y-140247438D02*
X132642856Y-140199819D01*
X132642856Y-140199819D02*
X132404761Y-140199819D01*
X132404761Y-140199819D02*
X132261904Y-140247438D01*
X131928570Y-140199819D02*
X131690475Y-141199819D01*
X131690475Y-141199819D02*
X131499999Y-140485533D01*
X131499999Y-140485533D02*
X131309523Y-141199819D01*
X131309523Y-141199819D02*
X131071428Y-140199819D01*
X130785713Y-140199819D02*
X130166666Y-140199819D01*
X130166666Y-140199819D02*
X130499999Y-140580771D01*
X130499999Y-140580771D02*
X130357142Y-140580771D01*
X130357142Y-140580771D02*
X130261904Y-140628390D01*
X130261904Y-140628390D02*
X130214285Y-140676009D01*
X130214285Y-140676009D02*
X130166666Y-140771247D01*
X130166666Y-140771247D02*
X130166666Y-141009342D01*
X130166666Y-141009342D02*
X130214285Y-141104580D01*
X130214285Y-141104580D02*
X130261904Y-141152200D01*
X130261904Y-141152200D02*
X130357142Y-141199819D01*
X130357142Y-141199819D02*
X130642856Y-141199819D01*
X130642856Y-141199819D02*
X130738094Y-141152200D01*
X130738094Y-141152200D02*
X130785713Y-141104580D01*
X95309523Y-179152200D02*
X95166666Y-179199819D01*
X95166666Y-179199819D02*
X94928571Y-179199819D01*
X94928571Y-179199819D02*
X94833333Y-179152200D01*
X94833333Y-179152200D02*
X94785714Y-179104580D01*
X94785714Y-179104580D02*
X94738095Y-179009342D01*
X94738095Y-179009342D02*
X94738095Y-178914104D01*
X94738095Y-178914104D02*
X94785714Y-178818866D01*
X94785714Y-178818866D02*
X94833333Y-178771247D01*
X94833333Y-178771247D02*
X94928571Y-178723628D01*
X94928571Y-178723628D02*
X95119047Y-178676009D01*
X95119047Y-178676009D02*
X95214285Y-178628390D01*
X95214285Y-178628390D02*
X95261904Y-178580771D01*
X95261904Y-178580771D02*
X95309523Y-178485533D01*
X95309523Y-178485533D02*
X95309523Y-178390295D01*
X95309523Y-178390295D02*
X95261904Y-178295057D01*
X95261904Y-178295057D02*
X95214285Y-178247438D01*
X95214285Y-178247438D02*
X95119047Y-178199819D01*
X95119047Y-178199819D02*
X94880952Y-178199819D01*
X94880952Y-178199819D02*
X94738095Y-178247438D01*
X94404761Y-178199819D02*
X94166666Y-179199819D01*
X94166666Y-179199819D02*
X93976190Y-178485533D01*
X93976190Y-178485533D02*
X93785714Y-179199819D01*
X93785714Y-179199819D02*
X93547619Y-178199819D01*
X93261904Y-178199819D02*
X92642857Y-178199819D01*
X92642857Y-178199819D02*
X92976190Y-178580771D01*
X92976190Y-178580771D02*
X92833333Y-178580771D01*
X92833333Y-178580771D02*
X92738095Y-178628390D01*
X92738095Y-178628390D02*
X92690476Y-178676009D01*
X92690476Y-178676009D02*
X92642857Y-178771247D01*
X92642857Y-178771247D02*
X92642857Y-179009342D01*
X92642857Y-179009342D02*
X92690476Y-179104580D01*
X92690476Y-179104580D02*
X92738095Y-179152200D01*
X92738095Y-179152200D02*
X92833333Y-179199819D01*
X92833333Y-179199819D02*
X93119047Y-179199819D01*
X93119047Y-179199819D02*
X93214285Y-179152200D01*
X93214285Y-179152200D02*
X93261904Y-179104580D01*
X91690476Y-179199819D02*
X92261904Y-179199819D01*
X91976190Y-179199819D02*
X91976190Y-178199819D01*
X91976190Y-178199819D02*
X92071428Y-178342676D01*
X92071428Y-178342676D02*
X92166666Y-178437914D01*
X92166666Y-178437914D02*
X92261904Y-178485533D01*
X133309523Y-179152200D02*
X133166666Y-179199819D01*
X133166666Y-179199819D02*
X132928571Y-179199819D01*
X132928571Y-179199819D02*
X132833333Y-179152200D01*
X132833333Y-179152200D02*
X132785714Y-179104580D01*
X132785714Y-179104580D02*
X132738095Y-179009342D01*
X132738095Y-179009342D02*
X132738095Y-178914104D01*
X132738095Y-178914104D02*
X132785714Y-178818866D01*
X132785714Y-178818866D02*
X132833333Y-178771247D01*
X132833333Y-178771247D02*
X132928571Y-178723628D01*
X132928571Y-178723628D02*
X133119047Y-178676009D01*
X133119047Y-178676009D02*
X133214285Y-178628390D01*
X133214285Y-178628390D02*
X133261904Y-178580771D01*
X133261904Y-178580771D02*
X133309523Y-178485533D01*
X133309523Y-178485533D02*
X133309523Y-178390295D01*
X133309523Y-178390295D02*
X133261904Y-178295057D01*
X133261904Y-178295057D02*
X133214285Y-178247438D01*
X133214285Y-178247438D02*
X133119047Y-178199819D01*
X133119047Y-178199819D02*
X132880952Y-178199819D01*
X132880952Y-178199819D02*
X132738095Y-178247438D01*
X132404761Y-178199819D02*
X132166666Y-179199819D01*
X132166666Y-179199819D02*
X131976190Y-178485533D01*
X131976190Y-178485533D02*
X131785714Y-179199819D01*
X131785714Y-179199819D02*
X131547619Y-178199819D01*
X131261904Y-178199819D02*
X130642857Y-178199819D01*
X130642857Y-178199819D02*
X130976190Y-178580771D01*
X130976190Y-178580771D02*
X130833333Y-178580771D01*
X130833333Y-178580771D02*
X130738095Y-178628390D01*
X130738095Y-178628390D02*
X130690476Y-178676009D01*
X130690476Y-178676009D02*
X130642857Y-178771247D01*
X130642857Y-178771247D02*
X130642857Y-179009342D01*
X130642857Y-179009342D02*
X130690476Y-179104580D01*
X130690476Y-179104580D02*
X130738095Y-179152200D01*
X130738095Y-179152200D02*
X130833333Y-179199819D01*
X130833333Y-179199819D02*
X131119047Y-179199819D01*
X131119047Y-179199819D02*
X131214285Y-179152200D01*
X131214285Y-179152200D02*
X131261904Y-179104580D01*
X130309523Y-178199819D02*
X129690476Y-178199819D01*
X129690476Y-178199819D02*
X130023809Y-178580771D01*
X130023809Y-178580771D02*
X129880952Y-178580771D01*
X129880952Y-178580771D02*
X129785714Y-178628390D01*
X129785714Y-178628390D02*
X129738095Y-178676009D01*
X129738095Y-178676009D02*
X129690476Y-178771247D01*
X129690476Y-178771247D02*
X129690476Y-179009342D01*
X129690476Y-179009342D02*
X129738095Y-179104580D01*
X129738095Y-179104580D02*
X129785714Y-179152200D01*
X129785714Y-179152200D02*
X129880952Y-179199819D01*
X129880952Y-179199819D02*
X130166666Y-179199819D01*
X130166666Y-179199819D02*
X130261904Y-179152200D01*
X130261904Y-179152200D02*
X130309523Y-179104580D01*
X113833332Y-141152200D02*
X113690475Y-141199819D01*
X113690475Y-141199819D02*
X113452380Y-141199819D01*
X113452380Y-141199819D02*
X113357142Y-141152200D01*
X113357142Y-141152200D02*
X113309523Y-141104580D01*
X113309523Y-141104580D02*
X113261904Y-141009342D01*
X113261904Y-141009342D02*
X113261904Y-140914104D01*
X113261904Y-140914104D02*
X113309523Y-140818866D01*
X113309523Y-140818866D02*
X113357142Y-140771247D01*
X113357142Y-140771247D02*
X113452380Y-140723628D01*
X113452380Y-140723628D02*
X113642856Y-140676009D01*
X113642856Y-140676009D02*
X113738094Y-140628390D01*
X113738094Y-140628390D02*
X113785713Y-140580771D01*
X113785713Y-140580771D02*
X113833332Y-140485533D01*
X113833332Y-140485533D02*
X113833332Y-140390295D01*
X113833332Y-140390295D02*
X113785713Y-140295057D01*
X113785713Y-140295057D02*
X113738094Y-140247438D01*
X113738094Y-140247438D02*
X113642856Y-140199819D01*
X113642856Y-140199819D02*
X113404761Y-140199819D01*
X113404761Y-140199819D02*
X113261904Y-140247438D01*
X112928570Y-140199819D02*
X112690475Y-141199819D01*
X112690475Y-141199819D02*
X112499999Y-140485533D01*
X112499999Y-140485533D02*
X112309523Y-141199819D01*
X112309523Y-141199819D02*
X112071428Y-140199819D01*
X111738094Y-140295057D02*
X111690475Y-140247438D01*
X111690475Y-140247438D02*
X111595237Y-140199819D01*
X111595237Y-140199819D02*
X111357142Y-140199819D01*
X111357142Y-140199819D02*
X111261904Y-140247438D01*
X111261904Y-140247438D02*
X111214285Y-140295057D01*
X111214285Y-140295057D02*
X111166666Y-140390295D01*
X111166666Y-140390295D02*
X111166666Y-140485533D01*
X111166666Y-140485533D02*
X111214285Y-140628390D01*
X111214285Y-140628390D02*
X111785713Y-141199819D01*
X111785713Y-141199819D02*
X111166666Y-141199819D01*
X103654819Y-177805714D02*
X102654819Y-177805714D01*
X102654819Y-177805714D02*
X102654819Y-178043809D01*
X102654819Y-178043809D02*
X102702438Y-178186666D01*
X102702438Y-178186666D02*
X102797676Y-178281904D01*
X102797676Y-178281904D02*
X102892914Y-178329523D01*
X102892914Y-178329523D02*
X103083390Y-178377142D01*
X103083390Y-178377142D02*
X103226247Y-178377142D01*
X103226247Y-178377142D02*
X103416723Y-178329523D01*
X103416723Y-178329523D02*
X103511961Y-178281904D01*
X103511961Y-178281904D02*
X103607200Y-178186666D01*
X103607200Y-178186666D02*
X103654819Y-178043809D01*
X103654819Y-178043809D02*
X103654819Y-177805714D01*
X102654819Y-178710476D02*
X102654819Y-179329523D01*
X102654819Y-179329523D02*
X103035771Y-178996190D01*
X103035771Y-178996190D02*
X103035771Y-179139047D01*
X103035771Y-179139047D02*
X103083390Y-179234285D01*
X103083390Y-179234285D02*
X103131009Y-179281904D01*
X103131009Y-179281904D02*
X103226247Y-179329523D01*
X103226247Y-179329523D02*
X103464342Y-179329523D01*
X103464342Y-179329523D02*
X103559580Y-179281904D01*
X103559580Y-179281904D02*
X103607200Y-179234285D01*
X103607200Y-179234285D02*
X103654819Y-179139047D01*
X103654819Y-179139047D02*
X103654819Y-178853333D01*
X103654819Y-178853333D02*
X103607200Y-178758095D01*
X103607200Y-178758095D02*
X103559580Y-178710476D01*
X102750057Y-179710476D02*
X102702438Y-179758095D01*
X102702438Y-179758095D02*
X102654819Y-179853333D01*
X102654819Y-179853333D02*
X102654819Y-180091428D01*
X102654819Y-180091428D02*
X102702438Y-180186666D01*
X102702438Y-180186666D02*
X102750057Y-180234285D01*
X102750057Y-180234285D02*
X102845295Y-180281904D01*
X102845295Y-180281904D02*
X102940533Y-180281904D01*
X102940533Y-180281904D02*
X103083390Y-180234285D01*
X103083390Y-180234285D02*
X103654819Y-179662857D01*
X103654819Y-179662857D02*
X103654819Y-180281904D01*
X96743666Y-138882819D02*
X97076999Y-138406628D01*
X97315094Y-138882819D02*
X97315094Y-137882819D01*
X97315094Y-137882819D02*
X96934142Y-137882819D01*
X96934142Y-137882819D02*
X96838904Y-137930438D01*
X96838904Y-137930438D02*
X96791285Y-137978057D01*
X96791285Y-137978057D02*
X96743666Y-138073295D01*
X96743666Y-138073295D02*
X96743666Y-138216152D01*
X96743666Y-138216152D02*
X96791285Y-138311390D01*
X96791285Y-138311390D02*
X96838904Y-138359009D01*
X96838904Y-138359009D02*
X96934142Y-138406628D01*
X96934142Y-138406628D02*
X97315094Y-138406628D01*
X95886523Y-137882819D02*
X96076999Y-137882819D01*
X96076999Y-137882819D02*
X96172237Y-137930438D01*
X96172237Y-137930438D02*
X96219856Y-137978057D01*
X96219856Y-137978057D02*
X96315094Y-138120914D01*
X96315094Y-138120914D02*
X96362713Y-138311390D01*
X96362713Y-138311390D02*
X96362713Y-138692342D01*
X96362713Y-138692342D02*
X96315094Y-138787580D01*
X96315094Y-138787580D02*
X96267475Y-138835200D01*
X96267475Y-138835200D02*
X96172237Y-138882819D01*
X96172237Y-138882819D02*
X95981761Y-138882819D01*
X95981761Y-138882819D02*
X95886523Y-138835200D01*
X95886523Y-138835200D02*
X95838904Y-138787580D01*
X95838904Y-138787580D02*
X95791285Y-138692342D01*
X95791285Y-138692342D02*
X95791285Y-138454247D01*
X95791285Y-138454247D02*
X95838904Y-138359009D01*
X95838904Y-138359009D02*
X95886523Y-138311390D01*
X95886523Y-138311390D02*
X95981761Y-138263771D01*
X95981761Y-138263771D02*
X96172237Y-138263771D01*
X96172237Y-138263771D02*
X96267475Y-138311390D01*
X96267475Y-138311390D02*
X96315094Y-138359009D01*
X96315094Y-138359009D02*
X96362713Y-138454247D01*
X122654819Y-177805714D02*
X121654819Y-177805714D01*
X121654819Y-177805714D02*
X121654819Y-178043809D01*
X121654819Y-178043809D02*
X121702438Y-178186666D01*
X121702438Y-178186666D02*
X121797676Y-178281904D01*
X121797676Y-178281904D02*
X121892914Y-178329523D01*
X121892914Y-178329523D02*
X122083390Y-178377142D01*
X122083390Y-178377142D02*
X122226247Y-178377142D01*
X122226247Y-178377142D02*
X122416723Y-178329523D01*
X122416723Y-178329523D02*
X122511961Y-178281904D01*
X122511961Y-178281904D02*
X122607200Y-178186666D01*
X122607200Y-178186666D02*
X122654819Y-178043809D01*
X122654819Y-178043809D02*
X122654819Y-177805714D01*
X121654819Y-178710476D02*
X121654819Y-179329523D01*
X121654819Y-179329523D02*
X122035771Y-178996190D01*
X122035771Y-178996190D02*
X122035771Y-179139047D01*
X122035771Y-179139047D02*
X122083390Y-179234285D01*
X122083390Y-179234285D02*
X122131009Y-179281904D01*
X122131009Y-179281904D02*
X122226247Y-179329523D01*
X122226247Y-179329523D02*
X122464342Y-179329523D01*
X122464342Y-179329523D02*
X122559580Y-179281904D01*
X122559580Y-179281904D02*
X122607200Y-179234285D01*
X122607200Y-179234285D02*
X122654819Y-179139047D01*
X122654819Y-179139047D02*
X122654819Y-178853333D01*
X122654819Y-178853333D02*
X122607200Y-178758095D01*
X122607200Y-178758095D02*
X122559580Y-178710476D01*
X121654819Y-179662857D02*
X121654819Y-180281904D01*
X121654819Y-180281904D02*
X122035771Y-179948571D01*
X122035771Y-179948571D02*
X122035771Y-180091428D01*
X122035771Y-180091428D02*
X122083390Y-180186666D01*
X122083390Y-180186666D02*
X122131009Y-180234285D01*
X122131009Y-180234285D02*
X122226247Y-180281904D01*
X122226247Y-180281904D02*
X122464342Y-180281904D01*
X122464342Y-180281904D02*
X122559580Y-180234285D01*
X122559580Y-180234285D02*
X122607200Y-180186666D01*
X122607200Y-180186666D02*
X122654819Y-180091428D01*
X122654819Y-180091428D02*
X122654819Y-179805714D01*
X122654819Y-179805714D02*
X122607200Y-179710476D01*
X122607200Y-179710476D02*
X122559580Y-179662857D01*
X103654819Y-158805714D02*
X102654819Y-158805714D01*
X102654819Y-158805714D02*
X102654819Y-159043809D01*
X102654819Y-159043809D02*
X102702438Y-159186666D01*
X102702438Y-159186666D02*
X102797676Y-159281904D01*
X102797676Y-159281904D02*
X102892914Y-159329523D01*
X102892914Y-159329523D02*
X103083390Y-159377142D01*
X103083390Y-159377142D02*
X103226247Y-159377142D01*
X103226247Y-159377142D02*
X103416723Y-159329523D01*
X103416723Y-159329523D02*
X103511961Y-159281904D01*
X103511961Y-159281904D02*
X103607200Y-159186666D01*
X103607200Y-159186666D02*
X103654819Y-159043809D01*
X103654819Y-159043809D02*
X103654819Y-158805714D01*
X103654819Y-160329523D02*
X103654819Y-159758095D01*
X103654819Y-160043809D02*
X102654819Y-160043809D01*
X102654819Y-160043809D02*
X102797676Y-159948571D01*
X102797676Y-159948571D02*
X102892914Y-159853333D01*
X102892914Y-159853333D02*
X102940533Y-159758095D01*
X102654819Y-160662857D02*
X102654819Y-161329523D01*
X102654819Y-161329523D02*
X103654819Y-160900952D01*
X122654819Y-158805714D02*
X121654819Y-158805714D01*
X121654819Y-158805714D02*
X121654819Y-159043809D01*
X121654819Y-159043809D02*
X121702438Y-159186666D01*
X121702438Y-159186666D02*
X121797676Y-159281904D01*
X121797676Y-159281904D02*
X121892914Y-159329523D01*
X121892914Y-159329523D02*
X122083390Y-159377142D01*
X122083390Y-159377142D02*
X122226247Y-159377142D01*
X122226247Y-159377142D02*
X122416723Y-159329523D01*
X122416723Y-159329523D02*
X122511961Y-159281904D01*
X122511961Y-159281904D02*
X122607200Y-159186666D01*
X122607200Y-159186666D02*
X122654819Y-159043809D01*
X122654819Y-159043809D02*
X122654819Y-158805714D01*
X122654819Y-160329523D02*
X122654819Y-159758095D01*
X122654819Y-160043809D02*
X121654819Y-160043809D01*
X121654819Y-160043809D02*
X121797676Y-159948571D01*
X121797676Y-159948571D02*
X121892914Y-159853333D01*
X121892914Y-159853333D02*
X121940533Y-159758095D01*
X122083390Y-160900952D02*
X122035771Y-160805714D01*
X122035771Y-160805714D02*
X121988152Y-160758095D01*
X121988152Y-160758095D02*
X121892914Y-160710476D01*
X121892914Y-160710476D02*
X121845295Y-160710476D01*
X121845295Y-160710476D02*
X121750057Y-160758095D01*
X121750057Y-160758095D02*
X121702438Y-160805714D01*
X121702438Y-160805714D02*
X121654819Y-160900952D01*
X121654819Y-160900952D02*
X121654819Y-161091428D01*
X121654819Y-161091428D02*
X121702438Y-161186666D01*
X121702438Y-161186666D02*
X121750057Y-161234285D01*
X121750057Y-161234285D02*
X121845295Y-161281904D01*
X121845295Y-161281904D02*
X121892914Y-161281904D01*
X121892914Y-161281904D02*
X121988152Y-161234285D01*
X121988152Y-161234285D02*
X122035771Y-161186666D01*
X122035771Y-161186666D02*
X122083390Y-161091428D01*
X122083390Y-161091428D02*
X122083390Y-160900952D01*
X122083390Y-160900952D02*
X122131009Y-160805714D01*
X122131009Y-160805714D02*
X122178628Y-160758095D01*
X122178628Y-160758095D02*
X122273866Y-160710476D01*
X122273866Y-160710476D02*
X122464342Y-160710476D01*
X122464342Y-160710476D02*
X122559580Y-160758095D01*
X122559580Y-160758095D02*
X122607200Y-160805714D01*
X122607200Y-160805714D02*
X122654819Y-160900952D01*
X122654819Y-160900952D02*
X122654819Y-161091428D01*
X122654819Y-161091428D02*
X122607200Y-161186666D01*
X122607200Y-161186666D02*
X122559580Y-161234285D01*
X122559580Y-161234285D02*
X122464342Y-161281904D01*
X122464342Y-161281904D02*
X122273866Y-161281904D01*
X122273866Y-161281904D02*
X122178628Y-161234285D01*
X122178628Y-161234285D02*
X122131009Y-161186666D01*
X122131009Y-161186666D02*
X122083390Y-161091428D01*
X84654819Y-140339905D02*
X83654819Y-140339905D01*
X83654819Y-140339905D02*
X83654819Y-140578000D01*
X83654819Y-140578000D02*
X83702438Y-140720857D01*
X83702438Y-140720857D02*
X83797676Y-140816095D01*
X83797676Y-140816095D02*
X83892914Y-140863714D01*
X83892914Y-140863714D02*
X84083390Y-140911333D01*
X84083390Y-140911333D02*
X84226247Y-140911333D01*
X84226247Y-140911333D02*
X84416723Y-140863714D01*
X84416723Y-140863714D02*
X84511961Y-140816095D01*
X84511961Y-140816095D02*
X84607200Y-140720857D01*
X84607200Y-140720857D02*
X84654819Y-140578000D01*
X84654819Y-140578000D02*
X84654819Y-140339905D01*
X84654819Y-141863714D02*
X84654819Y-141292286D01*
X84654819Y-141578000D02*
X83654819Y-141578000D01*
X83654819Y-141578000D02*
X83797676Y-141482762D01*
X83797676Y-141482762D02*
X83892914Y-141387524D01*
X83892914Y-141387524D02*
X83940533Y-141292286D01*
X84718819Y-158851714D02*
X83718819Y-158851714D01*
X83718819Y-158851714D02*
X83718819Y-159089809D01*
X83718819Y-159089809D02*
X83766438Y-159232666D01*
X83766438Y-159232666D02*
X83861676Y-159327904D01*
X83861676Y-159327904D02*
X83956914Y-159375523D01*
X83956914Y-159375523D02*
X84147390Y-159423142D01*
X84147390Y-159423142D02*
X84290247Y-159423142D01*
X84290247Y-159423142D02*
X84480723Y-159375523D01*
X84480723Y-159375523D02*
X84575961Y-159327904D01*
X84575961Y-159327904D02*
X84671200Y-159232666D01*
X84671200Y-159232666D02*
X84718819Y-159089809D01*
X84718819Y-159089809D02*
X84718819Y-158851714D01*
X84718819Y-160375523D02*
X84718819Y-159804095D01*
X84718819Y-160089809D02*
X83718819Y-160089809D01*
X83718819Y-160089809D02*
X83861676Y-159994571D01*
X83861676Y-159994571D02*
X83956914Y-159899333D01*
X83956914Y-159899333D02*
X84004533Y-159804095D01*
X83718819Y-161232666D02*
X83718819Y-161042190D01*
X83718819Y-161042190D02*
X83766438Y-160946952D01*
X83766438Y-160946952D02*
X83814057Y-160899333D01*
X83814057Y-160899333D02*
X83956914Y-160804095D01*
X83956914Y-160804095D02*
X84147390Y-160756476D01*
X84147390Y-160756476D02*
X84528342Y-160756476D01*
X84528342Y-160756476D02*
X84623580Y-160804095D01*
X84623580Y-160804095D02*
X84671200Y-160851714D01*
X84671200Y-160851714D02*
X84718819Y-160946952D01*
X84718819Y-160946952D02*
X84718819Y-161137428D01*
X84718819Y-161137428D02*
X84671200Y-161232666D01*
X84671200Y-161232666D02*
X84623580Y-161280285D01*
X84623580Y-161280285D02*
X84528342Y-161327904D01*
X84528342Y-161327904D02*
X84290247Y-161327904D01*
X84290247Y-161327904D02*
X84195009Y-161280285D01*
X84195009Y-161280285D02*
X84147390Y-161232666D01*
X84147390Y-161232666D02*
X84099771Y-161137428D01*
X84099771Y-161137428D02*
X84099771Y-160946952D01*
X84099771Y-160946952D02*
X84147390Y-160851714D01*
X84147390Y-160851714D02*
X84195009Y-160804095D01*
X84195009Y-160804095D02*
X84290247Y-160756476D01*
X134272666Y-138882819D02*
X134605999Y-138406628D01*
X134844094Y-138882819D02*
X134844094Y-137882819D01*
X134844094Y-137882819D02*
X134463142Y-137882819D01*
X134463142Y-137882819D02*
X134367904Y-137930438D01*
X134367904Y-137930438D02*
X134320285Y-137978057D01*
X134320285Y-137978057D02*
X134272666Y-138073295D01*
X134272666Y-138073295D02*
X134272666Y-138216152D01*
X134272666Y-138216152D02*
X134320285Y-138311390D01*
X134320285Y-138311390D02*
X134367904Y-138359009D01*
X134367904Y-138359009D02*
X134463142Y-138406628D01*
X134463142Y-138406628D02*
X134844094Y-138406628D01*
X133701237Y-138311390D02*
X133796475Y-138263771D01*
X133796475Y-138263771D02*
X133844094Y-138216152D01*
X133844094Y-138216152D02*
X133891713Y-138120914D01*
X133891713Y-138120914D02*
X133891713Y-138073295D01*
X133891713Y-138073295D02*
X133844094Y-137978057D01*
X133844094Y-137978057D02*
X133796475Y-137930438D01*
X133796475Y-137930438D02*
X133701237Y-137882819D01*
X133701237Y-137882819D02*
X133510761Y-137882819D01*
X133510761Y-137882819D02*
X133415523Y-137930438D01*
X133415523Y-137930438D02*
X133367904Y-137978057D01*
X133367904Y-137978057D02*
X133320285Y-138073295D01*
X133320285Y-138073295D02*
X133320285Y-138120914D01*
X133320285Y-138120914D02*
X133367904Y-138216152D01*
X133367904Y-138216152D02*
X133415523Y-138263771D01*
X133415523Y-138263771D02*
X133510761Y-138311390D01*
X133510761Y-138311390D02*
X133701237Y-138311390D01*
X133701237Y-138311390D02*
X133796475Y-138359009D01*
X133796475Y-138359009D02*
X133844094Y-138406628D01*
X133844094Y-138406628D02*
X133891713Y-138501866D01*
X133891713Y-138501866D02*
X133891713Y-138692342D01*
X133891713Y-138692342D02*
X133844094Y-138787580D01*
X133844094Y-138787580D02*
X133796475Y-138835200D01*
X133796475Y-138835200D02*
X133701237Y-138882819D01*
X133701237Y-138882819D02*
X133510761Y-138882819D01*
X133510761Y-138882819D02*
X133415523Y-138835200D01*
X133415523Y-138835200D02*
X133367904Y-138787580D01*
X133367904Y-138787580D02*
X133320285Y-138692342D01*
X133320285Y-138692342D02*
X133320285Y-138501866D01*
X133320285Y-138501866D02*
X133367904Y-138406628D01*
X133367904Y-138406628D02*
X133415523Y-138359009D01*
X133415523Y-138359009D02*
X133510761Y-138311390D01*
X122564819Y-140277905D02*
X121564819Y-140277905D01*
X121564819Y-140277905D02*
X121564819Y-140516000D01*
X121564819Y-140516000D02*
X121612438Y-140658857D01*
X121612438Y-140658857D02*
X121707676Y-140754095D01*
X121707676Y-140754095D02*
X121802914Y-140801714D01*
X121802914Y-140801714D02*
X121993390Y-140849333D01*
X121993390Y-140849333D02*
X122136247Y-140849333D01*
X122136247Y-140849333D02*
X122326723Y-140801714D01*
X122326723Y-140801714D02*
X122421961Y-140754095D01*
X122421961Y-140754095D02*
X122517200Y-140658857D01*
X122517200Y-140658857D02*
X122564819Y-140516000D01*
X122564819Y-140516000D02*
X122564819Y-140277905D01*
X121564819Y-141182667D02*
X121564819Y-141801714D01*
X121564819Y-141801714D02*
X121945771Y-141468381D01*
X121945771Y-141468381D02*
X121945771Y-141611238D01*
X121945771Y-141611238D02*
X121993390Y-141706476D01*
X121993390Y-141706476D02*
X122041009Y-141754095D01*
X122041009Y-141754095D02*
X122136247Y-141801714D01*
X122136247Y-141801714D02*
X122374342Y-141801714D01*
X122374342Y-141801714D02*
X122469580Y-141754095D01*
X122469580Y-141754095D02*
X122517200Y-141706476D01*
X122517200Y-141706476D02*
X122564819Y-141611238D01*
X122564819Y-141611238D02*
X122564819Y-141325524D01*
X122564819Y-141325524D02*
X122517200Y-141230286D01*
X122517200Y-141230286D02*
X122469580Y-141182667D01*
X85954819Y-180535714D02*
X84954819Y-180535714D01*
X84954819Y-180535714D02*
X84954819Y-180773809D01*
X84954819Y-180773809D02*
X85002438Y-180916666D01*
X85002438Y-180916666D02*
X85097676Y-181011904D01*
X85097676Y-181011904D02*
X85192914Y-181059523D01*
X85192914Y-181059523D02*
X85383390Y-181107142D01*
X85383390Y-181107142D02*
X85526247Y-181107142D01*
X85526247Y-181107142D02*
X85716723Y-181059523D01*
X85716723Y-181059523D02*
X85811961Y-181011904D01*
X85811961Y-181011904D02*
X85907200Y-180916666D01*
X85907200Y-180916666D02*
X85954819Y-180773809D01*
X85954819Y-180773809D02*
X85954819Y-180535714D01*
X84954819Y-181440476D02*
X84954819Y-182059523D01*
X84954819Y-182059523D02*
X85335771Y-181726190D01*
X85335771Y-181726190D02*
X85335771Y-181869047D01*
X85335771Y-181869047D02*
X85383390Y-181964285D01*
X85383390Y-181964285D02*
X85431009Y-182011904D01*
X85431009Y-182011904D02*
X85526247Y-182059523D01*
X85526247Y-182059523D02*
X85764342Y-182059523D01*
X85764342Y-182059523D02*
X85859580Y-182011904D01*
X85859580Y-182011904D02*
X85907200Y-181964285D01*
X85907200Y-181964285D02*
X85954819Y-181869047D01*
X85954819Y-181869047D02*
X85954819Y-181583333D01*
X85954819Y-181583333D02*
X85907200Y-181488095D01*
X85907200Y-181488095D02*
X85859580Y-181440476D01*
X85954819Y-183011904D02*
X85954819Y-182440476D01*
X85954819Y-182726190D02*
X84954819Y-182726190D01*
X84954819Y-182726190D02*
X85097676Y-182630952D01*
X85097676Y-182630952D02*
X85192914Y-182535714D01*
X85192914Y-182535714D02*
X85240533Y-182440476D01*
X115285666Y-138882819D02*
X115618999Y-138406628D01*
X115857094Y-138882819D02*
X115857094Y-137882819D01*
X115857094Y-137882819D02*
X115476142Y-137882819D01*
X115476142Y-137882819D02*
X115380904Y-137930438D01*
X115380904Y-137930438D02*
X115333285Y-137978057D01*
X115333285Y-137978057D02*
X115285666Y-138073295D01*
X115285666Y-138073295D02*
X115285666Y-138216152D01*
X115285666Y-138216152D02*
X115333285Y-138311390D01*
X115333285Y-138311390D02*
X115380904Y-138359009D01*
X115380904Y-138359009D02*
X115476142Y-138406628D01*
X115476142Y-138406628D02*
X115857094Y-138406628D01*
X114952332Y-137882819D02*
X114285666Y-137882819D01*
X114285666Y-137882819D02*
X114714237Y-138882819D01*
X103654819Y-140277905D02*
X102654819Y-140277905D01*
X102654819Y-140277905D02*
X102654819Y-140516000D01*
X102654819Y-140516000D02*
X102702438Y-140658857D01*
X102702438Y-140658857D02*
X102797676Y-140754095D01*
X102797676Y-140754095D02*
X102892914Y-140801714D01*
X102892914Y-140801714D02*
X103083390Y-140849333D01*
X103083390Y-140849333D02*
X103226247Y-140849333D01*
X103226247Y-140849333D02*
X103416723Y-140801714D01*
X103416723Y-140801714D02*
X103511961Y-140754095D01*
X103511961Y-140754095D02*
X103607200Y-140658857D01*
X103607200Y-140658857D02*
X103654819Y-140516000D01*
X103654819Y-140516000D02*
X103654819Y-140277905D01*
X102750057Y-141230286D02*
X102702438Y-141277905D01*
X102702438Y-141277905D02*
X102654819Y-141373143D01*
X102654819Y-141373143D02*
X102654819Y-141611238D01*
X102654819Y-141611238D02*
X102702438Y-141706476D01*
X102702438Y-141706476D02*
X102750057Y-141754095D01*
X102750057Y-141754095D02*
X102845295Y-141801714D01*
X102845295Y-141801714D02*
X102940533Y-141801714D01*
X102940533Y-141801714D02*
X103083390Y-141754095D01*
X103083390Y-141754095D02*
X103654819Y-141182667D01*
X103654819Y-141182667D02*
X103654819Y-141801714D01*
%TO.C,SW1*%
X91035838Y-148383960D02*
G75*
G02*
X93500000Y-146459999I2464162J-616039D01*
G01*
X87150000Y-144555000D02*
G75*
G02*
X89690000Y-142015000I2540001J-1D01*
G01*
X98580000Y-146460000D02*
X93500000Y-146460000D01*
X98580000Y-145444000D02*
X98580000Y-146460000D01*
X98580000Y-142015000D02*
X98580000Y-142396000D01*
X91035838Y-148365000D02*
X89309000Y-148365000D01*
X89690000Y-142015000D02*
X98580000Y-142015000D01*
X87531000Y-148365000D02*
X87150000Y-148365000D01*
X87150000Y-147984000D02*
X87150000Y-148365000D01*
X87150000Y-144555000D02*
X87150000Y-144936000D01*
%TO.C,SW32*%
X110035838Y-186383960D02*
G75*
G02*
X112500000Y-184459999I2464162J-616039D01*
G01*
X106150000Y-182555000D02*
G75*
G02*
X108690000Y-180015000I2540001J-1D01*
G01*
X117580000Y-184460000D02*
X112500000Y-184460000D01*
X117580000Y-183444000D02*
X117580000Y-184460000D01*
X117580000Y-180015000D02*
X117580000Y-180396000D01*
X110035838Y-186365000D02*
X108309000Y-186365000D01*
X108690000Y-180015000D02*
X117580000Y-180015000D01*
X106531000Y-186365000D02*
X106150000Y-186365000D01*
X106150000Y-185984000D02*
X106150000Y-186365000D01*
X106150000Y-182555000D02*
X106150000Y-182936000D01*
%TO.C,SW18*%
X129035838Y-167383960D02*
G75*
G02*
X131500000Y-165459999I2464162J-616039D01*
G01*
X125150000Y-163555000D02*
G75*
G02*
X127690000Y-161015000I2540001J-1D01*
G01*
X136580000Y-165460000D02*
X131500000Y-165460000D01*
X136580000Y-164444000D02*
X136580000Y-165460000D01*
X136580000Y-161015000D02*
X136580000Y-161396000D01*
X129035838Y-167365000D02*
X127309000Y-167365000D01*
X127690000Y-161015000D02*
X136580000Y-161015000D01*
X125531000Y-167365000D02*
X125150000Y-167365000D01*
X125150000Y-166984000D02*
X125150000Y-167365000D01*
X125150000Y-163555000D02*
X125150000Y-163936000D01*
%TO.C,SW16*%
X91035838Y-167383960D02*
G75*
G02*
X93500000Y-165459999I2464162J-616039D01*
G01*
X87150000Y-163555000D02*
G75*
G02*
X89690000Y-161015000I2540001J-1D01*
G01*
X98580000Y-165460000D02*
X93500000Y-165460000D01*
X98580000Y-164444000D02*
X98580000Y-165460000D01*
X98580000Y-161015000D02*
X98580000Y-161396000D01*
X91035838Y-167365000D02*
X89309000Y-167365000D01*
X89690000Y-161015000D02*
X98580000Y-161015000D01*
X87531000Y-167365000D02*
X87150000Y-167365000D01*
X87150000Y-166984000D02*
X87150000Y-167365000D01*
X87150000Y-163555000D02*
X87150000Y-163936000D01*
%TO.C,SW17*%
X110035838Y-167383960D02*
G75*
G02*
X112500000Y-165459999I2464162J-616039D01*
G01*
X106150000Y-163555000D02*
G75*
G02*
X108690000Y-161015000I2540001J-1D01*
G01*
X117580000Y-165460000D02*
X112500000Y-165460000D01*
X117580000Y-164444000D02*
X117580000Y-165460000D01*
X117580000Y-161015000D02*
X117580000Y-161396000D01*
X110035838Y-167365000D02*
X108309000Y-167365000D01*
X108690000Y-161015000D02*
X117580000Y-161015000D01*
X106531000Y-167365000D02*
X106150000Y-167365000D01*
X106150000Y-166984000D02*
X106150000Y-167365000D01*
X106150000Y-163555000D02*
X106150000Y-163936000D01*
%TO.C,SW3*%
X129035838Y-148383960D02*
G75*
G02*
X131500000Y-146459999I2464162J-616039D01*
G01*
X125150000Y-144555000D02*
G75*
G02*
X127690000Y-142015000I2540001J-1D01*
G01*
X136580000Y-146460000D02*
X131500000Y-146460000D01*
X136580000Y-145444000D02*
X136580000Y-146460000D01*
X136580000Y-142015000D02*
X136580000Y-142396000D01*
X129035838Y-148365000D02*
X127309000Y-148365000D01*
X127690000Y-142015000D02*
X136580000Y-142015000D01*
X125531000Y-148365000D02*
X125150000Y-148365000D01*
X125150000Y-147984000D02*
X125150000Y-148365000D01*
X125150000Y-144555000D02*
X125150000Y-144936000D01*
%TO.C,SW31*%
X91035838Y-186383960D02*
G75*
G02*
X93500000Y-184459999I2464162J-616039D01*
G01*
X87150000Y-182555000D02*
G75*
G02*
X89690000Y-180015000I2540001J-1D01*
G01*
X98580000Y-184460000D02*
X93500000Y-184460000D01*
X98580000Y-183444000D02*
X98580000Y-184460000D01*
X98580000Y-180015000D02*
X98580000Y-180396000D01*
X91035838Y-186365000D02*
X89309000Y-186365000D01*
X89690000Y-180015000D02*
X98580000Y-180015000D01*
X87531000Y-186365000D02*
X87150000Y-186365000D01*
X87150000Y-185984000D02*
X87150000Y-186365000D01*
X87150000Y-182555000D02*
X87150000Y-182936000D01*
%TO.C,SW33*%
X129035838Y-186383960D02*
G75*
G02*
X131500000Y-184459999I2464162J-616039D01*
G01*
X125150000Y-182555000D02*
G75*
G02*
X127690000Y-180015000I2540001J-1D01*
G01*
X136580000Y-184460000D02*
X131500000Y-184460000D01*
X136580000Y-183444000D02*
X136580000Y-184460000D01*
X136580000Y-180015000D02*
X136580000Y-180396000D01*
X129035838Y-186365000D02*
X127309000Y-186365000D01*
X127690000Y-180015000D02*
X136580000Y-180015000D01*
X125531000Y-186365000D02*
X125150000Y-186365000D01*
X125150000Y-185984000D02*
X125150000Y-186365000D01*
X125150000Y-182555000D02*
X125150000Y-182936000D01*
%TO.C,SW2*%
X110035838Y-148383960D02*
G75*
G02*
X112500000Y-146459999I2464162J-616039D01*
G01*
X106150000Y-144555000D02*
G75*
G02*
X108690000Y-142015000I2540001J-1D01*
G01*
X117580000Y-146460000D02*
X112500000Y-146460000D01*
X117580000Y-145444000D02*
X117580000Y-146460000D01*
X117580000Y-142015000D02*
X117580000Y-142396000D01*
X110035838Y-148365000D02*
X108309000Y-148365000D01*
X108690000Y-142015000D02*
X117580000Y-142015000D01*
X106531000Y-148365000D02*
X106150000Y-148365000D01*
X106150000Y-147984000D02*
X106150000Y-148365000D01*
X106150000Y-144555000D02*
X106150000Y-144936000D01*
D11*
%TO.C,D32*%
X105100000Y-177760000D02*
X105100000Y-179720000D01*
X103900000Y-177760000D02*
X103900000Y-179720000D01*
X105100000Y-177760000D02*
X103900000Y-177760000D01*
%TO.C,R6*%
X94211258Y-137905500D02*
X93736742Y-137905500D01*
X94211258Y-138950500D02*
X93736742Y-138950500D01*
%TO.C,D33*%
X124100000Y-177760000D02*
X124100000Y-179720000D01*
X122900000Y-177760000D02*
X122900000Y-179720000D01*
X124100000Y-177760000D02*
X122900000Y-177760000D01*
%TO.C,D17*%
X105100000Y-158760000D02*
X105100000Y-160720000D01*
X103900000Y-158760000D02*
X103900000Y-160720000D01*
X105100000Y-158760000D02*
X103900000Y-158760000D01*
%TO.C,D18*%
X124100000Y-158760000D02*
X124100000Y-160720000D01*
X122900000Y-158760000D02*
X122900000Y-160720000D01*
X124100000Y-158760000D02*
X122900000Y-158760000D01*
%TO.C,D1*%
X86100000Y-139818000D02*
X86100000Y-141778000D01*
X84900000Y-139818000D02*
X84900000Y-141778000D01*
X86100000Y-139818000D02*
X84900000Y-139818000D01*
%TO.C,D16*%
X86164000Y-158806000D02*
X86164000Y-160766000D01*
X84964000Y-158806000D02*
X84964000Y-160766000D01*
X86164000Y-158806000D02*
X84964000Y-158806000D01*
%TO.C,R8*%
X131803258Y-137905500D02*
X131328742Y-137905500D01*
X131803258Y-138950500D02*
X131328742Y-138950500D01*
%TO.C,D3*%
X124010000Y-139756000D02*
X124010000Y-141716000D01*
X122810000Y-139756000D02*
X122810000Y-141716000D01*
X124010000Y-139756000D02*
X122810000Y-139756000D01*
%TO.C,D31*%
X86100000Y-177540000D02*
X86100000Y-179500000D01*
X84900000Y-177540000D02*
X84900000Y-179500000D01*
X86100000Y-177540000D02*
X84900000Y-177540000D01*
%TO.C,R7*%
X112753258Y-137905500D02*
X112278742Y-137905500D01*
X112753258Y-138950500D02*
X112278742Y-138950500D01*
%TO.C,D2*%
X105100000Y-139756000D02*
X105100000Y-141716000D01*
X103900000Y-139756000D02*
X103900000Y-141716000D01*
X105100000Y-139756000D02*
X103900000Y-139756000D01*
%TD*%
M02*
