M48
; DRILL file {KiCad 8.0.4} date 2024-10-31T19:57:58+0100
; FORMAT={-:-/ absolute / inch / decimal}
; #@! TF.CreationDate,2024-10-31T19:57:58+01:00
; #@! TF.GenerationSoftware,Kicad,Pcbnew,8.0.4
; #@! TF.FileFunction,Plated,1,4,PTH
FMAT,2
INCH
; #@! TA.AperFunction,Plated,PTH,ViaDrill
T1C0.0118
; #@! TA.AperFunction,Plated,PTH,ComponentDrill
T2C0.0236
; #@! TA.AperFunction,Plated,PTH,ComponentDrill
T3C0.0315
; #@! TA.AperFunction,Plated,PTH,ComponentDrill
T4C0.0354
; #@! TA.AperFunction,Plated,PTH,ComponentDrill
T5C0.0394
; #@! TA.AperFunction,Plated,PTH,ComponentDrill
T6C0.0591
%
G90
G05
T1
X3.0305Y-3.5549
X3.0305Y-3.8305
X3.0305Y-4.1061
X3.0305Y-4.3817
X3.0305Y-4.6573
X3.0305Y-4.9329
X3.0305Y-5.2085
X3.0305Y-5.4841
X3.0305Y-5.7596
X3.0305Y-6.0352
X3.0305Y-6.3108
X3.0305Y-6.5864
X3.0305Y-6.862
X3.0305Y-7.1376
X3.0305Y-7.4132
X3.1594Y-4.0748
X3.1594Y-4.1634
X3.2677Y-3.5531
X3.2972Y-4.1142
X3.3061Y-3.2793
X3.3061Y-3.8305
X3.3061Y-4.3817
X3.3061Y-4.6573
X3.3061Y-4.9329
X3.3061Y-5.2085
X3.3061Y-5.4841
X3.3061Y-7.1376
X3.3061Y-7.4132
X3.3061Y-7.6888
X3.3661Y-5.0591
X3.4055Y-4.7047
X3.4154Y-4.1142
X3.4449Y-4.872
X3.4941Y-4.0354
X3.4941Y-4.1634
X3.4941Y-4.2323
X3.4941Y-4.3012
X3.5531Y-4.3602
X3.5817Y-3.2793
X3.5817Y-3.5549
X3.5817Y-3.8305
X3.5817Y-5.2085
X3.5817Y-6.0352
X3.5817Y-6.3108
X3.5817Y-6.862
X3.5817Y-7.1376
X3.5817Y-7.6888
X3.5925Y-4.2028
X3.5925Y-4.2717
X3.6417Y-3.4843
X3.6417Y-3.9862
X3.6614Y-4.6457
X3.6614Y-5.0591
X3.6713Y-4.8622
X3.7008Y-4.3504
X3.7549Y-4.2323
X3.7697Y-4.0256
X3.7697Y-4.1732
X3.7795Y-3.7795
X3.7795Y-3.9075
X3.7795Y-4.2039
X3.7992Y-3.5531
X3.7992Y-4.6063
X3.8091Y-3.8091
X3.8091Y-4.9114
X3.814Y-4.0748
X3.814Y-4.3652
X3.8386Y-4.0354
X3.8386Y-4.3898
X3.8573Y-3.2793
X3.8573Y-5.4841
X3.8573Y-5.7596
X3.8573Y-6.0352
X3.8573Y-6.3108
X3.8573Y-6.862
X3.8573Y-7.6888
X3.8583Y-5.0
X3.8642Y-3.8583
X3.8898Y-4.0604
X3.8976Y-4.252
X3.9146Y-4.0797
X3.9429Y-4.0453
X3.9567Y-4.252
X3.9567Y-4.3406
X3.9764Y-3.9075
X3.9833Y-4.0261
X3.9835Y-4.0909
X4.0354Y-5.9055
X4.0354Y-6.6732
X4.0551Y-3.8287
X4.0551Y-5.2756
X4.065Y-3.4843
X4.0748Y-4.0453
X4.1329Y-3.2793
X4.1329Y-3.5549
X4.1329Y-3.8305
X4.1329Y-4.9329
X4.1329Y-5.2085
X4.1329Y-6.0352
X4.1329Y-6.862
X4.1329Y-7.6888
X4.1535Y-5.2756
X4.1634Y-4.3209
X4.1805Y-3.9593
X4.1831Y-3.8878
X4.2323Y-3.5531
X4.3307Y-5.0394
X4.3799Y-3.937
X4.4085Y-3.2793
X4.4085Y-4.6573
X4.4085Y-4.9329
X4.4085Y-5.2085
X4.4085Y-6.0352
X4.4085Y-6.3108
X4.4085Y-6.862
X4.4085Y-7.1376
X4.4085Y-7.6888
X4.498Y-3.4843
X4.5276Y-4.5472
X4.5669Y-3.5827
X4.5768Y-3.7402
X4.6555Y-3.1988
X4.6555Y-3.3366
X4.6841Y-3.8305
X4.6841Y-4.9329
X4.6841Y-5.2085
X4.6841Y-5.4841
X4.6841Y-6.0352
X4.6841Y-6.3108
X4.6841Y-6.862
X4.6841Y-7.6888
X4.685Y-3.4843
X4.685Y-4.6457
X4.7244Y-5.8661
X4.7244Y-6.6142
X4.9596Y-4.6573
X4.9596Y-4.9329
X4.9596Y-5.2085
X4.9596Y-6.0352
X4.9596Y-6.3108
X4.9596Y-6.862
X4.9596Y-7.1376
X4.9596Y-7.6888
X5.0197Y-4.3209
X5.0394Y-3.9272
X5.0886Y-3.2677
X5.1969Y-3.7598
X5.1969Y-3.8386
X5.2352Y-4.3817
X5.2352Y-4.6573
X5.2352Y-4.9329
X5.2352Y-5.2085
X5.2352Y-5.7596
X5.2352Y-6.0352
X5.2352Y-6.3108
X5.2352Y-6.862
X5.2352Y-7.6888
X5.2657Y-3.937
X5.2756Y-3.5039
X5.2953Y-3.3563
X5.2953Y-4.3602
X5.3346Y-3.1299
X5.3543Y-3.2579
X5.4035Y-3.9961
X5.4528Y-5.8858
X5.4528Y-6.6732
X5.4823Y-5.1969
X5.5108Y-4.1061
X5.5108Y-4.6573
X5.5108Y-4.9329
X5.5108Y-5.7596
X5.5108Y-6.0352
X5.5108Y-6.3108
X5.5108Y-6.5864
X5.5108Y-6.862
X5.5108Y-7.4132
X5.5108Y-7.6888
X5.5118Y-3.1299
X5.5118Y-5.3543
X5.5315Y-5.1969
X5.5512Y-5.4429
X5.561Y-3.3661
X5.561Y-3.4941
X5.6496Y-3.5728
X5.7864Y-3.2793
X5.7864Y-3.5549
X5.7864Y-4.1061
X5.7864Y-4.3817
X5.7864Y-4.6573
X5.7864Y-4.9329
X5.7864Y-5.2085
X5.7864Y-5.4841
X5.7864Y-5.7596
X5.7864Y-6.0352
X5.7864Y-6.3108
X5.7864Y-6.5864
X5.7864Y-6.862
X5.7864Y-7.1376
X5.7864Y-7.4132
X5.7864Y-7.6888
X5.7972Y-3.8386
X5.8465Y-3.4154
X5.8661Y-4.5571
T3
X3.4081Y-4.0182
X3.4081Y-4.2103
T4
X4.8415Y-4.1732
X4.8819Y-3.2677
X4.9415Y-4.1732
X4.9819Y-3.2677
X5.1575Y-4.1732
X5.2575Y-4.1732
X5.4724Y-4.1732
X5.5724Y-4.1732
T5
X3.2674Y-3.4793
X3.3674Y-3.4793
X3.4674Y-3.4793
X3.5674Y-3.4793
X3.75Y-4.7638
X3.75Y-4.8622
X3.75Y-4.9606
X3.7976Y-3.4793
X3.8976Y-3.4793
X3.9976Y-3.4793
X4.2276Y-3.4793
X4.3209Y-4.7638
X4.3209Y-4.9606
X4.3276Y-3.4793
X4.4276Y-3.4793
T2
G00X5.263Y-3.1427
M15
G01X5.263Y-3.1112
M16
G05
G00X5.263Y-3.3132
M15
G01X5.263Y-3.2699
M16
G05
G00X5.6031Y-3.1427
M15
G01X5.6031Y-3.1112
M16
G05
G00X5.6031Y-3.3132
M15
G01X5.6031Y-3.2699
M16
G05
T6
G00X4.0197Y-4.6417
M15
G01X4.0709Y-4.6417
M16
G05
G00X4.0197Y-5.0827
M15
G01X4.0709Y-5.0827
M16
G05
M30
