%TF.GenerationSoftware,KiCad,Pcbnew,8.0.4*%
%TF.CreationDate,2024-10-31T19:52:33+01:00*%
%TF.ProjectId,Keyboard,4b657962-6f61-4726-942e-6b696361645f,rev?*%
%TF.SameCoordinates,Original*%
%TF.FileFunction,Legend,Top*%
%TF.FilePolarity,Positive*%
%FSLAX46Y46*%
G04 Gerber Fmt 4.6, Leading zero omitted, Abs format (unit mm)*
G04 Created by KiCad (PCBNEW 8.0.4) date 2024-10-31 19:52:33*
%MOMM*%
%LPD*%
G01*
G04 APERTURE LIST*
%ADD10C,0.200000*%
%ADD11C,0.150000*%
%ADD12C,0.000000*%
%ADD13C,0.120000*%
G04 APERTURE END LIST*
D10*
X125487812Y-100463495D02*
X124982736Y-99958419D01*
X124982736Y-99958419D02*
X126043396Y-98897759D01*
X126396950Y-100261465D02*
X126750503Y-100615018D01*
X126346442Y-101322125D02*
X125841366Y-100817049D01*
X125841366Y-100817049D02*
X126902026Y-99756389D01*
X126902026Y-99756389D02*
X127407102Y-100261465D01*
X126801011Y-101776694D02*
X127861671Y-100716034D01*
X127861671Y-100716034D02*
X128114209Y-100968572D01*
X128114209Y-100968572D02*
X128215224Y-101170602D01*
X128215224Y-101170602D02*
X128215224Y-101372633D01*
X128215224Y-101372633D02*
X128164717Y-101524156D01*
X128164717Y-101524156D02*
X128013194Y-101776694D01*
X128013194Y-101776694D02*
X127861671Y-101928217D01*
X127861671Y-101928217D02*
X127609133Y-102079739D01*
X127609133Y-102079739D02*
X127457610Y-102130247D01*
X127457610Y-102130247D02*
X127255579Y-102130247D01*
X127255579Y-102130247D02*
X127053549Y-102029232D01*
X127053549Y-102029232D02*
X126801011Y-101776694D01*
X127508118Y-102685831D02*
X128316240Y-103493953D01*
X129578930Y-102635323D02*
X129679945Y-102635323D01*
X129679945Y-102635323D02*
X129831468Y-102685831D01*
X129831468Y-102685831D02*
X130084006Y-102938369D01*
X130084006Y-102938369D02*
X130134514Y-103089892D01*
X130134514Y-103089892D02*
X130134514Y-103190907D01*
X130134514Y-103190907D02*
X130084006Y-103342430D01*
X130084006Y-103342430D02*
X129982991Y-103443445D01*
X129982991Y-103443445D02*
X129780961Y-103544461D01*
X129780961Y-103544461D02*
X128568778Y-103544461D01*
X128568778Y-103544461D02*
X129225377Y-104201060D01*
X132987812Y-100713495D02*
X132482736Y-100208419D01*
X132482736Y-100208419D02*
X133543396Y-99147759D01*
X133896950Y-100511465D02*
X134250503Y-100865018D01*
X133846442Y-101572125D02*
X133341366Y-101067049D01*
X133341366Y-101067049D02*
X134402026Y-100006389D01*
X134402026Y-100006389D02*
X134907102Y-100511465D01*
X134301011Y-102026694D02*
X135361671Y-100966034D01*
X135361671Y-100966034D02*
X135614209Y-101218572D01*
X135614209Y-101218572D02*
X135715224Y-101420602D01*
X135715224Y-101420602D02*
X135715224Y-101622633D01*
X135715224Y-101622633D02*
X135664717Y-101774156D01*
X135664717Y-101774156D02*
X135513194Y-102026694D01*
X135513194Y-102026694D02*
X135361671Y-102178217D01*
X135361671Y-102178217D02*
X135109133Y-102329739D01*
X135109133Y-102329739D02*
X134957610Y-102380247D01*
X134957610Y-102380247D02*
X134755579Y-102380247D01*
X134755579Y-102380247D02*
X134553549Y-102279232D01*
X134553549Y-102279232D02*
X134301011Y-102026694D01*
X135008118Y-102935831D02*
X135816240Y-103743953D01*
X136725377Y-104451060D02*
X136119285Y-103844968D01*
X136422331Y-104148014D02*
X137482991Y-103087354D01*
X137482991Y-103087354D02*
X137230453Y-103137861D01*
X137230453Y-103137861D02*
X137028422Y-103137861D01*
X137028422Y-103137861D02*
X136876900Y-103087354D01*
X140987812Y-100463495D02*
X140482736Y-99958419D01*
X140482736Y-99958419D02*
X141543396Y-98897759D01*
X141896950Y-100261465D02*
X142250503Y-100615018D01*
X141846442Y-101322125D02*
X141341366Y-100817049D01*
X141341366Y-100817049D02*
X142402026Y-99756389D01*
X142402026Y-99756389D02*
X142907102Y-100261465D01*
X142301011Y-101776694D02*
X143361671Y-100716034D01*
X143361671Y-100716034D02*
X143614209Y-100968572D01*
X143614209Y-100968572D02*
X143715224Y-101170602D01*
X143715224Y-101170602D02*
X143715224Y-101372633D01*
X143715224Y-101372633D02*
X143664717Y-101524156D01*
X143664717Y-101524156D02*
X143513194Y-101776694D01*
X143513194Y-101776694D02*
X143361671Y-101928217D01*
X143361671Y-101928217D02*
X143109133Y-102079739D01*
X143109133Y-102079739D02*
X142957610Y-102130247D01*
X142957610Y-102130247D02*
X142755579Y-102130247D01*
X142755579Y-102130247D02*
X142553549Y-102029232D01*
X142553549Y-102029232D02*
X142301011Y-101776694D01*
X143008118Y-102685831D02*
X143816240Y-103493953D01*
X145432484Y-102786846D02*
X145533499Y-102887861D01*
X145533499Y-102887861D02*
X145584006Y-103039384D01*
X145584006Y-103039384D02*
X145584006Y-103140400D01*
X145584006Y-103140400D02*
X145533499Y-103291922D01*
X145533499Y-103291922D02*
X145381976Y-103544461D01*
X145381976Y-103544461D02*
X145129438Y-103796999D01*
X145129438Y-103796999D02*
X144876900Y-103948522D01*
X144876900Y-103948522D02*
X144725377Y-103999029D01*
X144725377Y-103999029D02*
X144624361Y-103999029D01*
X144624361Y-103999029D02*
X144472839Y-103948522D01*
X144472839Y-103948522D02*
X144371823Y-103847506D01*
X144371823Y-103847506D02*
X144321316Y-103695983D01*
X144321316Y-103695983D02*
X144321316Y-103594968D01*
X144321316Y-103594968D02*
X144371823Y-103443445D01*
X144371823Y-103443445D02*
X144523346Y-103190907D01*
X144523346Y-103190907D02*
X144775884Y-102938369D01*
X144775884Y-102938369D02*
X145028422Y-102786846D01*
X145028422Y-102786846D02*
X145179945Y-102736339D01*
X145179945Y-102736339D02*
X145280961Y-102736339D01*
X145280961Y-102736339D02*
X145432484Y-102786846D01*
D11*
X81454819Y-105142857D02*
X80978628Y-105476190D01*
X81454819Y-105714285D02*
X80454819Y-105714285D01*
X80454819Y-105714285D02*
X80454819Y-105333333D01*
X80454819Y-105333333D02*
X80502438Y-105238095D01*
X80502438Y-105238095D02*
X80550057Y-105190476D01*
X80550057Y-105190476D02*
X80645295Y-105142857D01*
X80645295Y-105142857D02*
X80788152Y-105142857D01*
X80788152Y-105142857D02*
X80883390Y-105190476D01*
X80883390Y-105190476D02*
X80931009Y-105238095D01*
X80931009Y-105238095D02*
X80978628Y-105333333D01*
X80978628Y-105333333D02*
X80978628Y-105714285D01*
X81454819Y-104190476D02*
X81454819Y-104761904D01*
X81454819Y-104476190D02*
X80454819Y-104476190D01*
X80454819Y-104476190D02*
X80597676Y-104571428D01*
X80597676Y-104571428D02*
X80692914Y-104666666D01*
X80692914Y-104666666D02*
X80740533Y-104761904D01*
X80454819Y-103857142D02*
X80454819Y-103238095D01*
X80454819Y-103238095D02*
X80835771Y-103571428D01*
X80835771Y-103571428D02*
X80835771Y-103428571D01*
X80835771Y-103428571D02*
X80883390Y-103333333D01*
X80883390Y-103333333D02*
X80931009Y-103285714D01*
X80931009Y-103285714D02*
X81026247Y-103238095D01*
X81026247Y-103238095D02*
X81264342Y-103238095D01*
X81264342Y-103238095D02*
X81359580Y-103285714D01*
X81359580Y-103285714D02*
X81407200Y-103333333D01*
X81407200Y-103333333D02*
X81454819Y-103428571D01*
X81454819Y-103428571D02*
X81454819Y-103714285D01*
X81454819Y-103714285D02*
X81407200Y-103809523D01*
X81407200Y-103809523D02*
X81359580Y-103857142D01*
X112357142Y-100024819D02*
X112023809Y-99548628D01*
X111785714Y-100024819D02*
X111785714Y-99024819D01*
X111785714Y-99024819D02*
X112166666Y-99024819D01*
X112166666Y-99024819D02*
X112261904Y-99072438D01*
X112261904Y-99072438D02*
X112309523Y-99120057D01*
X112309523Y-99120057D02*
X112357142Y-99215295D01*
X112357142Y-99215295D02*
X112357142Y-99358152D01*
X112357142Y-99358152D02*
X112309523Y-99453390D01*
X112309523Y-99453390D02*
X112261904Y-99501009D01*
X112261904Y-99501009D02*
X112166666Y-99548628D01*
X112166666Y-99548628D02*
X111785714Y-99548628D01*
X113309523Y-100024819D02*
X112738095Y-100024819D01*
X113023809Y-100024819D02*
X113023809Y-99024819D01*
X113023809Y-99024819D02*
X112928571Y-99167676D01*
X112928571Y-99167676D02*
X112833333Y-99262914D01*
X112833333Y-99262914D02*
X112738095Y-99310533D01*
X113690476Y-99120057D02*
X113738095Y-99072438D01*
X113738095Y-99072438D02*
X113833333Y-99024819D01*
X113833333Y-99024819D02*
X114071428Y-99024819D01*
X114071428Y-99024819D02*
X114166666Y-99072438D01*
X114166666Y-99072438D02*
X114214285Y-99120057D01*
X114214285Y-99120057D02*
X114261904Y-99215295D01*
X114261904Y-99215295D02*
X114261904Y-99310533D01*
X114261904Y-99310533D02*
X114214285Y-99453390D01*
X114214285Y-99453390D02*
X113642857Y-100024819D01*
X113642857Y-100024819D02*
X114261904Y-100024819D01*
X121607142Y-110024819D02*
X121273809Y-109548628D01*
X121035714Y-110024819D02*
X121035714Y-109024819D01*
X121035714Y-109024819D02*
X121416666Y-109024819D01*
X121416666Y-109024819D02*
X121511904Y-109072438D01*
X121511904Y-109072438D02*
X121559523Y-109120057D01*
X121559523Y-109120057D02*
X121607142Y-109215295D01*
X121607142Y-109215295D02*
X121607142Y-109358152D01*
X121607142Y-109358152D02*
X121559523Y-109453390D01*
X121559523Y-109453390D02*
X121511904Y-109501009D01*
X121511904Y-109501009D02*
X121416666Y-109548628D01*
X121416666Y-109548628D02*
X121035714Y-109548628D01*
X122559523Y-110024819D02*
X121988095Y-110024819D01*
X122273809Y-110024819D02*
X122273809Y-109024819D01*
X122273809Y-109024819D02*
X122178571Y-109167676D01*
X122178571Y-109167676D02*
X122083333Y-109262914D01*
X122083333Y-109262914D02*
X121988095Y-109310533D01*
X123511904Y-110024819D02*
X122940476Y-110024819D01*
X123226190Y-110024819D02*
X123226190Y-109024819D01*
X123226190Y-109024819D02*
X123130952Y-109167676D01*
X123130952Y-109167676D02*
X123035714Y-109262914D01*
X123035714Y-109262914D02*
X122940476Y-109310533D01*
X129607142Y-110024819D02*
X129273809Y-109548628D01*
X129035714Y-110024819D02*
X129035714Y-109024819D01*
X129035714Y-109024819D02*
X129416666Y-109024819D01*
X129416666Y-109024819D02*
X129511904Y-109072438D01*
X129511904Y-109072438D02*
X129559523Y-109120057D01*
X129559523Y-109120057D02*
X129607142Y-109215295D01*
X129607142Y-109215295D02*
X129607142Y-109358152D01*
X129607142Y-109358152D02*
X129559523Y-109453390D01*
X129559523Y-109453390D02*
X129511904Y-109501009D01*
X129511904Y-109501009D02*
X129416666Y-109548628D01*
X129416666Y-109548628D02*
X129035714Y-109548628D01*
X130559523Y-110024819D02*
X129988095Y-110024819D01*
X130273809Y-110024819D02*
X130273809Y-109024819D01*
X130273809Y-109024819D02*
X130178571Y-109167676D01*
X130178571Y-109167676D02*
X130083333Y-109262914D01*
X130083333Y-109262914D02*
X129988095Y-109310533D01*
X131178571Y-109024819D02*
X131273809Y-109024819D01*
X131273809Y-109024819D02*
X131369047Y-109072438D01*
X131369047Y-109072438D02*
X131416666Y-109120057D01*
X131416666Y-109120057D02*
X131464285Y-109215295D01*
X131464285Y-109215295D02*
X131511904Y-109405771D01*
X131511904Y-109405771D02*
X131511904Y-109643866D01*
X131511904Y-109643866D02*
X131464285Y-109834342D01*
X131464285Y-109834342D02*
X131416666Y-109929580D01*
X131416666Y-109929580D02*
X131369047Y-109977200D01*
X131369047Y-109977200D02*
X131273809Y-110024819D01*
X131273809Y-110024819D02*
X131178571Y-110024819D01*
X131178571Y-110024819D02*
X131083333Y-109977200D01*
X131083333Y-109977200D02*
X131035714Y-109929580D01*
X131035714Y-109929580D02*
X130988095Y-109834342D01*
X130988095Y-109834342D02*
X130940476Y-109643866D01*
X130940476Y-109643866D02*
X130940476Y-109405771D01*
X130940476Y-109405771D02*
X130988095Y-109215295D01*
X130988095Y-109215295D02*
X131035714Y-109120057D01*
X131035714Y-109120057D02*
X131083333Y-109072438D01*
X131083333Y-109072438D02*
X131178571Y-109024819D01*
X138373333Y-110024819D02*
X138040000Y-109548628D01*
X137801905Y-110024819D02*
X137801905Y-109024819D01*
X137801905Y-109024819D02*
X138182857Y-109024819D01*
X138182857Y-109024819D02*
X138278095Y-109072438D01*
X138278095Y-109072438D02*
X138325714Y-109120057D01*
X138325714Y-109120057D02*
X138373333Y-109215295D01*
X138373333Y-109215295D02*
X138373333Y-109358152D01*
X138373333Y-109358152D02*
X138325714Y-109453390D01*
X138325714Y-109453390D02*
X138278095Y-109501009D01*
X138278095Y-109501009D02*
X138182857Y-109548628D01*
X138182857Y-109548628D02*
X137801905Y-109548628D01*
X138849524Y-110024819D02*
X139040000Y-110024819D01*
X139040000Y-110024819D02*
X139135238Y-109977200D01*
X139135238Y-109977200D02*
X139182857Y-109929580D01*
X139182857Y-109929580D02*
X139278095Y-109786723D01*
X139278095Y-109786723D02*
X139325714Y-109596247D01*
X139325714Y-109596247D02*
X139325714Y-109215295D01*
X139325714Y-109215295D02*
X139278095Y-109120057D01*
X139278095Y-109120057D02*
X139230476Y-109072438D01*
X139230476Y-109072438D02*
X139135238Y-109024819D01*
X139135238Y-109024819D02*
X138944762Y-109024819D01*
X138944762Y-109024819D02*
X138849524Y-109072438D01*
X138849524Y-109072438D02*
X138801905Y-109120057D01*
X138801905Y-109120057D02*
X138754286Y-109215295D01*
X138754286Y-109215295D02*
X138754286Y-109453390D01*
X138754286Y-109453390D02*
X138801905Y-109548628D01*
X138801905Y-109548628D02*
X138849524Y-109596247D01*
X138849524Y-109596247D02*
X138944762Y-109643866D01*
X138944762Y-109643866D02*
X139135238Y-109643866D01*
X139135238Y-109643866D02*
X139230476Y-109596247D01*
X139230476Y-109596247D02*
X139278095Y-109548628D01*
X139278095Y-109548628D02*
X139325714Y-109453390D01*
X123506905Y-102494819D02*
X123506905Y-101494819D01*
X123506905Y-101494819D02*
X123745000Y-101494819D01*
X123745000Y-101494819D02*
X123887857Y-101542438D01*
X123887857Y-101542438D02*
X123983095Y-101637676D01*
X123983095Y-101637676D02*
X124030714Y-101732914D01*
X124030714Y-101732914D02*
X124078333Y-101923390D01*
X124078333Y-101923390D02*
X124078333Y-102066247D01*
X124078333Y-102066247D02*
X124030714Y-102256723D01*
X124030714Y-102256723D02*
X123983095Y-102351961D01*
X123983095Y-102351961D02*
X123887857Y-102447200D01*
X123887857Y-102447200D02*
X123745000Y-102494819D01*
X123745000Y-102494819D02*
X123506905Y-102494819D01*
X124935476Y-101494819D02*
X124745000Y-101494819D01*
X124745000Y-101494819D02*
X124649762Y-101542438D01*
X124649762Y-101542438D02*
X124602143Y-101590057D01*
X124602143Y-101590057D02*
X124506905Y-101732914D01*
X124506905Y-101732914D02*
X124459286Y-101923390D01*
X124459286Y-101923390D02*
X124459286Y-102304342D01*
X124459286Y-102304342D02*
X124506905Y-102399580D01*
X124506905Y-102399580D02*
X124554524Y-102447200D01*
X124554524Y-102447200D02*
X124649762Y-102494819D01*
X124649762Y-102494819D02*
X124840238Y-102494819D01*
X124840238Y-102494819D02*
X124935476Y-102447200D01*
X124935476Y-102447200D02*
X124983095Y-102399580D01*
X124983095Y-102399580D02*
X125030714Y-102304342D01*
X125030714Y-102304342D02*
X125030714Y-102066247D01*
X125030714Y-102066247D02*
X124983095Y-101971009D01*
X124983095Y-101971009D02*
X124935476Y-101923390D01*
X124935476Y-101923390D02*
X124840238Y-101875771D01*
X124840238Y-101875771D02*
X124649762Y-101875771D01*
X124649762Y-101875771D02*
X124554524Y-101923390D01*
X124554524Y-101923390D02*
X124506905Y-101971009D01*
X124506905Y-101971009D02*
X124459286Y-102066247D01*
X131531905Y-102494819D02*
X131531905Y-101494819D01*
X131531905Y-101494819D02*
X131770000Y-101494819D01*
X131770000Y-101494819D02*
X131912857Y-101542438D01*
X131912857Y-101542438D02*
X132008095Y-101637676D01*
X132008095Y-101637676D02*
X132055714Y-101732914D01*
X132055714Y-101732914D02*
X132103333Y-101923390D01*
X132103333Y-101923390D02*
X132103333Y-102066247D01*
X132103333Y-102066247D02*
X132055714Y-102256723D01*
X132055714Y-102256723D02*
X132008095Y-102351961D01*
X132008095Y-102351961D02*
X131912857Y-102447200D01*
X131912857Y-102447200D02*
X131770000Y-102494819D01*
X131770000Y-102494819D02*
X131531905Y-102494819D01*
X133008095Y-101494819D02*
X132531905Y-101494819D01*
X132531905Y-101494819D02*
X132484286Y-101971009D01*
X132484286Y-101971009D02*
X132531905Y-101923390D01*
X132531905Y-101923390D02*
X132627143Y-101875771D01*
X132627143Y-101875771D02*
X132865238Y-101875771D01*
X132865238Y-101875771D02*
X132960476Y-101923390D01*
X132960476Y-101923390D02*
X133008095Y-101971009D01*
X133008095Y-101971009D02*
X133055714Y-102066247D01*
X133055714Y-102066247D02*
X133055714Y-102304342D01*
X133055714Y-102304342D02*
X133008095Y-102399580D01*
X133008095Y-102399580D02*
X132960476Y-102447200D01*
X132960476Y-102447200D02*
X132865238Y-102494819D01*
X132865238Y-102494819D02*
X132627143Y-102494819D01*
X132627143Y-102494819D02*
X132531905Y-102447200D01*
X132531905Y-102447200D02*
X132484286Y-102399580D01*
X139531905Y-102494819D02*
X139531905Y-101494819D01*
X139531905Y-101494819D02*
X139770000Y-101494819D01*
X139770000Y-101494819D02*
X139912857Y-101542438D01*
X139912857Y-101542438D02*
X140008095Y-101637676D01*
X140008095Y-101637676D02*
X140055714Y-101732914D01*
X140055714Y-101732914D02*
X140103333Y-101923390D01*
X140103333Y-101923390D02*
X140103333Y-102066247D01*
X140103333Y-102066247D02*
X140055714Y-102256723D01*
X140055714Y-102256723D02*
X140008095Y-102351961D01*
X140008095Y-102351961D02*
X139912857Y-102447200D01*
X139912857Y-102447200D02*
X139770000Y-102494819D01*
X139770000Y-102494819D02*
X139531905Y-102494819D01*
X140960476Y-101828152D02*
X140960476Y-102494819D01*
X140722381Y-101447200D02*
X140484286Y-102161485D01*
X140484286Y-102161485D02*
X141103333Y-102161485D01*
X104566819Y-84323333D02*
X105281104Y-84323333D01*
X105281104Y-84323333D02*
X105423961Y-84370952D01*
X105423961Y-84370952D02*
X105519200Y-84466190D01*
X105519200Y-84466190D02*
X105566819Y-84609047D01*
X105566819Y-84609047D02*
X105566819Y-84704285D01*
X104566819Y-83942380D02*
X104566819Y-83323333D01*
X104566819Y-83323333D02*
X104947771Y-83656666D01*
X104947771Y-83656666D02*
X104947771Y-83513809D01*
X104947771Y-83513809D02*
X104995390Y-83418571D01*
X104995390Y-83418571D02*
X105043009Y-83370952D01*
X105043009Y-83370952D02*
X105138247Y-83323333D01*
X105138247Y-83323333D02*
X105376342Y-83323333D01*
X105376342Y-83323333D02*
X105471580Y-83370952D01*
X105471580Y-83370952D02*
X105519200Y-83418571D01*
X105519200Y-83418571D02*
X105566819Y-83513809D01*
X105566819Y-83513809D02*
X105566819Y-83799523D01*
X105566819Y-83799523D02*
X105519200Y-83894761D01*
X105519200Y-83894761D02*
X105471580Y-83942380D01*
X93644819Y-84323333D02*
X94359104Y-84323333D01*
X94359104Y-84323333D02*
X94501961Y-84370952D01*
X94501961Y-84370952D02*
X94597200Y-84466190D01*
X94597200Y-84466190D02*
X94644819Y-84609047D01*
X94644819Y-84609047D02*
X94644819Y-84704285D01*
X93740057Y-83894761D02*
X93692438Y-83847142D01*
X93692438Y-83847142D02*
X93644819Y-83751904D01*
X93644819Y-83751904D02*
X93644819Y-83513809D01*
X93644819Y-83513809D02*
X93692438Y-83418571D01*
X93692438Y-83418571D02*
X93740057Y-83370952D01*
X93740057Y-83370952D02*
X93835295Y-83323333D01*
X93835295Y-83323333D02*
X93930533Y-83323333D01*
X93930533Y-83323333D02*
X94073390Y-83370952D01*
X94073390Y-83370952D02*
X94644819Y-83942380D01*
X94644819Y-83942380D02*
X94644819Y-83323333D01*
X110629333Y-92996819D02*
X110296000Y-92520628D01*
X110057905Y-92996819D02*
X110057905Y-91996819D01*
X110057905Y-91996819D02*
X110438857Y-91996819D01*
X110438857Y-91996819D02*
X110534095Y-92044438D01*
X110534095Y-92044438D02*
X110581714Y-92092057D01*
X110581714Y-92092057D02*
X110629333Y-92187295D01*
X110629333Y-92187295D02*
X110629333Y-92330152D01*
X110629333Y-92330152D02*
X110581714Y-92425390D01*
X110581714Y-92425390D02*
X110534095Y-92473009D01*
X110534095Y-92473009D02*
X110438857Y-92520628D01*
X110438857Y-92520628D02*
X110057905Y-92520628D01*
X111534095Y-91996819D02*
X111057905Y-91996819D01*
X111057905Y-91996819D02*
X111010286Y-92473009D01*
X111010286Y-92473009D02*
X111057905Y-92425390D01*
X111057905Y-92425390D02*
X111153143Y-92377771D01*
X111153143Y-92377771D02*
X111391238Y-92377771D01*
X111391238Y-92377771D02*
X111486476Y-92425390D01*
X111486476Y-92425390D02*
X111534095Y-92473009D01*
X111534095Y-92473009D02*
X111581714Y-92568247D01*
X111581714Y-92568247D02*
X111581714Y-92806342D01*
X111581714Y-92806342D02*
X111534095Y-92901580D01*
X111534095Y-92901580D02*
X111486476Y-92949200D01*
X111486476Y-92949200D02*
X111391238Y-92996819D01*
X111391238Y-92996819D02*
X111153143Y-92996819D01*
X111153143Y-92996819D02*
X111057905Y-92949200D01*
X111057905Y-92949200D02*
X111010286Y-92901580D01*
X92241333Y-98247580D02*
X92193714Y-98295200D01*
X92193714Y-98295200D02*
X92050857Y-98342819D01*
X92050857Y-98342819D02*
X91955619Y-98342819D01*
X91955619Y-98342819D02*
X91812762Y-98295200D01*
X91812762Y-98295200D02*
X91717524Y-98199961D01*
X91717524Y-98199961D02*
X91669905Y-98104723D01*
X91669905Y-98104723D02*
X91622286Y-97914247D01*
X91622286Y-97914247D02*
X91622286Y-97771390D01*
X91622286Y-97771390D02*
X91669905Y-97580914D01*
X91669905Y-97580914D02*
X91717524Y-97485676D01*
X91717524Y-97485676D02*
X91812762Y-97390438D01*
X91812762Y-97390438D02*
X91955619Y-97342819D01*
X91955619Y-97342819D02*
X92050857Y-97342819D01*
X92050857Y-97342819D02*
X92193714Y-97390438D01*
X92193714Y-97390438D02*
X92241333Y-97438057D01*
X92717524Y-98342819D02*
X92908000Y-98342819D01*
X92908000Y-98342819D02*
X93003238Y-98295200D01*
X93003238Y-98295200D02*
X93050857Y-98247580D01*
X93050857Y-98247580D02*
X93146095Y-98104723D01*
X93146095Y-98104723D02*
X93193714Y-97914247D01*
X93193714Y-97914247D02*
X93193714Y-97533295D01*
X93193714Y-97533295D02*
X93146095Y-97438057D01*
X93146095Y-97438057D02*
X93098476Y-97390438D01*
X93098476Y-97390438D02*
X93003238Y-97342819D01*
X93003238Y-97342819D02*
X92812762Y-97342819D01*
X92812762Y-97342819D02*
X92717524Y-97390438D01*
X92717524Y-97390438D02*
X92669905Y-97438057D01*
X92669905Y-97438057D02*
X92622286Y-97533295D01*
X92622286Y-97533295D02*
X92622286Y-97771390D01*
X92622286Y-97771390D02*
X92669905Y-97866628D01*
X92669905Y-97866628D02*
X92717524Y-97914247D01*
X92717524Y-97914247D02*
X92812762Y-97961866D01*
X92812762Y-97961866D02*
X93003238Y-97961866D01*
X93003238Y-97961866D02*
X93098476Y-97914247D01*
X93098476Y-97914247D02*
X93146095Y-97866628D01*
X93146095Y-97866628D02*
X93193714Y-97771390D01*
X101769642Y-97727580D02*
X101722023Y-97775200D01*
X101722023Y-97775200D02*
X101579166Y-97822819D01*
X101579166Y-97822819D02*
X101483928Y-97822819D01*
X101483928Y-97822819D02*
X101341071Y-97775200D01*
X101341071Y-97775200D02*
X101245833Y-97679961D01*
X101245833Y-97679961D02*
X101198214Y-97584723D01*
X101198214Y-97584723D02*
X101150595Y-97394247D01*
X101150595Y-97394247D02*
X101150595Y-97251390D01*
X101150595Y-97251390D02*
X101198214Y-97060914D01*
X101198214Y-97060914D02*
X101245833Y-96965676D01*
X101245833Y-96965676D02*
X101341071Y-96870438D01*
X101341071Y-96870438D02*
X101483928Y-96822819D01*
X101483928Y-96822819D02*
X101579166Y-96822819D01*
X101579166Y-96822819D02*
X101722023Y-96870438D01*
X101722023Y-96870438D02*
X101769642Y-96918057D01*
X102722023Y-97822819D02*
X102150595Y-97822819D01*
X102436309Y-97822819D02*
X102436309Y-96822819D01*
X102436309Y-96822819D02*
X102341071Y-96965676D01*
X102341071Y-96965676D02*
X102245833Y-97060914D01*
X102245833Y-97060914D02*
X102150595Y-97108533D01*
X103341071Y-96822819D02*
X103436309Y-96822819D01*
X103436309Y-96822819D02*
X103531547Y-96870438D01*
X103531547Y-96870438D02*
X103579166Y-96918057D01*
X103579166Y-96918057D02*
X103626785Y-97013295D01*
X103626785Y-97013295D02*
X103674404Y-97203771D01*
X103674404Y-97203771D02*
X103674404Y-97441866D01*
X103674404Y-97441866D02*
X103626785Y-97632342D01*
X103626785Y-97632342D02*
X103579166Y-97727580D01*
X103579166Y-97727580D02*
X103531547Y-97775200D01*
X103531547Y-97775200D02*
X103436309Y-97822819D01*
X103436309Y-97822819D02*
X103341071Y-97822819D01*
X103341071Y-97822819D02*
X103245833Y-97775200D01*
X103245833Y-97775200D02*
X103198214Y-97727580D01*
X103198214Y-97727580D02*
X103150595Y-97632342D01*
X103150595Y-97632342D02*
X103102976Y-97441866D01*
X103102976Y-97441866D02*
X103102976Y-97203771D01*
X103102976Y-97203771D02*
X103150595Y-97013295D01*
X103150595Y-97013295D02*
X103198214Y-96918057D01*
X103198214Y-96918057D02*
X103245833Y-96870438D01*
X103245833Y-96870438D02*
X103341071Y-96822819D01*
X90971333Y-101295580D02*
X90923714Y-101343200D01*
X90923714Y-101343200D02*
X90780857Y-101390819D01*
X90780857Y-101390819D02*
X90685619Y-101390819D01*
X90685619Y-101390819D02*
X90542762Y-101343200D01*
X90542762Y-101343200D02*
X90447524Y-101247961D01*
X90447524Y-101247961D02*
X90399905Y-101152723D01*
X90399905Y-101152723D02*
X90352286Y-100962247D01*
X90352286Y-100962247D02*
X90352286Y-100819390D01*
X90352286Y-100819390D02*
X90399905Y-100628914D01*
X90399905Y-100628914D02*
X90447524Y-100533676D01*
X90447524Y-100533676D02*
X90542762Y-100438438D01*
X90542762Y-100438438D02*
X90685619Y-100390819D01*
X90685619Y-100390819D02*
X90780857Y-100390819D01*
X90780857Y-100390819D02*
X90923714Y-100438438D01*
X90923714Y-100438438D02*
X90971333Y-100486057D01*
X91542762Y-100819390D02*
X91447524Y-100771771D01*
X91447524Y-100771771D02*
X91399905Y-100724152D01*
X91399905Y-100724152D02*
X91352286Y-100628914D01*
X91352286Y-100628914D02*
X91352286Y-100581295D01*
X91352286Y-100581295D02*
X91399905Y-100486057D01*
X91399905Y-100486057D02*
X91447524Y-100438438D01*
X91447524Y-100438438D02*
X91542762Y-100390819D01*
X91542762Y-100390819D02*
X91733238Y-100390819D01*
X91733238Y-100390819D02*
X91828476Y-100438438D01*
X91828476Y-100438438D02*
X91876095Y-100486057D01*
X91876095Y-100486057D02*
X91923714Y-100581295D01*
X91923714Y-100581295D02*
X91923714Y-100628914D01*
X91923714Y-100628914D02*
X91876095Y-100724152D01*
X91876095Y-100724152D02*
X91828476Y-100771771D01*
X91828476Y-100771771D02*
X91733238Y-100819390D01*
X91733238Y-100819390D02*
X91542762Y-100819390D01*
X91542762Y-100819390D02*
X91447524Y-100867009D01*
X91447524Y-100867009D02*
X91399905Y-100914628D01*
X91399905Y-100914628D02*
X91352286Y-101009866D01*
X91352286Y-101009866D02*
X91352286Y-101200342D01*
X91352286Y-101200342D02*
X91399905Y-101295580D01*
X91399905Y-101295580D02*
X91447524Y-101343200D01*
X91447524Y-101343200D02*
X91542762Y-101390819D01*
X91542762Y-101390819D02*
X91733238Y-101390819D01*
X91733238Y-101390819D02*
X91828476Y-101343200D01*
X91828476Y-101343200D02*
X91876095Y-101295580D01*
X91876095Y-101295580D02*
X91923714Y-101200342D01*
X91923714Y-101200342D02*
X91923714Y-101009866D01*
X91923714Y-101009866D02*
X91876095Y-100914628D01*
X91876095Y-100914628D02*
X91828476Y-100867009D01*
X91828476Y-100867009D02*
X91733238Y-100819390D01*
X80589142Y-108821580D02*
X80541523Y-108869200D01*
X80541523Y-108869200D02*
X80398666Y-108916819D01*
X80398666Y-108916819D02*
X80303428Y-108916819D01*
X80303428Y-108916819D02*
X80160571Y-108869200D01*
X80160571Y-108869200D02*
X80065333Y-108773961D01*
X80065333Y-108773961D02*
X80017714Y-108678723D01*
X80017714Y-108678723D02*
X79970095Y-108488247D01*
X79970095Y-108488247D02*
X79970095Y-108345390D01*
X79970095Y-108345390D02*
X80017714Y-108154914D01*
X80017714Y-108154914D02*
X80065333Y-108059676D01*
X80065333Y-108059676D02*
X80160571Y-107964438D01*
X80160571Y-107964438D02*
X80303428Y-107916819D01*
X80303428Y-107916819D02*
X80398666Y-107916819D01*
X80398666Y-107916819D02*
X80541523Y-107964438D01*
X80541523Y-107964438D02*
X80589142Y-108012057D01*
X81541523Y-108916819D02*
X80970095Y-108916819D01*
X81255809Y-108916819D02*
X81255809Y-107916819D01*
X81255809Y-107916819D02*
X81160571Y-108059676D01*
X81160571Y-108059676D02*
X81065333Y-108154914D01*
X81065333Y-108154914D02*
X80970095Y-108202533D01*
X81874857Y-107916819D02*
X82493904Y-107916819D01*
X82493904Y-107916819D02*
X82160571Y-108297771D01*
X82160571Y-108297771D02*
X82303428Y-108297771D01*
X82303428Y-108297771D02*
X82398666Y-108345390D01*
X82398666Y-108345390D02*
X82446285Y-108393009D01*
X82446285Y-108393009D02*
X82493904Y-108488247D01*
X82493904Y-108488247D02*
X82493904Y-108726342D01*
X82493904Y-108726342D02*
X82446285Y-108821580D01*
X82446285Y-108821580D02*
X82398666Y-108869200D01*
X82398666Y-108869200D02*
X82303428Y-108916819D01*
X82303428Y-108916819D02*
X82017714Y-108916819D01*
X82017714Y-108916819D02*
X81922476Y-108869200D01*
X81922476Y-108869200D02*
X81874857Y-108821580D01*
X105039833Y-97727580D02*
X104992214Y-97775200D01*
X104992214Y-97775200D02*
X104849357Y-97822819D01*
X104849357Y-97822819D02*
X104754119Y-97822819D01*
X104754119Y-97822819D02*
X104611262Y-97775200D01*
X104611262Y-97775200D02*
X104516024Y-97679961D01*
X104516024Y-97679961D02*
X104468405Y-97584723D01*
X104468405Y-97584723D02*
X104420786Y-97394247D01*
X104420786Y-97394247D02*
X104420786Y-97251390D01*
X104420786Y-97251390D02*
X104468405Y-97060914D01*
X104468405Y-97060914D02*
X104516024Y-96965676D01*
X104516024Y-96965676D02*
X104611262Y-96870438D01*
X104611262Y-96870438D02*
X104754119Y-96822819D01*
X104754119Y-96822819D02*
X104849357Y-96822819D01*
X104849357Y-96822819D02*
X104992214Y-96870438D01*
X104992214Y-96870438D02*
X105039833Y-96918057D01*
X105373167Y-96822819D02*
X106039833Y-96822819D01*
X106039833Y-96822819D02*
X105611262Y-97822819D01*
X90357142Y-117024819D02*
X90023809Y-116548628D01*
X89785714Y-117024819D02*
X89785714Y-116024819D01*
X89785714Y-116024819D02*
X90166666Y-116024819D01*
X90166666Y-116024819D02*
X90261904Y-116072438D01*
X90261904Y-116072438D02*
X90309523Y-116120057D01*
X90309523Y-116120057D02*
X90357142Y-116215295D01*
X90357142Y-116215295D02*
X90357142Y-116358152D01*
X90357142Y-116358152D02*
X90309523Y-116453390D01*
X90309523Y-116453390D02*
X90261904Y-116501009D01*
X90261904Y-116501009D02*
X90166666Y-116548628D01*
X90166666Y-116548628D02*
X89785714Y-116548628D01*
X90738095Y-116120057D02*
X90785714Y-116072438D01*
X90785714Y-116072438D02*
X90880952Y-116024819D01*
X90880952Y-116024819D02*
X91119047Y-116024819D01*
X91119047Y-116024819D02*
X91214285Y-116072438D01*
X91214285Y-116072438D02*
X91261904Y-116120057D01*
X91261904Y-116120057D02*
X91309523Y-116215295D01*
X91309523Y-116215295D02*
X91309523Y-116310533D01*
X91309523Y-116310533D02*
X91261904Y-116453390D01*
X91261904Y-116453390D02*
X90690476Y-117024819D01*
X90690476Y-117024819D02*
X91309523Y-117024819D01*
X92261904Y-117024819D02*
X91690476Y-117024819D01*
X91976190Y-117024819D02*
X91976190Y-116024819D01*
X91976190Y-116024819D02*
X91880952Y-116167676D01*
X91880952Y-116167676D02*
X91785714Y-116262914D01*
X91785714Y-116262914D02*
X91690476Y-116310533D01*
X96240476Y-116707200D02*
X96383333Y-116754819D01*
X96383333Y-116754819D02*
X96621428Y-116754819D01*
X96621428Y-116754819D02*
X96716666Y-116707200D01*
X96716666Y-116707200D02*
X96764285Y-116659580D01*
X96764285Y-116659580D02*
X96811904Y-116564342D01*
X96811904Y-116564342D02*
X96811904Y-116469104D01*
X96811904Y-116469104D02*
X96764285Y-116373866D01*
X96764285Y-116373866D02*
X96716666Y-116326247D01*
X96716666Y-116326247D02*
X96621428Y-116278628D01*
X96621428Y-116278628D02*
X96430952Y-116231009D01*
X96430952Y-116231009D02*
X96335714Y-116183390D01*
X96335714Y-116183390D02*
X96288095Y-116135771D01*
X96288095Y-116135771D02*
X96240476Y-116040533D01*
X96240476Y-116040533D02*
X96240476Y-115945295D01*
X96240476Y-115945295D02*
X96288095Y-115850057D01*
X96288095Y-115850057D02*
X96335714Y-115802438D01*
X96335714Y-115802438D02*
X96430952Y-115754819D01*
X96430952Y-115754819D02*
X96669047Y-115754819D01*
X96669047Y-115754819D02*
X96811904Y-115802438D01*
X97145238Y-115754819D02*
X97383333Y-116754819D01*
X97383333Y-116754819D02*
X97573809Y-116040533D01*
X97573809Y-116040533D02*
X97764285Y-116754819D01*
X97764285Y-116754819D02*
X98002381Y-115754819D01*
X98288095Y-115754819D02*
X98954761Y-115754819D01*
X98954761Y-115754819D02*
X98526190Y-116754819D01*
X99240476Y-115754819D02*
X99907142Y-115754819D01*
X99907142Y-115754819D02*
X99478571Y-116754819D01*
X142954819Y-94761904D02*
X143764342Y-94761904D01*
X143764342Y-94761904D02*
X143859580Y-94714285D01*
X143859580Y-94714285D02*
X143907200Y-94666666D01*
X143907200Y-94666666D02*
X143954819Y-94571428D01*
X143954819Y-94571428D02*
X143954819Y-94380952D01*
X143954819Y-94380952D02*
X143907200Y-94285714D01*
X143907200Y-94285714D02*
X143859580Y-94238095D01*
X143859580Y-94238095D02*
X143764342Y-94190476D01*
X143764342Y-94190476D02*
X142954819Y-94190476D01*
X143050057Y-93761904D02*
X143002438Y-93714285D01*
X143002438Y-93714285D02*
X142954819Y-93619047D01*
X142954819Y-93619047D02*
X142954819Y-93380952D01*
X142954819Y-93380952D02*
X143002438Y-93285714D01*
X143002438Y-93285714D02*
X143050057Y-93238095D01*
X143050057Y-93238095D02*
X143145295Y-93190476D01*
X143145295Y-93190476D02*
X143240533Y-93190476D01*
X143240533Y-93190476D02*
X143383390Y-93238095D01*
X143383390Y-93238095D02*
X143954819Y-93809523D01*
X143954819Y-93809523D02*
X143954819Y-93190476D01*
X86857142Y-130359580D02*
X86809523Y-130407200D01*
X86809523Y-130407200D02*
X86666666Y-130454819D01*
X86666666Y-130454819D02*
X86571428Y-130454819D01*
X86571428Y-130454819D02*
X86428571Y-130407200D01*
X86428571Y-130407200D02*
X86333333Y-130311961D01*
X86333333Y-130311961D02*
X86285714Y-130216723D01*
X86285714Y-130216723D02*
X86238095Y-130026247D01*
X86238095Y-130026247D02*
X86238095Y-129883390D01*
X86238095Y-129883390D02*
X86285714Y-129692914D01*
X86285714Y-129692914D02*
X86333333Y-129597676D01*
X86333333Y-129597676D02*
X86428571Y-129502438D01*
X86428571Y-129502438D02*
X86571428Y-129454819D01*
X86571428Y-129454819D02*
X86666666Y-129454819D01*
X86666666Y-129454819D02*
X86809523Y-129502438D01*
X86809523Y-129502438D02*
X86857142Y-129550057D01*
X87809523Y-130454819D02*
X87238095Y-130454819D01*
X87523809Y-130454819D02*
X87523809Y-129454819D01*
X87523809Y-129454819D02*
X87428571Y-129597676D01*
X87428571Y-129597676D02*
X87333333Y-129692914D01*
X87333333Y-129692914D02*
X87238095Y-129740533D01*
X88714285Y-129454819D02*
X88238095Y-129454819D01*
X88238095Y-129454819D02*
X88190476Y-129931009D01*
X88190476Y-129931009D02*
X88238095Y-129883390D01*
X88238095Y-129883390D02*
X88333333Y-129835771D01*
X88333333Y-129835771D02*
X88571428Y-129835771D01*
X88571428Y-129835771D02*
X88666666Y-129883390D01*
X88666666Y-129883390D02*
X88714285Y-129931009D01*
X88714285Y-129931009D02*
X88761904Y-130026247D01*
X88761904Y-130026247D02*
X88761904Y-130264342D01*
X88761904Y-130264342D02*
X88714285Y-130359580D01*
X88714285Y-130359580D02*
X88666666Y-130407200D01*
X88666666Y-130407200D02*
X88571428Y-130454819D01*
X88571428Y-130454819D02*
X88333333Y-130454819D01*
X88333333Y-130454819D02*
X88238095Y-130407200D01*
X88238095Y-130407200D02*
X88190476Y-130359580D01*
X110285714Y-119454819D02*
X110285714Y-118454819D01*
X110285714Y-118454819D02*
X110523809Y-118454819D01*
X110523809Y-118454819D02*
X110666666Y-118502438D01*
X110666666Y-118502438D02*
X110761904Y-118597676D01*
X110761904Y-118597676D02*
X110809523Y-118692914D01*
X110809523Y-118692914D02*
X110857142Y-118883390D01*
X110857142Y-118883390D02*
X110857142Y-119026247D01*
X110857142Y-119026247D02*
X110809523Y-119216723D01*
X110809523Y-119216723D02*
X110761904Y-119311961D01*
X110761904Y-119311961D02*
X110666666Y-119407200D01*
X110666666Y-119407200D02*
X110523809Y-119454819D01*
X110523809Y-119454819D02*
X110285714Y-119454819D01*
X111190476Y-118454819D02*
X111857142Y-118454819D01*
X111857142Y-118454819D02*
X111428571Y-119454819D01*
X112142857Y-118454819D02*
X112809523Y-118454819D01*
X112809523Y-118454819D02*
X112380952Y-119454819D01*
X109833333Y-104454819D02*
X109500000Y-103978628D01*
X109261905Y-104454819D02*
X109261905Y-103454819D01*
X109261905Y-103454819D02*
X109642857Y-103454819D01*
X109642857Y-103454819D02*
X109738095Y-103502438D01*
X109738095Y-103502438D02*
X109785714Y-103550057D01*
X109785714Y-103550057D02*
X109833333Y-103645295D01*
X109833333Y-103645295D02*
X109833333Y-103788152D01*
X109833333Y-103788152D02*
X109785714Y-103883390D01*
X109785714Y-103883390D02*
X109738095Y-103931009D01*
X109738095Y-103931009D02*
X109642857Y-103978628D01*
X109642857Y-103978628D02*
X109261905Y-103978628D01*
X110785714Y-104454819D02*
X110214286Y-104454819D01*
X110500000Y-104454819D02*
X110500000Y-103454819D01*
X110500000Y-103454819D02*
X110404762Y-103597676D01*
X110404762Y-103597676D02*
X110309524Y-103692914D01*
X110309524Y-103692914D02*
X110214286Y-103740533D01*
X80589142Y-101135580D02*
X80541523Y-101183200D01*
X80541523Y-101183200D02*
X80398666Y-101230819D01*
X80398666Y-101230819D02*
X80303428Y-101230819D01*
X80303428Y-101230819D02*
X80160571Y-101183200D01*
X80160571Y-101183200D02*
X80065333Y-101087961D01*
X80065333Y-101087961D02*
X80017714Y-100992723D01*
X80017714Y-100992723D02*
X79970095Y-100802247D01*
X79970095Y-100802247D02*
X79970095Y-100659390D01*
X79970095Y-100659390D02*
X80017714Y-100468914D01*
X80017714Y-100468914D02*
X80065333Y-100373676D01*
X80065333Y-100373676D02*
X80160571Y-100278438D01*
X80160571Y-100278438D02*
X80303428Y-100230819D01*
X80303428Y-100230819D02*
X80398666Y-100230819D01*
X80398666Y-100230819D02*
X80541523Y-100278438D01*
X80541523Y-100278438D02*
X80589142Y-100326057D01*
X81541523Y-101230819D02*
X80970095Y-101230819D01*
X81255809Y-101230819D02*
X81255809Y-100230819D01*
X81255809Y-100230819D02*
X81160571Y-100373676D01*
X81160571Y-100373676D02*
X81065333Y-100468914D01*
X81065333Y-100468914D02*
X80970095Y-100516533D01*
X81922476Y-100326057D02*
X81970095Y-100278438D01*
X81970095Y-100278438D02*
X82065333Y-100230819D01*
X82065333Y-100230819D02*
X82303428Y-100230819D01*
X82303428Y-100230819D02*
X82398666Y-100278438D01*
X82398666Y-100278438D02*
X82446285Y-100326057D01*
X82446285Y-100326057D02*
X82493904Y-100421295D01*
X82493904Y-100421295D02*
X82493904Y-100516533D01*
X82493904Y-100516533D02*
X82446285Y-100659390D01*
X82446285Y-100659390D02*
X81874857Y-101230819D01*
X81874857Y-101230819D02*
X82493904Y-101230819D01*
X119012333Y-82024819D02*
X118679000Y-81548628D01*
X118440905Y-82024819D02*
X118440905Y-81024819D01*
X118440905Y-81024819D02*
X118821857Y-81024819D01*
X118821857Y-81024819D02*
X118917095Y-81072438D01*
X118917095Y-81072438D02*
X118964714Y-81120057D01*
X118964714Y-81120057D02*
X119012333Y-81215295D01*
X119012333Y-81215295D02*
X119012333Y-81358152D01*
X119012333Y-81358152D02*
X118964714Y-81453390D01*
X118964714Y-81453390D02*
X118917095Y-81501009D01*
X118917095Y-81501009D02*
X118821857Y-81548628D01*
X118821857Y-81548628D02*
X118440905Y-81548628D01*
X119345667Y-81024819D02*
X119964714Y-81024819D01*
X119964714Y-81024819D02*
X119631381Y-81405771D01*
X119631381Y-81405771D02*
X119774238Y-81405771D01*
X119774238Y-81405771D02*
X119869476Y-81453390D01*
X119869476Y-81453390D02*
X119917095Y-81501009D01*
X119917095Y-81501009D02*
X119964714Y-81596247D01*
X119964714Y-81596247D02*
X119964714Y-81834342D01*
X119964714Y-81834342D02*
X119917095Y-81929580D01*
X119917095Y-81929580D02*
X119869476Y-81977200D01*
X119869476Y-81977200D02*
X119774238Y-82024819D01*
X119774238Y-82024819D02*
X119488524Y-82024819D01*
X119488524Y-82024819D02*
X119393286Y-81977200D01*
X119393286Y-81977200D02*
X119345667Y-81929580D01*
X117357142Y-121010580D02*
X117309523Y-121058200D01*
X117309523Y-121058200D02*
X117166666Y-121105819D01*
X117166666Y-121105819D02*
X117071428Y-121105819D01*
X117071428Y-121105819D02*
X116928571Y-121058200D01*
X116928571Y-121058200D02*
X116833333Y-120962961D01*
X116833333Y-120962961D02*
X116785714Y-120867723D01*
X116785714Y-120867723D02*
X116738095Y-120677247D01*
X116738095Y-120677247D02*
X116738095Y-120534390D01*
X116738095Y-120534390D02*
X116785714Y-120343914D01*
X116785714Y-120343914D02*
X116833333Y-120248676D01*
X116833333Y-120248676D02*
X116928571Y-120153438D01*
X116928571Y-120153438D02*
X117071428Y-120105819D01*
X117071428Y-120105819D02*
X117166666Y-120105819D01*
X117166666Y-120105819D02*
X117309523Y-120153438D01*
X117309523Y-120153438D02*
X117357142Y-120201057D01*
X118309523Y-121105819D02*
X117738095Y-121105819D01*
X118023809Y-121105819D02*
X118023809Y-120105819D01*
X118023809Y-120105819D02*
X117928571Y-120248676D01*
X117928571Y-120248676D02*
X117833333Y-120343914D01*
X117833333Y-120343914D02*
X117738095Y-120391533D01*
X119166666Y-120105819D02*
X118976190Y-120105819D01*
X118976190Y-120105819D02*
X118880952Y-120153438D01*
X118880952Y-120153438D02*
X118833333Y-120201057D01*
X118833333Y-120201057D02*
X118738095Y-120343914D01*
X118738095Y-120343914D02*
X118690476Y-120534390D01*
X118690476Y-120534390D02*
X118690476Y-120915342D01*
X118690476Y-120915342D02*
X118738095Y-121010580D01*
X118738095Y-121010580D02*
X118785714Y-121058200D01*
X118785714Y-121058200D02*
X118880952Y-121105819D01*
X118880952Y-121105819D02*
X119071428Y-121105819D01*
X119071428Y-121105819D02*
X119166666Y-121058200D01*
X119166666Y-121058200D02*
X119214285Y-121010580D01*
X119214285Y-121010580D02*
X119261904Y-120915342D01*
X119261904Y-120915342D02*
X119261904Y-120677247D01*
X119261904Y-120677247D02*
X119214285Y-120582009D01*
X119214285Y-120582009D02*
X119166666Y-120534390D01*
X119166666Y-120534390D02*
X119071428Y-120486771D01*
X119071428Y-120486771D02*
X118880952Y-120486771D01*
X118880952Y-120486771D02*
X118785714Y-120534390D01*
X118785714Y-120534390D02*
X118738095Y-120582009D01*
X118738095Y-120582009D02*
X118690476Y-120677247D01*
X124055714Y-79494819D02*
X124055714Y-78494819D01*
X124055714Y-78494819D02*
X124293809Y-78494819D01*
X124293809Y-78494819D02*
X124436666Y-78542438D01*
X124436666Y-78542438D02*
X124531904Y-78637676D01*
X124531904Y-78637676D02*
X124579523Y-78732914D01*
X124579523Y-78732914D02*
X124627142Y-78923390D01*
X124627142Y-78923390D02*
X124627142Y-79066247D01*
X124627142Y-79066247D02*
X124579523Y-79256723D01*
X124579523Y-79256723D02*
X124531904Y-79351961D01*
X124531904Y-79351961D02*
X124436666Y-79447200D01*
X124436666Y-79447200D02*
X124293809Y-79494819D01*
X124293809Y-79494819D02*
X124055714Y-79494819D01*
X124960476Y-78494819D02*
X125627142Y-78494819D01*
X125627142Y-78494819D02*
X125198571Y-79494819D01*
X126436666Y-78494819D02*
X126246190Y-78494819D01*
X126246190Y-78494819D02*
X126150952Y-78542438D01*
X126150952Y-78542438D02*
X126103333Y-78590057D01*
X126103333Y-78590057D02*
X126008095Y-78732914D01*
X126008095Y-78732914D02*
X125960476Y-78923390D01*
X125960476Y-78923390D02*
X125960476Y-79304342D01*
X125960476Y-79304342D02*
X126008095Y-79399580D01*
X126008095Y-79399580D02*
X126055714Y-79447200D01*
X126055714Y-79447200D02*
X126150952Y-79494819D01*
X126150952Y-79494819D02*
X126341428Y-79494819D01*
X126341428Y-79494819D02*
X126436666Y-79447200D01*
X126436666Y-79447200D02*
X126484285Y-79399580D01*
X126484285Y-79399580D02*
X126531904Y-79304342D01*
X126531904Y-79304342D02*
X126531904Y-79066247D01*
X126531904Y-79066247D02*
X126484285Y-78971009D01*
X126484285Y-78971009D02*
X126436666Y-78923390D01*
X126436666Y-78923390D02*
X126341428Y-78875771D01*
X126341428Y-78875771D02*
X126150952Y-78875771D01*
X126150952Y-78875771D02*
X126055714Y-78923390D01*
X126055714Y-78923390D02*
X126008095Y-78971009D01*
X126008095Y-78971009D02*
X125960476Y-79066247D01*
X84228628Y-111976190D02*
X84704819Y-111976190D01*
X83704819Y-112309523D02*
X84228628Y-111976190D01*
X84228628Y-111976190D02*
X83704819Y-111642857D01*
X84704819Y-110785714D02*
X84704819Y-111357142D01*
X84704819Y-111071428D02*
X83704819Y-111071428D01*
X83704819Y-111071428D02*
X83847676Y-111166666D01*
X83847676Y-111166666D02*
X83942914Y-111261904D01*
X83942914Y-111261904D02*
X83990533Y-111357142D01*
X120090476Y-97647200D02*
X120233333Y-97694819D01*
X120233333Y-97694819D02*
X120471428Y-97694819D01*
X120471428Y-97694819D02*
X120566666Y-97647200D01*
X120566666Y-97647200D02*
X120614285Y-97599580D01*
X120614285Y-97599580D02*
X120661904Y-97504342D01*
X120661904Y-97504342D02*
X120661904Y-97409104D01*
X120661904Y-97409104D02*
X120614285Y-97313866D01*
X120614285Y-97313866D02*
X120566666Y-97266247D01*
X120566666Y-97266247D02*
X120471428Y-97218628D01*
X120471428Y-97218628D02*
X120280952Y-97171009D01*
X120280952Y-97171009D02*
X120185714Y-97123390D01*
X120185714Y-97123390D02*
X120138095Y-97075771D01*
X120138095Y-97075771D02*
X120090476Y-96980533D01*
X120090476Y-96980533D02*
X120090476Y-96885295D01*
X120090476Y-96885295D02*
X120138095Y-96790057D01*
X120138095Y-96790057D02*
X120185714Y-96742438D01*
X120185714Y-96742438D02*
X120280952Y-96694819D01*
X120280952Y-96694819D02*
X120519047Y-96694819D01*
X120519047Y-96694819D02*
X120661904Y-96742438D01*
X120995238Y-96694819D02*
X121233333Y-97694819D01*
X121233333Y-97694819D02*
X121423809Y-96980533D01*
X121423809Y-96980533D02*
X121614285Y-97694819D01*
X121614285Y-97694819D02*
X121852381Y-96694819D01*
X122138095Y-96694819D02*
X122804761Y-96694819D01*
X122804761Y-96694819D02*
X122376190Y-97694819D01*
X123614285Y-96694819D02*
X123423809Y-96694819D01*
X123423809Y-96694819D02*
X123328571Y-96742438D01*
X123328571Y-96742438D02*
X123280952Y-96790057D01*
X123280952Y-96790057D02*
X123185714Y-96932914D01*
X123185714Y-96932914D02*
X123138095Y-97123390D01*
X123138095Y-97123390D02*
X123138095Y-97504342D01*
X123138095Y-97504342D02*
X123185714Y-97599580D01*
X123185714Y-97599580D02*
X123233333Y-97647200D01*
X123233333Y-97647200D02*
X123328571Y-97694819D01*
X123328571Y-97694819D02*
X123519047Y-97694819D01*
X123519047Y-97694819D02*
X123614285Y-97647200D01*
X123614285Y-97647200D02*
X123661904Y-97599580D01*
X123661904Y-97599580D02*
X123709523Y-97504342D01*
X123709523Y-97504342D02*
X123709523Y-97266247D01*
X123709523Y-97266247D02*
X123661904Y-97171009D01*
X123661904Y-97171009D02*
X123614285Y-97123390D01*
X123614285Y-97123390D02*
X123519047Y-97075771D01*
X123519047Y-97075771D02*
X123328571Y-97075771D01*
X123328571Y-97075771D02*
X123233333Y-97123390D01*
X123233333Y-97123390D02*
X123185714Y-97171009D01*
X123185714Y-97171009D02*
X123138095Y-97266247D01*
X132507580Y-96526666D02*
X132555200Y-96574285D01*
X132555200Y-96574285D02*
X132602819Y-96717142D01*
X132602819Y-96717142D02*
X132602819Y-96812380D01*
X132602819Y-96812380D02*
X132555200Y-96955237D01*
X132555200Y-96955237D02*
X132459961Y-97050475D01*
X132459961Y-97050475D02*
X132364723Y-97098094D01*
X132364723Y-97098094D02*
X132174247Y-97145713D01*
X132174247Y-97145713D02*
X132031390Y-97145713D01*
X132031390Y-97145713D02*
X131840914Y-97098094D01*
X131840914Y-97098094D02*
X131745676Y-97050475D01*
X131745676Y-97050475D02*
X131650438Y-96955237D01*
X131650438Y-96955237D02*
X131602819Y-96812380D01*
X131602819Y-96812380D02*
X131602819Y-96717142D01*
X131602819Y-96717142D02*
X131650438Y-96574285D01*
X131650438Y-96574285D02*
X131698057Y-96526666D01*
X131698057Y-96145713D02*
X131650438Y-96098094D01*
X131650438Y-96098094D02*
X131602819Y-96002856D01*
X131602819Y-96002856D02*
X131602819Y-95764761D01*
X131602819Y-95764761D02*
X131650438Y-95669523D01*
X131650438Y-95669523D02*
X131698057Y-95621904D01*
X131698057Y-95621904D02*
X131793295Y-95574285D01*
X131793295Y-95574285D02*
X131888533Y-95574285D01*
X131888533Y-95574285D02*
X132031390Y-95621904D01*
X132031390Y-95621904D02*
X132602819Y-96193332D01*
X132602819Y-96193332D02*
X132602819Y-95574285D01*
X86857142Y-116708580D02*
X86809523Y-116756200D01*
X86809523Y-116756200D02*
X86666666Y-116803819D01*
X86666666Y-116803819D02*
X86571428Y-116803819D01*
X86571428Y-116803819D02*
X86428571Y-116756200D01*
X86428571Y-116756200D02*
X86333333Y-116660961D01*
X86333333Y-116660961D02*
X86285714Y-116565723D01*
X86285714Y-116565723D02*
X86238095Y-116375247D01*
X86238095Y-116375247D02*
X86238095Y-116232390D01*
X86238095Y-116232390D02*
X86285714Y-116041914D01*
X86285714Y-116041914D02*
X86333333Y-115946676D01*
X86333333Y-115946676D02*
X86428571Y-115851438D01*
X86428571Y-115851438D02*
X86571428Y-115803819D01*
X86571428Y-115803819D02*
X86666666Y-115803819D01*
X86666666Y-115803819D02*
X86809523Y-115851438D01*
X86809523Y-115851438D02*
X86857142Y-115899057D01*
X87809523Y-116803819D02*
X87238095Y-116803819D01*
X87523809Y-116803819D02*
X87523809Y-115803819D01*
X87523809Y-115803819D02*
X87428571Y-115946676D01*
X87428571Y-115946676D02*
X87333333Y-116041914D01*
X87333333Y-116041914D02*
X87238095Y-116089533D01*
X88666666Y-116137152D02*
X88666666Y-116803819D01*
X88428571Y-115756200D02*
X88190476Y-116470485D01*
X88190476Y-116470485D02*
X88809523Y-116470485D01*
X105989142Y-111963580D02*
X105941523Y-112011200D01*
X105941523Y-112011200D02*
X105798666Y-112058819D01*
X105798666Y-112058819D02*
X105703428Y-112058819D01*
X105703428Y-112058819D02*
X105560571Y-112011200D01*
X105560571Y-112011200D02*
X105465333Y-111915961D01*
X105465333Y-111915961D02*
X105417714Y-111820723D01*
X105417714Y-111820723D02*
X105370095Y-111630247D01*
X105370095Y-111630247D02*
X105370095Y-111487390D01*
X105370095Y-111487390D02*
X105417714Y-111296914D01*
X105417714Y-111296914D02*
X105465333Y-111201676D01*
X105465333Y-111201676D02*
X105560571Y-111106438D01*
X105560571Y-111106438D02*
X105703428Y-111058819D01*
X105703428Y-111058819D02*
X105798666Y-111058819D01*
X105798666Y-111058819D02*
X105941523Y-111106438D01*
X105941523Y-111106438D02*
X105989142Y-111154057D01*
X106941523Y-112058819D02*
X106370095Y-112058819D01*
X106655809Y-112058819D02*
X106655809Y-111058819D01*
X106655809Y-111058819D02*
X106560571Y-111201676D01*
X106560571Y-111201676D02*
X106465333Y-111296914D01*
X106465333Y-111296914D02*
X106370095Y-111344533D01*
X107893904Y-112058819D02*
X107322476Y-112058819D01*
X107608190Y-112058819D02*
X107608190Y-111058819D01*
X107608190Y-111058819D02*
X107512952Y-111201676D01*
X107512952Y-111201676D02*
X107417714Y-111296914D01*
X107417714Y-111296914D02*
X107322476Y-111344533D01*
X93609833Y-110681580D02*
X93562214Y-110729200D01*
X93562214Y-110729200D02*
X93419357Y-110776819D01*
X93419357Y-110776819D02*
X93324119Y-110776819D01*
X93324119Y-110776819D02*
X93181262Y-110729200D01*
X93181262Y-110729200D02*
X93086024Y-110633961D01*
X93086024Y-110633961D02*
X93038405Y-110538723D01*
X93038405Y-110538723D02*
X92990786Y-110348247D01*
X92990786Y-110348247D02*
X92990786Y-110205390D01*
X92990786Y-110205390D02*
X93038405Y-110014914D01*
X93038405Y-110014914D02*
X93086024Y-109919676D01*
X93086024Y-109919676D02*
X93181262Y-109824438D01*
X93181262Y-109824438D02*
X93324119Y-109776819D01*
X93324119Y-109776819D02*
X93419357Y-109776819D01*
X93419357Y-109776819D02*
X93562214Y-109824438D01*
X93562214Y-109824438D02*
X93609833Y-109872057D01*
X94514595Y-109776819D02*
X94038405Y-109776819D01*
X94038405Y-109776819D02*
X93990786Y-110253009D01*
X93990786Y-110253009D02*
X94038405Y-110205390D01*
X94038405Y-110205390D02*
X94133643Y-110157771D01*
X94133643Y-110157771D02*
X94371738Y-110157771D01*
X94371738Y-110157771D02*
X94466976Y-110205390D01*
X94466976Y-110205390D02*
X94514595Y-110253009D01*
X94514595Y-110253009D02*
X94562214Y-110348247D01*
X94562214Y-110348247D02*
X94562214Y-110586342D01*
X94562214Y-110586342D02*
X94514595Y-110681580D01*
X94514595Y-110681580D02*
X94466976Y-110729200D01*
X94466976Y-110729200D02*
X94371738Y-110776819D01*
X94371738Y-110776819D02*
X94133643Y-110776819D01*
X94133643Y-110776819D02*
X94038405Y-110729200D01*
X94038405Y-110729200D02*
X93990786Y-110681580D01*
X113857142Y-116024819D02*
X113523809Y-115548628D01*
X113285714Y-116024819D02*
X113285714Y-115024819D01*
X113285714Y-115024819D02*
X113666666Y-115024819D01*
X113666666Y-115024819D02*
X113761904Y-115072438D01*
X113761904Y-115072438D02*
X113809523Y-115120057D01*
X113809523Y-115120057D02*
X113857142Y-115215295D01*
X113857142Y-115215295D02*
X113857142Y-115358152D01*
X113857142Y-115358152D02*
X113809523Y-115453390D01*
X113809523Y-115453390D02*
X113761904Y-115501009D01*
X113761904Y-115501009D02*
X113666666Y-115548628D01*
X113666666Y-115548628D02*
X113285714Y-115548628D01*
X114238095Y-115120057D02*
X114285714Y-115072438D01*
X114285714Y-115072438D02*
X114380952Y-115024819D01*
X114380952Y-115024819D02*
X114619047Y-115024819D01*
X114619047Y-115024819D02*
X114714285Y-115072438D01*
X114714285Y-115072438D02*
X114761904Y-115120057D01*
X114761904Y-115120057D02*
X114809523Y-115215295D01*
X114809523Y-115215295D02*
X114809523Y-115310533D01*
X114809523Y-115310533D02*
X114761904Y-115453390D01*
X114761904Y-115453390D02*
X114190476Y-116024819D01*
X114190476Y-116024819D02*
X114809523Y-116024819D01*
X115666666Y-115024819D02*
X115476190Y-115024819D01*
X115476190Y-115024819D02*
X115380952Y-115072438D01*
X115380952Y-115072438D02*
X115333333Y-115120057D01*
X115333333Y-115120057D02*
X115238095Y-115262914D01*
X115238095Y-115262914D02*
X115190476Y-115453390D01*
X115190476Y-115453390D02*
X115190476Y-115834342D01*
X115190476Y-115834342D02*
X115238095Y-115929580D01*
X115238095Y-115929580D02*
X115285714Y-115977200D01*
X115285714Y-115977200D02*
X115380952Y-116024819D01*
X115380952Y-116024819D02*
X115571428Y-116024819D01*
X115571428Y-116024819D02*
X115666666Y-115977200D01*
X115666666Y-115977200D02*
X115714285Y-115929580D01*
X115714285Y-115929580D02*
X115761904Y-115834342D01*
X115761904Y-115834342D02*
X115761904Y-115596247D01*
X115761904Y-115596247D02*
X115714285Y-115501009D01*
X115714285Y-115501009D02*
X115666666Y-115453390D01*
X115666666Y-115453390D02*
X115571428Y-115405771D01*
X115571428Y-115405771D02*
X115380952Y-115405771D01*
X115380952Y-115405771D02*
X115285714Y-115453390D01*
X115285714Y-115453390D02*
X115238095Y-115501009D01*
X115238095Y-115501009D02*
X115190476Y-115596247D01*
X113857142Y-122978819D02*
X113523809Y-122502628D01*
X113285714Y-122978819D02*
X113285714Y-121978819D01*
X113285714Y-121978819D02*
X113666666Y-121978819D01*
X113666666Y-121978819D02*
X113761904Y-122026438D01*
X113761904Y-122026438D02*
X113809523Y-122074057D01*
X113809523Y-122074057D02*
X113857142Y-122169295D01*
X113857142Y-122169295D02*
X113857142Y-122312152D01*
X113857142Y-122312152D02*
X113809523Y-122407390D01*
X113809523Y-122407390D02*
X113761904Y-122455009D01*
X113761904Y-122455009D02*
X113666666Y-122502628D01*
X113666666Y-122502628D02*
X113285714Y-122502628D01*
X114238095Y-122074057D02*
X114285714Y-122026438D01*
X114285714Y-122026438D02*
X114380952Y-121978819D01*
X114380952Y-121978819D02*
X114619047Y-121978819D01*
X114619047Y-121978819D02*
X114714285Y-122026438D01*
X114714285Y-122026438D02*
X114761904Y-122074057D01*
X114761904Y-122074057D02*
X114809523Y-122169295D01*
X114809523Y-122169295D02*
X114809523Y-122264533D01*
X114809523Y-122264533D02*
X114761904Y-122407390D01*
X114761904Y-122407390D02*
X114190476Y-122978819D01*
X114190476Y-122978819D02*
X114809523Y-122978819D01*
X115190476Y-122074057D02*
X115238095Y-122026438D01*
X115238095Y-122026438D02*
X115333333Y-121978819D01*
X115333333Y-121978819D02*
X115571428Y-121978819D01*
X115571428Y-121978819D02*
X115666666Y-122026438D01*
X115666666Y-122026438D02*
X115714285Y-122074057D01*
X115714285Y-122074057D02*
X115761904Y-122169295D01*
X115761904Y-122169295D02*
X115761904Y-122264533D01*
X115761904Y-122264533D02*
X115714285Y-122407390D01*
X115714285Y-122407390D02*
X115142857Y-122978819D01*
X115142857Y-122978819D02*
X115761904Y-122978819D01*
X86737714Y-122454819D02*
X86737714Y-121454819D01*
X86737714Y-121454819D02*
X86975809Y-121454819D01*
X86975809Y-121454819D02*
X87118666Y-121502438D01*
X87118666Y-121502438D02*
X87213904Y-121597676D01*
X87213904Y-121597676D02*
X87261523Y-121692914D01*
X87261523Y-121692914D02*
X87309142Y-121883390D01*
X87309142Y-121883390D02*
X87309142Y-122026247D01*
X87309142Y-122026247D02*
X87261523Y-122216723D01*
X87261523Y-122216723D02*
X87213904Y-122311961D01*
X87213904Y-122311961D02*
X87118666Y-122407200D01*
X87118666Y-122407200D02*
X86975809Y-122454819D01*
X86975809Y-122454819D02*
X86737714Y-122454819D01*
X87642476Y-121454819D02*
X88309142Y-121454819D01*
X88309142Y-121454819D02*
X87880571Y-122454819D01*
X88737714Y-122454819D02*
X88928190Y-122454819D01*
X88928190Y-122454819D02*
X89023428Y-122407200D01*
X89023428Y-122407200D02*
X89071047Y-122359580D01*
X89071047Y-122359580D02*
X89166285Y-122216723D01*
X89166285Y-122216723D02*
X89213904Y-122026247D01*
X89213904Y-122026247D02*
X89213904Y-121645295D01*
X89213904Y-121645295D02*
X89166285Y-121550057D01*
X89166285Y-121550057D02*
X89118666Y-121502438D01*
X89118666Y-121502438D02*
X89023428Y-121454819D01*
X89023428Y-121454819D02*
X88832952Y-121454819D01*
X88832952Y-121454819D02*
X88737714Y-121502438D01*
X88737714Y-121502438D02*
X88690095Y-121550057D01*
X88690095Y-121550057D02*
X88642476Y-121645295D01*
X88642476Y-121645295D02*
X88642476Y-121883390D01*
X88642476Y-121883390D02*
X88690095Y-121978628D01*
X88690095Y-121978628D02*
X88737714Y-122026247D01*
X88737714Y-122026247D02*
X88832952Y-122073866D01*
X88832952Y-122073866D02*
X89023428Y-122073866D01*
X89023428Y-122073866D02*
X89118666Y-122026247D01*
X89118666Y-122026247D02*
X89166285Y-121978628D01*
X89166285Y-121978628D02*
X89213904Y-121883390D01*
X100623333Y-111963580D02*
X100575714Y-112011200D01*
X100575714Y-112011200D02*
X100432857Y-112058819D01*
X100432857Y-112058819D02*
X100337619Y-112058819D01*
X100337619Y-112058819D02*
X100194762Y-112011200D01*
X100194762Y-112011200D02*
X100099524Y-111915961D01*
X100099524Y-111915961D02*
X100051905Y-111820723D01*
X100051905Y-111820723D02*
X100004286Y-111630247D01*
X100004286Y-111630247D02*
X100004286Y-111487390D01*
X100004286Y-111487390D02*
X100051905Y-111296914D01*
X100051905Y-111296914D02*
X100099524Y-111201676D01*
X100099524Y-111201676D02*
X100194762Y-111106438D01*
X100194762Y-111106438D02*
X100337619Y-111058819D01*
X100337619Y-111058819D02*
X100432857Y-111058819D01*
X100432857Y-111058819D02*
X100575714Y-111106438D01*
X100575714Y-111106438D02*
X100623333Y-111154057D01*
X101480476Y-111058819D02*
X101290000Y-111058819D01*
X101290000Y-111058819D02*
X101194762Y-111106438D01*
X101194762Y-111106438D02*
X101147143Y-111154057D01*
X101147143Y-111154057D02*
X101051905Y-111296914D01*
X101051905Y-111296914D02*
X101004286Y-111487390D01*
X101004286Y-111487390D02*
X101004286Y-111868342D01*
X101004286Y-111868342D02*
X101051905Y-111963580D01*
X101051905Y-111963580D02*
X101099524Y-112011200D01*
X101099524Y-112011200D02*
X101194762Y-112058819D01*
X101194762Y-112058819D02*
X101385238Y-112058819D01*
X101385238Y-112058819D02*
X101480476Y-112011200D01*
X101480476Y-112011200D02*
X101528095Y-111963580D01*
X101528095Y-111963580D02*
X101575714Y-111868342D01*
X101575714Y-111868342D02*
X101575714Y-111630247D01*
X101575714Y-111630247D02*
X101528095Y-111535009D01*
X101528095Y-111535009D02*
X101480476Y-111487390D01*
X101480476Y-111487390D02*
X101385238Y-111439771D01*
X101385238Y-111439771D02*
X101194762Y-111439771D01*
X101194762Y-111439771D02*
X101099524Y-111487390D01*
X101099524Y-111487390D02*
X101051905Y-111535009D01*
X101051905Y-111535009D02*
X101004286Y-111630247D01*
X86991714Y-125462819D02*
X86991714Y-124462819D01*
X86991714Y-124462819D02*
X87229809Y-124462819D01*
X87229809Y-124462819D02*
X87372666Y-124510438D01*
X87372666Y-124510438D02*
X87467904Y-124605676D01*
X87467904Y-124605676D02*
X87515523Y-124700914D01*
X87515523Y-124700914D02*
X87563142Y-124891390D01*
X87563142Y-124891390D02*
X87563142Y-125034247D01*
X87563142Y-125034247D02*
X87515523Y-125224723D01*
X87515523Y-125224723D02*
X87467904Y-125319961D01*
X87467904Y-125319961D02*
X87372666Y-125415200D01*
X87372666Y-125415200D02*
X87229809Y-125462819D01*
X87229809Y-125462819D02*
X86991714Y-125462819D01*
X87896476Y-124462819D02*
X88563142Y-124462819D01*
X88563142Y-124462819D02*
X88134571Y-125462819D01*
X89086952Y-124891390D02*
X88991714Y-124843771D01*
X88991714Y-124843771D02*
X88944095Y-124796152D01*
X88944095Y-124796152D02*
X88896476Y-124700914D01*
X88896476Y-124700914D02*
X88896476Y-124653295D01*
X88896476Y-124653295D02*
X88944095Y-124558057D01*
X88944095Y-124558057D02*
X88991714Y-124510438D01*
X88991714Y-124510438D02*
X89086952Y-124462819D01*
X89086952Y-124462819D02*
X89277428Y-124462819D01*
X89277428Y-124462819D02*
X89372666Y-124510438D01*
X89372666Y-124510438D02*
X89420285Y-124558057D01*
X89420285Y-124558057D02*
X89467904Y-124653295D01*
X89467904Y-124653295D02*
X89467904Y-124700914D01*
X89467904Y-124700914D02*
X89420285Y-124796152D01*
X89420285Y-124796152D02*
X89372666Y-124843771D01*
X89372666Y-124843771D02*
X89277428Y-124891390D01*
X89277428Y-124891390D02*
X89086952Y-124891390D01*
X89086952Y-124891390D02*
X88991714Y-124939009D01*
X88991714Y-124939009D02*
X88944095Y-124986628D01*
X88944095Y-124986628D02*
X88896476Y-125081866D01*
X88896476Y-125081866D02*
X88896476Y-125272342D01*
X88896476Y-125272342D02*
X88944095Y-125367580D01*
X88944095Y-125367580D02*
X88991714Y-125415200D01*
X88991714Y-125415200D02*
X89086952Y-125462819D01*
X89086952Y-125462819D02*
X89277428Y-125462819D01*
X89277428Y-125462819D02*
X89372666Y-125415200D01*
X89372666Y-125415200D02*
X89420285Y-125367580D01*
X89420285Y-125367580D02*
X89467904Y-125272342D01*
X89467904Y-125272342D02*
X89467904Y-125081866D01*
X89467904Y-125081866D02*
X89420285Y-124986628D01*
X89420285Y-124986628D02*
X89372666Y-124939009D01*
X89372666Y-124939009D02*
X89277428Y-124891390D01*
X99834333Y-92996819D02*
X99501000Y-92520628D01*
X99262905Y-92996819D02*
X99262905Y-91996819D01*
X99262905Y-91996819D02*
X99643857Y-91996819D01*
X99643857Y-91996819D02*
X99739095Y-92044438D01*
X99739095Y-92044438D02*
X99786714Y-92092057D01*
X99786714Y-92092057D02*
X99834333Y-92187295D01*
X99834333Y-92187295D02*
X99834333Y-92330152D01*
X99834333Y-92330152D02*
X99786714Y-92425390D01*
X99786714Y-92425390D02*
X99739095Y-92473009D01*
X99739095Y-92473009D02*
X99643857Y-92520628D01*
X99643857Y-92520628D02*
X99262905Y-92520628D01*
X100691476Y-92330152D02*
X100691476Y-92996819D01*
X100453381Y-91949200D02*
X100215286Y-92663485D01*
X100215286Y-92663485D02*
X100834333Y-92663485D01*
X90357142Y-130454819D02*
X90023809Y-129978628D01*
X89785714Y-130454819D02*
X89785714Y-129454819D01*
X89785714Y-129454819D02*
X90166666Y-129454819D01*
X90166666Y-129454819D02*
X90261904Y-129502438D01*
X90261904Y-129502438D02*
X90309523Y-129550057D01*
X90309523Y-129550057D02*
X90357142Y-129645295D01*
X90357142Y-129645295D02*
X90357142Y-129788152D01*
X90357142Y-129788152D02*
X90309523Y-129883390D01*
X90309523Y-129883390D02*
X90261904Y-129931009D01*
X90261904Y-129931009D02*
X90166666Y-129978628D01*
X90166666Y-129978628D02*
X89785714Y-129978628D01*
X90738095Y-129550057D02*
X90785714Y-129502438D01*
X90785714Y-129502438D02*
X90880952Y-129454819D01*
X90880952Y-129454819D02*
X91119047Y-129454819D01*
X91119047Y-129454819D02*
X91214285Y-129502438D01*
X91214285Y-129502438D02*
X91261904Y-129550057D01*
X91261904Y-129550057D02*
X91309523Y-129645295D01*
X91309523Y-129645295D02*
X91309523Y-129740533D01*
X91309523Y-129740533D02*
X91261904Y-129883390D01*
X91261904Y-129883390D02*
X90690476Y-130454819D01*
X90690476Y-130454819D02*
X91309523Y-130454819D01*
X92214285Y-129454819D02*
X91738095Y-129454819D01*
X91738095Y-129454819D02*
X91690476Y-129931009D01*
X91690476Y-129931009D02*
X91738095Y-129883390D01*
X91738095Y-129883390D02*
X91833333Y-129835771D01*
X91833333Y-129835771D02*
X92071428Y-129835771D01*
X92071428Y-129835771D02*
X92166666Y-129883390D01*
X92166666Y-129883390D02*
X92214285Y-129931009D01*
X92214285Y-129931009D02*
X92261904Y-130026247D01*
X92261904Y-130026247D02*
X92261904Y-130264342D01*
X92261904Y-130264342D02*
X92214285Y-130359580D01*
X92214285Y-130359580D02*
X92166666Y-130407200D01*
X92166666Y-130407200D02*
X92071428Y-130454819D01*
X92071428Y-130454819D02*
X91833333Y-130454819D01*
X91833333Y-130454819D02*
X91738095Y-130407200D01*
X91738095Y-130407200D02*
X91690476Y-130359580D01*
X90971333Y-104597580D02*
X90923714Y-104645200D01*
X90923714Y-104645200D02*
X90780857Y-104692819D01*
X90780857Y-104692819D02*
X90685619Y-104692819D01*
X90685619Y-104692819D02*
X90542762Y-104645200D01*
X90542762Y-104645200D02*
X90447524Y-104549961D01*
X90447524Y-104549961D02*
X90399905Y-104454723D01*
X90399905Y-104454723D02*
X90352286Y-104264247D01*
X90352286Y-104264247D02*
X90352286Y-104121390D01*
X90352286Y-104121390D02*
X90399905Y-103930914D01*
X90399905Y-103930914D02*
X90447524Y-103835676D01*
X90447524Y-103835676D02*
X90542762Y-103740438D01*
X90542762Y-103740438D02*
X90685619Y-103692819D01*
X90685619Y-103692819D02*
X90780857Y-103692819D01*
X90780857Y-103692819D02*
X90923714Y-103740438D01*
X90923714Y-103740438D02*
X90971333Y-103788057D01*
X91304667Y-103692819D02*
X91923714Y-103692819D01*
X91923714Y-103692819D02*
X91590381Y-104073771D01*
X91590381Y-104073771D02*
X91733238Y-104073771D01*
X91733238Y-104073771D02*
X91828476Y-104121390D01*
X91828476Y-104121390D02*
X91876095Y-104169009D01*
X91876095Y-104169009D02*
X91923714Y-104264247D01*
X91923714Y-104264247D02*
X91923714Y-104502342D01*
X91923714Y-104502342D02*
X91876095Y-104597580D01*
X91876095Y-104597580D02*
X91828476Y-104645200D01*
X91828476Y-104645200D02*
X91733238Y-104692819D01*
X91733238Y-104692819D02*
X91447524Y-104692819D01*
X91447524Y-104692819D02*
X91352286Y-104645200D01*
X91352286Y-104645200D02*
X91304667Y-104597580D01*
X132409580Y-91700666D02*
X132457200Y-91748285D01*
X132457200Y-91748285D02*
X132504819Y-91891142D01*
X132504819Y-91891142D02*
X132504819Y-91986380D01*
X132504819Y-91986380D02*
X132457200Y-92129237D01*
X132457200Y-92129237D02*
X132361961Y-92224475D01*
X132361961Y-92224475D02*
X132266723Y-92272094D01*
X132266723Y-92272094D02*
X132076247Y-92319713D01*
X132076247Y-92319713D02*
X131933390Y-92319713D01*
X131933390Y-92319713D02*
X131742914Y-92272094D01*
X131742914Y-92272094D02*
X131647676Y-92224475D01*
X131647676Y-92224475D02*
X131552438Y-92129237D01*
X131552438Y-92129237D02*
X131504819Y-91986380D01*
X131504819Y-91986380D02*
X131504819Y-91891142D01*
X131504819Y-91891142D02*
X131552438Y-91748285D01*
X131552438Y-91748285D02*
X131600057Y-91700666D01*
X132504819Y-90748285D02*
X132504819Y-91319713D01*
X132504819Y-91033999D02*
X131504819Y-91033999D01*
X131504819Y-91033999D02*
X131647676Y-91129237D01*
X131647676Y-91129237D02*
X131742914Y-91224475D01*
X131742914Y-91224475D02*
X131790533Y-91319713D01*
X138333333Y-86545180D02*
X138333333Y-85830895D01*
X138333333Y-85830895D02*
X138380952Y-85688038D01*
X138380952Y-85688038D02*
X138476190Y-85592800D01*
X138476190Y-85592800D02*
X138619047Y-85545180D01*
X138619047Y-85545180D02*
X138714285Y-85545180D01*
X137333333Y-85545180D02*
X137904761Y-85545180D01*
X137619047Y-85545180D02*
X137619047Y-86545180D01*
X137619047Y-86545180D02*
X137714285Y-86402323D01*
X137714285Y-86402323D02*
X137809523Y-86307085D01*
X137809523Y-86307085D02*
X137904761Y-86259466D01*
X87357142Y-120454819D02*
X87023809Y-119978628D01*
X86785714Y-120454819D02*
X86785714Y-119454819D01*
X86785714Y-119454819D02*
X87166666Y-119454819D01*
X87166666Y-119454819D02*
X87261904Y-119502438D01*
X87261904Y-119502438D02*
X87309523Y-119550057D01*
X87309523Y-119550057D02*
X87357142Y-119645295D01*
X87357142Y-119645295D02*
X87357142Y-119788152D01*
X87357142Y-119788152D02*
X87309523Y-119883390D01*
X87309523Y-119883390D02*
X87261904Y-119931009D01*
X87261904Y-119931009D02*
X87166666Y-119978628D01*
X87166666Y-119978628D02*
X86785714Y-119978628D01*
X87738095Y-119550057D02*
X87785714Y-119502438D01*
X87785714Y-119502438D02*
X87880952Y-119454819D01*
X87880952Y-119454819D02*
X88119047Y-119454819D01*
X88119047Y-119454819D02*
X88214285Y-119502438D01*
X88214285Y-119502438D02*
X88261904Y-119550057D01*
X88261904Y-119550057D02*
X88309523Y-119645295D01*
X88309523Y-119645295D02*
X88309523Y-119740533D01*
X88309523Y-119740533D02*
X88261904Y-119883390D01*
X88261904Y-119883390D02*
X87690476Y-120454819D01*
X87690476Y-120454819D02*
X88309523Y-120454819D01*
X89166666Y-119788152D02*
X89166666Y-120454819D01*
X88928571Y-119407200D02*
X88690476Y-120121485D01*
X88690476Y-120121485D02*
X89309523Y-120121485D01*
X109833333Y-102954819D02*
X109500000Y-102478628D01*
X109261905Y-102954819D02*
X109261905Y-101954819D01*
X109261905Y-101954819D02*
X109642857Y-101954819D01*
X109642857Y-101954819D02*
X109738095Y-102002438D01*
X109738095Y-102002438D02*
X109785714Y-102050057D01*
X109785714Y-102050057D02*
X109833333Y-102145295D01*
X109833333Y-102145295D02*
X109833333Y-102288152D01*
X109833333Y-102288152D02*
X109785714Y-102383390D01*
X109785714Y-102383390D02*
X109738095Y-102431009D01*
X109738095Y-102431009D02*
X109642857Y-102478628D01*
X109642857Y-102478628D02*
X109261905Y-102478628D01*
X110214286Y-102050057D02*
X110261905Y-102002438D01*
X110261905Y-102002438D02*
X110357143Y-101954819D01*
X110357143Y-101954819D02*
X110595238Y-101954819D01*
X110595238Y-101954819D02*
X110690476Y-102002438D01*
X110690476Y-102002438D02*
X110738095Y-102050057D01*
X110738095Y-102050057D02*
X110785714Y-102145295D01*
X110785714Y-102145295D02*
X110785714Y-102240533D01*
X110785714Y-102240533D02*
X110738095Y-102383390D01*
X110738095Y-102383390D02*
X110166667Y-102954819D01*
X110166667Y-102954819D02*
X110785714Y-102954819D01*
X87357142Y-126954819D02*
X87023809Y-126478628D01*
X86785714Y-126954819D02*
X86785714Y-125954819D01*
X86785714Y-125954819D02*
X87166666Y-125954819D01*
X87166666Y-125954819D02*
X87261904Y-126002438D01*
X87261904Y-126002438D02*
X87309523Y-126050057D01*
X87309523Y-126050057D02*
X87357142Y-126145295D01*
X87357142Y-126145295D02*
X87357142Y-126288152D01*
X87357142Y-126288152D02*
X87309523Y-126383390D01*
X87309523Y-126383390D02*
X87261904Y-126431009D01*
X87261904Y-126431009D02*
X87166666Y-126478628D01*
X87166666Y-126478628D02*
X86785714Y-126478628D01*
X87738095Y-126050057D02*
X87785714Y-126002438D01*
X87785714Y-126002438D02*
X87880952Y-125954819D01*
X87880952Y-125954819D02*
X88119047Y-125954819D01*
X88119047Y-125954819D02*
X88214285Y-126002438D01*
X88214285Y-126002438D02*
X88261904Y-126050057D01*
X88261904Y-126050057D02*
X88309523Y-126145295D01*
X88309523Y-126145295D02*
X88309523Y-126240533D01*
X88309523Y-126240533D02*
X88261904Y-126383390D01*
X88261904Y-126383390D02*
X87690476Y-126954819D01*
X87690476Y-126954819D02*
X88309523Y-126954819D01*
X88642857Y-125954819D02*
X89261904Y-125954819D01*
X89261904Y-125954819D02*
X88928571Y-126335771D01*
X88928571Y-126335771D02*
X89071428Y-126335771D01*
X89071428Y-126335771D02*
X89166666Y-126383390D01*
X89166666Y-126383390D02*
X89214285Y-126431009D01*
X89214285Y-126431009D02*
X89261904Y-126526247D01*
X89261904Y-126526247D02*
X89261904Y-126764342D01*
X89261904Y-126764342D02*
X89214285Y-126859580D01*
X89214285Y-126859580D02*
X89166666Y-126907200D01*
X89166666Y-126907200D02*
X89071428Y-126954819D01*
X89071428Y-126954819D02*
X88785714Y-126954819D01*
X88785714Y-126954819D02*
X88690476Y-126907200D01*
X88690476Y-126907200D02*
X88642857Y-126859580D01*
X80177819Y-84323333D02*
X80892104Y-84323333D01*
X80892104Y-84323333D02*
X81034961Y-84370952D01*
X81034961Y-84370952D02*
X81130200Y-84466190D01*
X81130200Y-84466190D02*
X81177819Y-84609047D01*
X81177819Y-84609047D02*
X81177819Y-84704285D01*
X80511152Y-83418571D02*
X81177819Y-83418571D01*
X80130200Y-83656666D02*
X80844485Y-83894761D01*
X80844485Y-83894761D02*
X80844485Y-83275714D01*
X93609833Y-109317580D02*
X93562214Y-109365200D01*
X93562214Y-109365200D02*
X93419357Y-109412819D01*
X93419357Y-109412819D02*
X93324119Y-109412819D01*
X93324119Y-109412819D02*
X93181262Y-109365200D01*
X93181262Y-109365200D02*
X93086024Y-109269961D01*
X93086024Y-109269961D02*
X93038405Y-109174723D01*
X93038405Y-109174723D02*
X92990786Y-108984247D01*
X92990786Y-108984247D02*
X92990786Y-108841390D01*
X92990786Y-108841390D02*
X93038405Y-108650914D01*
X93038405Y-108650914D02*
X93086024Y-108555676D01*
X93086024Y-108555676D02*
X93181262Y-108460438D01*
X93181262Y-108460438D02*
X93324119Y-108412819D01*
X93324119Y-108412819D02*
X93419357Y-108412819D01*
X93419357Y-108412819D02*
X93562214Y-108460438D01*
X93562214Y-108460438D02*
X93609833Y-108508057D01*
X94466976Y-108746152D02*
X94466976Y-109412819D01*
X94228881Y-108365200D02*
X93990786Y-109079485D01*
X93990786Y-109079485D02*
X94609833Y-109079485D01*
X97488095Y-98604819D02*
X97488095Y-99414342D01*
X97488095Y-99414342D02*
X97535714Y-99509580D01*
X97535714Y-99509580D02*
X97583333Y-99557200D01*
X97583333Y-99557200D02*
X97678571Y-99604819D01*
X97678571Y-99604819D02*
X97869047Y-99604819D01*
X97869047Y-99604819D02*
X97964285Y-99557200D01*
X97964285Y-99557200D02*
X98011904Y-99509580D01*
X98011904Y-99509580D02*
X98059523Y-99414342D01*
X98059523Y-99414342D02*
X98059523Y-98604819D01*
X99059523Y-99604819D02*
X98488095Y-99604819D01*
X98773809Y-99604819D02*
X98773809Y-98604819D01*
X98773809Y-98604819D02*
X98678571Y-98747676D01*
X98678571Y-98747676D02*
X98583333Y-98842914D01*
X98583333Y-98842914D02*
X98488095Y-98890533D01*
D12*
%TO.C,G\u002A\u002A\u002A*%
G36*
X116914907Y-131109728D02*
G01*
X116998592Y-131148610D01*
X117091795Y-131232025D01*
X117110551Y-131251512D01*
X117210978Y-131378884D01*
X117298833Y-131540942D01*
X117378501Y-131748749D01*
X117454370Y-132013366D01*
X117514623Y-132270393D01*
X117561364Y-132481649D01*
X117618145Y-132734066D01*
X117677382Y-132994121D01*
X117725499Y-133202578D01*
X117773634Y-133406926D01*
X117810709Y-133550387D01*
X117842896Y-133646851D01*
X117876365Y-133710209D01*
X117917287Y-133754353D01*
X117971833Y-133793172D01*
X117994166Y-133807365D01*
X118098305Y-133885613D01*
X118138650Y-133960126D01*
X118123511Y-134053430D01*
X118103078Y-134102605D01*
X118090270Y-134149857D01*
X118095679Y-134210531D01*
X118123655Y-134297770D01*
X118178546Y-134424721D01*
X118264698Y-134604528D01*
X118278178Y-134631979D01*
X118373622Y-134832022D01*
X118435397Y-134978140D01*
X118467949Y-135083008D01*
X118475722Y-135159303D01*
X118472568Y-135186405D01*
X118414728Y-135320784D01*
X118309315Y-135404245D01*
X118168420Y-135434124D01*
X118004133Y-135407762D01*
X117835080Y-135326719D01*
X117649306Y-135182966D01*
X117459732Y-134993814D01*
X117290720Y-134785250D01*
X117205553Y-134655222D01*
X117136106Y-134547455D01*
X117082432Y-134496730D01*
X117029238Y-134489924D01*
X117016393Y-134492930D01*
X116946817Y-134509194D01*
X116821045Y-134535853D01*
X116658256Y-134568920D01*
X116513444Y-134597468D01*
X116339349Y-134631571D01*
X116191257Y-134661029D01*
X116086537Y-134682360D01*
X116044779Y-134691454D01*
X116006255Y-134729377D01*
X115946838Y-134818836D01*
X115878215Y-134941892D01*
X115865764Y-134966272D01*
X115793513Y-135100545D01*
X115725449Y-135211438D01*
X115674984Y-135277303D01*
X115670527Y-135281337D01*
X115555503Y-135331585D01*
X115424910Y-135321969D01*
X115306208Y-135256164D01*
X115279578Y-135229029D01*
X115227539Y-135149016D01*
X115197033Y-135049662D01*
X115189388Y-134924484D01*
X115205930Y-134767002D01*
X115247986Y-134570734D01*
X115316883Y-134329200D01*
X115413947Y-134035918D01*
X115485604Y-133836896D01*
X116383563Y-133836896D01*
X116409220Y-133851306D01*
X116485535Y-133854888D01*
X116587484Y-133849506D01*
X116690044Y-133837028D01*
X116768193Y-133819321D01*
X116793645Y-133806305D01*
X116794769Y-133762856D01*
X116779621Y-133669163D01*
X116753519Y-133547109D01*
X116721776Y-133418582D01*
X116689708Y-133305467D01*
X116662632Y-133229648D01*
X116648918Y-133210423D01*
X116626006Y-133243579D01*
X116584120Y-133331828D01*
X116531044Y-133458344D01*
X116512719Y-133504805D01*
X116457884Y-133645896D01*
X116413358Y-133760396D01*
X116386787Y-133828644D01*
X116383563Y-133836896D01*
X115485604Y-133836896D01*
X115540506Y-133684408D01*
X115661663Y-133362727D01*
X115752593Y-133123029D01*
X115838515Y-132893555D01*
X115913962Y-132689132D01*
X115973467Y-132524589D01*
X116011565Y-132414754D01*
X116014849Y-132404683D01*
X116101612Y-132167371D01*
X116188841Y-131998154D01*
X116281524Y-131888521D01*
X116341162Y-131848144D01*
X116405665Y-131808968D01*
X116439997Y-131761349D01*
X116453591Y-131681803D01*
X116455892Y-131562532D01*
X116462436Y-131418655D01*
X116488053Y-131319733D01*
X116541719Y-131234652D01*
X116555224Y-131218201D01*
X116641981Y-131136030D01*
X116738913Y-131103658D01*
X116810560Y-131100151D01*
X116914907Y-131109728D01*
G37*
G36*
X111559354Y-131493569D02*
G01*
X111612636Y-131522258D01*
X111727025Y-131621578D01*
X111851178Y-131779931D01*
X111975202Y-131982174D01*
X112089204Y-132213164D01*
X112133331Y-132319217D01*
X112189100Y-132450314D01*
X112238903Y-132547972D01*
X112273633Y-132594781D01*
X112278382Y-132596526D01*
X112343923Y-132576374D01*
X112470288Y-132517331D01*
X112653444Y-132421517D01*
X112889355Y-132291048D01*
X113173987Y-132128044D01*
X113205820Y-132109544D01*
X113481783Y-131951478D01*
X113702953Y-131832001D01*
X113878965Y-131748019D01*
X114019452Y-131696436D01*
X114134048Y-131674157D01*
X114232390Y-131678085D01*
X114324110Y-131705126D01*
X114381323Y-131731854D01*
X114519444Y-131829253D01*
X114626117Y-131965586D01*
X114702338Y-132146247D01*
X114749103Y-132376625D01*
X114767407Y-132662113D01*
X114758246Y-133008100D01*
X114722615Y-133419979D01*
X114711390Y-133519396D01*
X114669106Y-133847632D01*
X114625565Y-134108110D01*
X114577610Y-134309782D01*
X114522082Y-134461605D01*
X114455825Y-134572532D01*
X114375681Y-134651519D01*
X114295137Y-134699821D01*
X114156146Y-134727143D01*
X114009770Y-134688242D01*
X113868475Y-134591021D01*
X113744724Y-134443384D01*
X113670754Y-134303927D01*
X113630562Y-134151035D01*
X113610868Y-133942878D01*
X113611666Y-133698138D01*
X113632949Y-133435496D01*
X113671181Y-133191239D01*
X113708874Y-132997415D01*
X113726632Y-132872157D01*
X113717795Y-132808452D01*
X113675706Y-132799285D01*
X113593706Y-132837643D01*
X113465138Y-132916513D01*
X113430827Y-132938049D01*
X113253726Y-133044944D01*
X113059309Y-133155950D01*
X112884888Y-133249864D01*
X112858154Y-133263489D01*
X112726991Y-133332693D01*
X112623827Y-133392999D01*
X112567141Y-133433448D01*
X112562668Y-133438714D01*
X112560511Y-133490989D01*
X112574781Y-133598421D01*
X112602608Y-133741897D01*
X112618941Y-133813763D01*
X112695658Y-134193616D01*
X112730283Y-134512812D01*
X112722697Y-134774936D01*
X112672776Y-134983575D01*
X112580399Y-135142314D01*
X112573666Y-135150146D01*
X112485303Y-135236327D01*
X112399158Y-135274465D01*
X112294158Y-135282326D01*
X112160536Y-135266575D01*
X112059890Y-135209381D01*
X112029648Y-135181268D01*
X111958863Y-135092953D01*
X111906689Y-134981943D01*
X111870763Y-134836506D01*
X111848724Y-134644913D01*
X111838209Y-134395433D01*
X111836464Y-134221901D01*
X111835328Y-133679451D01*
X111507770Y-133663699D01*
X111324535Y-133650242D01*
X111188396Y-133625963D01*
X111069800Y-133583745D01*
X110972143Y-133534698D01*
X110756570Y-133377201D01*
X110596470Y-133176303D01*
X110492838Y-132942647D01*
X110446671Y-132686877D01*
X110455760Y-132489293D01*
X111276133Y-132489293D01*
X111295744Y-132640429D01*
X111360456Y-132734721D01*
X111479092Y-132780568D01*
X111590233Y-132788368D01*
X111728742Y-132776678D01*
X111794489Y-132741548D01*
X111797928Y-132734700D01*
X111792051Y-132671656D01*
X111753766Y-132566426D01*
X111693237Y-132437642D01*
X111620627Y-132303932D01*
X111546099Y-132183925D01*
X111479817Y-132096253D01*
X111431944Y-132059545D01*
X111429498Y-132059365D01*
X111390779Y-132093278D01*
X111347785Y-132179303D01*
X111308922Y-132293872D01*
X111282600Y-132413415D01*
X111276133Y-132489293D01*
X110455760Y-132489293D01*
X110458964Y-132419637D01*
X110530713Y-132151571D01*
X110662914Y-131893321D01*
X110801712Y-131713170D01*
X110981892Y-131556646D01*
X111174942Y-131466290D01*
X111370787Y-131444474D01*
X111559354Y-131493569D01*
G37*
G36*
X122977647Y-130589961D02*
G01*
X123258191Y-130662460D01*
X123519354Y-130789398D01*
X123618563Y-130858036D01*
X123768443Y-130978987D01*
X123874481Y-131085803D01*
X123958313Y-131204359D01*
X124041577Y-131360532D01*
X124045594Y-131368731D01*
X124103757Y-131504200D01*
X124135236Y-131631484D01*
X124147029Y-131785027D01*
X124147780Y-131871525D01*
X124143221Y-132028981D01*
X124125537Y-132152019D01*
X124086856Y-132272184D01*
X124019308Y-132421022D01*
X124001738Y-132456810D01*
X123900706Y-132634621D01*
X123774540Y-132819933D01*
X123649844Y-132973724D01*
X123647823Y-132975912D01*
X123549957Y-133086341D01*
X123476658Y-133178047D01*
X123440655Y-133234824D01*
X123438973Y-133241742D01*
X123470788Y-133284019D01*
X123518281Y-133307160D01*
X123615409Y-133352720D01*
X123753344Y-133436077D01*
X123914852Y-133544827D01*
X124082699Y-133666571D01*
X124239651Y-133788905D01*
X124368473Y-133899429D01*
X124437807Y-133968854D01*
X124603744Y-134186208D01*
X124715015Y-134395577D01*
X124770222Y-134589018D01*
X124767970Y-134758589D01*
X124706864Y-134896349D01*
X124615145Y-134978025D01*
X124495551Y-135035159D01*
X124383116Y-135044914D01*
X124249524Y-135007409D01*
X124185184Y-134979821D01*
X124089265Y-134928675D01*
X123951281Y-134845507D01*
X123791588Y-134742926D01*
X123667209Y-134659034D01*
X123475590Y-134534028D01*
X123246242Y-134395467D01*
X123003284Y-134257020D01*
X122770831Y-134132362D01*
X122573003Y-134035164D01*
X122542599Y-134021492D01*
X122529203Y-134047885D01*
X122527507Y-134131191D01*
X122535946Y-134234605D01*
X122542568Y-134400735D01*
X122513683Y-134502565D01*
X122445834Y-134545518D01*
X122343176Y-134536992D01*
X122255394Y-134477170D01*
X122181256Y-134351792D01*
X122121566Y-134170956D01*
X122077127Y-133944760D01*
X122048742Y-133683302D01*
X122037214Y-133396681D01*
X122043346Y-133094995D01*
X122067941Y-132788344D01*
X122111804Y-132486824D01*
X122161659Y-132254675D01*
X122228417Y-132058752D01*
X122313009Y-131917095D01*
X122408455Y-131834280D01*
X122507776Y-131814885D01*
X122603992Y-131863488D01*
X122658442Y-131928885D01*
X122687213Y-131990367D01*
X122700547Y-132074528D01*
X122699818Y-132200109D01*
X122689377Y-132350914D01*
X122661676Y-132683454D01*
X122862526Y-132574138D01*
X123052343Y-132445456D01*
X123216062Y-132286649D01*
X123336863Y-132116493D01*
X123391630Y-131983524D01*
X123400494Y-131808403D01*
X123337674Y-131653192D01*
X123207539Y-131527548D01*
X123176881Y-131508573D01*
X123016790Y-131448632D01*
X122808906Y-131417795D01*
X122576937Y-131417314D01*
X122344592Y-131448439D01*
X122287808Y-131461668D01*
X122088918Y-131521647D01*
X121953151Y-131586868D01*
X121866963Y-131665845D01*
X121820753Y-131755258D01*
X121769535Y-131842162D01*
X121691625Y-131867523D01*
X121593874Y-131834013D01*
X121525295Y-131743659D01*
X121488801Y-131611722D01*
X121487307Y-131453460D01*
X121523728Y-131284135D01*
X121562126Y-131189434D01*
X121705926Y-130976079D01*
X121902640Y-130805513D01*
X122140218Y-130679676D01*
X122406611Y-130600510D01*
X122689770Y-130569958D01*
X122977647Y-130589961D01*
G37*
G36*
X120374602Y-131406792D02*
G01*
X120419981Y-131425506D01*
X120562417Y-131530304D01*
X120641584Y-131674435D01*
X120653375Y-131848357D01*
X120636880Y-131929316D01*
X120589879Y-132058424D01*
X120524838Y-132189692D01*
X120453561Y-132303842D01*
X120387850Y-132381597D01*
X120345834Y-132404683D01*
X120295292Y-132373699D01*
X120276870Y-132341907D01*
X120253164Y-132301360D01*
X120216263Y-132313992D01*
X120178664Y-132346207D01*
X120097250Y-132436482D01*
X119993367Y-132574867D01*
X119880046Y-132741439D01*
X119770318Y-132916276D01*
X119677213Y-133079457D01*
X119615092Y-133207806D01*
X119547074Y-133422262D01*
X119526437Y-133611632D01*
X119553245Y-133763507D01*
X119611707Y-133852323D01*
X119753791Y-133937973D01*
X119952348Y-133992230D01*
X120193070Y-134013338D01*
X120461646Y-133999541D01*
X120618883Y-133975914D01*
X120885953Y-133931429D01*
X121086406Y-133911261D01*
X121226781Y-133916557D01*
X121313616Y-133948460D01*
X121353448Y-134008115D01*
X121352816Y-134096668D01*
X121351384Y-134104186D01*
X121306515Y-134220857D01*
X121241782Y-134315473D01*
X121088697Y-134436578D01*
X120876511Y-134544560D01*
X120622285Y-134635654D01*
X120343081Y-134706095D01*
X120055962Y-134752120D01*
X119777990Y-134769964D01*
X119526226Y-134755864D01*
X119379478Y-134726326D01*
X119106456Y-134626739D01*
X118892878Y-134493882D01*
X118724710Y-134316608D01*
X118598803Y-134106263D01*
X118531679Y-133958505D01*
X118494446Y-133835498D01*
X118479010Y-133701078D01*
X118476913Y-133561674D01*
X118510921Y-133221572D01*
X118610905Y-132889717D01*
X118779535Y-132560491D01*
X119019485Y-132228279D01*
X119217167Y-132005759D01*
X119493311Y-131740015D01*
X119746847Y-131547380D01*
X119978055Y-131427721D01*
X120187214Y-131380903D01*
X120374602Y-131406792D01*
G37*
G36*
X129286702Y-133532033D02*
G01*
X129427182Y-133560070D01*
X129461358Y-133574158D01*
X129606609Y-133686780D01*
X129700001Y-133837033D01*
X129736492Y-134006447D01*
X129711040Y-134176557D01*
X129655178Y-134284048D01*
X129587455Y-134362343D01*
X129503454Y-134421245D01*
X129392250Y-134463169D01*
X129242912Y-134490529D01*
X129044515Y-134505738D01*
X128786130Y-134511209D01*
X128627547Y-134511027D01*
X128403600Y-134507968D01*
X128198010Y-134502042D01*
X128026774Y-134493947D01*
X127905889Y-134484377D01*
X127861913Y-134477701D01*
X127673337Y-134405221D01*
X127534423Y-134294557D01*
X127453963Y-134155855D01*
X127440746Y-133999259D01*
X127441733Y-133992812D01*
X127473502Y-133872874D01*
X127531623Y-133780096D01*
X127626196Y-133709069D01*
X127767323Y-133654386D01*
X127965105Y-133610638D01*
X128226087Y-133572857D01*
X128544632Y-133539683D01*
X128834721Y-133521828D01*
X129085646Y-133519282D01*
X129286702Y-133532033D01*
G37*
G36*
X126260423Y-131263991D02*
G01*
X126532088Y-131335416D01*
X126784073Y-131469963D01*
X127006624Y-131663293D01*
X127189984Y-131911069D01*
X127246538Y-132016904D01*
X127307617Y-132151362D01*
X127344527Y-132263919D01*
X127363296Y-132383688D01*
X127369957Y-132539782D01*
X127370571Y-132615710D01*
X127368161Y-132793903D01*
X127355672Y-132924483D01*
X127327388Y-133036450D01*
X127277594Y-133158803D01*
X127253200Y-133211190D01*
X127098102Y-133475030D01*
X126896767Y-133720606D01*
X126659973Y-133941753D01*
X126398496Y-134132310D01*
X126123114Y-134286112D01*
X125844603Y-134396996D01*
X125573740Y-134458799D01*
X125321302Y-134465357D01*
X125132450Y-134424054D01*
X124961125Y-134332389D01*
X124793203Y-134192319D01*
X124656128Y-134028313D01*
X124618238Y-133965558D01*
X124580210Y-133885014D01*
X124555249Y-133800960D01*
X124540727Y-133694778D01*
X124534015Y-133547853D01*
X124532478Y-133358170D01*
X124532478Y-133312005D01*
X125357402Y-133312005D01*
X125374331Y-133484716D01*
X125424281Y-133592336D01*
X125505992Y-133632282D01*
X125513321Y-133632477D01*
X125585583Y-133615746D01*
X125699804Y-133572007D01*
X125823773Y-133514369D01*
X125997551Y-133410944D01*
X126172647Y-133280167D01*
X126329452Y-133139013D01*
X126448357Y-133004458D01*
X126492626Y-132935364D01*
X126544537Y-132765436D01*
X126533365Y-132597374D01*
X126463715Y-132450709D01*
X126355388Y-132353471D01*
X126213620Y-132298656D01*
X126058324Y-132301462D01*
X125894219Y-132351744D01*
X125766865Y-132418888D01*
X125695623Y-132506628D01*
X125666962Y-132636388D01*
X125664351Y-132715680D01*
X125642041Y-132863355D01*
X125581365Y-132968699D01*
X125491705Y-133017042D01*
X125470666Y-133018580D01*
X125409636Y-133040301D01*
X125373588Y-133112432D01*
X125358488Y-133245423D01*
X125357402Y-133312005D01*
X124532478Y-133312005D01*
X124532478Y-132911203D01*
X124837302Y-132309313D01*
X124981619Y-132033927D01*
X125107258Y-131819639D01*
X125223352Y-131656025D01*
X125339032Y-131532661D01*
X125463428Y-131439124D01*
X125605673Y-131364989D01*
X125697076Y-131327858D01*
X125978834Y-131260025D01*
X126260423Y-131263991D01*
G37*
G36*
X134430494Y-129958160D02*
G01*
X134503473Y-129992912D01*
X134566164Y-130064674D01*
X134627554Y-130184774D01*
X134696629Y-130364537D01*
X134719392Y-130429475D01*
X134813053Y-130675530D01*
X134938271Y-130962264D01*
X135097259Y-131294113D01*
X135292228Y-131675512D01*
X135525391Y-132110896D01*
X135798961Y-132604700D01*
X135847197Y-132690433D01*
X135986981Y-132942198D01*
X136115678Y-133181214D01*
X136227779Y-133396678D01*
X136317773Y-133577783D01*
X136380150Y-133713726D01*
X136409013Y-133792036D01*
X136428380Y-134003248D01*
X136377513Y-134183818D01*
X136256180Y-134334538D01*
X136248574Y-134341040D01*
X136105373Y-134415896D01*
X135931972Y-134439989D01*
X135756824Y-134412042D01*
X135659070Y-134367554D01*
X135567708Y-134299166D01*
X135475189Y-134200815D01*
X135373238Y-134061586D01*
X135253580Y-133870565D01*
X135159975Y-133709214D01*
X135079783Y-133568633D01*
X135014381Y-133455044D01*
X134972575Y-133383685D01*
X134962414Y-133367391D01*
X134922460Y-133368868D01*
X134821857Y-133384038D01*
X134674974Y-133410449D01*
X134496181Y-133445652D01*
X134460644Y-133452955D01*
X134254910Y-133494198D01*
X134056382Y-133531686D01*
X133887649Y-133561294D01*
X133771298Y-133578894D01*
X133771119Y-133578916D01*
X133652487Y-133597432D01*
X133586376Y-133625927D01*
X133548811Y-133680467D01*
X133526662Y-133742747D01*
X133435414Y-133951154D01*
X133317762Y-134101539D01*
X133181648Y-134189976D01*
X133035019Y-134212535D01*
X132885818Y-134165288D01*
X132799143Y-134102492D01*
X132739365Y-134040985D01*
X132695349Y-133972390D01*
X132668394Y-133890385D01*
X132659795Y-133788644D01*
X132670852Y-133660843D01*
X132702862Y-133500659D01*
X132757122Y-133301768D01*
X132834932Y-133057845D01*
X132937587Y-132762567D01*
X133000148Y-132591127D01*
X133951955Y-132591127D01*
X133969328Y-132618123D01*
X134030062Y-132631367D01*
X134147101Y-132632574D01*
X134237146Y-132628880D01*
X134378057Y-132618976D01*
X134487072Y-132606109D01*
X134543252Y-132592842D01*
X134545704Y-132591104D01*
X134539690Y-132549258D01*
X134506046Y-132452580D01*
X134450274Y-132315452D01*
X134377877Y-132152258D01*
X134377629Y-132151719D01*
X134302831Y-131996597D01*
X134238586Y-131877199D01*
X134191497Y-131804842D01*
X134168169Y-131790840D01*
X134167695Y-131792024D01*
X134131962Y-131907405D01*
X134089338Y-132054529D01*
X134045035Y-132214092D01*
X134004262Y-132366795D01*
X133972230Y-132493335D01*
X133954151Y-132574411D01*
X133951955Y-132591127D01*
X133000148Y-132591127D01*
X133066386Y-132409608D01*
X133222627Y-131992647D01*
X133243345Y-131937843D01*
X133365403Y-131616136D01*
X133464317Y-131358701D01*
X133543675Y-131157880D01*
X133607067Y-131006016D01*
X133658084Y-130895450D01*
X133700313Y-130818526D01*
X133737346Y-130767586D01*
X133772770Y-130734971D01*
X133810176Y-130713024D01*
X133819520Y-130708643D01*
X133880335Y-130667831D01*
X133907707Y-130601889D01*
X133913596Y-130498047D01*
X133939711Y-130282726D01*
X134014635Y-130115445D01*
X134133229Y-130002845D01*
X134290359Y-129951565D01*
X134338240Y-129949094D01*
X134430494Y-129958160D01*
G37*
G36*
X137352674Y-129984718D02*
G01*
X137829444Y-130064482D01*
X138272874Y-130190996D01*
X138677720Y-130360169D01*
X139038737Y-130567907D01*
X139350684Y-130810117D01*
X139608314Y-131082706D01*
X139806386Y-131381581D01*
X139939655Y-131702650D01*
X140002877Y-132041818D01*
X140003758Y-132053988D01*
X139993716Y-132401004D01*
X139913662Y-132723234D01*
X139762701Y-133022013D01*
X139539937Y-133298679D01*
X139244473Y-133554568D01*
X138875414Y-133791017D01*
X138818216Y-133822432D01*
X138604186Y-133932364D01*
X138414484Y-134014675D01*
X138221729Y-134078934D01*
X137998535Y-134134706D01*
X137816238Y-134172502D01*
X137575346Y-134216083D01*
X137391621Y-134238501D01*
X137248425Y-134239608D01*
X137129120Y-134219252D01*
X137017069Y-134177283D01*
X136991591Y-134165062D01*
X136830139Y-134049228D01*
X136731828Y-133901145D01*
X136697904Y-133733927D01*
X136729614Y-133560687D01*
X136828204Y-133394538D01*
X136910469Y-133311716D01*
X137065506Y-133179009D01*
X136986308Y-132813465D01*
X136949989Y-132619176D01*
X136913994Y-132380518D01*
X136881158Y-132121734D01*
X136854313Y-131867069D01*
X136836294Y-131640764D01*
X136834610Y-131597028D01*
X137652029Y-131597028D01*
X137653679Y-131754713D01*
X137657562Y-131952491D01*
X137663552Y-132178161D01*
X137663595Y-132179619D01*
X137684872Y-132894585D01*
X137877480Y-132814541D01*
X138003968Y-132755353D01*
X138164350Y-132671169D01*
X138327841Y-132578286D01*
X138358370Y-132559998D01*
X138558089Y-132428504D01*
X138690620Y-132314386D01*
X138761670Y-132211050D01*
X138776949Y-132111901D01*
X138771671Y-132082621D01*
X138712771Y-131967299D01*
X138600851Y-131841597D01*
X138454485Y-131722756D01*
X138292250Y-131628015D01*
X138271943Y-131618797D01*
X138149208Y-131570818D01*
X138007956Y-131524180D01*
X137868186Y-131484337D01*
X137749893Y-131456746D01*
X137673075Y-131446862D01*
X137655946Y-131450737D01*
X137652743Y-131491636D01*
X137652029Y-131597028D01*
X136834610Y-131597028D01*
X136829936Y-131475592D01*
X136829608Y-131371426D01*
X136237958Y-131379670D01*
X135646308Y-131387915D01*
X135528617Y-131275681D01*
X135419804Y-131126868D01*
X135380133Y-130961313D01*
X135406000Y-130786694D01*
X135493800Y-130610689D01*
X135639926Y-130440977D01*
X135840775Y-130285235D01*
X136046887Y-130171878D01*
X136412298Y-130041939D01*
X136812747Y-129975551D01*
X137238211Y-129974150D01*
X137352674Y-129984718D01*
G37*
G36*
X131358827Y-129864030D02*
G01*
X131744710Y-129948680D01*
X132088325Y-130085896D01*
X132381850Y-130272970D01*
X132497135Y-130374279D01*
X132666686Y-130559932D01*
X132776390Y-130737225D01*
X132836378Y-130929291D01*
X132856780Y-131159260D01*
X132857054Y-131196072D01*
X132836958Y-131450054D01*
X132770898Y-131666767D01*
X132650003Y-131865180D01*
X132465402Y-132064263D01*
X132440115Y-132087668D01*
X132195807Y-132285193D01*
X131936321Y-132438646D01*
X131632844Y-132564714D01*
X131592296Y-132578728D01*
X131323716Y-132669911D01*
X131334603Y-132873022D01*
X131351601Y-133078678D01*
X131379050Y-133287853D01*
X131413308Y-133479642D01*
X131450727Y-133633145D01*
X131481778Y-133716901D01*
X131530214Y-133865173D01*
X131524067Y-133998613D01*
X131464941Y-134097698D01*
X131449469Y-134109909D01*
X131324929Y-134163650D01*
X131199055Y-134146053D01*
X131062426Y-134055783D01*
X131061417Y-134054900D01*
X130951318Y-133929544D01*
X130834670Y-133747478D01*
X130721311Y-133526959D01*
X130621075Y-133286244D01*
X130575423Y-133152870D01*
X130531836Y-132972556D01*
X130497806Y-132751012D01*
X130474691Y-132510010D01*
X130463849Y-132271326D01*
X130466639Y-132056734D01*
X130484420Y-131888007D01*
X130493880Y-131845839D01*
X130565270Y-131684997D01*
X130672674Y-131569471D01*
X130801957Y-131512871D01*
X130843302Y-131509416D01*
X130971058Y-131538333D01*
X131072770Y-131629068D01*
X131154222Y-131787594D01*
X131177128Y-131854176D01*
X131218139Y-131966149D01*
X131256384Y-132040677D01*
X131276840Y-132059365D01*
X131339972Y-132034851D01*
X131441563Y-131969397D01*
X131564644Y-131875137D01*
X131692251Y-131764204D01*
X131701061Y-131755990D01*
X131809474Y-131637054D01*
X131904043Y-131502766D01*
X131970644Y-131375937D01*
X131995166Y-131281026D01*
X131959300Y-131199733D01*
X131860339Y-131117228D01*
X131711247Y-131042516D01*
X131594424Y-131002635D01*
X131392481Y-130964242D01*
X131149155Y-130948806D01*
X130882367Y-130954371D01*
X130610037Y-130978981D01*
X130350082Y-131020681D01*
X130120424Y-131077516D01*
X129938981Y-131147530D01*
X129865770Y-131191284D01*
X129818990Y-131234967D01*
X129810935Y-131287301D01*
X129837770Y-131378112D01*
X129840695Y-131386238D01*
X129869879Y-131491120D01*
X129861268Y-131557046D01*
X129844984Y-131581617D01*
X129760890Y-131628792D01*
X129645605Y-131623850D01*
X129515680Y-131574748D01*
X129387667Y-131489446D01*
X129278117Y-131375903D01*
X129219932Y-131281062D01*
X129159363Y-131070443D01*
X129174316Y-130856364D01*
X129263850Y-130641864D01*
X129427026Y-130429987D01*
X129507055Y-130351790D01*
X129810523Y-130123385D01*
X130148731Y-129961683D01*
X130524261Y-129865751D01*
X130938500Y-129834654D01*
X131358827Y-129864030D01*
G37*
G36*
X142854681Y-132955954D02*
G01*
X143028863Y-132984901D01*
X143169266Y-133043855D01*
X143288959Y-133135892D01*
X143368649Y-133242804D01*
X143390635Y-133326333D01*
X143366664Y-133403056D01*
X143308313Y-133493505D01*
X143301898Y-133501149D01*
X143246279Y-133557161D01*
X143185716Y-133587481D01*
X143096028Y-133599016D01*
X142959828Y-133598819D01*
X142838211Y-133603482D01*
X142659149Y-133619838D01*
X142440684Y-133645782D01*
X142200855Y-133679212D01*
X142003021Y-133710382D01*
X141745929Y-133750736D01*
X141483034Y-133787770D01*
X141236299Y-133818678D01*
X141027689Y-133840656D01*
X140915861Y-133849239D01*
X140738307Y-133857970D01*
X140619961Y-133858542D01*
X140543530Y-133848813D01*
X140491722Y-133826643D01*
X140448844Y-133791425D01*
X140357409Y-133660438D01*
X140337486Y-133520575D01*
X140387094Y-133385042D01*
X140504253Y-133267042D01*
X140530015Y-133250127D01*
X140674663Y-133184717D01*
X140881508Y-133123903D01*
X141136071Y-133069220D01*
X141423872Y-133022206D01*
X141730432Y-132984398D01*
X142041272Y-132957331D01*
X142341913Y-132942544D01*
X142617876Y-132941573D01*
X142854681Y-132955954D01*
G37*
G36*
X145560951Y-129623566D02*
G01*
X145685756Y-129654116D01*
X145844242Y-129680280D01*
X145946497Y-129691474D01*
X146249242Y-129752934D01*
X146520756Y-129882278D01*
X146753640Y-130074450D01*
X146940494Y-130324391D01*
X146980703Y-130398371D01*
X147028788Y-130498088D01*
X147060733Y-130584374D01*
X147079750Y-130676972D01*
X147089054Y-130795627D01*
X147091855Y-130960085D01*
X147091777Y-131080967D01*
X147088844Y-131294062D01*
X147079280Y-131455031D01*
X147059643Y-131588419D01*
X147026488Y-131718770D01*
X146984131Y-131848338D01*
X146825091Y-132227366D01*
X146622651Y-132580578D01*
X146385882Y-132896586D01*
X146123855Y-133164002D01*
X145845638Y-133371438D01*
X145712767Y-133444536D01*
X145424213Y-133551775D01*
X145139195Y-133594227D01*
X144869928Y-133571192D01*
X144672062Y-133504192D01*
X144420234Y-133344510D01*
X144221734Y-133133406D01*
X144077958Y-132875955D01*
X144042385Y-132754726D01*
X145040484Y-132754726D01*
X145074776Y-132786944D01*
X145161431Y-132813053D01*
X145229805Y-132822286D01*
X145295423Y-132809076D01*
X145398014Y-132770532D01*
X145449577Y-132746987D01*
X145609929Y-132641087D01*
X145777059Y-132482566D01*
X145932395Y-132291230D01*
X146043317Y-132113812D01*
X146112863Y-131980085D01*
X146152921Y-131888973D01*
X146159280Y-131841695D01*
X146127730Y-131839472D01*
X146054062Y-131883524D01*
X145934064Y-131975072D01*
X145763527Y-132115335D01*
X145619526Y-132236641D01*
X145442128Y-132388134D01*
X145286704Y-132523448D01*
X145162143Y-132634630D01*
X145077334Y-132713728D01*
X145041165Y-132752788D01*
X145040484Y-132754726D01*
X144042385Y-132754726D01*
X143990303Y-132577233D01*
X143960168Y-132242312D01*
X143988949Y-131876270D01*
X144006640Y-131798414D01*
X144963833Y-131798414D01*
X144969131Y-131813021D01*
X144990761Y-131803488D01*
X145034706Y-131764495D01*
X145106946Y-131690726D01*
X145213464Y-131576860D01*
X145360240Y-131417581D01*
X145553258Y-131207570D01*
X145556804Y-131203715D01*
X145702111Y-131042827D01*
X145825044Y-130901087D01*
X145917733Y-130788038D01*
X145972308Y-130713226D01*
X145982899Y-130686877D01*
X145934177Y-130671949D01*
X145831005Y-130657418D01*
X145695625Y-130646407D01*
X145694279Y-130646331D01*
X145552866Y-130640668D01*
X145466873Y-130646870D01*
X145415295Y-130669868D01*
X145377128Y-130714594D01*
X145372272Y-130721930D01*
X145325306Y-130809963D01*
X145261755Y-130950259D01*
X145189690Y-131122412D01*
X145117181Y-131306016D01*
X145052299Y-131480666D01*
X145003115Y-131625955D01*
X144978308Y-131718048D01*
X144968886Y-131764983D01*
X144963833Y-131798414D01*
X144006640Y-131798414D01*
X144078044Y-131484180D01*
X144098028Y-131419247D01*
X144153707Y-131222830D01*
X144177994Y-131074878D01*
X144174111Y-130955373D01*
X144173441Y-130951056D01*
X144172460Y-130711042D01*
X144243955Y-130480067D01*
X144383666Y-130266819D01*
X144587333Y-130079990D01*
X144607516Y-130065565D01*
X144745580Y-129966954D01*
X144900798Y-129853417D01*
X144988422Y-129788030D01*
X145159207Y-129671997D01*
X145300244Y-129609931D01*
X145430386Y-129596416D01*
X145560951Y-129623566D01*
G37*
D13*
%TO.C,R13*%
X81727500Y-104262742D02*
X81727500Y-104737258D01*
X82772500Y-104262742D02*
X82772500Y-104737258D01*
%TO.C,R12*%
X112762742Y-101522500D02*
X113237258Y-101522500D01*
X112762742Y-100477500D02*
X113237258Y-100477500D01*
%TO.C,R11*%
X122277742Y-111522500D02*
X122752258Y-111522500D01*
X122277742Y-110477500D02*
X122752258Y-110477500D01*
%TO.C,R10*%
X130262742Y-111522500D02*
X130737258Y-111522500D01*
X130262742Y-110477500D02*
X130737258Y-110477500D01*
%TO.C,R9*%
X138302742Y-110477500D02*
X138777258Y-110477500D01*
X138302742Y-111522500D02*
X138777258Y-111522500D01*
%TO.C,D6*%
X126745000Y-106000000D02*
G75*
G02*
X121745000Y-106000000I-2500000J0D01*
G01*
X121745000Y-106000000D02*
G75*
G02*
X126745000Y-106000000I2500000J0D01*
G01*
X127235000Y-105999538D02*
G75*
G02*
X121685000Y-107544830I-2990000J-462D01*
G01*
X121685000Y-104455170D02*
G75*
G02*
X127235000Y-106000462I2560000J-1544830D01*
G01*
X121685000Y-104455000D02*
X121685000Y-107545000D01*
%TO.C,D5*%
X134770000Y-106000000D02*
G75*
G02*
X129770000Y-106000000I-2500000J0D01*
G01*
X129770000Y-106000000D02*
G75*
G02*
X134770000Y-106000000I2500000J0D01*
G01*
X135260000Y-105999538D02*
G75*
G02*
X129710000Y-107544830I-2990000J-462D01*
G01*
X129710000Y-104455170D02*
G75*
G02*
X135260000Y-106000462I2560000J-1544830D01*
G01*
X129710000Y-104455000D02*
X129710000Y-107545000D01*
%TO.C,D4*%
X137710000Y-104455000D02*
X137710000Y-107545000D01*
X137710000Y-104455170D02*
G75*
G02*
X143260000Y-106000462I2560000J-1544830D01*
G01*
X143260000Y-105999538D02*
G75*
G02*
X137710000Y-107544830I-2990000J-462D01*
G01*
X142770000Y-106000000D02*
G75*
G02*
X137770000Y-106000000I-2500000J0D01*
G01*
X137770000Y-106000000D02*
G75*
G02*
X142770000Y-106000000I2500000J0D01*
G01*
%TO.C,J3*%
X112842000Y-78275000D02*
X112842000Y-84275000D01*
X112082000Y-78275000D02*
X112842000Y-78275000D01*
X110302000Y-78275000D02*
X110302000Y-84275000D01*
X109542000Y-78275000D02*
X110302000Y-78275000D01*
X107762000Y-78275000D02*
X107762000Y-84275000D01*
X107002000Y-78275000D02*
X107762000Y-78275000D01*
X113792000Y-84275000D02*
X106052000Y-84275000D01*
X112082000Y-84275000D02*
X112082000Y-78275000D01*
X109542000Y-84275000D02*
X109542000Y-78275000D01*
X107662000Y-84275000D02*
X107662000Y-78275000D01*
X107542000Y-84275000D02*
X107542000Y-78275000D01*
X107422000Y-84275000D02*
X107422000Y-78275000D01*
X107302000Y-84275000D02*
X107302000Y-78275000D01*
X107182000Y-84275000D02*
X107182000Y-78275000D01*
X107062000Y-84275000D02*
X107062000Y-78275000D01*
X107002000Y-84275000D02*
X107002000Y-78275000D01*
X106052000Y-84275000D02*
X106052000Y-86935000D01*
X113792000Y-86935000D02*
X113792000Y-84275000D01*
X111192000Y-86935000D02*
X111192000Y-84275000D01*
X108652000Y-86935000D02*
X108652000Y-84275000D01*
X106052000Y-86935000D02*
X113792000Y-86935000D01*
X107762000Y-87265000D02*
X107762000Y-86935000D01*
X107002000Y-87265000D02*
X107002000Y-86935000D01*
X112842000Y-87332071D02*
X112842000Y-86935000D01*
X112082000Y-87332071D02*
X112082000Y-86935000D01*
X110302000Y-87332071D02*
X110302000Y-86935000D01*
X109542000Y-87332071D02*
X109542000Y-86935000D01*
X107382000Y-89645000D02*
X106112000Y-89645000D01*
X106112000Y-89645000D02*
X106112000Y-88375000D01*
%TO.C,J2*%
X101920000Y-78275000D02*
X101920000Y-84275000D01*
X101160000Y-78275000D02*
X101920000Y-78275000D01*
X99380000Y-78275000D02*
X99380000Y-84275000D01*
X98620000Y-78275000D02*
X99380000Y-78275000D01*
X96840000Y-78275000D02*
X96840000Y-84275000D01*
X96080000Y-78275000D02*
X96840000Y-78275000D01*
X102870000Y-84275000D02*
X95130000Y-84275000D01*
X101160000Y-84275000D02*
X101160000Y-78275000D01*
X98620000Y-84275000D02*
X98620000Y-78275000D01*
X96740000Y-84275000D02*
X96740000Y-78275000D01*
X96620000Y-84275000D02*
X96620000Y-78275000D01*
X96500000Y-84275000D02*
X96500000Y-78275000D01*
X96380000Y-84275000D02*
X96380000Y-78275000D01*
X96260000Y-84275000D02*
X96260000Y-78275000D01*
X96140000Y-84275000D02*
X96140000Y-78275000D01*
X96080000Y-84275000D02*
X96080000Y-78275000D01*
X95130000Y-84275000D02*
X95130000Y-86935000D01*
X102870000Y-86935000D02*
X102870000Y-84275000D01*
X100270000Y-86935000D02*
X100270000Y-84275000D01*
X97730000Y-86935000D02*
X97730000Y-84275000D01*
X95130000Y-86935000D02*
X102870000Y-86935000D01*
X96840000Y-87265000D02*
X96840000Y-86935000D01*
X96080000Y-87265000D02*
X96080000Y-86935000D01*
X101920000Y-87332071D02*
X101920000Y-86935000D01*
X101160000Y-87332071D02*
X101160000Y-86935000D01*
X99380000Y-87332071D02*
X99380000Y-86935000D01*
X98620000Y-87332071D02*
X98620000Y-86935000D01*
X96460000Y-89645000D02*
X95190000Y-89645000D01*
X95190000Y-89645000D02*
X95190000Y-88375000D01*
%TO.C,R5*%
X111050724Y-90589500D02*
X110541276Y-90589500D01*
X111050724Y-91634500D02*
X110541276Y-91634500D01*
%TO.C,C9*%
X94708500Y-99158724D02*
X94708500Y-98649276D01*
X93663500Y-99158724D02*
X93663500Y-98649276D01*
%TO.C,C10*%
X103598500Y-99920724D02*
X103598500Y-99411276D01*
X102553500Y-99920724D02*
X102553500Y-99411276D01*
%TO.C,C8*%
X91392724Y-101937500D02*
X90883276Y-101937500D01*
X91392724Y-102982500D02*
X90883276Y-102982500D01*
%TO.C,C13*%
X81486724Y-106509500D02*
X80977276Y-106509500D01*
X81486724Y-107554500D02*
X80977276Y-107554500D01*
%TO.C,C7*%
X105221000Y-99908724D02*
X105221000Y-99399276D01*
X104176000Y-99908724D02*
X104176000Y-99399276D01*
%TO.C,R21*%
X90762742Y-118522500D02*
X91237258Y-118522500D01*
X90762742Y-117477500D02*
X91237258Y-117477500D01*
%TO.C,SW77*%
X105750000Y-123500000D02*
G75*
G02*
X99750000Y-123500000I-3000000J0D01*
G01*
X99750000Y-123500000D02*
G75*
G02*
X105750000Y-123500000I3000000J0D01*
G01*
X108850000Y-129400000D02*
X104750000Y-129400000D01*
X108850000Y-127000000D02*
X108850000Y-129400000D01*
X108850000Y-122200000D02*
X108850000Y-124800000D01*
X108850000Y-117600000D02*
X108850000Y-120000000D01*
X104750000Y-117600000D02*
X108850000Y-117600000D01*
X102750000Y-123000000D02*
X102750000Y-124000000D01*
X102250000Y-123500000D02*
X103250000Y-123500000D01*
X100750000Y-129400000D02*
X96650000Y-129400000D01*
X100750000Y-117600000D02*
X96650000Y-117600000D01*
X96650000Y-117600000D02*
X96650000Y-129400000D01*
X95550000Y-119400000D02*
X95250000Y-119700000D01*
X95250000Y-119700000D02*
X94950000Y-119400000D01*
X94950000Y-119400000D02*
X95550000Y-119400000D01*
%TO.C,U2*%
X142640000Y-91110000D02*
X142310000Y-90870000D01*
X142640000Y-90630000D01*
X142640000Y-91110000D01*
G36*
X142640000Y-91110000D02*
G01*
X142310000Y-90870000D01*
X142640000Y-90630000D01*
X142640000Y-91110000D01*
G37*
X135590000Y-95910000D02*
X136850000Y-95910000D01*
X142410000Y-95910000D02*
X141150000Y-95910000D01*
X135590000Y-92150000D02*
X135590000Y-95910000D01*
X142410000Y-92150000D02*
X142410000Y-95910000D01*
D11*
%TO.C,SW1*%
X100500000Y-155000000D02*
X100500000Y-156000000D01*
X100500000Y-142000000D02*
X100500000Y-143000000D01*
X100500000Y-142000000D02*
X99500000Y-142000000D01*
X99500000Y-156000000D02*
X100500000Y-156000000D01*
X87500000Y-142000000D02*
X86500000Y-142000000D01*
X86500000Y-156000000D02*
X87500000Y-156000000D01*
X86500000Y-156000000D02*
X86500000Y-155000000D01*
X86500000Y-143000000D02*
X86500000Y-142000000D01*
%TO.C,SW32*%
X119500000Y-193000000D02*
X119500000Y-194000000D01*
X119500000Y-180000000D02*
X119500000Y-181000000D01*
X119500000Y-180000000D02*
X118500000Y-180000000D01*
X118500000Y-194000000D02*
X119500000Y-194000000D01*
X106500000Y-180000000D02*
X105500000Y-180000000D01*
X105500000Y-194000000D02*
X106500000Y-194000000D01*
X105500000Y-194000000D02*
X105500000Y-193000000D01*
X105500000Y-181000000D02*
X105500000Y-180000000D01*
%TO.C,SW18*%
X138500000Y-174000000D02*
X138500000Y-175000000D01*
X138500000Y-161000000D02*
X138500000Y-162000000D01*
X138500000Y-161000000D02*
X137500000Y-161000000D01*
X137500000Y-175000000D02*
X138500000Y-175000000D01*
X125500000Y-161000000D02*
X124500000Y-161000000D01*
X124500000Y-175000000D02*
X125500000Y-175000000D01*
X124500000Y-175000000D02*
X124500000Y-174000000D01*
X124500000Y-162000000D02*
X124500000Y-161000000D01*
%TO.C,SW16*%
X100500000Y-174000000D02*
X100500000Y-175000000D01*
X100500000Y-161000000D02*
X100500000Y-162000000D01*
X100500000Y-161000000D02*
X99500000Y-161000000D01*
X99500000Y-175000000D02*
X100500000Y-175000000D01*
X87500000Y-161000000D02*
X86500000Y-161000000D01*
X86500000Y-175000000D02*
X87500000Y-175000000D01*
X86500000Y-175000000D02*
X86500000Y-174000000D01*
X86500000Y-162000000D02*
X86500000Y-161000000D01*
%TO.C,SW17*%
X119500000Y-174000000D02*
X119500000Y-175000000D01*
X119500000Y-161000000D02*
X119500000Y-162000000D01*
X119500000Y-161000000D02*
X118500000Y-161000000D01*
X118500000Y-175000000D02*
X119500000Y-175000000D01*
X106500000Y-161000000D02*
X105500000Y-161000000D01*
X105500000Y-175000000D02*
X106500000Y-175000000D01*
X105500000Y-175000000D02*
X105500000Y-174000000D01*
X105500000Y-162000000D02*
X105500000Y-161000000D01*
D13*
%TO.C,C15*%
X87754724Y-127977500D02*
X87245276Y-127977500D01*
X87754724Y-129022500D02*
X87245276Y-129022500D01*
%TO.C,D77*%
X113800000Y-118622000D02*
X115760000Y-118622000D01*
X113800000Y-119822000D02*
X115760000Y-119822000D01*
X115760000Y-119822000D02*
X115760000Y-118622000D01*
%TO.C,R1*%
X113237258Y-103477500D02*
X112762742Y-103477500D01*
X113237258Y-104522500D02*
X112762742Y-104522500D01*
D11*
%TO.C,SW3*%
X138500000Y-155000000D02*
X138500000Y-156000000D01*
X138500000Y-142000000D02*
X138500000Y-143000000D01*
X138500000Y-142000000D02*
X137500000Y-142000000D01*
X137500000Y-156000000D02*
X138500000Y-156000000D01*
X125500000Y-142000000D02*
X124500000Y-142000000D01*
X124500000Y-156000000D02*
X125500000Y-156000000D01*
X124500000Y-156000000D02*
X124500000Y-155000000D01*
X124500000Y-143000000D02*
X124500000Y-142000000D01*
D13*
%TO.C,C12*%
X80977276Y-102728500D02*
X81486724Y-102728500D01*
X80977276Y-101683500D02*
X81486724Y-101683500D01*
%TO.C,R3*%
X118941742Y-83522500D02*
X119416258Y-83522500D01*
X118941742Y-82477500D02*
X119416258Y-82477500D01*
%TO.C,C16*%
X117745276Y-118477500D02*
X118254724Y-118477500D01*
X117745276Y-119522500D02*
X118254724Y-119522500D01*
%TO.C,D76*%
X127770000Y-83000000D02*
G75*
G02*
X122770000Y-83000000I-2500000J0D01*
G01*
X122770000Y-83000000D02*
G75*
G02*
X127770000Y-83000000I2500000J0D01*
G01*
X128260000Y-82999538D02*
G75*
G02*
X122710000Y-84544830I-2990000J-462D01*
G01*
X122710000Y-81455170D02*
G75*
G02*
X128260000Y-83000462I2560000J-1544830D01*
G01*
X122710000Y-81455000D02*
X122710000Y-84545000D01*
%TO.C,Y1*%
X84041000Y-101377000D02*
G75*
G02*
X89091000Y-101377000I2525000J0D01*
G01*
X89091000Y-107627000D02*
G75*
G02*
X84041000Y-107627000I-2525000J0D01*
G01*
X89091000Y-107627000D02*
X89091000Y-101377000D01*
X84041000Y-107627000D02*
X84041000Y-101377000D01*
%TO.C,SW76*%
X125110000Y-96210000D02*
X125110000Y-95930000D01*
X125110000Y-94200000D02*
X125110000Y-91800000D01*
X125110000Y-90200000D02*
X125110000Y-89790000D01*
X125110000Y-89790000D02*
X118690000Y-89790000D01*
X118690000Y-96210000D02*
X125110000Y-96210000D01*
X118690000Y-95800000D02*
X118690000Y-96210000D01*
X118690000Y-91800000D02*
X118690000Y-94200000D01*
X118690000Y-89790000D02*
X118690000Y-90200000D01*
%TO.C,C2*%
X134563000Y-96621252D02*
X134563000Y-96098748D01*
X133093000Y-96621252D02*
X133093000Y-96098748D01*
D11*
%TO.C,SW31*%
X100500000Y-193000000D02*
X100500000Y-194000000D01*
X100500000Y-180000000D02*
X100500000Y-181000000D01*
X100500000Y-180000000D02*
X99500000Y-180000000D01*
X99500000Y-194000000D02*
X100500000Y-194000000D01*
X87500000Y-180000000D02*
X86500000Y-180000000D01*
X86500000Y-194000000D02*
X87500000Y-194000000D01*
X86500000Y-194000000D02*
X86500000Y-193000000D01*
X86500000Y-181000000D02*
X86500000Y-180000000D01*
D13*
%TO.C,C14*%
X87754724Y-117477500D02*
X87245276Y-117477500D01*
X87754724Y-118522500D02*
X87245276Y-118522500D01*
%TO.C,C11*%
X103823500Y-110333276D02*
X103823500Y-110842724D01*
X104868500Y-110333276D02*
X104868500Y-110842724D01*
%TO.C,C5*%
X91491224Y-108783500D02*
X90981776Y-108783500D01*
X91491224Y-109828500D02*
X90981776Y-109828500D01*
%TO.C,R26*%
X114262742Y-117522500D02*
X114737258Y-117522500D01*
X114262742Y-116477500D02*
X114737258Y-116477500D01*
%TO.C,R22*%
X114737258Y-120477500D02*
X114262742Y-120477500D01*
X114737258Y-121522500D02*
X114262742Y-121522500D01*
%TO.C,D79*%
X91700000Y-122600000D02*
X89740000Y-122600000D01*
X91700000Y-121400000D02*
X89740000Y-121400000D01*
X89740000Y-121400000D02*
X89740000Y-122600000D01*
%TO.C,C6*%
X102045500Y-110333276D02*
X102045500Y-110842724D01*
X103090500Y-110333276D02*
X103090500Y-110842724D01*
%TO.C,D78*%
X91700000Y-125100000D02*
X89740000Y-125100000D01*
X91700000Y-123900000D02*
X89740000Y-123900000D01*
X89740000Y-123900000D02*
X89740000Y-125100000D01*
%TO.C,R4*%
X100255724Y-90589500D02*
X99746276Y-90589500D01*
X100255724Y-91634500D02*
X99746276Y-91634500D01*
D11*
%TO.C,SW33*%
X138500000Y-193000000D02*
X138500000Y-194000000D01*
X138500000Y-180000000D02*
X138500000Y-181000000D01*
X138500000Y-180000000D02*
X137500000Y-180000000D01*
X137500000Y-194000000D02*
X138500000Y-194000000D01*
X125500000Y-180000000D02*
X124500000Y-180000000D01*
X124500000Y-194000000D02*
X125500000Y-194000000D01*
X124500000Y-194000000D02*
X124500000Y-193000000D01*
X124500000Y-181000000D02*
X124500000Y-180000000D01*
D13*
%TO.C,R25*%
X90762742Y-129022500D02*
X91237258Y-129022500D01*
X90762742Y-127977500D02*
X91237258Y-127977500D01*
%TO.C,C3*%
X91392724Y-105239500D02*
X90883276Y-105239500D01*
X91392724Y-106284500D02*
X90883276Y-106284500D01*
%TO.C,C1*%
X133093000Y-91272748D02*
X133093000Y-91795252D01*
X134563000Y-91272748D02*
X134563000Y-91795252D01*
%TO.C,J1*%
X133330000Y-80600000D02*
X133330000Y-82300000D01*
X142670000Y-80600000D02*
X142670000Y-82300000D01*
%TO.C,R24*%
X90762742Y-120522500D02*
X91237258Y-120522500D01*
X90762742Y-119477500D02*
X91237258Y-119477500D01*
%TO.C,R2*%
X113237258Y-101977500D02*
X112762742Y-101977500D01*
X113237258Y-103022500D02*
X112762742Y-103022500D01*
D11*
%TO.C,SW2*%
X119500000Y-155000000D02*
X119500000Y-156000000D01*
X119500000Y-142000000D02*
X119500000Y-143000000D01*
X119500000Y-142000000D02*
X118500000Y-142000000D01*
X118500000Y-156000000D02*
X119500000Y-156000000D01*
X106500000Y-142000000D02*
X105500000Y-142000000D01*
X105500000Y-156000000D02*
X106500000Y-156000000D01*
X105500000Y-156000000D02*
X105500000Y-155000000D01*
X105500000Y-143000000D02*
X105500000Y-142000000D01*
D13*
%TO.C,R23*%
X90762742Y-127022500D02*
X91237258Y-127022500D01*
X90762742Y-125977500D02*
X91237258Y-125977500D01*
%TO.C,J4*%
X90993000Y-78275000D02*
X90993000Y-84275000D01*
X90233000Y-78275000D02*
X90993000Y-78275000D01*
X88453000Y-78275000D02*
X88453000Y-84275000D01*
X87693000Y-78275000D02*
X88453000Y-78275000D01*
X85913000Y-78275000D02*
X85913000Y-84275000D01*
X85153000Y-78275000D02*
X85913000Y-78275000D01*
X83373000Y-78275000D02*
X83373000Y-84275000D01*
X82613000Y-78275000D02*
X83373000Y-78275000D01*
X91943000Y-84275000D02*
X81663000Y-84275000D01*
X90233000Y-84275000D02*
X90233000Y-78275000D01*
X87693000Y-84275000D02*
X87693000Y-78275000D01*
X85153000Y-84275000D02*
X85153000Y-78275000D01*
X83273000Y-84275000D02*
X83273000Y-78275000D01*
X83153000Y-84275000D02*
X83153000Y-78275000D01*
X83033000Y-84275000D02*
X83033000Y-78275000D01*
X82913000Y-84275000D02*
X82913000Y-78275000D01*
X82793000Y-84275000D02*
X82793000Y-78275000D01*
X82673000Y-84275000D02*
X82673000Y-78275000D01*
X82613000Y-84275000D02*
X82613000Y-78275000D01*
X81663000Y-84275000D02*
X81663000Y-86935000D01*
X91943000Y-86935000D02*
X91943000Y-84275000D01*
X89343000Y-86935000D02*
X89343000Y-84275000D01*
X86803000Y-86935000D02*
X86803000Y-84275000D01*
X84263000Y-86935000D02*
X84263000Y-84275000D01*
X81663000Y-86935000D02*
X91943000Y-86935000D01*
X83373000Y-87265000D02*
X83373000Y-86935000D01*
X82613000Y-87265000D02*
X82613000Y-86935000D01*
X90993000Y-87332071D02*
X90993000Y-86935000D01*
X90233000Y-87332071D02*
X90233000Y-86935000D01*
X88453000Y-87332071D02*
X88453000Y-86935000D01*
X87693000Y-87332071D02*
X87693000Y-86935000D01*
X85913000Y-87332071D02*
X85913000Y-86935000D01*
X85153000Y-87332071D02*
X85153000Y-86935000D01*
X82993000Y-89645000D02*
X81723000Y-89645000D01*
X81723000Y-89645000D02*
X81723000Y-88375000D01*
%TO.C,C4*%
X91491224Y-107005500D02*
X90981776Y-107005500D01*
X91491224Y-108050500D02*
X90981776Y-108050500D01*
%TO.C,U1*%
X94050000Y-101840000D02*
X93710000Y-101370000D01*
X94390000Y-101370000D01*
X94050000Y-101840000D01*
G36*
X94050000Y-101840000D02*
G01*
X93710000Y-101370000D01*
X94390000Y-101370000D01*
X94050000Y-101840000D01*
G37*
X101860000Y-108610000D02*
X101860000Y-108160000D01*
X101860000Y-101390000D02*
X101860000Y-101840000D01*
X101410000Y-108610000D02*
X101860000Y-108610000D01*
X101410000Y-101390000D02*
X101860000Y-101390000D01*
X95090000Y-108610000D02*
X94640000Y-108610000D01*
X95090000Y-101390000D02*
X94640000Y-101390000D01*
X94640000Y-108610000D02*
X94640000Y-108160000D01*
X94640000Y-101390000D02*
X94640000Y-101840000D01*
D12*
%TO.C,G\u002A\u002A\u002A*%
G36*
X137151447Y-114007383D02*
G01*
X137274050Y-114034595D01*
X137364659Y-114085547D01*
X137433148Y-114164818D01*
X137464262Y-114220708D01*
X137499901Y-114329482D01*
X137524744Y-114482690D01*
X137539021Y-114672151D01*
X137542961Y-114889686D01*
X137536795Y-115127116D01*
X137520752Y-115376260D01*
X137495063Y-115628938D01*
X137459957Y-115876971D01*
X137415665Y-116112179D01*
X137410411Y-116136155D01*
X137384658Y-116233291D01*
X137345708Y-116357451D01*
X137297643Y-116497803D01*
X137244548Y-116643514D01*
X137190507Y-116783753D01*
X137139603Y-116907687D01*
X137095922Y-117004484D01*
X137063546Y-117063311D01*
X137058265Y-117070176D01*
X137034098Y-117103972D01*
X137050998Y-117115901D01*
X137089873Y-117117213D01*
X137160928Y-117135987D01*
X137223395Y-117178152D01*
X137245210Y-117203434D01*
X137262030Y-117235176D01*
X137275204Y-117281504D01*
X137286079Y-117350549D01*
X137296005Y-117450436D01*
X137306328Y-117589296D01*
X137315905Y-117735877D01*
X137329557Y-117954374D01*
X137341319Y-118152211D01*
X137351681Y-118339708D01*
X137361134Y-118527189D01*
X137370167Y-118724975D01*
X137379271Y-118943388D01*
X137388936Y-119192750D01*
X137399652Y-119483384D01*
X137402049Y-119549700D01*
X137411122Y-119791363D01*
X137420436Y-120020957D01*
X137429695Y-120232606D01*
X137438608Y-120420437D01*
X137446880Y-120578574D01*
X137454220Y-120701143D01*
X137460334Y-120782267D01*
X137464928Y-120816073D01*
X137465258Y-120816596D01*
X137491361Y-120812399D01*
X137560426Y-120798398D01*
X137662970Y-120776587D01*
X137789510Y-120748961D01*
X137838599Y-120738090D01*
X138021160Y-120700322D01*
X138158034Y-120681648D01*
X138255039Y-120685767D01*
X138317991Y-120716376D01*
X138352708Y-120777170D01*
X138365007Y-120871848D01*
X138360706Y-121004106D01*
X138355776Y-121066772D01*
X138345827Y-121170976D01*
X138335686Y-121257606D01*
X138327368Y-121309689D01*
X138326571Y-121312874D01*
X138328320Y-121332886D01*
X138352222Y-121347287D01*
X138406871Y-121358041D01*
X138500863Y-121367114D01*
X138590764Y-121373271D01*
X138717203Y-121382282D01*
X138802036Y-121392320D01*
X138857369Y-121406561D01*
X138895311Y-121428177D01*
X138927967Y-121460342D01*
X138929486Y-121462065D01*
X138958392Y-121496929D01*
X138974908Y-121529455D01*
X138979480Y-121571908D01*
X138972553Y-121636547D01*
X138954575Y-121735637D01*
X138941812Y-121800758D01*
X138927261Y-121874673D01*
X139183089Y-121874673D01*
X139310383Y-121873156D01*
X139393393Y-121865180D01*
X139441574Y-121845609D01*
X139464382Y-121809309D01*
X139471272Y-121751143D01*
X139471697Y-121717925D01*
X139498231Y-121552333D01*
X139575338Y-121400269D01*
X139645813Y-121317037D01*
X139717258Y-121250913D01*
X139774433Y-121216457D01*
X139837272Y-121203871D01*
X139878385Y-121202716D01*
X140016241Y-121228079D01*
X140135691Y-121303160D01*
X140234609Y-121426442D01*
X140261552Y-121475771D01*
X140317094Y-121630561D01*
X140329337Y-121792392D01*
X140298888Y-121973388D01*
X140288338Y-122010906D01*
X140212308Y-122216121D01*
X140118440Y-122385153D01*
X140010404Y-122514283D01*
X139891870Y-122599790D01*
X139766508Y-122637952D01*
X139673708Y-122633954D01*
X139593637Y-122597698D01*
X139510949Y-122528272D01*
X139442275Y-122442699D01*
X139404283Y-122358175D01*
X139382153Y-122299092D01*
X139349956Y-122288009D01*
X139345844Y-122289391D01*
X139299665Y-122297223D01*
X139217878Y-122302750D01*
X139123402Y-122304726D01*
X138940924Y-122304726D01*
X138922243Y-122472716D01*
X138900777Y-122603964D01*
X138867208Y-122690857D01*
X138815587Y-122742442D01*
X138739968Y-122767767D01*
X138726986Y-122769751D01*
X138646260Y-122784239D01*
X138539232Y-122807814D01*
X138446501Y-122830877D01*
X138268121Y-122878013D01*
X138249244Y-123296925D01*
X138239730Y-123478505D01*
X138228154Y-123613577D01*
X138211943Y-123709388D01*
X138188526Y-123773183D01*
X138155332Y-123812208D01*
X138109789Y-123833712D01*
X138055028Y-123844214D01*
X137989699Y-123858271D01*
X137899719Y-123884361D01*
X137800763Y-123917060D01*
X137708504Y-123950946D01*
X137638617Y-123980596D01*
X137608115Y-123998829D01*
X137604540Y-124030617D01*
X137604663Y-124110086D01*
X137608108Y-124231318D01*
X137614501Y-124388392D01*
X137623467Y-124575389D01*
X137634631Y-124786389D01*
X137647619Y-125015471D01*
X137662055Y-125256716D01*
X137677566Y-125504204D01*
X137693776Y-125752015D01*
X137710311Y-125994229D01*
X137726795Y-126224926D01*
X137742854Y-126438187D01*
X137758114Y-126628090D01*
X137772198Y-126788718D01*
X137784734Y-126914149D01*
X137795346Y-126998463D01*
X137799490Y-127021869D01*
X137827368Y-127203983D01*
X137842702Y-127424901D01*
X137845409Y-127574972D01*
X137845409Y-127913048D01*
X137731619Y-128142616D01*
X137592043Y-128376765D01*
X137427155Y-128570487D01*
X137240858Y-128720984D01*
X137037055Y-128825457D01*
X136819650Y-128881108D01*
X136689310Y-128889912D01*
X136574056Y-128892370D01*
X136427214Y-128899001D01*
X136270691Y-128908685D01*
X136170141Y-128916423D01*
X136054310Y-128925531D01*
X135916559Y-128935049D01*
X135753110Y-128945174D01*
X135560185Y-128956102D01*
X135334007Y-128968030D01*
X135070797Y-128981155D01*
X134766778Y-128995674D01*
X134418173Y-129011783D01*
X134021203Y-129029679D01*
X133840541Y-129037713D01*
X133601395Y-129048511D01*
X133353490Y-129060062D01*
X133108953Y-129071775D01*
X132879911Y-129083059D01*
X132678492Y-129093326D01*
X132516823Y-129101984D01*
X132496626Y-129103115D01*
X131822910Y-129139468D01*
X131118929Y-129174364D01*
X130408174Y-129206650D01*
X130252288Y-129213328D01*
X130032123Y-129222914D01*
X129795517Y-129233662D01*
X129558928Y-129244795D01*
X129338814Y-129255535D01*
X129151630Y-129265104D01*
X129109959Y-129267327D01*
X128968704Y-129274864D01*
X128783648Y-129284607D01*
X128564678Y-129296043D01*
X128321681Y-129308657D01*
X128064543Y-129321938D01*
X127803152Y-129335370D01*
X127577896Y-129346887D01*
X127321702Y-129360045D01*
X127061755Y-129373567D01*
X126807808Y-129386935D01*
X126569616Y-129399628D01*
X126356933Y-129411127D01*
X126179513Y-129420913D01*
X126059272Y-129427755D01*
X125902588Y-129435780D01*
X125705201Y-129444165D01*
X125480156Y-129452459D01*
X125240501Y-129460206D01*
X124999283Y-129466953D01*
X124795991Y-129471705D01*
X124580502Y-129476365D01*
X124369840Y-129481227D01*
X124173609Y-129486047D01*
X124001413Y-129490580D01*
X123862856Y-129494581D01*
X123767542Y-129497807D01*
X123761176Y-129498060D01*
X123629533Y-129500671D01*
X123530730Y-129494178D01*
X123444242Y-129475959D01*
X123357702Y-129446509D01*
X123167549Y-129356845D01*
X122994004Y-129241825D01*
X122848593Y-129110638D01*
X122742841Y-128972473D01*
X122726794Y-128943517D01*
X122694519Y-128874174D01*
X122666651Y-128797487D01*
X122642891Y-128709274D01*
X122622942Y-128605351D01*
X122606505Y-128481532D01*
X122593284Y-128333635D01*
X122582978Y-128157476D01*
X122575292Y-127948870D01*
X122569926Y-127703633D01*
X122566583Y-127417582D01*
X122564964Y-127086532D01*
X122564772Y-126706301D01*
X122564815Y-126669285D01*
X122566563Y-125295324D01*
X122458828Y-125278097D01*
X122346695Y-125270183D01*
X122189284Y-125274041D01*
X121993676Y-125289271D01*
X121766953Y-125315475D01*
X121745303Y-125318352D01*
X121596991Y-125332367D01*
X121490310Y-125326283D01*
X121415991Y-125297284D01*
X121364764Y-125242557D01*
X121341005Y-125195601D01*
X121320220Y-125082324D01*
X121352241Y-124973038D01*
X121397990Y-124909597D01*
X121413764Y-124867855D01*
X121427544Y-124788987D01*
X121438375Y-124687982D01*
X121445307Y-124579830D01*
X121447384Y-124479519D01*
X121443656Y-124402040D01*
X121433168Y-124362382D01*
X121432799Y-124361993D01*
X121402041Y-124358753D01*
X121327604Y-124360024D01*
X121219343Y-124365388D01*
X121087110Y-124374426D01*
X121025808Y-124379298D01*
X120831265Y-124392807D01*
X120683141Y-124394013D01*
X120574687Y-124378549D01*
X120499154Y-124342044D01*
X120449794Y-124280130D01*
X120419858Y-124188439D01*
X120402597Y-124062603D01*
X120395678Y-123971401D01*
X120387463Y-123855923D01*
X120379069Y-123784681D01*
X120367521Y-123748224D01*
X120349844Y-123737106D01*
X120323361Y-123741788D01*
X120272545Y-123750691D01*
X120183297Y-123760698D01*
X120070875Y-123770222D01*
X120009826Y-123774365D01*
X119752655Y-123790311D01*
X119695697Y-123914344D01*
X119629589Y-124031728D01*
X119544176Y-124146602D01*
X119452539Y-124243393D01*
X119367757Y-124306527D01*
X119365210Y-124307865D01*
X119263623Y-124338367D01*
X119138082Y-124345572D01*
X119013142Y-124329354D01*
X118952639Y-124310012D01*
X118857735Y-124246270D01*
X118769496Y-124143299D01*
X118699929Y-124015361D01*
X118695626Y-124004721D01*
X118675388Y-123908416D01*
X118670663Y-123762678D01*
X118672805Y-123703980D01*
X119128500Y-123703980D01*
X119129569Y-123804031D01*
X119147257Y-123871914D01*
X119157258Y-123885507D01*
X119196599Y-123908915D01*
X119237834Y-123893562D01*
X119289681Y-123834982D01*
X119308933Y-123807839D01*
X119340412Y-123756681D01*
X119357850Y-123706784D01*
X119363751Y-123642043D01*
X119360620Y-123546352D01*
X119357416Y-123496042D01*
X119346360Y-123385873D01*
X119344709Y-123376107D01*
X119330372Y-123291293D01*
X119312505Y-123229400D01*
X119308443Y-123221574D01*
X119290440Y-123178008D01*
X119302204Y-123133867D01*
X119334680Y-123085232D01*
X119367092Y-123033565D01*
X119373543Y-123005342D01*
X119369570Y-123003562D01*
X119326568Y-123028578D01*
X119282119Y-123096478D01*
X119238804Y-123196540D01*
X119199204Y-123318043D01*
X119165899Y-123450265D01*
X119141471Y-123582485D01*
X119128500Y-123703980D01*
X118672805Y-123703980D01*
X118673600Y-123682181D01*
X118702284Y-123461404D01*
X118761715Y-123247782D01*
X118846997Y-123051795D01*
X118953234Y-122883920D01*
X119075530Y-122754635D01*
X119123751Y-122718757D01*
X119247983Y-122663882D01*
X119385143Y-122647396D01*
X119521181Y-122666992D01*
X119642049Y-122720366D01*
X119733697Y-122805214D01*
X119744057Y-122820516D01*
X119776055Y-122882544D01*
X119789838Y-122948670D01*
X119788831Y-123039898D01*
X119785974Y-123077478D01*
X119771770Y-123245467D01*
X119873336Y-123245467D01*
X119960743Y-123251050D01*
X120077383Y-123265472D01*
X120200162Y-123285245D01*
X120305989Y-123306879D01*
X120341782Y-123316249D01*
X120363140Y-123318312D01*
X120376785Y-123303495D01*
X120384196Y-123262874D01*
X120386852Y-123187523D01*
X120386232Y-123068519D01*
X120385989Y-123049487D01*
X120386331Y-123003562D01*
X120791124Y-123003562D01*
X120791124Y-123376107D01*
X120792346Y-123524358D01*
X120795688Y-123664365D01*
X120800663Y-123781750D01*
X120806785Y-123862133D01*
X120807873Y-123870852D01*
X120824622Y-123993051D01*
X121069936Y-124018572D01*
X121184366Y-124030350D01*
X121282318Y-124040201D01*
X121348643Y-124046611D01*
X121363934Y-124047954D01*
X121392461Y-124044067D01*
X121403030Y-124017687D01*
X121398831Y-123955918D01*
X121394546Y-123924144D01*
X121377780Y-123823330D01*
X121354495Y-123703984D01*
X121339540Y-123635203D01*
X121322399Y-123531712D01*
X121309380Y-123398696D01*
X121302667Y-123260349D01*
X121302209Y-123221564D01*
X121301811Y-122969196D01*
X121160700Y-122986146D01*
X121051864Y-122996450D01*
X120942600Y-123002596D01*
X120905356Y-123003329D01*
X120791124Y-123003562D01*
X120386331Y-123003562D01*
X120387142Y-122894499D01*
X120396966Y-122784260D01*
X120417890Y-122710125D01*
X120452341Y-122663451D01*
X120502153Y-122635806D01*
X120550449Y-122627772D01*
X120640707Y-122621055D01*
X120761141Y-122616247D01*
X120899961Y-122613943D01*
X120938954Y-122613827D01*
X121315250Y-122613827D01*
X121321454Y-122519753D01*
X121328229Y-122448656D01*
X121340650Y-122344203D01*
X121349464Y-122277848D01*
X121678108Y-122277848D01*
X121678670Y-122889330D01*
X121681053Y-123128188D01*
X121687405Y-123358648D01*
X121697189Y-123568008D01*
X121709867Y-123743565D01*
X121718149Y-123823351D01*
X121734802Y-123988704D01*
X121748079Y-124172303D01*
X121756216Y-124346865D01*
X121757904Y-124438192D01*
X121758743Y-124730494D01*
X121842737Y-124713695D01*
X121902879Y-124706994D01*
X122002336Y-124701564D01*
X122126673Y-124698003D01*
X122245912Y-124696896D01*
X122565092Y-124696896D01*
X122565092Y-123447054D01*
X122565420Y-123150274D01*
X122565838Y-122902993D01*
X122565497Y-122700962D01*
X122563546Y-122539934D01*
X122559136Y-122415660D01*
X122551417Y-122323890D01*
X122539539Y-122260376D01*
X122522652Y-122220869D01*
X122499908Y-122201120D01*
X122470455Y-122196881D01*
X122433445Y-122203904D01*
X122388027Y-122217938D01*
X122333352Y-122234736D01*
X122323187Y-122237531D01*
X122226149Y-122255961D01*
X122098704Y-122269924D01*
X121964162Y-122277068D01*
X121926732Y-122277529D01*
X121678108Y-122277848D01*
X121349464Y-122277848D01*
X121356326Y-122226190D01*
X121360406Y-122197357D01*
X121378112Y-122088100D01*
X121400402Y-122002262D01*
X121433502Y-121936925D01*
X121483638Y-121889169D01*
X121557037Y-121856077D01*
X121659926Y-121834729D01*
X121798531Y-121822206D01*
X121979078Y-121815590D01*
X122181872Y-121812283D01*
X122564683Y-121807478D01*
X122564888Y-121560322D01*
X122564217Y-121361461D01*
X122562015Y-121136603D01*
X122558455Y-120891541D01*
X122553707Y-120632071D01*
X122547945Y-120363987D01*
X122541339Y-120093086D01*
X122534062Y-119825161D01*
X122526285Y-119566008D01*
X122518180Y-119321422D01*
X122511057Y-119128053D01*
X122970897Y-119128053D01*
X122971278Y-119349443D01*
X122972836Y-119614090D01*
X122975531Y-119925763D01*
X122978416Y-120205421D01*
X122981949Y-120516731D01*
X122985801Y-120831931D01*
X122989860Y-121143307D01*
X122994014Y-121443142D01*
X122998151Y-121723722D01*
X123002160Y-121977332D01*
X123005929Y-122196257D01*
X123009345Y-122372781D01*
X123010803Y-122439118D01*
X123013608Y-122572965D01*
X123016962Y-122754755D01*
X123020779Y-122978677D01*
X123024970Y-123238921D01*
X123029447Y-123529678D01*
X123034124Y-123845136D01*
X123038912Y-124179487D01*
X123043724Y-124526918D01*
X123048472Y-124881621D01*
X123053069Y-125237786D01*
X123053367Y-125261340D01*
X123059398Y-125725179D01*
X123065188Y-126138322D01*
X123070839Y-126503829D01*
X123076454Y-126824759D01*
X123082136Y-127104172D01*
X123087988Y-127345127D01*
X123094113Y-127550684D01*
X123100614Y-127723902D01*
X123107593Y-127867841D01*
X123115154Y-127985560D01*
X123123399Y-128080120D01*
X123132432Y-128154579D01*
X123142355Y-128211997D01*
X123153271Y-128255434D01*
X123154151Y-128258271D01*
X123238377Y-128449877D01*
X123357026Y-128601054D01*
X123508606Y-128710413D01*
X123691624Y-128776568D01*
X123716661Y-128781734D01*
X123817263Y-128802341D01*
X123909049Y-128823498D01*
X123949325Y-128834129D01*
X123994449Y-128844907D01*
X124049250Y-128852623D01*
X124120078Y-128857291D01*
X124213285Y-128858925D01*
X124335222Y-128857538D01*
X124492241Y-128853145D01*
X124690693Y-128845759D01*
X124917322Y-128836246D01*
X125231013Y-128823217D01*
X125589134Y-128809337D01*
X125982367Y-128794910D01*
X126401399Y-128780242D01*
X126836914Y-128765636D01*
X127279597Y-128751396D01*
X127720132Y-128737827D01*
X128149204Y-128725233D01*
X128557497Y-128713919D01*
X128935697Y-128704189D01*
X129030219Y-128701901D01*
X129287248Y-128695327D01*
X129543293Y-128687947D01*
X129789769Y-128680068D01*
X130018092Y-128671994D01*
X130219676Y-128664033D01*
X130385937Y-128656490D01*
X130508290Y-128649670D01*
X130521965Y-128648753D01*
X130613694Y-128642494D01*
X130704924Y-128636467D01*
X130800521Y-128630399D01*
X130905354Y-128624019D01*
X131024287Y-128617056D01*
X131162188Y-128609237D01*
X131323923Y-128600291D01*
X131514359Y-128589945D01*
X131738362Y-128577928D01*
X132000799Y-128563968D01*
X132306536Y-128547793D01*
X132660441Y-128529131D01*
X132711653Y-128526433D01*
X132944917Y-128513719D01*
X133194504Y-128499366D01*
X133445334Y-128484295D01*
X133682324Y-128469424D01*
X133890393Y-128455670D01*
X134001811Y-128447851D01*
X134173157Y-128436115D01*
X134385054Y-128422679D01*
X134624356Y-128408311D01*
X134877913Y-128393782D01*
X135132579Y-128379861D01*
X135375206Y-128367320D01*
X135386044Y-128366780D01*
X135740574Y-128348976D01*
X136043595Y-128333397D01*
X136297305Y-128319922D01*
X136503900Y-128308430D01*
X136665578Y-128298801D01*
X136784535Y-128290913D01*
X136826805Y-128287735D01*
X136896923Y-128269813D01*
X136986338Y-128231049D01*
X137041831Y-128200223D01*
X137129378Y-128137658D01*
X137184757Y-128070296D01*
X137222621Y-127987216D01*
X137250593Y-127900029D01*
X137255114Y-127843464D01*
X137240319Y-127804485D01*
X137232380Y-127772382D01*
X137224923Y-127701103D01*
X137217876Y-127588604D01*
X137211164Y-127432841D01*
X137204713Y-127231770D01*
X137198450Y-126983347D01*
X137192300Y-126685527D01*
X137186190Y-126336267D01*
X137185376Y-126285861D01*
X137172598Y-125505224D01*
X137159954Y-124771938D01*
X137147303Y-124079596D01*
X137134501Y-123421794D01*
X137121404Y-122792126D01*
X137107869Y-122184187D01*
X137093752Y-121591571D01*
X137082681Y-121156146D01*
X137454083Y-121156146D01*
X137468204Y-121347420D01*
X137472618Y-121418644D01*
X137478887Y-121536057D01*
X137486651Y-121692138D01*
X137495554Y-121879364D01*
X137505236Y-122090215D01*
X137515339Y-122317167D01*
X137524675Y-122533192D01*
X137534577Y-122760022D01*
X137544229Y-122970476D01*
X137553313Y-123158376D01*
X137561509Y-123317546D01*
X137568500Y-123441806D01*
X137573967Y-123524980D01*
X137577590Y-123560891D01*
X137577702Y-123561287D01*
X137611685Y-123583208D01*
X137692295Y-123593989D01*
X137733135Y-123594885D01*
X137877891Y-123594885D01*
X137894208Y-122822134D01*
X137899552Y-122606186D01*
X137906279Y-122392274D01*
X137907261Y-122366486D01*
X138270426Y-122366486D01*
X138270694Y-122459234D01*
X138273945Y-122512692D01*
X138276101Y-122520786D01*
X138310148Y-122535775D01*
X138379039Y-122545102D01*
X138424879Y-122546631D01*
X138557684Y-122546631D01*
X138557684Y-122172757D01*
X139797775Y-122172757D01*
X139814486Y-122187111D01*
X139847199Y-122155561D01*
X139895132Y-122075325D01*
X139901984Y-122062069D01*
X139930736Y-121983788D01*
X139949127Y-121891456D01*
X139955728Y-121802090D01*
X139949111Y-121732709D01*
X139932184Y-121702255D01*
X139914208Y-121718938D01*
X139887598Y-121776078D01*
X139857515Y-121862174D01*
X139851464Y-121882097D01*
X139815484Y-122017468D01*
X139797848Y-122115282D01*
X139797775Y-122172757D01*
X138557684Y-122172757D01*
X138557684Y-122130017D01*
X138557684Y-121713404D01*
X138427370Y-121713404D01*
X138297055Y-121713404D01*
X138278591Y-122104172D01*
X138273079Y-122244711D01*
X138270426Y-122366486D01*
X137907261Y-122366486D01*
X137913955Y-122190799D01*
X137922148Y-122012162D01*
X137930424Y-121866765D01*
X137938138Y-121767160D01*
X137951547Y-121630135D01*
X137964767Y-121495078D01*
X137975817Y-121382218D01*
X137980236Y-121337107D01*
X137991182Y-121239069D01*
X138003125Y-121152111D01*
X138009099Y-121117438D01*
X138013202Y-121066318D01*
X137991214Y-121052770D01*
X137974761Y-121054805D01*
X137927249Y-121063943D01*
X137842265Y-121080428D01*
X137735094Y-121101293D01*
X137690064Y-121110078D01*
X137454083Y-121156146D01*
X137082681Y-121156146D01*
X137078911Y-121007873D01*
X137063201Y-120426686D01*
X137046480Y-119841607D01*
X137028604Y-119246229D01*
X137025532Y-119146525D01*
X137018393Y-118914047D01*
X137011348Y-118681823D01*
X137004692Y-118459788D01*
X136998720Y-118257876D01*
X136993728Y-118086022D01*
X136990011Y-117954161D01*
X136988988Y-117916362D01*
X136984753Y-117786415D01*
X136979720Y-117677282D01*
X136974482Y-117599460D01*
X136969631Y-117563445D01*
X136969027Y-117562347D01*
X136962885Y-117560547D01*
X136946819Y-117559607D01*
X136917845Y-117559699D01*
X136872980Y-117560992D01*
X136809238Y-117563658D01*
X136723637Y-117567867D01*
X136613193Y-117573788D01*
X136474922Y-117581594D01*
X136305840Y-117591454D01*
X136102964Y-117603539D01*
X135863309Y-117618019D01*
X135583893Y-117635066D01*
X135261730Y-117654848D01*
X134893838Y-117677538D01*
X134477232Y-117703305D01*
X134176520Y-117721932D01*
X133843776Y-117742403D01*
X133485083Y-117764203D01*
X133111926Y-117786652D01*
X132735789Y-117809068D01*
X132368157Y-117830768D01*
X132020514Y-117851073D01*
X131704345Y-117869300D01*
X131448372Y-117883803D01*
X131176968Y-117899140D01*
X130862903Y-117917114D01*
X130517174Y-117937083D01*
X130150776Y-117958405D01*
X129774706Y-117980436D01*
X129399959Y-118002536D01*
X129037531Y-118024061D01*
X128698419Y-118044370D01*
X128666467Y-118046294D01*
X128130017Y-118078592D01*
X127643551Y-118107829D01*
X127203397Y-118134219D01*
X126805881Y-118157973D01*
X126447331Y-118179303D01*
X126124075Y-118198420D01*
X125832440Y-118215538D01*
X125568753Y-118230869D01*
X125329341Y-118244623D01*
X125110532Y-118257014D01*
X124908652Y-118268253D01*
X124720030Y-118278552D01*
X124540993Y-118288124D01*
X124367867Y-118297180D01*
X124196980Y-118305933D01*
X124024660Y-118314594D01*
X123986668Y-118316485D01*
X123029514Y-118364040D01*
X122995401Y-118497142D01*
X122987940Y-118538104D01*
X122981880Y-118599718D01*
X122977183Y-118685753D01*
X122973812Y-118799975D01*
X122971729Y-118946153D01*
X122970897Y-119128053D01*
X122511057Y-119128053D01*
X122509920Y-119097197D01*
X122501676Y-118899130D01*
X122493620Y-118733015D01*
X122485923Y-118604647D01*
X122478759Y-118519821D01*
X122473765Y-118488007D01*
X122455056Y-118364655D01*
X122469256Y-118255579D01*
X122514066Y-118175362D01*
X122524667Y-118165556D01*
X122555468Y-118114552D01*
X122565092Y-118060168D01*
X122566239Y-118050569D01*
X122813051Y-118050569D01*
X122818906Y-118070945D01*
X122831532Y-118083695D01*
X122836957Y-118087306D01*
X122851258Y-118096123D01*
X122867077Y-118102704D01*
X122890515Y-118106833D01*
X122927670Y-118108295D01*
X122984644Y-118106875D01*
X123067538Y-118102359D01*
X123182451Y-118094531D01*
X123335484Y-118083177D01*
X123532737Y-118068082D01*
X123659262Y-118058340D01*
X123792311Y-118048376D01*
X123973631Y-118035227D01*
X124197852Y-118019264D01*
X124459605Y-118000858D01*
X124753522Y-117980382D01*
X125074235Y-117958207D01*
X125416374Y-117934705D01*
X125774571Y-117910247D01*
X126143457Y-117885205D01*
X126517663Y-117859951D01*
X126771547Y-117842905D01*
X127178486Y-117815542D01*
X127607139Y-117786535D01*
X128049269Y-117756451D01*
X128496638Y-117725859D01*
X128941010Y-117695325D01*
X129374146Y-117665418D01*
X129787808Y-117636704D01*
X130173760Y-117609752D01*
X130523764Y-117585128D01*
X130829581Y-117563402D01*
X130870489Y-117560474D01*
X131085208Y-117545272D01*
X131333269Y-117528027D01*
X131610503Y-117509010D01*
X131912738Y-117488492D01*
X132235804Y-117466744D01*
X132575532Y-117444036D01*
X132927751Y-117420638D01*
X133288292Y-117396822D01*
X133652983Y-117372858D01*
X134017655Y-117349016D01*
X134378137Y-117325568D01*
X134730260Y-117302784D01*
X135069854Y-117280935D01*
X135392747Y-117260291D01*
X135694771Y-117241122D01*
X135971754Y-117223701D01*
X136219527Y-117208297D01*
X136433919Y-117195180D01*
X136610761Y-117184622D01*
X136745882Y-117176894D01*
X136835111Y-117172265D01*
X136871909Y-117170970D01*
X136897384Y-117165235D01*
X136885396Y-117142600D01*
X136845691Y-117106050D01*
X136806714Y-117068643D01*
X136784640Y-117030075D01*
X136775285Y-116974730D01*
X136774465Y-116886997D01*
X136775466Y-116843986D01*
X136785448Y-116719557D01*
X136810880Y-116581381D01*
X136854634Y-116415668D01*
X136886582Y-116310864D01*
X136935580Y-116152523D01*
X136974220Y-116018233D01*
X137005157Y-115895161D01*
X137031042Y-115770474D01*
X137054530Y-115631339D01*
X137078273Y-115464924D01*
X137104924Y-115258395D01*
X137106082Y-115249171D01*
X137136848Y-114976324D01*
X137154229Y-114754943D01*
X137158237Y-114584431D01*
X137148883Y-114464193D01*
X137126180Y-114393633D01*
X137123622Y-114389890D01*
X137101210Y-114366771D01*
X137067970Y-114353574D01*
X137012344Y-114348991D01*
X136922774Y-114351715D01*
X136834680Y-114357202D01*
X136546321Y-114393831D01*
X136279702Y-114461687D01*
X136044515Y-114557769D01*
X135890012Y-114649749D01*
X135855613Y-114676518D01*
X135833978Y-114706139D01*
X135822152Y-114750866D01*
X135817179Y-114822951D01*
X135816105Y-114934646D01*
X135816097Y-114956203D01*
X135811343Y-115116548D01*
X135793816Y-115238861D01*
X135758618Y-115338287D01*
X135700852Y-115429972D01*
X135639114Y-115503493D01*
X135516478Y-115614638D01*
X135387965Y-115687416D01*
X135262208Y-115718755D01*
X135147838Y-115705586D01*
X135113219Y-115690499D01*
X135056650Y-115634527D01*
X135011879Y-115542596D01*
X134986244Y-115432320D01*
X134982891Y-115377706D01*
X134983281Y-115375385D01*
X135224774Y-115375385D01*
X135228732Y-115429735D01*
X135237588Y-115450758D01*
X135259504Y-115431333D01*
X135304258Y-115380560D01*
X135358541Y-115313953D01*
X135426975Y-115216318D01*
X135460354Y-115136743D01*
X135466679Y-115082196D01*
X135463993Y-115021578D01*
X135451198Y-115005445D01*
X135421771Y-115024134D01*
X135363481Y-115087520D01*
X135304655Y-115175553D01*
X135255904Y-115269314D01*
X135227840Y-115349882D01*
X135224774Y-115375385D01*
X134983281Y-115375385D01*
X135002150Y-115263195D01*
X135055175Y-115127370D01*
X135134900Y-114983878D01*
X135234256Y-114846370D01*
X135291578Y-114781506D01*
X135378277Y-114683006D01*
X135425158Y-114607033D01*
X135435564Y-114544067D01*
X135412836Y-114484588D01*
X135401618Y-114468118D01*
X135379228Y-114441569D01*
X135352795Y-114429892D01*
X135308615Y-114432820D01*
X135232984Y-114450087D01*
X135179872Y-114463811D01*
X135053374Y-114502280D01*
X134917907Y-114551768D01*
X134831931Y-114588380D01*
X134667553Y-114665083D01*
X134655355Y-115024747D01*
X134649025Y-115178289D01*
X134640733Y-115291080D01*
X134628386Y-115376124D01*
X134609893Y-115446426D01*
X134583161Y-115514990D01*
X134572774Y-115538146D01*
X134479023Y-115715217D01*
X134377918Y-115845701D01*
X134261217Y-115936758D01*
X134120674Y-115995551D01*
X134019648Y-116018643D01*
X133919881Y-116032730D01*
X133849538Y-116030987D01*
X133786212Y-116011845D01*
X133761198Y-116000575D01*
X133660274Y-115926436D01*
X133602212Y-115821845D01*
X133587700Y-115689680D01*
X133597490Y-115638013D01*
X133934616Y-115638013D01*
X133952546Y-115664251D01*
X133997397Y-115658500D01*
X134055756Y-115624314D01*
X134085409Y-115598069D01*
X134164382Y-115490002D01*
X134227327Y-115346514D01*
X134266692Y-115185269D01*
X134269082Y-115168536D01*
X134286966Y-115034144D01*
X134176507Y-115195414D01*
X134104098Y-115306345D01*
X134037450Y-115417747D01*
X133982828Y-115518158D01*
X133946498Y-115596113D01*
X133934616Y-115638013D01*
X133597490Y-115638013D01*
X133617422Y-115532821D01*
X133636469Y-115477669D01*
X133686516Y-115374080D01*
X133767291Y-115240883D01*
X133872417Y-115087370D01*
X133995519Y-114922830D01*
X134130222Y-114756557D01*
X134135808Y-114749945D01*
X134206049Y-114664661D01*
X134245964Y-114607012D01*
X134261321Y-114564792D01*
X134257884Y-114525795D01*
X134251435Y-114505161D01*
X134220562Y-114434770D01*
X134181097Y-114392702D01*
X134123820Y-114377463D01*
X134039515Y-114387559D01*
X133918963Y-114421497D01*
X133858376Y-114441465D01*
X133723567Y-114490003D01*
X133585305Y-114544844D01*
X133466296Y-114596816D01*
X133427967Y-114615352D01*
X133338357Y-114663083D01*
X133288976Y-114697949D01*
X133270744Y-114728490D01*
X133273749Y-114760381D01*
X133299650Y-114900378D01*
X133309773Y-115063655D01*
X133303981Y-115226577D01*
X133282138Y-115365511D01*
X133277350Y-115383231D01*
X133200568Y-115598997D01*
X133107390Y-115779071D01*
X133001391Y-115918081D01*
X132886145Y-116010658D01*
X132846928Y-116030005D01*
X132745009Y-116062848D01*
X132666069Y-116060073D01*
X132591213Y-116019770D01*
X132568912Y-116001922D01*
X132506121Y-115921919D01*
X132454824Y-115806049D01*
X132420151Y-115671822D01*
X132407230Y-115536749D01*
X132409085Y-115506971D01*
X132681980Y-115506971D01*
X132690186Y-115605674D01*
X132697566Y-115636500D01*
X132717823Y-115706439D01*
X132733291Y-115731312D01*
X132752597Y-115718110D01*
X132769583Y-115694861D01*
X132797467Y-115643128D01*
X132835821Y-115556662D01*
X132877637Y-115451563D01*
X132889953Y-115418409D01*
X132940326Y-115257226D01*
X132961637Y-115131043D01*
X132961607Y-115090203D01*
X132953557Y-114980388D01*
X132839617Y-115151002D01*
X132753235Y-115291460D01*
X132701843Y-115406174D01*
X132681980Y-115506971D01*
X132409085Y-115506971D01*
X132411688Y-115465187D01*
X132447778Y-115327950D01*
X132518021Y-115168384D01*
X132615519Y-114998871D01*
X132733376Y-114831790D01*
X132826721Y-114720220D01*
X132880100Y-114657209D01*
X132902066Y-114612230D01*
X132898910Y-114564995D01*
X132887065Y-114525586D01*
X132862712Y-114469324D01*
X132827381Y-114432577D01*
X132771395Y-114412607D01*
X132685077Y-114406676D01*
X132558749Y-114412047D01*
X132500717Y-114416289D01*
X132331713Y-114437223D01*
X132165093Y-114471913D01*
X132008511Y-114517191D01*
X131869623Y-114569891D01*
X131756085Y-114626846D01*
X131675552Y-114684887D01*
X131635678Y-114740849D01*
X131635125Y-114774404D01*
X131667711Y-114929150D01*
X131681507Y-115115426D01*
X131676983Y-115314574D01*
X131654608Y-115507933D01*
X131614850Y-115676845D01*
X131612232Y-115684867D01*
X131550666Y-115806566D01*
X131454549Y-115923398D01*
X131336381Y-116025358D01*
X131208662Y-116102442D01*
X131083892Y-116144647D01*
X131031546Y-116149594D01*
X130942609Y-116124787D01*
X130866217Y-116058648D01*
X130815147Y-115963604D01*
X130806576Y-115930826D01*
X130786802Y-115699474D01*
X130798005Y-115606317D01*
X131113181Y-115606317D01*
X131113969Y-115732980D01*
X131190481Y-115648935D01*
X131245873Y-115567857D01*
X131283241Y-115459728D01*
X131297206Y-115391389D01*
X131313106Y-115287255D01*
X131323706Y-115193080D01*
X131326526Y-115139456D01*
X131325631Y-115061023D01*
X131274288Y-115122601D01*
X131217369Y-115214814D01*
X131166655Y-115338614D01*
X131129524Y-115471845D01*
X131113356Y-115592348D01*
X131113181Y-115606317D01*
X130798005Y-115606317D01*
X130815559Y-115460348D01*
X130890262Y-115222313D01*
X131008326Y-114994232D01*
X131127475Y-114830591D01*
X131179604Y-114761934D01*
X131213123Y-114705758D01*
X131219907Y-114684246D01*
X131200065Y-114633053D01*
X131149634Y-114566372D01*
X131082255Y-114499265D01*
X131011568Y-114446796D01*
X130998138Y-114439335D01*
X130901642Y-114410732D01*
X130799498Y-114415107D01*
X130701230Y-114441037D01*
X130578565Y-114489166D01*
X130448083Y-114551240D01*
X130326363Y-114619005D01*
X130229984Y-114684206D01*
X130192481Y-114717331D01*
X130119495Y-114793512D01*
X130162516Y-114927267D01*
X130194467Y-115074170D01*
X130209340Y-115249496D01*
X130207409Y-115433690D01*
X130188949Y-115607196D01*
X130154234Y-115750460D01*
X130150827Y-115759859D01*
X130062494Y-115953207D01*
X129959226Y-116109627D01*
X129846113Y-116228680D01*
X129728245Y-116309929D01*
X129610712Y-116352935D01*
X129498603Y-116357261D01*
X129397009Y-116322469D01*
X129311020Y-116248121D01*
X129245724Y-116133778D01*
X129206213Y-115979004D01*
X129196586Y-115841963D01*
X129196689Y-115837370D01*
X129546626Y-115837370D01*
X129556022Y-115910670D01*
X129581253Y-115951694D01*
X129603529Y-115955743D01*
X129639486Y-115929514D01*
X129689309Y-115869650D01*
X129735310Y-115800188D01*
X129787344Y-115704935D01*
X129830237Y-115612035D01*
X129849453Y-115558640D01*
X129865444Y-115475157D01*
X129873758Y-115378236D01*
X129874341Y-115284245D01*
X129867138Y-115209550D01*
X129852094Y-115170519D01*
X129850750Y-115169547D01*
X129826546Y-115183468D01*
X129786458Y-115235518D01*
X129736721Y-115314829D01*
X129683572Y-115410537D01*
X129633244Y-115511775D01*
X129591975Y-115607677D01*
X129579150Y-115642843D01*
X129554018Y-115744019D01*
X129546626Y-115837370D01*
X129196689Y-115837370D01*
X129199005Y-115733620D01*
X129211434Y-115647029D01*
X129239184Y-115560034D01*
X129287568Y-115450480D01*
X129293381Y-115438199D01*
X129353256Y-115322316D01*
X129431465Y-115184947D01*
X129515100Y-115048355D01*
X129553900Y-114988830D01*
X129629259Y-114873669D01*
X129674062Y-114793063D01*
X129688525Y-114737490D01*
X129672865Y-114697426D01*
X129627300Y-114663349D01*
X129562063Y-114630481D01*
X129511665Y-114609031D01*
X129464933Y-114598980D01*
X129406828Y-114600279D01*
X129322307Y-114612880D01*
X129234040Y-114629427D01*
X128992034Y-114683771D01*
X128797192Y-114744958D01*
X128643120Y-114815258D01*
X128558954Y-114869000D01*
X128438002Y-114957864D01*
X128437249Y-115318544D01*
X128432431Y-115516490D01*
X128416418Y-115675402D01*
X128385477Y-115809482D01*
X128335875Y-115932934D01*
X128263879Y-116059958D01*
X128227888Y-116115077D01*
X128118134Y-116240488D01*
X127992789Y-116321936D01*
X127860056Y-116360619D01*
X127728138Y-116357732D01*
X127605238Y-116314471D01*
X127499558Y-116232032D01*
X127419301Y-116111611D01*
X127379476Y-115991387D01*
X127365362Y-115892500D01*
X127366406Y-115868154D01*
X127752605Y-115868154D01*
X127757820Y-115932697D01*
X127770375Y-115970253D01*
X127770524Y-115970405D01*
X127821629Y-115988201D01*
X127884876Y-115969940D01*
X127922122Y-115940305D01*
X127982324Y-115849298D01*
X128036266Y-115723932D01*
X128076840Y-115583603D01*
X128095490Y-115467246D01*
X128110072Y-115302927D01*
X128007737Y-115423880D01*
X127888468Y-115576601D01*
X127804946Y-115709544D01*
X127759952Y-115817863D01*
X127752605Y-115868154D01*
X127366406Y-115868154D01*
X127369430Y-115797611D01*
X127394954Y-115700025D01*
X127445207Y-115593045D01*
X127523462Y-115469974D01*
X127632992Y-115324114D01*
X127777070Y-115148770D01*
X127810672Y-115109160D01*
X128021503Y-114861636D01*
X127962621Y-114806779D01*
X127881897Y-114766315D01*
X127755325Y-114752761D01*
X127582673Y-114766117D01*
X127366248Y-114805820D01*
X127122011Y-114872623D01*
X126925099Y-114955233D01*
X126770883Y-115055656D01*
X126751015Y-115072495D01*
X126652302Y-115159166D01*
X126668686Y-115408589D01*
X126665447Y-115655758D01*
X126618919Y-115880515D01*
X126525700Y-116096487D01*
X126475606Y-116181831D01*
X126378734Y-116310284D01*
X126263678Y-116422532D01*
X126141656Y-116510238D01*
X126023885Y-116565063D01*
X125940341Y-116579647D01*
X125844712Y-116567732D01*
X125777912Y-116527138D01*
X125770086Y-116519171D01*
X125695247Y-116401595D01*
X125659206Y-116256404D01*
X125663399Y-116094631D01*
X125673134Y-116055659D01*
X126032393Y-116055659D01*
X126036613Y-116084855D01*
X126056704Y-116079749D01*
X126099459Y-116042203D01*
X126150361Y-115981221D01*
X126206080Y-115895286D01*
X126233850Y-115844093D01*
X126271832Y-115756370D01*
X126296246Y-115677891D01*
X126301176Y-115643443D01*
X126301176Y-115577900D01*
X126251133Y-115642001D01*
X126197671Y-115718779D01*
X126141290Y-115812710D01*
X126089815Y-115908995D01*
X126051070Y-115992837D01*
X126032881Y-116049437D01*
X126032393Y-116055659D01*
X125673134Y-116055659D01*
X125697281Y-115958990D01*
X125749097Y-115839459D01*
X125826854Y-115694033D01*
X125921556Y-115537671D01*
X126024204Y-115385333D01*
X126113338Y-115267258D01*
X126250540Y-115097197D01*
X126198884Y-114998475D01*
X126147228Y-114899753D01*
X125958365Y-114901332D01*
X125749874Y-114929568D01*
X125550915Y-115010703D01*
X125361506Y-115144730D01*
X125282683Y-115218944D01*
X125137735Y-115366145D01*
X125134852Y-115751150D01*
X125133199Y-115904087D01*
X125129646Y-116015495D01*
X125122313Y-116097601D01*
X125109320Y-116162634D01*
X125088787Y-116222822D01*
X125058832Y-116290391D01*
X125048576Y-116312137D01*
X124949657Y-116489757D01*
X124839280Y-116623421D01*
X124708649Y-116722865D01*
X124647759Y-116755730D01*
X124510405Y-116803945D01*
X124396472Y-116804041D01*
X124307744Y-116757107D01*
X124246008Y-116664233D01*
X124213047Y-116526510D01*
X124209695Y-116488158D01*
X124210070Y-116373800D01*
X124558523Y-116373800D01*
X124576137Y-116388649D01*
X124611894Y-116360604D01*
X124661968Y-116291800D01*
X124691489Y-116242228D01*
X124732389Y-116158232D01*
X124764787Y-116070766D01*
X124786373Y-115990605D01*
X124794841Y-115928524D01*
X124787882Y-115895297D01*
X124764704Y-115900416D01*
X124726470Y-115948415D01*
X124678988Y-116030219D01*
X124630556Y-116128825D01*
X124589475Y-116227228D01*
X124564044Y-116308422D01*
X124562882Y-116313923D01*
X124558523Y-116373800D01*
X124210070Y-116373800D01*
X124210191Y-116336992D01*
X124233899Y-116190567D01*
X124284266Y-116040164D01*
X124364740Y-115877066D01*
X124478769Y-115692553D01*
X124584481Y-115540297D01*
X124651417Y-115442993D01*
X124704258Y-115358296D01*
X124736086Y-115297746D01*
X124742235Y-115277163D01*
X124728405Y-115212709D01*
X124693958Y-115138106D01*
X124649455Y-115070656D01*
X124605461Y-115027662D01*
X124585681Y-115020705D01*
X124515935Y-115040553D01*
X124422335Y-115095396D01*
X124314521Y-115178184D01*
X124202136Y-115281867D01*
X124141892Y-115345219D01*
X123960736Y-115555257D01*
X123798255Y-115766889D01*
X123650358Y-115987629D01*
X123512949Y-116224995D01*
X123381935Y-116486503D01*
X123253223Y-116779669D01*
X123122719Y-117112011D01*
X123009789Y-117423897D01*
X122941388Y-117619131D01*
X122889367Y-117769852D01*
X122852124Y-117882209D01*
X122828058Y-117962349D01*
X122815568Y-118016420D01*
X122813051Y-118050569D01*
X122566239Y-118050569D01*
X122574200Y-117983923D01*
X122599746Y-117865817D01*
X122639064Y-117714233D01*
X122689487Y-117537559D01*
X122748348Y-117344179D01*
X122812981Y-117142479D01*
X122880720Y-116940843D01*
X122948897Y-116747658D01*
X123014846Y-116571309D01*
X123075900Y-116420181D01*
X123113565Y-116335450D01*
X123268398Y-116026373D01*
X123432663Y-115737456D01*
X123602596Y-115473693D01*
X123774437Y-115240080D01*
X123944423Y-115041612D01*
X124108791Y-114883284D01*
X124263781Y-114770091D01*
X124312667Y-114743275D01*
X124480212Y-114682235D01*
X124634135Y-114671444D01*
X124771449Y-114710226D01*
X124889168Y-114797907D01*
X124959084Y-114889263D01*
X125021154Y-114989695D01*
X125147832Y-114875801D01*
X125351315Y-114726883D01*
X125581460Y-114617861D01*
X125825906Y-114553556D01*
X126014892Y-114537553D01*
X126181047Y-114554908D01*
X126315468Y-114611133D01*
X126427266Y-114710150D01*
X126433617Y-114717736D01*
X126510437Y-114810932D01*
X126694223Y-114700086D01*
X126839554Y-114622225D01*
X126998604Y-114557890D01*
X127183693Y-114502973D01*
X127407141Y-114453368D01*
X127470383Y-114441326D01*
X127669960Y-114412051D01*
X127831882Y-114407382D01*
X127966936Y-114428615D01*
X128085907Y-114477045D01*
X128160467Y-114524258D01*
X128237007Y-114577741D01*
X128285262Y-114603326D01*
X128320259Y-114604955D01*
X128357022Y-114586572D01*
X128368818Y-114578940D01*
X128511615Y-114498646D01*
X128677918Y-114431582D01*
X128878912Y-114373749D01*
X129046141Y-114336635D01*
X129178615Y-114310661D01*
X129295231Y-114289231D01*
X129384141Y-114274423D01*
X129433502Y-114268315D01*
X129435876Y-114268262D01*
X129555830Y-114287854D01*
X129693854Y-114341689D01*
X129819271Y-114413949D01*
X129894535Y-114462989D01*
X129939704Y-114484469D01*
X129968730Y-114481645D01*
X129995565Y-114457775D01*
X129997575Y-114455563D01*
X130051645Y-114412377D01*
X130142421Y-114356561D01*
X130256550Y-114295084D01*
X130380681Y-114234913D01*
X130501462Y-114183017D01*
X130565497Y-114159186D01*
X130773654Y-114112121D01*
X130970660Y-114117182D01*
X131154371Y-114173885D01*
X131322643Y-114281747D01*
X131391283Y-114345335D01*
X131494129Y-114450659D01*
X131621043Y-114371765D01*
X131827853Y-114268438D01*
X132074338Y-114191709D01*
X132364001Y-114140583D01*
X132482563Y-114127981D01*
X132624167Y-114115867D01*
X132724623Y-114109871D01*
X132796268Y-114110698D01*
X132851436Y-114119054D01*
X132902464Y-114135645D01*
X132946858Y-114154548D01*
X133069591Y-114232317D01*
X133130941Y-114306927D01*
X133168449Y-114366318D01*
X133194370Y-114399786D01*
X133198651Y-114402504D01*
X133226078Y-114389435D01*
X133282564Y-114356337D01*
X133315108Y-114336133D01*
X133385296Y-114297010D01*
X133488824Y-114245604D01*
X133609242Y-114189897D01*
X133684150Y-114157131D01*
X133820085Y-114101952D01*
X133925435Y-114067377D01*
X134017184Y-114048970D01*
X134112318Y-114042296D01*
X134124764Y-114042073D01*
X134228663Y-114043917D01*
X134299723Y-114056484D01*
X134358590Y-114085092D01*
X134396485Y-114112045D01*
X134468888Y-114181838D01*
X134527911Y-114262991D01*
X134536856Y-114280035D01*
X134567476Y-114340512D01*
X134587936Y-114373545D01*
X134590677Y-114375626D01*
X134617440Y-114365360D01*
X134680152Y-114338290D01*
X134765892Y-114300009D01*
X134776648Y-114295139D01*
X134890532Y-114248209D01*
X135029431Y-114197675D01*
X135166289Y-114153292D01*
X135187560Y-114147015D01*
X135299201Y-114115411D01*
X135373493Y-114098283D01*
X135424605Y-114094759D01*
X135466706Y-114103967D01*
X135513966Y-114125034D01*
X135517381Y-114126708D01*
X135600398Y-114185982D01*
X135679439Y-114271823D01*
X135734400Y-114361578D01*
X135740950Y-114378651D01*
X135766370Y-114379633D01*
X135824556Y-114356338D01*
X135903185Y-114313758D01*
X135907413Y-114311224D01*
X136186799Y-114169688D01*
X136483461Y-114068383D01*
X136784152Y-114011139D01*
X136986976Y-113999330D01*
X137151447Y-114007383D01*
G37*
G36*
X136037652Y-125175386D02*
G01*
X136136299Y-125253911D01*
X136149189Y-125270055D01*
X136164925Y-125292985D01*
X136177441Y-125318991D01*
X136187106Y-125354097D01*
X136194288Y-125404325D01*
X136199353Y-125475700D01*
X136202671Y-125574243D01*
X136204609Y-125705979D01*
X136205535Y-125876931D01*
X136205818Y-126093120D01*
X136205833Y-126197338D01*
X136205676Y-126434666D01*
X136204970Y-126624390D01*
X136203355Y-126772663D01*
X136200475Y-126885639D01*
X136195970Y-126969471D01*
X136189485Y-127030310D01*
X136180660Y-127074311D01*
X136169139Y-127107625D01*
X136154563Y-127136407D01*
X136150864Y-127142822D01*
X136137778Y-127167050D01*
X136126520Y-127188428D01*
X136113877Y-127207372D01*
X136096635Y-127224303D01*
X136071579Y-127239638D01*
X136035496Y-127253797D01*
X135985172Y-127267197D01*
X135917393Y-127280257D01*
X135828945Y-127293397D01*
X135716614Y-127307033D01*
X135577186Y-127321586D01*
X135407448Y-127337474D01*
X135204185Y-127355114D01*
X134964183Y-127374926D01*
X134684229Y-127397329D01*
X134361109Y-127422740D01*
X133991608Y-127451579D01*
X133572514Y-127484264D01*
X133464245Y-127492723D01*
X132985470Y-127530114D01*
X132555817Y-127563577D01*
X132170818Y-127593440D01*
X131826007Y-127620035D01*
X131516918Y-127643690D01*
X131239083Y-127664735D01*
X130988037Y-127683499D01*
X130759313Y-127700311D01*
X130548445Y-127715502D01*
X130350965Y-127729401D01*
X130162407Y-127742336D01*
X129978305Y-127754639D01*
X129794192Y-127766637D01*
X129605602Y-127778661D01*
X129486256Y-127786161D01*
X128964180Y-127817995D01*
X128459289Y-127847152D01*
X127974276Y-127873543D01*
X127511833Y-127897075D01*
X127074651Y-127917658D01*
X126665424Y-127935200D01*
X126286843Y-127949612D01*
X125941602Y-127960800D01*
X125632391Y-127968675D01*
X125361903Y-127973146D01*
X125132830Y-127974120D01*
X124947866Y-127971508D01*
X124809701Y-127965218D01*
X124721028Y-127955159D01*
X124694979Y-127948252D01*
X124636878Y-127905188D01*
X124604656Y-127858835D01*
X124558259Y-127795453D01*
X124514228Y-127761268D01*
X124463512Y-127717881D01*
X124409461Y-127648252D01*
X124393073Y-127621341D01*
X124356309Y-127543496D01*
X124344230Y-127471320D01*
X124352102Y-127376301D01*
X124352225Y-127375424D01*
X124364752Y-127258183D01*
X124368899Y-127134179D01*
X124364385Y-126990896D01*
X124350928Y-126815820D01*
X124336315Y-126670268D01*
X124318120Y-126427268D01*
X124321699Y-126230739D01*
X124343185Y-126108007D01*
X124863187Y-126108007D01*
X124871325Y-126188642D01*
X124880441Y-126251238D01*
X124897780Y-126349031D01*
X124920202Y-126464675D01*
X124929712Y-126511181D01*
X124968167Y-126712462D01*
X125001034Y-126915885D01*
X125026531Y-127107962D01*
X125042871Y-127275205D01*
X125048271Y-127404126D01*
X125048246Y-127407270D01*
X125046795Y-127550765D01*
X125170018Y-127534222D01*
X125272569Y-127520092D01*
X125373148Y-127505690D01*
X125393956Y-127502610D01*
X125459444Y-127488213D01*
X125483921Y-127464960D01*
X125481782Y-127429414D01*
X125464726Y-127331491D01*
X125448504Y-127200313D01*
X125433676Y-127045937D01*
X125420804Y-126878418D01*
X125410449Y-126707814D01*
X125403171Y-126544180D01*
X125399531Y-126397573D01*
X125400092Y-126278050D01*
X125405414Y-126195666D01*
X125411379Y-126167577D01*
X125440429Y-126092755D01*
X125151808Y-126100381D01*
X124863187Y-126108007D01*
X124343185Y-126108007D01*
X124348549Y-126077368D01*
X124349334Y-126075641D01*
X125819022Y-126075641D01*
X125834510Y-126239655D01*
X125847251Y-126337696D01*
X125868889Y-126467653D01*
X125895874Y-126609142D01*
X125912992Y-126690351D01*
X125944065Y-126840405D01*
X125974486Y-127001994D01*
X125999526Y-127149430D01*
X126008325Y-127208201D01*
X126040663Y-127439367D01*
X126123883Y-127426616D01*
X126199159Y-127416371D01*
X126299280Y-127404322D01*
X126357062Y-127397935D01*
X126507021Y-127382005D01*
X126458733Y-127242255D01*
X126430689Y-127131691D01*
X126412869Y-127005156D01*
X126409643Y-126941234D01*
X126414236Y-126802130D01*
X126427712Y-126640066D01*
X126441054Y-126529322D01*
X126953910Y-126529322D01*
X126955658Y-126679187D01*
X126959854Y-126821792D01*
X126966568Y-126946971D01*
X126972818Y-127018934D01*
X127007075Y-127336958D01*
X127131216Y-127321377D01*
X127221304Y-127311171D01*
X127339850Y-127299185D01*
X127461729Y-127287956D01*
X127465778Y-127287605D01*
X127570639Y-127277542D01*
X127631863Y-127267250D01*
X127659448Y-127252860D01*
X127663390Y-127230502D01*
X127658930Y-127212838D01*
X127640394Y-127121757D01*
X127626545Y-126993102D01*
X127617401Y-126838613D01*
X127612978Y-126670029D01*
X127613294Y-126499087D01*
X127618366Y-126337527D01*
X127628210Y-126197086D01*
X127642845Y-126089505D01*
X127657218Y-126036853D01*
X127660351Y-126018833D01*
X127650855Y-126010776D01*
X128065658Y-126010776D01*
X128068648Y-126071158D01*
X128079003Y-126122108D01*
X128088261Y-126188114D01*
X128096716Y-126296510D01*
X128103771Y-126435925D01*
X128108833Y-126594994D01*
X128111105Y-126735182D01*
X128115462Y-127227966D01*
X128290171Y-127211633D01*
X128407741Y-127200067D01*
X128526572Y-127187476D01*
X128594364Y-127179729D01*
X128673107Y-127166369D01*
X128707525Y-127148206D01*
X128708224Y-127123441D01*
X128697649Y-127071991D01*
X128686686Y-126978306D01*
X128675977Y-126853895D01*
X128666163Y-126710269D01*
X128657887Y-126558940D01*
X128651790Y-126411417D01*
X128648514Y-126279212D01*
X128648701Y-126173835D01*
X128651976Y-126114726D01*
X128669137Y-125960176D01*
X128392299Y-125960588D01*
X128273299Y-125962651D01*
X128173171Y-125967886D01*
X128104926Y-125975417D01*
X128083360Y-125981408D01*
X128065658Y-126010776D01*
X127650855Y-126010776D01*
X127646622Y-126007185D01*
X127608065Y-126001174D01*
X127536712Y-126000067D01*
X127424594Y-126003130D01*
X127331088Y-126006801D01*
X127201332Y-126012560D01*
X127092778Y-126018140D01*
X127015743Y-126022955D01*
X126980543Y-126026417D01*
X126979504Y-126026788D01*
X126970036Y-126060512D01*
X126962674Y-126137790D01*
X126957486Y-126248460D01*
X126954542Y-126382358D01*
X126953910Y-126529322D01*
X126441054Y-126529322D01*
X126447807Y-126473275D01*
X126472256Y-126319994D01*
X126498793Y-126198456D01*
X126504338Y-126178941D01*
X126524141Y-126105599D01*
X126532941Y-126057194D01*
X126531973Y-126047622D01*
X126503259Y-126045564D01*
X126431147Y-126046399D01*
X126325902Y-126049858D01*
X126197791Y-126055673D01*
X126170929Y-126057063D01*
X125819022Y-126075641D01*
X124349334Y-126075641D01*
X124400167Y-125963840D01*
X124424663Y-125939622D01*
X129000978Y-125939622D01*
X129001360Y-125967244D01*
X129006628Y-126038633D01*
X129015816Y-126144117D01*
X129027957Y-126274025D01*
X129042084Y-126418686D01*
X129057231Y-126568428D01*
X129072430Y-126713582D01*
X129086716Y-126844476D01*
X129099121Y-126951439D01*
X129108680Y-127024801D01*
X129110844Y-127038787D01*
X129127029Y-127136340D01*
X129306642Y-127123928D01*
X129401439Y-127116812D01*
X129474802Y-127110265D01*
X129509861Y-127105861D01*
X129519176Y-127078414D01*
X129523257Y-127035738D01*
X129908232Y-127035738D01*
X129909602Y-127048028D01*
X129923772Y-127056198D01*
X129956552Y-127060231D01*
X130013748Y-127060110D01*
X130101170Y-127055818D01*
X130224625Y-127047337D01*
X130389923Y-127034652D01*
X130602870Y-127017745D01*
X130608255Y-127017316D01*
X130816392Y-127000730D01*
X130814502Y-126982668D01*
X131252330Y-126982668D01*
X131377229Y-126969254D01*
X131460626Y-126961525D01*
X131577687Y-126952237D01*
X131708410Y-126942937D01*
X131765184Y-126939234D01*
X131886611Y-126930445D01*
X131963195Y-126921167D01*
X132003823Y-126909237D01*
X132004736Y-126908110D01*
X132371888Y-126908110D01*
X132649284Y-126890238D01*
X132791917Y-126880578D01*
X132938716Y-126869864D01*
X133066075Y-126859845D01*
X133110721Y-126856032D01*
X133294764Y-126839699D01*
X133277931Y-126756075D01*
X133260681Y-126647364D01*
X133245654Y-126510248D01*
X133233579Y-126358220D01*
X133225184Y-126204773D01*
X133221198Y-126063398D01*
X133222348Y-125947591D01*
X133229364Y-125870842D01*
X133229975Y-125867834D01*
X133256141Y-125745150D01*
X133088820Y-125745150D01*
X132979916Y-125747210D01*
X132843704Y-125752661D01*
X132706443Y-125760411D01*
X132682184Y-125762069D01*
X132442870Y-125778989D01*
X132452509Y-125983815D01*
X132452880Y-126124634D01*
X132443806Y-126302365D01*
X132426545Y-126501241D01*
X132402352Y-126705493D01*
X132386117Y-126817159D01*
X132371888Y-126908110D01*
X132004736Y-126908110D01*
X132017383Y-126892491D01*
X132015941Y-126878175D01*
X131998075Y-126813719D01*
X131988701Y-126779964D01*
X131958189Y-126619451D01*
X131943415Y-126426578D01*
X131944470Y-126220414D01*
X131961448Y-126020028D01*
X131984406Y-125886261D01*
X132003649Y-125798906D01*
X131790429Y-125798906D01*
X131660871Y-125801215D01*
X131526956Y-125807266D01*
X131418717Y-125815654D01*
X131260224Y-125832402D01*
X131256277Y-126407535D01*
X131252330Y-126982668D01*
X130814502Y-126982668D01*
X130796403Y-126809712D01*
X130788878Y-126709473D01*
X130782648Y-126572519D01*
X130778305Y-126415887D01*
X130776443Y-126256615D01*
X130776415Y-126235679D01*
X130776415Y-125852663D01*
X130574827Y-125852854D01*
X130441961Y-125855484D01*
X130299316Y-125862130D01*
X130195585Y-125869827D01*
X130017931Y-125886610D01*
X130000465Y-126118261D01*
X129981499Y-126366517D01*
X129965627Y-126566222D01*
X129952362Y-126722460D01*
X129941213Y-126840318D01*
X129931693Y-126924880D01*
X129923313Y-126981233D01*
X129915582Y-127014461D01*
X129913854Y-127019345D01*
X129908232Y-127035738D01*
X129523257Y-127035738D01*
X129525847Y-127008662D01*
X129529115Y-126908022D01*
X129528877Y-126819133D01*
X129531214Y-126662675D01*
X129541357Y-126483101D01*
X129557398Y-126310167D01*
X129565749Y-126244439D01*
X129582538Y-126123267D01*
X129596064Y-126021334D01*
X129604766Y-125950680D01*
X129607208Y-125924512D01*
X129582555Y-125917793D01*
X129517277Y-125914156D01*
X129424398Y-125913278D01*
X129316943Y-125914833D01*
X129207936Y-125918498D01*
X129110401Y-125923948D01*
X129037362Y-125930858D01*
X129001842Y-125938903D01*
X129000978Y-125939622D01*
X124424663Y-125939622D01*
X124478050Y-125886841D01*
X124583695Y-125843057D01*
X124716253Y-125829177D01*
X124778767Y-125827427D01*
X124887228Y-125822673D01*
X125033935Y-125815325D01*
X125211187Y-125805791D01*
X125411283Y-125794480D01*
X125626521Y-125781801D01*
X125750171Y-125774294D01*
X126270954Y-125742846D01*
X126485768Y-125730355D01*
X133619255Y-125730355D01*
X133622057Y-125756417D01*
X133637003Y-125814313D01*
X133640935Y-125827565D01*
X133652016Y-125892724D01*
X133659863Y-125995753D01*
X133663571Y-126120818D01*
X133663169Y-126215520D01*
X133661142Y-126356204D01*
X133660304Y-126495506D01*
X133660724Y-126613450D01*
X133661648Y-126667176D01*
X133665833Y-126823170D01*
X133968213Y-126806697D01*
X134096221Y-126798934D01*
X134209250Y-126790640D01*
X134293528Y-126782909D01*
X134331297Y-126777806D01*
X134368522Y-126764859D01*
X134376214Y-126748137D01*
X134786322Y-126748137D01*
X135143517Y-126732251D01*
X135277379Y-126724796D01*
X135391746Y-126715597D01*
X135475947Y-126705721D01*
X135519311Y-126696236D01*
X135522216Y-126694408D01*
X135529126Y-126663311D01*
X135537645Y-126589031D01*
X135547121Y-126482046D01*
X135556902Y-126352837D01*
X135566336Y-126211882D01*
X135574771Y-126069661D01*
X135581556Y-125936652D01*
X135586037Y-125823336D01*
X135587564Y-125740190D01*
X135585484Y-125697695D01*
X135584409Y-125694750D01*
X135556126Y-125690075D01*
X135484237Y-125684331D01*
X135378866Y-125678174D01*
X135250134Y-125672260D01*
X135216793Y-125670946D01*
X134857158Y-125657222D01*
X134839075Y-126055184D01*
X134831290Y-126210364D01*
X134822491Y-126359665D01*
X134813625Y-126488523D01*
X134805637Y-126582372D01*
X134803657Y-126600642D01*
X134786322Y-126748137D01*
X134376214Y-126748137D01*
X134381740Y-126736123D01*
X134376181Y-126675470D01*
X134372173Y-126651723D01*
X134365205Y-126585061D01*
X134359233Y-126477230D01*
X134354732Y-126340818D01*
X134352180Y-126188410D01*
X134351787Y-126113611D01*
X134351229Y-125689162D01*
X133988372Y-125707300D01*
X133855128Y-125714282D01*
X133742936Y-125720771D01*
X133661799Y-125726141D01*
X133621723Y-125729768D01*
X133619255Y-125730355D01*
X126485768Y-125730355D01*
X126771264Y-125713754D01*
X127263758Y-125686341D01*
X127761095Y-125659935D01*
X128275931Y-125633860D01*
X128820924Y-125607442D01*
X129324986Y-125583861D01*
X129716952Y-125565451D01*
X130136084Y-125545150D01*
X130575901Y-125523308D01*
X131029924Y-125500272D01*
X131491674Y-125476392D01*
X131954672Y-125452016D01*
X132412437Y-125427493D01*
X132858491Y-125403171D01*
X133286354Y-125379398D01*
X133689546Y-125356524D01*
X134061589Y-125334897D01*
X134396002Y-125314866D01*
X134686307Y-125296778D01*
X134808161Y-125288884D01*
X135061907Y-125268081D01*
X135303822Y-125240433D01*
X135522287Y-125207599D01*
X135705680Y-125171234D01*
X135795017Y-125148127D01*
X135918538Y-125138282D01*
X136037652Y-125175386D01*
G37*
G36*
X126688441Y-118737339D02*
G01*
X126997182Y-118778354D01*
X127280382Y-118865595D01*
X127535680Y-118997549D01*
X127760717Y-119172703D01*
X127953131Y-119389541D01*
X128110564Y-119646550D01*
X128112753Y-119650916D01*
X128201357Y-119840906D01*
X128262855Y-120008764D01*
X128301444Y-120172808D01*
X128321318Y-120351356D01*
X128326673Y-120562728D01*
X128326583Y-120584515D01*
X128300215Y-120942070D01*
X128224995Y-121279816D01*
X128100081Y-121599700D01*
X127924635Y-121903670D01*
X127697818Y-122193676D01*
X127578523Y-122320386D01*
X127329700Y-122545514D01*
X127075955Y-122722184D01*
X126808656Y-122855564D01*
X126530677Y-122947839D01*
X126367581Y-122978772D01*
X126175087Y-122996960D01*
X125972406Y-123002064D01*
X125778744Y-122993745D01*
X125613312Y-122971664D01*
X125581294Y-122964608D01*
X125325093Y-122875705D01*
X125084051Y-122739611D01*
X124864379Y-122562142D01*
X124672289Y-122349115D01*
X124513991Y-122106345D01*
X124403566Y-121861793D01*
X124323677Y-121563881D01*
X124293753Y-121251796D01*
X124298462Y-121174490D01*
X124930383Y-121174490D01*
X124953685Y-121430789D01*
X125021505Y-121664841D01*
X125130715Y-121872073D01*
X125278188Y-122047914D01*
X125460795Y-122187793D01*
X125675408Y-122287138D01*
X125696415Y-122294007D01*
X125837902Y-122321917D01*
X126007516Y-122329988D01*
X126183654Y-122318795D01*
X126344713Y-122288913D01*
X126389379Y-122275551D01*
X126610168Y-122188445D01*
X126800242Y-122081889D01*
X126978337Y-121944162D01*
X127094536Y-121834394D01*
X127282850Y-121614878D01*
X127433615Y-121375109D01*
X127544848Y-121122197D01*
X127614567Y-120863257D01*
X127640790Y-120605401D01*
X127621535Y-120355741D01*
X127564798Y-120146874D01*
X127466139Y-119951316D01*
X127330342Y-119779116D01*
X127166720Y-119639526D01*
X126984581Y-119541802D01*
X126940065Y-119525902D01*
X126802290Y-119496866D01*
X126633517Y-119484420D01*
X126453887Y-119488588D01*
X126283543Y-119509394D01*
X126212040Y-119525024D01*
X126082658Y-119549275D01*
X125967714Y-119554074D01*
X125938832Y-119551182D01*
X125880426Y-119545366D01*
X125833609Y-119553137D01*
X125783710Y-119581243D01*
X125716059Y-119636431D01*
X125675445Y-119672318D01*
X125475520Y-119877140D01*
X125299499Y-120110294D01*
X125152219Y-120362030D01*
X125038516Y-120622596D01*
X124963225Y-120882242D01*
X124931184Y-121131217D01*
X124930383Y-121174490D01*
X124298462Y-121174490D01*
X124313350Y-120930046D01*
X124382025Y-120603134D01*
X124499336Y-120275567D01*
X124575479Y-120114144D01*
X124634155Y-120005506D01*
X124693842Y-119911844D01*
X124764232Y-119820658D01*
X124855017Y-119719446D01*
X124975889Y-119595705D01*
X124982658Y-119588940D01*
X125125536Y-119450979D01*
X125245336Y-119346821D01*
X125352388Y-119268153D01*
X125457020Y-119206662D01*
X125458635Y-119205822D01*
X125594065Y-119125290D01*
X125680426Y-119049085D01*
X125703588Y-119016717D01*
X125781555Y-118932248D01*
X125904107Y-118859752D01*
X126062940Y-118801585D01*
X126249749Y-118760101D01*
X126456230Y-118737658D01*
X126674079Y-118736610D01*
X126688441Y-118737339D01*
G37*
G36*
X134138569Y-118822634D02*
G01*
X134340023Y-118861835D01*
X134542214Y-118934389D01*
X134593134Y-118957139D01*
X134842189Y-119100463D01*
X135056879Y-119282931D01*
X135235101Y-119500687D01*
X135374751Y-119749876D01*
X135473726Y-120026644D01*
X135529924Y-120327134D01*
X135541242Y-120647492D01*
X135539244Y-120691543D01*
X135501619Y-121019943D01*
X135424326Y-121321549D01*
X135304299Y-121602740D01*
X135138469Y-121869900D01*
X134923770Y-122129409D01*
X134776783Y-122277848D01*
X134564487Y-122465193D01*
X134362788Y-122608198D01*
X134160578Y-122711706D01*
X133946750Y-122780556D01*
X133710197Y-122819592D01*
X133504563Y-122832407D01*
X133319132Y-122834253D01*
X133175841Y-122827545D01*
X133063648Y-122811575D01*
X133020753Y-122801283D01*
X132767174Y-122705395D01*
X132527911Y-122564201D01*
X132311797Y-122385369D01*
X132127664Y-122176566D01*
X131984348Y-121945460D01*
X131950288Y-121872122D01*
X131884330Y-121673724D01*
X131838296Y-121441493D01*
X131813716Y-121192112D01*
X131813123Y-121099082D01*
X132409923Y-121099082D01*
X132436066Y-121350473D01*
X132508753Y-121583215D01*
X132627290Y-121792986D01*
X132715878Y-121901457D01*
X132893429Y-122060157D01*
X133085113Y-122167363D01*
X133292015Y-122223337D01*
X133515217Y-122228337D01*
X133755803Y-122182624D01*
X133813663Y-122164980D01*
X134023899Y-122079453D01*
X134210806Y-121963558D01*
X134362098Y-121836103D01*
X134553503Y-121623063D01*
X134701672Y-121382013D01*
X134808474Y-121109369D01*
X134864363Y-120871904D01*
X134883430Y-120627161D01*
X134855661Y-120389676D01*
X134784486Y-120166479D01*
X134673334Y-119964597D01*
X134525633Y-119791061D01*
X134344813Y-119652900D01*
X134243716Y-119599584D01*
X134143287Y-119561866D01*
X134031043Y-119537472D01*
X133897897Y-119525844D01*
X133734760Y-119526426D01*
X133532546Y-119538661D01*
X133415431Y-119548835D01*
X133301071Y-119560485D01*
X133224463Y-119573780D01*
X133169801Y-119594998D01*
X133121281Y-119630416D01*
X133063097Y-119686310D01*
X133059025Y-119690381D01*
X132824471Y-119957065D01*
X132641454Y-120236276D01*
X132510509Y-120527179D01*
X132500047Y-120557636D01*
X132431019Y-120833362D01*
X132409923Y-121099082D01*
X131813123Y-121099082D01*
X131812123Y-120942261D01*
X131835047Y-120708620D01*
X131840547Y-120676806D01*
X131910881Y-120415174D01*
X132023080Y-120148636D01*
X132169107Y-119892269D01*
X132340923Y-119661149D01*
X132438690Y-119555048D01*
X132517694Y-119483823D01*
X132615900Y-119406476D01*
X132721956Y-119330643D01*
X132824510Y-119263961D01*
X132912212Y-119214064D01*
X132973709Y-119188590D01*
X132986064Y-119186843D01*
X133016946Y-119165668D01*
X133058397Y-119112763D01*
X133071835Y-119091266D01*
X133151037Y-119005053D01*
X133275238Y-118931537D01*
X133436637Y-118873311D01*
X133627436Y-118832971D01*
X133839835Y-118813108D01*
X133913134Y-118811491D01*
X134138569Y-118822634D01*
G37*
G36*
X129355555Y-122443643D02*
G01*
X129407402Y-122463041D01*
X129463813Y-122506045D01*
X129538881Y-122580229D01*
X129654912Y-122724350D01*
X129749984Y-122899102D01*
X129766273Y-122936367D01*
X129818388Y-123048981D01*
X129874698Y-123154316D01*
X129924738Y-123233112D01*
X129934268Y-123245467D01*
X130001774Y-123332708D01*
X130068538Y-123425857D01*
X130078312Y-123440335D01*
X130126908Y-123501408D01*
X130170707Y-123537216D01*
X130183905Y-123541128D01*
X130236440Y-123565132D01*
X130276640Y-123626898D01*
X130300368Y-123711065D01*
X130303489Y-123802267D01*
X130281867Y-123885142D01*
X130278369Y-123892035D01*
X130252751Y-123930355D01*
X130217373Y-123960410D01*
X130165641Y-123983420D01*
X130090958Y-124000605D01*
X129986731Y-124013183D01*
X129846363Y-124022374D01*
X129663260Y-124029396D01*
X129513134Y-124033502D01*
X129271978Y-124041099D01*
X129079962Y-124050866D01*
X128932499Y-124063154D01*
X128825004Y-124078314D01*
X128773981Y-124089990D01*
X128653520Y-124120122D01*
X128568879Y-124129410D01*
X128506198Y-124117549D01*
X128451618Y-124084235D01*
X128449939Y-124082883D01*
X128399184Y-124014774D01*
X128393797Y-123927216D01*
X128434095Y-123817222D01*
X128487714Y-123728149D01*
X128539932Y-123639500D01*
X128551978Y-123615659D01*
X128924593Y-123615659D01*
X128942751Y-123614322D01*
X128984139Y-123604165D01*
X129066136Y-123588218D01*
X129176208Y-123568807D01*
X129281711Y-123551443D01*
X129399736Y-123531288D01*
X129494309Y-123512579D01*
X129555220Y-123497512D01*
X129572784Y-123488805D01*
X129558584Y-123460154D01*
X129526014Y-123392780D01*
X129479799Y-123296503D01*
X129424666Y-123181142D01*
X129420093Y-123171552D01*
X129363809Y-123056556D01*
X129314614Y-122961676D01*
X129277517Y-122896189D01*
X129257531Y-122869371D01*
X129256737Y-122869171D01*
X129239404Y-122892462D01*
X129207037Y-122955628D01*
X129164504Y-123048605D01*
X129123528Y-123144673D01*
X129071056Y-123269272D01*
X129020053Y-123386652D01*
X128977459Y-123481019D01*
X128956426Y-123524806D01*
X128926885Y-123589177D01*
X128924593Y-123615659D01*
X128551978Y-123615659D01*
X128600951Y-123518733D01*
X128661719Y-123384435D01*
X128696589Y-123299224D01*
X128788265Y-123076907D01*
X128879820Y-122879549D01*
X128967518Y-122714325D01*
X129047618Y-122588411D01*
X129100437Y-122524111D01*
X129170621Y-122465498D01*
X129243051Y-122441769D01*
X129293056Y-122439118D01*
X129355555Y-122443643D01*
G37*
G36*
X126211607Y-119955481D02*
G01*
X126404034Y-119962983D01*
X126555146Y-119983484D01*
X126676486Y-120020175D01*
X126779594Y-120076253D01*
X126851464Y-120132567D01*
X126987548Y-120286197D01*
X127082323Y-120465677D01*
X127136730Y-120663619D01*
X127151712Y-120872639D01*
X127128210Y-121085350D01*
X127067167Y-121294366D01*
X126969524Y-121492301D01*
X126836224Y-121671769D01*
X126668209Y-121825385D01*
X126632268Y-121851157D01*
X126451621Y-121947292D01*
X126251188Y-122005948D01*
X126047591Y-122023520D01*
X125907241Y-122008479D01*
X125711682Y-121942105D01*
X125537246Y-121828471D01*
X125388616Y-121671496D01*
X125270693Y-121475564D01*
X125198096Y-121261891D01*
X125173682Y-121039844D01*
X125176519Y-121009615D01*
X126032494Y-121009615D01*
X126037550Y-121101474D01*
X126050562Y-121177493D01*
X126060217Y-121204483D01*
X126109477Y-121245553D01*
X126184391Y-121254819D01*
X126266720Y-121231513D01*
X126295556Y-121214379D01*
X126345481Y-121163943D01*
X126397074Y-121089173D01*
X126410960Y-121063874D01*
X126451069Y-120935060D01*
X126439822Y-120812510D01*
X126378242Y-120703196D01*
X126354329Y-120678010D01*
X126302321Y-120631745D01*
X126266884Y-120619367D01*
X126226625Y-120636704D01*
X126207020Y-120649293D01*
X126107898Y-120745160D01*
X126049093Y-120874318D01*
X126032494Y-121009615D01*
X125176519Y-121009615D01*
X125194543Y-120817556D01*
X125257770Y-120603159D01*
X125360452Y-120404784D01*
X125499682Y-120230562D01*
X125672549Y-120088626D01*
X125790489Y-120022682D01*
X125866331Y-119989860D01*
X125935881Y-119969429D01*
X126015617Y-119958759D01*
X126122021Y-119955219D01*
X126211607Y-119955481D01*
G37*
G36*
X133856481Y-119852220D02*
G01*
X133931628Y-119869364D01*
X134132613Y-119945038D01*
X134295893Y-120058499D01*
X134420248Y-120208056D01*
X134504455Y-120392013D01*
X134547292Y-120608678D01*
X134552817Y-120730453D01*
X134528693Y-120975613D01*
X134459814Y-121216545D01*
X134351422Y-121440950D01*
X134208756Y-121636526D01*
X134134614Y-121711998D01*
X133975205Y-121832121D01*
X133795398Y-121922575D01*
X133607978Y-121979323D01*
X133425727Y-121998324D01*
X133282399Y-121981277D01*
X133085492Y-121906428D01*
X132919866Y-121791279D01*
X132788592Y-121641291D01*
X132694738Y-121461922D01*
X132641375Y-121258633D01*
X132631571Y-121036883D01*
X132631969Y-121033845D01*
X133377390Y-121033845D01*
X133377439Y-121167081D01*
X133404898Y-121257342D01*
X133457796Y-121302830D01*
X133534165Y-121301747D01*
X133623197Y-121258246D01*
X133707443Y-121182202D01*
X133787021Y-121076430D01*
X133847136Y-120962991D01*
X133869774Y-120890519D01*
X133878252Y-120766847D01*
X133857153Y-120666585D01*
X133811531Y-120596849D01*
X133746442Y-120564755D01*
X133666941Y-120577419D01*
X133652393Y-120584515D01*
X133575002Y-120647507D01*
X133497967Y-120745519D01*
X133432124Y-120860846D01*
X133388309Y-120975783D01*
X133377390Y-121033845D01*
X132631969Y-121033845D01*
X132654201Y-120863936D01*
X132729872Y-120607603D01*
X132844527Y-120381781D01*
X132994905Y-120190610D01*
X133177747Y-120038227D01*
X133389792Y-119928771D01*
X133391463Y-119928131D01*
X133537621Y-119876369D01*
X133652755Y-119847670D01*
X133753498Y-119840223D01*
X133856481Y-119852220D01*
G37*
%TD*%
M02*
