M48
; DRILL file {KiCad 8.0.4} date 2024-10-31T19:57:58+0100
; FORMAT={-:-/ absolute / inch / decimal}
; #@! TF.CreationDate,2024-10-31T19:57:58+01:00
; #@! TF.GenerationSoftware,Kicad,Pcbnew,8.0.4
; #@! TF.FileFunction,NonPlated,1,4,NPTH
FMAT,2
INCH
; #@! TA.AperFunction,NonPlated,NPTH,ComponentDrill
T1C0.0256
; #@! TA.AperFunction,NonPlated,NPTH,ComponentDrill
T2C0.0670
; #@! TA.AperFunction,NonPlated,NPTH,ComponentDrill
T3C0.1181
; #@! TA.AperFunction,NonPlated,NPTH,ComponentDrill
T4C0.1260
; #@! TA.AperFunction,NonPlated,NPTH,ComponentDrill
T5C0.1570
%
G90
G05
T1
X5.3193Y-3.2719
X5.5469Y-3.2719
T2
X3.4811Y-5.8661
X3.4811Y-6.6142
X3.4811Y-7.3622
X3.8811Y-5.8661
X3.8811Y-6.6142
X3.8811Y-7.3622
X4.2291Y-5.8661
X4.2291Y-6.6142
X4.2291Y-7.3622
X4.6291Y-5.8661
X4.6291Y-6.6142
X4.6291Y-7.3622
X4.9772Y-5.8661
X4.9772Y-6.6142
X4.9772Y-7.3622
X5.3772Y-5.8661
X5.3772Y-6.6142
X5.3772Y-7.3622
T3
X3.5311Y-5.7661
X3.5311Y-6.5142
X3.5311Y-7.2622
X3.7811Y-5.6661
X3.7811Y-6.4142
X3.7811Y-7.1622
X4.2791Y-5.7661
X4.2791Y-6.5142
X4.2791Y-7.2622
X4.5291Y-5.6661
X4.5291Y-6.4142
X4.5291Y-7.1622
X5.0272Y-5.7661
X5.0272Y-6.5142
X5.0272Y-7.2622
X5.2772Y-5.6661
X5.2772Y-6.4142
X5.2772Y-7.1622
T4
X2.9528Y-3.2283
X2.9528Y-7.6772
X5.9055Y-3.2283
X5.9055Y-7.6772
T5
X3.6811Y-5.8661
X3.6811Y-6.6142
X3.6811Y-7.3622
X4.4291Y-5.8661
X4.4291Y-6.6142
X4.4291Y-7.3622
X5.1772Y-5.8661
X5.1772Y-6.6142
X5.1772Y-7.3622
M30
