%TF.GenerationSoftware,KiCad,Pcbnew,8.0.4*%
%TF.CreationDate,2024-10-31T19:57:59+01:00*%
%TF.ProjectId,Keyboard,4b657962-6f61-4726-942e-6b696361645f,rev?*%
%TF.SameCoordinates,Original*%
%TF.FileFunction,Drillmap*%
%TF.FilePolarity,Positive*%
%FSLAX45Y45*%
G04 Gerber Fmt 4.5, Leading zero omitted, Abs format (unit mm)*
G04 Created by KiCad (PCBNEW 8.0.4) date 2024-10-31 19:57:59*
%MOMM*%
%LPD*%
G01*
G04 APERTURE LIST*
%ADD10C,0.050000*%
%ADD11C,0.200000*%
%ADD12C,0.100000*%
%ADD13C,0.170180*%
%ADD14C,0.300000*%
%ADD15C,0.320000*%
%ADD16C,0.398780*%
G04 APERTURE END LIST*
D10*
X15500000Y-19700000D02*
G75*
G02*
X15200000Y-20000000I-300000J0D01*
G01*
X7000000Y-8000000D02*
G75*
G02*
X7300000Y-7700000I300000J0D01*
G01*
X7000000Y-19700000D02*
X7000000Y-8000000D01*
X7300000Y-20000000D02*
X15200000Y-20000000D01*
X15500000Y-19700000D02*
X15500000Y-8000000D01*
X15200000Y-7700000D02*
G75*
G02*
X15500000Y-8000000I0J-300000D01*
G01*
X7300000Y-7700000D02*
X15200000Y-7700000D01*
X7300000Y-20000000D02*
G75*
G02*
X7000000Y-19700000I0J300000D01*
G01*
D11*
D12*
X13478500Y-8278000D02*
X13543500Y-8343000D01*
X13543500Y-8278000D02*
X13478500Y-8343000D01*
X14056500Y-8278000D02*
X14121500Y-8343000D01*
X14121500Y-8278000D02*
X14056500Y-8343000D01*
D13*
X8927090Y-14900000D02*
G75*
G02*
X8756910Y-14900000I-85090J0D01*
G01*
X8756910Y-14900000D02*
G75*
G02*
X8927090Y-14900000I85090J0D01*
G01*
X8927090Y-16800000D02*
G75*
G02*
X8756910Y-16800000I-85090J0D01*
G01*
X8756910Y-16800000D02*
G75*
G02*
X8927090Y-16800000I85090J0D01*
G01*
X8927090Y-18700000D02*
G75*
G02*
X8756910Y-18700000I-85090J0D01*
G01*
X8756910Y-18700000D02*
G75*
G02*
X8927090Y-18700000I85090J0D01*
G01*
X9943090Y-14900000D02*
G75*
G02*
X9772910Y-14900000I-85090J0D01*
G01*
X9772910Y-14900000D02*
G75*
G02*
X9943090Y-14900000I85090J0D01*
G01*
X9943090Y-16800000D02*
G75*
G02*
X9772910Y-16800000I-85090J0D01*
G01*
X9772910Y-16800000D02*
G75*
G02*
X9943090Y-16800000I85090J0D01*
G01*
X9943090Y-18700000D02*
G75*
G02*
X9772910Y-18700000I-85090J0D01*
G01*
X9772910Y-18700000D02*
G75*
G02*
X9943090Y-18700000I85090J0D01*
G01*
X10827090Y-14900000D02*
G75*
G02*
X10656910Y-14900000I-85090J0D01*
G01*
X10656910Y-14900000D02*
G75*
G02*
X10827090Y-14900000I85090J0D01*
G01*
X10827090Y-16800000D02*
G75*
G02*
X10656910Y-16800000I-85090J0D01*
G01*
X10656910Y-16800000D02*
G75*
G02*
X10827090Y-16800000I85090J0D01*
G01*
X10827090Y-18700000D02*
G75*
G02*
X10656910Y-18700000I-85090J0D01*
G01*
X10656910Y-18700000D02*
G75*
G02*
X10827090Y-18700000I85090J0D01*
G01*
X11843090Y-14900000D02*
G75*
G02*
X11672910Y-14900000I-85090J0D01*
G01*
X11672910Y-14900000D02*
G75*
G02*
X11843090Y-14900000I85090J0D01*
G01*
X11843090Y-16800000D02*
G75*
G02*
X11672910Y-16800000I-85090J0D01*
G01*
X11672910Y-16800000D02*
G75*
G02*
X11843090Y-16800000I85090J0D01*
G01*
X11843090Y-18700000D02*
G75*
G02*
X11672910Y-18700000I-85090J0D01*
G01*
X11672910Y-18700000D02*
G75*
G02*
X11843090Y-18700000I85090J0D01*
G01*
X12727090Y-14900000D02*
G75*
G02*
X12556910Y-14900000I-85090J0D01*
G01*
X12556910Y-14900000D02*
G75*
G02*
X12727090Y-14900000I85090J0D01*
G01*
X12727090Y-16800000D02*
G75*
G02*
X12556910Y-16800000I-85090J0D01*
G01*
X12556910Y-16800000D02*
G75*
G02*
X12727090Y-16800000I85090J0D01*
G01*
X12727090Y-18700000D02*
G75*
G02*
X12556910Y-18700000I-85090J0D01*
G01*
X12556910Y-18700000D02*
G75*
G02*
X12727090Y-18700000I85090J0D01*
G01*
X13743090Y-14900000D02*
G75*
G02*
X13572910Y-14900000I-85090J0D01*
G01*
X13572910Y-14900000D02*
G75*
G02*
X13743090Y-14900000I85090J0D01*
G01*
X13743090Y-16800000D02*
G75*
G02*
X13572910Y-16800000I-85090J0D01*
G01*
X13572910Y-16800000D02*
G75*
G02*
X13743090Y-16800000I85090J0D01*
G01*
X13743090Y-18700000D02*
G75*
G02*
X13572910Y-18700000I-85090J0D01*
G01*
X13572910Y-18700000D02*
G75*
G02*
X13743090Y-18700000I85090J0D01*
G01*
D14*
X8969000Y-14496000D02*
X8969000Y-14796000D01*
X8819000Y-14646000D02*
X9119000Y-14646000D01*
X8969000Y-16396000D02*
X8969000Y-16696000D01*
X8819000Y-16546000D02*
X9119000Y-16546000D01*
X8969000Y-18296000D02*
X8969000Y-18596000D01*
X8819000Y-18446000D02*
X9119000Y-18446000D01*
X9604000Y-14242000D02*
X9604000Y-14542000D01*
X9454000Y-14392000D02*
X9754000Y-14392000D01*
X9604000Y-16142000D02*
X9604000Y-16442000D01*
X9454000Y-16292000D02*
X9754000Y-16292000D01*
X9604000Y-18042000D02*
X9604000Y-18342000D01*
X9454000Y-18192000D02*
X9754000Y-18192000D01*
X10869000Y-14496000D02*
X10869000Y-14796000D01*
X10719000Y-14646000D02*
X11019000Y-14646000D01*
X10869000Y-16396000D02*
X10869000Y-16696000D01*
X10719000Y-16546000D02*
X11019000Y-16546000D01*
X10869000Y-18296000D02*
X10869000Y-18596000D01*
X10719000Y-18446000D02*
X11019000Y-18446000D01*
X11504000Y-14242000D02*
X11504000Y-14542000D01*
X11354000Y-14392000D02*
X11654000Y-14392000D01*
X11504000Y-16142000D02*
X11504000Y-16442000D01*
X11354000Y-16292000D02*
X11654000Y-16292000D01*
X11504000Y-18042000D02*
X11504000Y-18342000D01*
X11354000Y-18192000D02*
X11654000Y-18192000D01*
X12769000Y-14496000D02*
X12769000Y-14796000D01*
X12619000Y-14646000D02*
X12919000Y-14646000D01*
X12769000Y-16396000D02*
X12769000Y-16696000D01*
X12619000Y-16546000D02*
X12919000Y-16546000D01*
X12769000Y-18296000D02*
X12769000Y-18596000D01*
X12619000Y-18446000D02*
X12919000Y-18446000D01*
X13404000Y-14242000D02*
X13404000Y-14542000D01*
X13254000Y-14392000D02*
X13554000Y-14392000D01*
X13404000Y-16142000D02*
X13404000Y-16442000D01*
X13254000Y-16292000D02*
X13554000Y-16292000D01*
X13404000Y-18042000D02*
X13404000Y-18342000D01*
X13254000Y-18192000D02*
X13554000Y-18192000D01*
D15*
X7613138Y-8313138D02*
X7613138Y-8086862D01*
X7386862Y-8086862D01*
X7386862Y-8313138D01*
X7613138Y-8313138D01*
X7613138Y-19613138D02*
X7613138Y-19386862D01*
X7386862Y-19386862D01*
X7386862Y-19613138D01*
X7613138Y-19613138D01*
X15113138Y-8313138D02*
X15113138Y-8086862D01*
X14886862Y-8086862D01*
X14886862Y-8313138D01*
X15113138Y-8313138D01*
X15113138Y-19613138D02*
X15113138Y-19386862D01*
X14886862Y-19386862D01*
X14886862Y-19613138D01*
X15113138Y-19613138D01*
D16*
X9350000Y-15099390D02*
X9549390Y-14900000D01*
X9350000Y-14700610D01*
X9150610Y-14900000D01*
X9350000Y-15099390D01*
X9350000Y-16999390D02*
X9549390Y-16800000D01*
X9350000Y-16600610D01*
X9150610Y-16800000D01*
X9350000Y-16999390D01*
X9350000Y-18899390D02*
X9549390Y-18700000D01*
X9350000Y-18500610D01*
X9150610Y-18700000D01*
X9350000Y-18899390D01*
X11250000Y-15099390D02*
X11449390Y-14900000D01*
X11250000Y-14700610D01*
X11050610Y-14900000D01*
X11250000Y-15099390D01*
X11250000Y-16999390D02*
X11449390Y-16800000D01*
X11250000Y-16600610D01*
X11050610Y-16800000D01*
X11250000Y-16999390D01*
X11250000Y-18899390D02*
X11449390Y-18700000D01*
X11250000Y-18500610D01*
X11050610Y-18700000D01*
X11250000Y-18899390D01*
X13150000Y-15099390D02*
X13349390Y-14900000D01*
X13150000Y-14700610D01*
X12950610Y-14900000D01*
X13150000Y-15099390D01*
X13150000Y-16999390D02*
X13349390Y-16800000D01*
X13150000Y-16600610D01*
X12950610Y-16800000D01*
X13150000Y-16999390D01*
X13150000Y-18899390D02*
X13349390Y-18700000D01*
X13150000Y-18500610D01*
X12950610Y-18700000D01*
X13150000Y-18899390D01*
D11*
X7258277Y-20313984D02*
X7258277Y-20113984D01*
X7258277Y-20113984D02*
X7305896Y-20113984D01*
X7305896Y-20113984D02*
X7334467Y-20123508D01*
X7334467Y-20123508D02*
X7353515Y-20142555D01*
X7353515Y-20142555D02*
X7363039Y-20161603D01*
X7363039Y-20161603D02*
X7372562Y-20199698D01*
X7372562Y-20199698D02*
X7372562Y-20228270D01*
X7372562Y-20228270D02*
X7363039Y-20266365D01*
X7363039Y-20266365D02*
X7353515Y-20285412D01*
X7353515Y-20285412D02*
X7334467Y-20304460D01*
X7334467Y-20304460D02*
X7305896Y-20313984D01*
X7305896Y-20313984D02*
X7258277Y-20313984D01*
X7458277Y-20313984D02*
X7458277Y-20180650D01*
X7458277Y-20218746D02*
X7467801Y-20199698D01*
X7467801Y-20199698D02*
X7477324Y-20190174D01*
X7477324Y-20190174D02*
X7496372Y-20180650D01*
X7496372Y-20180650D02*
X7515420Y-20180650D01*
X7582086Y-20313984D02*
X7582086Y-20180650D01*
X7582086Y-20113984D02*
X7572562Y-20123508D01*
X7572562Y-20123508D02*
X7582086Y-20133031D01*
X7582086Y-20133031D02*
X7591610Y-20123508D01*
X7591610Y-20123508D02*
X7582086Y-20113984D01*
X7582086Y-20113984D02*
X7582086Y-20133031D01*
X7705896Y-20313984D02*
X7686848Y-20304460D01*
X7686848Y-20304460D02*
X7677324Y-20285412D01*
X7677324Y-20285412D02*
X7677324Y-20113984D01*
X7810658Y-20313984D02*
X7791610Y-20304460D01*
X7791610Y-20304460D02*
X7782086Y-20285412D01*
X7782086Y-20285412D02*
X7782086Y-20113984D01*
X8039229Y-20313984D02*
X8039229Y-20113984D01*
X8039229Y-20113984D02*
X8105896Y-20256841D01*
X8105896Y-20256841D02*
X8172562Y-20113984D01*
X8172562Y-20113984D02*
X8172562Y-20313984D01*
X8353515Y-20313984D02*
X8353515Y-20209222D01*
X8353515Y-20209222D02*
X8343991Y-20190174D01*
X8343991Y-20190174D02*
X8324943Y-20180650D01*
X8324943Y-20180650D02*
X8286848Y-20180650D01*
X8286848Y-20180650D02*
X8267801Y-20190174D01*
X8353515Y-20304460D02*
X8334467Y-20313984D01*
X8334467Y-20313984D02*
X8286848Y-20313984D01*
X8286848Y-20313984D02*
X8267801Y-20304460D01*
X8267801Y-20304460D02*
X8258277Y-20285412D01*
X8258277Y-20285412D02*
X8258277Y-20266365D01*
X8258277Y-20266365D02*
X8267801Y-20247317D01*
X8267801Y-20247317D02*
X8286848Y-20237793D01*
X8286848Y-20237793D02*
X8334467Y-20237793D01*
X8334467Y-20237793D02*
X8353515Y-20228270D01*
X8448753Y-20180650D02*
X8448753Y-20380650D01*
X8448753Y-20190174D02*
X8467801Y-20180650D01*
X8467801Y-20180650D02*
X8505896Y-20180650D01*
X8505896Y-20180650D02*
X8524944Y-20190174D01*
X8524944Y-20190174D02*
X8534467Y-20199698D01*
X8534467Y-20199698D02*
X8543991Y-20218746D01*
X8543991Y-20218746D02*
X8543991Y-20275889D01*
X8543991Y-20275889D02*
X8534467Y-20294936D01*
X8534467Y-20294936D02*
X8524944Y-20304460D01*
X8524944Y-20304460D02*
X8505896Y-20313984D01*
X8505896Y-20313984D02*
X8467801Y-20313984D01*
X8467801Y-20313984D02*
X8448753Y-20304460D01*
X8629705Y-20294936D02*
X8639229Y-20304460D01*
X8639229Y-20304460D02*
X8629705Y-20313984D01*
X8629705Y-20313984D02*
X8620182Y-20304460D01*
X8620182Y-20304460D02*
X8629705Y-20294936D01*
X8629705Y-20294936D02*
X8629705Y-20313984D01*
X8629705Y-20190174D02*
X8639229Y-20199698D01*
X8639229Y-20199698D02*
X8629705Y-20209222D01*
X8629705Y-20209222D02*
X8620182Y-20199698D01*
X8620182Y-20199698D02*
X8629705Y-20190174D01*
X8629705Y-20190174D02*
X8629705Y-20209222D01*
D12*
X6932500Y-20610000D02*
X6997500Y-20675000D01*
X6997500Y-20610000D02*
X6932500Y-20675000D01*
D11*
X7296372Y-20533984D02*
X7315420Y-20533984D01*
X7315420Y-20533984D02*
X7334467Y-20543508D01*
X7334467Y-20543508D02*
X7343991Y-20553031D01*
X7343991Y-20553031D02*
X7353515Y-20572079D01*
X7353515Y-20572079D02*
X7363039Y-20610174D01*
X7363039Y-20610174D02*
X7363039Y-20657793D01*
X7363039Y-20657793D02*
X7353515Y-20695889D01*
X7353515Y-20695889D02*
X7343991Y-20714936D01*
X7343991Y-20714936D02*
X7334467Y-20724460D01*
X7334467Y-20724460D02*
X7315420Y-20733984D01*
X7315420Y-20733984D02*
X7296372Y-20733984D01*
X7296372Y-20733984D02*
X7277324Y-20724460D01*
X7277324Y-20724460D02*
X7267801Y-20714936D01*
X7267801Y-20714936D02*
X7258277Y-20695889D01*
X7258277Y-20695889D02*
X7248753Y-20657793D01*
X7248753Y-20657793D02*
X7248753Y-20610174D01*
X7248753Y-20610174D02*
X7258277Y-20572079D01*
X7258277Y-20572079D02*
X7267801Y-20553031D01*
X7267801Y-20553031D02*
X7277324Y-20543508D01*
X7277324Y-20543508D02*
X7296372Y-20533984D01*
X7448753Y-20714936D02*
X7458277Y-20724460D01*
X7458277Y-20724460D02*
X7448753Y-20733984D01*
X7448753Y-20733984D02*
X7439229Y-20724460D01*
X7439229Y-20724460D02*
X7448753Y-20714936D01*
X7448753Y-20714936D02*
X7448753Y-20733984D01*
X7629705Y-20533984D02*
X7591610Y-20533984D01*
X7591610Y-20533984D02*
X7572562Y-20543508D01*
X7572562Y-20543508D02*
X7563039Y-20553031D01*
X7563039Y-20553031D02*
X7543991Y-20581603D01*
X7543991Y-20581603D02*
X7534467Y-20619698D01*
X7534467Y-20619698D02*
X7534467Y-20695889D01*
X7534467Y-20695889D02*
X7543991Y-20714936D01*
X7543991Y-20714936D02*
X7553515Y-20724460D01*
X7553515Y-20724460D02*
X7572562Y-20733984D01*
X7572562Y-20733984D02*
X7610658Y-20733984D01*
X7610658Y-20733984D02*
X7629705Y-20724460D01*
X7629705Y-20724460D02*
X7639229Y-20714936D01*
X7639229Y-20714936D02*
X7648753Y-20695889D01*
X7648753Y-20695889D02*
X7648753Y-20648270D01*
X7648753Y-20648270D02*
X7639229Y-20629222D01*
X7639229Y-20629222D02*
X7629705Y-20619698D01*
X7629705Y-20619698D02*
X7610658Y-20610174D01*
X7610658Y-20610174D02*
X7572562Y-20610174D01*
X7572562Y-20610174D02*
X7553515Y-20619698D01*
X7553515Y-20619698D02*
X7543991Y-20629222D01*
X7543991Y-20629222D02*
X7534467Y-20648270D01*
X7829705Y-20533984D02*
X7734467Y-20533984D01*
X7734467Y-20533984D02*
X7724943Y-20629222D01*
X7724943Y-20629222D02*
X7734467Y-20619698D01*
X7734467Y-20619698D02*
X7753515Y-20610174D01*
X7753515Y-20610174D02*
X7801134Y-20610174D01*
X7801134Y-20610174D02*
X7820182Y-20619698D01*
X7820182Y-20619698D02*
X7829705Y-20629222D01*
X7829705Y-20629222D02*
X7839229Y-20648270D01*
X7839229Y-20648270D02*
X7839229Y-20695889D01*
X7839229Y-20695889D02*
X7829705Y-20714936D01*
X7829705Y-20714936D02*
X7820182Y-20724460D01*
X7820182Y-20724460D02*
X7801134Y-20733984D01*
X7801134Y-20733984D02*
X7753515Y-20733984D01*
X7753515Y-20733984D02*
X7734467Y-20724460D01*
X7734467Y-20724460D02*
X7724943Y-20714936D01*
X7963039Y-20533984D02*
X7982086Y-20533984D01*
X7982086Y-20533984D02*
X8001134Y-20543508D01*
X8001134Y-20543508D02*
X8010658Y-20553031D01*
X8010658Y-20553031D02*
X8020182Y-20572079D01*
X8020182Y-20572079D02*
X8029705Y-20610174D01*
X8029705Y-20610174D02*
X8029705Y-20657793D01*
X8029705Y-20657793D02*
X8020182Y-20695889D01*
X8020182Y-20695889D02*
X8010658Y-20714936D01*
X8010658Y-20714936D02*
X8001134Y-20724460D01*
X8001134Y-20724460D02*
X7982086Y-20733984D01*
X7982086Y-20733984D02*
X7963039Y-20733984D01*
X7963039Y-20733984D02*
X7943991Y-20724460D01*
X7943991Y-20724460D02*
X7934467Y-20714936D01*
X7934467Y-20714936D02*
X7924943Y-20695889D01*
X7924943Y-20695889D02*
X7915420Y-20657793D01*
X7915420Y-20657793D02*
X7915420Y-20610174D01*
X7915420Y-20610174D02*
X7924943Y-20572079D01*
X7924943Y-20572079D02*
X7934467Y-20553031D01*
X7934467Y-20553031D02*
X7943991Y-20543508D01*
X7943991Y-20543508D02*
X7963039Y-20533984D01*
X8115420Y-20733984D02*
X8115420Y-20600650D01*
X8115420Y-20619698D02*
X8124943Y-20610174D01*
X8124943Y-20610174D02*
X8143991Y-20600650D01*
X8143991Y-20600650D02*
X8172563Y-20600650D01*
X8172563Y-20600650D02*
X8191610Y-20610174D01*
X8191610Y-20610174D02*
X8201134Y-20629222D01*
X8201134Y-20629222D02*
X8201134Y-20733984D01*
X8201134Y-20629222D02*
X8210658Y-20610174D01*
X8210658Y-20610174D02*
X8229705Y-20600650D01*
X8229705Y-20600650D02*
X8258277Y-20600650D01*
X8258277Y-20600650D02*
X8277324Y-20610174D01*
X8277324Y-20610174D02*
X8286848Y-20629222D01*
X8286848Y-20629222D02*
X8286848Y-20733984D01*
X8382086Y-20733984D02*
X8382086Y-20600650D01*
X8382086Y-20619698D02*
X8391610Y-20610174D01*
X8391610Y-20610174D02*
X8410658Y-20600650D01*
X8410658Y-20600650D02*
X8439229Y-20600650D01*
X8439229Y-20600650D02*
X8458277Y-20610174D01*
X8458277Y-20610174D02*
X8467801Y-20629222D01*
X8467801Y-20629222D02*
X8467801Y-20733984D01*
X8467801Y-20629222D02*
X8477325Y-20610174D01*
X8477325Y-20610174D02*
X8496372Y-20600650D01*
X8496372Y-20600650D02*
X8524944Y-20600650D01*
X8524944Y-20600650D02*
X8543991Y-20610174D01*
X8543991Y-20610174D02*
X8553515Y-20629222D01*
X8553515Y-20629222D02*
X8553515Y-20733984D01*
X8943991Y-20524460D02*
X8772563Y-20781603D01*
X9201134Y-20533984D02*
X9220182Y-20533984D01*
X9220182Y-20533984D02*
X9239229Y-20543508D01*
X9239229Y-20543508D02*
X9248753Y-20553031D01*
X9248753Y-20553031D02*
X9258277Y-20572079D01*
X9258277Y-20572079D02*
X9267801Y-20610174D01*
X9267801Y-20610174D02*
X9267801Y-20657793D01*
X9267801Y-20657793D02*
X9258277Y-20695889D01*
X9258277Y-20695889D02*
X9248753Y-20714936D01*
X9248753Y-20714936D02*
X9239229Y-20724460D01*
X9239229Y-20724460D02*
X9220182Y-20733984D01*
X9220182Y-20733984D02*
X9201134Y-20733984D01*
X9201134Y-20733984D02*
X9182087Y-20724460D01*
X9182087Y-20724460D02*
X9172563Y-20714936D01*
X9172563Y-20714936D02*
X9163039Y-20695889D01*
X9163039Y-20695889D02*
X9153515Y-20657793D01*
X9153515Y-20657793D02*
X9153515Y-20610174D01*
X9153515Y-20610174D02*
X9163039Y-20572079D01*
X9163039Y-20572079D02*
X9172563Y-20553031D01*
X9172563Y-20553031D02*
X9182087Y-20543508D01*
X9182087Y-20543508D02*
X9201134Y-20533984D01*
X9353515Y-20714936D02*
X9363039Y-20724460D01*
X9363039Y-20724460D02*
X9353515Y-20733984D01*
X9353515Y-20733984D02*
X9343991Y-20724460D01*
X9343991Y-20724460D02*
X9353515Y-20714936D01*
X9353515Y-20714936D02*
X9353515Y-20733984D01*
X9486848Y-20533984D02*
X9505896Y-20533984D01*
X9505896Y-20533984D02*
X9524944Y-20543508D01*
X9524944Y-20543508D02*
X9534468Y-20553031D01*
X9534468Y-20553031D02*
X9543991Y-20572079D01*
X9543991Y-20572079D02*
X9553515Y-20610174D01*
X9553515Y-20610174D02*
X9553515Y-20657793D01*
X9553515Y-20657793D02*
X9543991Y-20695889D01*
X9543991Y-20695889D02*
X9534468Y-20714936D01*
X9534468Y-20714936D02*
X9524944Y-20724460D01*
X9524944Y-20724460D02*
X9505896Y-20733984D01*
X9505896Y-20733984D02*
X9486848Y-20733984D01*
X9486848Y-20733984D02*
X9467801Y-20724460D01*
X9467801Y-20724460D02*
X9458277Y-20714936D01*
X9458277Y-20714936D02*
X9448753Y-20695889D01*
X9448753Y-20695889D02*
X9439229Y-20657793D01*
X9439229Y-20657793D02*
X9439229Y-20610174D01*
X9439229Y-20610174D02*
X9448753Y-20572079D01*
X9448753Y-20572079D02*
X9458277Y-20553031D01*
X9458277Y-20553031D02*
X9467801Y-20543508D01*
X9467801Y-20543508D02*
X9486848Y-20533984D01*
X9629706Y-20553031D02*
X9639229Y-20543508D01*
X9639229Y-20543508D02*
X9658277Y-20533984D01*
X9658277Y-20533984D02*
X9705896Y-20533984D01*
X9705896Y-20533984D02*
X9724944Y-20543508D01*
X9724944Y-20543508D02*
X9734468Y-20553031D01*
X9734468Y-20553031D02*
X9743991Y-20572079D01*
X9743991Y-20572079D02*
X9743991Y-20591127D01*
X9743991Y-20591127D02*
X9734468Y-20619698D01*
X9734468Y-20619698D02*
X9620182Y-20733984D01*
X9620182Y-20733984D02*
X9743991Y-20733984D01*
X9924944Y-20533984D02*
X9829706Y-20533984D01*
X9829706Y-20533984D02*
X9820182Y-20629222D01*
X9820182Y-20629222D02*
X9829706Y-20619698D01*
X9829706Y-20619698D02*
X9848753Y-20610174D01*
X9848753Y-20610174D02*
X9896372Y-20610174D01*
X9896372Y-20610174D02*
X9915420Y-20619698D01*
X9915420Y-20619698D02*
X9924944Y-20629222D01*
X9924944Y-20629222D02*
X9934468Y-20648270D01*
X9934468Y-20648270D02*
X9934468Y-20695889D01*
X9934468Y-20695889D02*
X9924944Y-20714936D01*
X9924944Y-20714936D02*
X9915420Y-20724460D01*
X9915420Y-20724460D02*
X9896372Y-20733984D01*
X9896372Y-20733984D02*
X9848753Y-20733984D01*
X9848753Y-20733984D02*
X9829706Y-20724460D01*
X9829706Y-20724460D02*
X9820182Y-20714936D01*
X10105896Y-20533984D02*
X10067801Y-20533984D01*
X10067801Y-20533984D02*
X10048753Y-20543508D01*
X10048753Y-20543508D02*
X10039229Y-20553031D01*
X10039229Y-20553031D02*
X10020182Y-20581603D01*
X10020182Y-20581603D02*
X10010658Y-20619698D01*
X10010658Y-20619698D02*
X10010658Y-20695889D01*
X10010658Y-20695889D02*
X10020182Y-20714936D01*
X10020182Y-20714936D02*
X10029706Y-20724460D01*
X10029706Y-20724460D02*
X10048753Y-20733984D01*
X10048753Y-20733984D02*
X10086849Y-20733984D01*
X10086849Y-20733984D02*
X10105896Y-20724460D01*
X10105896Y-20724460D02*
X10115420Y-20714936D01*
X10115420Y-20714936D02*
X10124944Y-20695889D01*
X10124944Y-20695889D02*
X10124944Y-20648270D01*
X10124944Y-20648270D02*
X10115420Y-20629222D01*
X10115420Y-20629222D02*
X10105896Y-20619698D01*
X10105896Y-20619698D02*
X10086849Y-20610174D01*
X10086849Y-20610174D02*
X10048753Y-20610174D01*
X10048753Y-20610174D02*
X10029706Y-20619698D01*
X10029706Y-20619698D02*
X10020182Y-20629222D01*
X10020182Y-20629222D02*
X10010658Y-20648270D01*
X10201134Y-20533984D02*
X10201134Y-20572079D01*
X10277325Y-20533984D02*
X10277325Y-20572079D01*
X10572563Y-20810174D02*
X10563039Y-20800650D01*
X10563039Y-20800650D02*
X10543991Y-20772079D01*
X10543991Y-20772079D02*
X10534468Y-20753031D01*
X10534468Y-20753031D02*
X10524944Y-20724460D01*
X10524944Y-20724460D02*
X10515420Y-20676841D01*
X10515420Y-20676841D02*
X10515420Y-20638746D01*
X10515420Y-20638746D02*
X10524944Y-20591127D01*
X10524944Y-20591127D02*
X10534468Y-20562555D01*
X10534468Y-20562555D02*
X10543991Y-20543508D01*
X10543991Y-20543508D02*
X10563039Y-20514936D01*
X10563039Y-20514936D02*
X10572563Y-20505412D01*
X10639230Y-20553031D02*
X10648753Y-20543508D01*
X10648753Y-20543508D02*
X10667801Y-20533984D01*
X10667801Y-20533984D02*
X10715420Y-20533984D01*
X10715420Y-20533984D02*
X10734468Y-20543508D01*
X10734468Y-20543508D02*
X10743991Y-20553031D01*
X10743991Y-20553031D02*
X10753515Y-20572079D01*
X10753515Y-20572079D02*
X10753515Y-20591127D01*
X10753515Y-20591127D02*
X10743991Y-20619698D01*
X10743991Y-20619698D02*
X10629706Y-20733984D01*
X10629706Y-20733984D02*
X10753515Y-20733984D01*
X10991611Y-20733984D02*
X10991611Y-20533984D01*
X11077325Y-20733984D02*
X11077325Y-20629222D01*
X11077325Y-20629222D02*
X11067801Y-20610174D01*
X11067801Y-20610174D02*
X11048753Y-20600650D01*
X11048753Y-20600650D02*
X11020182Y-20600650D01*
X11020182Y-20600650D02*
X11001134Y-20610174D01*
X11001134Y-20610174D02*
X10991611Y-20619698D01*
X11201134Y-20733984D02*
X11182087Y-20724460D01*
X11182087Y-20724460D02*
X11172563Y-20714936D01*
X11172563Y-20714936D02*
X11163039Y-20695889D01*
X11163039Y-20695889D02*
X11163039Y-20638746D01*
X11163039Y-20638746D02*
X11172563Y-20619698D01*
X11172563Y-20619698D02*
X11182087Y-20610174D01*
X11182087Y-20610174D02*
X11201134Y-20600650D01*
X11201134Y-20600650D02*
X11229706Y-20600650D01*
X11229706Y-20600650D02*
X11248753Y-20610174D01*
X11248753Y-20610174D02*
X11258277Y-20619698D01*
X11258277Y-20619698D02*
X11267801Y-20638746D01*
X11267801Y-20638746D02*
X11267801Y-20695889D01*
X11267801Y-20695889D02*
X11258277Y-20714936D01*
X11258277Y-20714936D02*
X11248753Y-20724460D01*
X11248753Y-20724460D02*
X11229706Y-20733984D01*
X11229706Y-20733984D02*
X11201134Y-20733984D01*
X11382087Y-20733984D02*
X11363039Y-20724460D01*
X11363039Y-20724460D02*
X11353515Y-20705412D01*
X11353515Y-20705412D02*
X11353515Y-20533984D01*
X11534468Y-20724460D02*
X11515420Y-20733984D01*
X11515420Y-20733984D02*
X11477325Y-20733984D01*
X11477325Y-20733984D02*
X11458277Y-20724460D01*
X11458277Y-20724460D02*
X11448753Y-20705412D01*
X11448753Y-20705412D02*
X11448753Y-20629222D01*
X11448753Y-20629222D02*
X11458277Y-20610174D01*
X11458277Y-20610174D02*
X11477325Y-20600650D01*
X11477325Y-20600650D02*
X11515420Y-20600650D01*
X11515420Y-20600650D02*
X11534468Y-20610174D01*
X11534468Y-20610174D02*
X11543991Y-20629222D01*
X11543991Y-20629222D02*
X11543991Y-20648270D01*
X11543991Y-20648270D02*
X11448753Y-20667317D01*
X11620182Y-20724460D02*
X11639230Y-20733984D01*
X11639230Y-20733984D02*
X11677325Y-20733984D01*
X11677325Y-20733984D02*
X11696372Y-20724460D01*
X11696372Y-20724460D02*
X11705896Y-20705412D01*
X11705896Y-20705412D02*
X11705896Y-20695889D01*
X11705896Y-20695889D02*
X11696372Y-20676841D01*
X11696372Y-20676841D02*
X11677325Y-20667317D01*
X11677325Y-20667317D02*
X11648753Y-20667317D01*
X11648753Y-20667317D02*
X11629706Y-20657793D01*
X11629706Y-20657793D02*
X11620182Y-20638746D01*
X11620182Y-20638746D02*
X11620182Y-20629222D01*
X11620182Y-20629222D02*
X11629706Y-20610174D01*
X11629706Y-20610174D02*
X11648753Y-20600650D01*
X11648753Y-20600650D02*
X11677325Y-20600650D01*
X11677325Y-20600650D02*
X11696372Y-20610174D01*
X11772563Y-20810174D02*
X11782087Y-20800650D01*
X11782087Y-20800650D02*
X11801134Y-20772079D01*
X11801134Y-20772079D02*
X11810658Y-20753031D01*
X11810658Y-20753031D02*
X11820182Y-20724460D01*
X11820182Y-20724460D02*
X11829706Y-20676841D01*
X11829706Y-20676841D02*
X11829706Y-20638746D01*
X11829706Y-20638746D02*
X11820182Y-20591127D01*
X11820182Y-20591127D02*
X11810658Y-20562555D01*
X11810658Y-20562555D02*
X11801134Y-20543508D01*
X11801134Y-20543508D02*
X11782087Y-20514936D01*
X11782087Y-20514936D02*
X11772563Y-20505412D01*
X12134468Y-20810174D02*
X12124944Y-20800650D01*
X12124944Y-20800650D02*
X12105896Y-20772079D01*
X12105896Y-20772079D02*
X12096372Y-20753031D01*
X12096372Y-20753031D02*
X12086849Y-20724460D01*
X12086849Y-20724460D02*
X12077325Y-20676841D01*
X12077325Y-20676841D02*
X12077325Y-20638746D01*
X12077325Y-20638746D02*
X12086849Y-20591127D01*
X12086849Y-20591127D02*
X12096372Y-20562555D01*
X12096372Y-20562555D02*
X12105896Y-20543508D01*
X12105896Y-20543508D02*
X12124944Y-20514936D01*
X12124944Y-20514936D02*
X12134468Y-20505412D01*
X12210658Y-20600650D02*
X12210658Y-20733984D01*
X12210658Y-20619698D02*
X12220182Y-20610174D01*
X12220182Y-20610174D02*
X12239230Y-20600650D01*
X12239230Y-20600650D02*
X12267801Y-20600650D01*
X12267801Y-20600650D02*
X12286849Y-20610174D01*
X12286849Y-20610174D02*
X12296372Y-20629222D01*
X12296372Y-20629222D02*
X12296372Y-20733984D01*
X12420182Y-20733984D02*
X12401134Y-20724460D01*
X12401134Y-20724460D02*
X12391611Y-20714936D01*
X12391611Y-20714936D02*
X12382087Y-20695889D01*
X12382087Y-20695889D02*
X12382087Y-20638746D01*
X12382087Y-20638746D02*
X12391611Y-20619698D01*
X12391611Y-20619698D02*
X12401134Y-20610174D01*
X12401134Y-20610174D02*
X12420182Y-20600650D01*
X12420182Y-20600650D02*
X12448753Y-20600650D01*
X12448753Y-20600650D02*
X12467801Y-20610174D01*
X12467801Y-20610174D02*
X12477325Y-20619698D01*
X12477325Y-20619698D02*
X12486849Y-20638746D01*
X12486849Y-20638746D02*
X12486849Y-20695889D01*
X12486849Y-20695889D02*
X12477325Y-20714936D01*
X12477325Y-20714936D02*
X12467801Y-20724460D01*
X12467801Y-20724460D02*
X12448753Y-20733984D01*
X12448753Y-20733984D02*
X12420182Y-20733984D01*
X12543992Y-20600650D02*
X12620182Y-20600650D01*
X12572563Y-20533984D02*
X12572563Y-20705412D01*
X12572563Y-20705412D02*
X12582087Y-20724460D01*
X12582087Y-20724460D02*
X12601134Y-20733984D01*
X12601134Y-20733984D02*
X12620182Y-20733984D01*
X12839230Y-20600650D02*
X12839230Y-20800650D01*
X12839230Y-20610174D02*
X12858277Y-20600650D01*
X12858277Y-20600650D02*
X12896373Y-20600650D01*
X12896373Y-20600650D02*
X12915420Y-20610174D01*
X12915420Y-20610174D02*
X12924944Y-20619698D01*
X12924944Y-20619698D02*
X12934468Y-20638746D01*
X12934468Y-20638746D02*
X12934468Y-20695889D01*
X12934468Y-20695889D02*
X12924944Y-20714936D01*
X12924944Y-20714936D02*
X12915420Y-20724460D01*
X12915420Y-20724460D02*
X12896373Y-20733984D01*
X12896373Y-20733984D02*
X12858277Y-20733984D01*
X12858277Y-20733984D02*
X12839230Y-20724460D01*
X13048753Y-20733984D02*
X13029706Y-20724460D01*
X13029706Y-20724460D02*
X13020182Y-20705412D01*
X13020182Y-20705412D02*
X13020182Y-20533984D01*
X13210658Y-20733984D02*
X13210658Y-20629222D01*
X13210658Y-20629222D02*
X13201134Y-20610174D01*
X13201134Y-20610174D02*
X13182087Y-20600650D01*
X13182087Y-20600650D02*
X13143992Y-20600650D01*
X13143992Y-20600650D02*
X13124944Y-20610174D01*
X13210658Y-20724460D02*
X13191611Y-20733984D01*
X13191611Y-20733984D02*
X13143992Y-20733984D01*
X13143992Y-20733984D02*
X13124944Y-20724460D01*
X13124944Y-20724460D02*
X13115420Y-20705412D01*
X13115420Y-20705412D02*
X13115420Y-20686365D01*
X13115420Y-20686365D02*
X13124944Y-20667317D01*
X13124944Y-20667317D02*
X13143992Y-20657793D01*
X13143992Y-20657793D02*
X13191611Y-20657793D01*
X13191611Y-20657793D02*
X13210658Y-20648270D01*
X13277325Y-20600650D02*
X13353515Y-20600650D01*
X13305896Y-20533984D02*
X13305896Y-20705412D01*
X13305896Y-20705412D02*
X13315420Y-20724460D01*
X13315420Y-20724460D02*
X13334468Y-20733984D01*
X13334468Y-20733984D02*
X13353515Y-20733984D01*
X13496373Y-20724460D02*
X13477325Y-20733984D01*
X13477325Y-20733984D02*
X13439230Y-20733984D01*
X13439230Y-20733984D02*
X13420182Y-20724460D01*
X13420182Y-20724460D02*
X13410658Y-20705412D01*
X13410658Y-20705412D02*
X13410658Y-20629222D01*
X13410658Y-20629222D02*
X13420182Y-20610174D01*
X13420182Y-20610174D02*
X13439230Y-20600650D01*
X13439230Y-20600650D02*
X13477325Y-20600650D01*
X13477325Y-20600650D02*
X13496373Y-20610174D01*
X13496373Y-20610174D02*
X13505896Y-20629222D01*
X13505896Y-20629222D02*
X13505896Y-20648270D01*
X13505896Y-20648270D02*
X13410658Y-20667317D01*
X13677325Y-20733984D02*
X13677325Y-20533984D01*
X13677325Y-20724460D02*
X13658277Y-20733984D01*
X13658277Y-20733984D02*
X13620182Y-20733984D01*
X13620182Y-20733984D02*
X13601134Y-20724460D01*
X13601134Y-20724460D02*
X13591611Y-20714936D01*
X13591611Y-20714936D02*
X13582087Y-20695889D01*
X13582087Y-20695889D02*
X13582087Y-20638746D01*
X13582087Y-20638746D02*
X13591611Y-20619698D01*
X13591611Y-20619698D02*
X13601134Y-20610174D01*
X13601134Y-20610174D02*
X13620182Y-20600650D01*
X13620182Y-20600650D02*
X13658277Y-20600650D01*
X13658277Y-20600650D02*
X13677325Y-20610174D01*
X13753515Y-20810174D02*
X13763039Y-20800650D01*
X13763039Y-20800650D02*
X13782087Y-20772079D01*
X13782087Y-20772079D02*
X13791611Y-20753031D01*
X13791611Y-20753031D02*
X13801134Y-20724460D01*
X13801134Y-20724460D02*
X13810658Y-20676841D01*
X13810658Y-20676841D02*
X13810658Y-20638746D01*
X13810658Y-20638746D02*
X13801134Y-20591127D01*
X13801134Y-20591127D02*
X13791611Y-20562555D01*
X13791611Y-20562555D02*
X13782087Y-20543508D01*
X13782087Y-20543508D02*
X13763039Y-20514936D01*
X13763039Y-20514936D02*
X13753515Y-20505412D01*
D13*
X6997500Y-20906500D02*
G75*
G02*
X6827320Y-20906500I-85090J0D01*
G01*
X6827320Y-20906500D02*
G75*
G02*
X6997500Y-20906500I85090J0D01*
G01*
D11*
X7363039Y-20997984D02*
X7248753Y-20997984D01*
X7305896Y-20997984D02*
X7305896Y-20797984D01*
X7305896Y-20797984D02*
X7286848Y-20826555D01*
X7286848Y-20826555D02*
X7267801Y-20845603D01*
X7267801Y-20845603D02*
X7248753Y-20855127D01*
X7448753Y-20978936D02*
X7458277Y-20988460D01*
X7458277Y-20988460D02*
X7448753Y-20997984D01*
X7448753Y-20997984D02*
X7439229Y-20988460D01*
X7439229Y-20988460D02*
X7448753Y-20978936D01*
X7448753Y-20978936D02*
X7448753Y-20997984D01*
X7524943Y-20797984D02*
X7658277Y-20797984D01*
X7658277Y-20797984D02*
X7572562Y-20997984D01*
X7772562Y-20797984D02*
X7791610Y-20797984D01*
X7791610Y-20797984D02*
X7810658Y-20807508D01*
X7810658Y-20807508D02*
X7820182Y-20817031D01*
X7820182Y-20817031D02*
X7829705Y-20836079D01*
X7829705Y-20836079D02*
X7839229Y-20874174D01*
X7839229Y-20874174D02*
X7839229Y-20921793D01*
X7839229Y-20921793D02*
X7829705Y-20959889D01*
X7829705Y-20959889D02*
X7820182Y-20978936D01*
X7820182Y-20978936D02*
X7810658Y-20988460D01*
X7810658Y-20988460D02*
X7791610Y-20997984D01*
X7791610Y-20997984D02*
X7772562Y-20997984D01*
X7772562Y-20997984D02*
X7753515Y-20988460D01*
X7753515Y-20988460D02*
X7743991Y-20978936D01*
X7743991Y-20978936D02*
X7734467Y-20959889D01*
X7734467Y-20959889D02*
X7724943Y-20921793D01*
X7724943Y-20921793D02*
X7724943Y-20874174D01*
X7724943Y-20874174D02*
X7734467Y-20836079D01*
X7734467Y-20836079D02*
X7743991Y-20817031D01*
X7743991Y-20817031D02*
X7753515Y-20807508D01*
X7753515Y-20807508D02*
X7772562Y-20797984D01*
X7915420Y-20817031D02*
X7924943Y-20807508D01*
X7924943Y-20807508D02*
X7943991Y-20797984D01*
X7943991Y-20797984D02*
X7991610Y-20797984D01*
X7991610Y-20797984D02*
X8010658Y-20807508D01*
X8010658Y-20807508D02*
X8020182Y-20817031D01*
X8020182Y-20817031D02*
X8029705Y-20836079D01*
X8029705Y-20836079D02*
X8029705Y-20855127D01*
X8029705Y-20855127D02*
X8020182Y-20883698D01*
X8020182Y-20883698D02*
X7905896Y-20997984D01*
X7905896Y-20997984D02*
X8029705Y-20997984D01*
X8115420Y-20997984D02*
X8115420Y-20864650D01*
X8115420Y-20883698D02*
X8124943Y-20874174D01*
X8124943Y-20874174D02*
X8143991Y-20864650D01*
X8143991Y-20864650D02*
X8172563Y-20864650D01*
X8172563Y-20864650D02*
X8191610Y-20874174D01*
X8191610Y-20874174D02*
X8201134Y-20893222D01*
X8201134Y-20893222D02*
X8201134Y-20997984D01*
X8201134Y-20893222D02*
X8210658Y-20874174D01*
X8210658Y-20874174D02*
X8229705Y-20864650D01*
X8229705Y-20864650D02*
X8258277Y-20864650D01*
X8258277Y-20864650D02*
X8277324Y-20874174D01*
X8277324Y-20874174D02*
X8286848Y-20893222D01*
X8286848Y-20893222D02*
X8286848Y-20997984D01*
X8382086Y-20997984D02*
X8382086Y-20864650D01*
X8382086Y-20883698D02*
X8391610Y-20874174D01*
X8391610Y-20874174D02*
X8410658Y-20864650D01*
X8410658Y-20864650D02*
X8439229Y-20864650D01*
X8439229Y-20864650D02*
X8458277Y-20874174D01*
X8458277Y-20874174D02*
X8467801Y-20893222D01*
X8467801Y-20893222D02*
X8467801Y-20997984D01*
X8467801Y-20893222D02*
X8477325Y-20874174D01*
X8477325Y-20874174D02*
X8496372Y-20864650D01*
X8496372Y-20864650D02*
X8524944Y-20864650D01*
X8524944Y-20864650D02*
X8543991Y-20874174D01*
X8543991Y-20874174D02*
X8553515Y-20893222D01*
X8553515Y-20893222D02*
X8553515Y-20997984D01*
X8943991Y-20788460D02*
X8772563Y-21045603D01*
X9201134Y-20797984D02*
X9220182Y-20797984D01*
X9220182Y-20797984D02*
X9239229Y-20807508D01*
X9239229Y-20807508D02*
X9248753Y-20817031D01*
X9248753Y-20817031D02*
X9258277Y-20836079D01*
X9258277Y-20836079D02*
X9267801Y-20874174D01*
X9267801Y-20874174D02*
X9267801Y-20921793D01*
X9267801Y-20921793D02*
X9258277Y-20959889D01*
X9258277Y-20959889D02*
X9248753Y-20978936D01*
X9248753Y-20978936D02*
X9239229Y-20988460D01*
X9239229Y-20988460D02*
X9220182Y-20997984D01*
X9220182Y-20997984D02*
X9201134Y-20997984D01*
X9201134Y-20997984D02*
X9182087Y-20988460D01*
X9182087Y-20988460D02*
X9172563Y-20978936D01*
X9172563Y-20978936D02*
X9163039Y-20959889D01*
X9163039Y-20959889D02*
X9153515Y-20921793D01*
X9153515Y-20921793D02*
X9153515Y-20874174D01*
X9153515Y-20874174D02*
X9163039Y-20836079D01*
X9163039Y-20836079D02*
X9172563Y-20817031D01*
X9172563Y-20817031D02*
X9182087Y-20807508D01*
X9182087Y-20807508D02*
X9201134Y-20797984D01*
X9353515Y-20978936D02*
X9363039Y-20988460D01*
X9363039Y-20988460D02*
X9353515Y-20997984D01*
X9353515Y-20997984D02*
X9343991Y-20988460D01*
X9343991Y-20988460D02*
X9353515Y-20978936D01*
X9353515Y-20978936D02*
X9353515Y-20997984D01*
X9486848Y-20797984D02*
X9505896Y-20797984D01*
X9505896Y-20797984D02*
X9524944Y-20807508D01*
X9524944Y-20807508D02*
X9534468Y-20817031D01*
X9534468Y-20817031D02*
X9543991Y-20836079D01*
X9543991Y-20836079D02*
X9553515Y-20874174D01*
X9553515Y-20874174D02*
X9553515Y-20921793D01*
X9553515Y-20921793D02*
X9543991Y-20959889D01*
X9543991Y-20959889D02*
X9534468Y-20978936D01*
X9534468Y-20978936D02*
X9524944Y-20988460D01*
X9524944Y-20988460D02*
X9505896Y-20997984D01*
X9505896Y-20997984D02*
X9486848Y-20997984D01*
X9486848Y-20997984D02*
X9467801Y-20988460D01*
X9467801Y-20988460D02*
X9458277Y-20978936D01*
X9458277Y-20978936D02*
X9448753Y-20959889D01*
X9448753Y-20959889D02*
X9439229Y-20921793D01*
X9439229Y-20921793D02*
X9439229Y-20874174D01*
X9439229Y-20874174D02*
X9448753Y-20836079D01*
X9448753Y-20836079D02*
X9458277Y-20817031D01*
X9458277Y-20817031D02*
X9467801Y-20807508D01*
X9467801Y-20807508D02*
X9486848Y-20797984D01*
X9724944Y-20797984D02*
X9686848Y-20797984D01*
X9686848Y-20797984D02*
X9667801Y-20807508D01*
X9667801Y-20807508D02*
X9658277Y-20817031D01*
X9658277Y-20817031D02*
X9639229Y-20845603D01*
X9639229Y-20845603D02*
X9629706Y-20883698D01*
X9629706Y-20883698D02*
X9629706Y-20959889D01*
X9629706Y-20959889D02*
X9639229Y-20978936D01*
X9639229Y-20978936D02*
X9648753Y-20988460D01*
X9648753Y-20988460D02*
X9667801Y-20997984D01*
X9667801Y-20997984D02*
X9705896Y-20997984D01*
X9705896Y-20997984D02*
X9724944Y-20988460D01*
X9724944Y-20988460D02*
X9734468Y-20978936D01*
X9734468Y-20978936D02*
X9743991Y-20959889D01*
X9743991Y-20959889D02*
X9743991Y-20912270D01*
X9743991Y-20912270D02*
X9734468Y-20893222D01*
X9734468Y-20893222D02*
X9724944Y-20883698D01*
X9724944Y-20883698D02*
X9705896Y-20874174D01*
X9705896Y-20874174D02*
X9667801Y-20874174D01*
X9667801Y-20874174D02*
X9648753Y-20883698D01*
X9648753Y-20883698D02*
X9639229Y-20893222D01*
X9639229Y-20893222D02*
X9629706Y-20912270D01*
X9810658Y-20797984D02*
X9943991Y-20797984D01*
X9943991Y-20797984D02*
X9858277Y-20997984D01*
X10058277Y-20797984D02*
X10077325Y-20797984D01*
X10077325Y-20797984D02*
X10096372Y-20807508D01*
X10096372Y-20807508D02*
X10105896Y-20817031D01*
X10105896Y-20817031D02*
X10115420Y-20836079D01*
X10115420Y-20836079D02*
X10124944Y-20874174D01*
X10124944Y-20874174D02*
X10124944Y-20921793D01*
X10124944Y-20921793D02*
X10115420Y-20959889D01*
X10115420Y-20959889D02*
X10105896Y-20978936D01*
X10105896Y-20978936D02*
X10096372Y-20988460D01*
X10096372Y-20988460D02*
X10077325Y-20997984D01*
X10077325Y-20997984D02*
X10058277Y-20997984D01*
X10058277Y-20997984D02*
X10039229Y-20988460D01*
X10039229Y-20988460D02*
X10029706Y-20978936D01*
X10029706Y-20978936D02*
X10020182Y-20959889D01*
X10020182Y-20959889D02*
X10010658Y-20921793D01*
X10010658Y-20921793D02*
X10010658Y-20874174D01*
X10010658Y-20874174D02*
X10020182Y-20836079D01*
X10020182Y-20836079D02*
X10029706Y-20817031D01*
X10029706Y-20817031D02*
X10039229Y-20807508D01*
X10039229Y-20807508D02*
X10058277Y-20797984D01*
X10201134Y-20797984D02*
X10201134Y-20836079D01*
X10277325Y-20797984D02*
X10277325Y-20836079D01*
X10572563Y-21074174D02*
X10563039Y-21064650D01*
X10563039Y-21064650D02*
X10543991Y-21036079D01*
X10543991Y-21036079D02*
X10534468Y-21017031D01*
X10534468Y-21017031D02*
X10524944Y-20988460D01*
X10524944Y-20988460D02*
X10515420Y-20940841D01*
X10515420Y-20940841D02*
X10515420Y-20902746D01*
X10515420Y-20902746D02*
X10524944Y-20855127D01*
X10524944Y-20855127D02*
X10534468Y-20826555D01*
X10534468Y-20826555D02*
X10543991Y-20807508D01*
X10543991Y-20807508D02*
X10563039Y-20778936D01*
X10563039Y-20778936D02*
X10572563Y-20769412D01*
X10753515Y-20997984D02*
X10639230Y-20997984D01*
X10696372Y-20997984D02*
X10696372Y-20797984D01*
X10696372Y-20797984D02*
X10677325Y-20826555D01*
X10677325Y-20826555D02*
X10658277Y-20845603D01*
X10658277Y-20845603D02*
X10639230Y-20855127D01*
X10867801Y-20883698D02*
X10848753Y-20874174D01*
X10848753Y-20874174D02*
X10839230Y-20864650D01*
X10839230Y-20864650D02*
X10829706Y-20845603D01*
X10829706Y-20845603D02*
X10829706Y-20836079D01*
X10829706Y-20836079D02*
X10839230Y-20817031D01*
X10839230Y-20817031D02*
X10848753Y-20807508D01*
X10848753Y-20807508D02*
X10867801Y-20797984D01*
X10867801Y-20797984D02*
X10905896Y-20797984D01*
X10905896Y-20797984D02*
X10924944Y-20807508D01*
X10924944Y-20807508D02*
X10934468Y-20817031D01*
X10934468Y-20817031D02*
X10943991Y-20836079D01*
X10943991Y-20836079D02*
X10943991Y-20845603D01*
X10943991Y-20845603D02*
X10934468Y-20864650D01*
X10934468Y-20864650D02*
X10924944Y-20874174D01*
X10924944Y-20874174D02*
X10905896Y-20883698D01*
X10905896Y-20883698D02*
X10867801Y-20883698D01*
X10867801Y-20883698D02*
X10848753Y-20893222D01*
X10848753Y-20893222D02*
X10839230Y-20902746D01*
X10839230Y-20902746D02*
X10829706Y-20921793D01*
X10829706Y-20921793D02*
X10829706Y-20959889D01*
X10829706Y-20959889D02*
X10839230Y-20978936D01*
X10839230Y-20978936D02*
X10848753Y-20988460D01*
X10848753Y-20988460D02*
X10867801Y-20997984D01*
X10867801Y-20997984D02*
X10905896Y-20997984D01*
X10905896Y-20997984D02*
X10924944Y-20988460D01*
X10924944Y-20988460D02*
X10934468Y-20978936D01*
X10934468Y-20978936D02*
X10943991Y-20959889D01*
X10943991Y-20959889D02*
X10943991Y-20921793D01*
X10943991Y-20921793D02*
X10934468Y-20902746D01*
X10934468Y-20902746D02*
X10924944Y-20893222D01*
X10924944Y-20893222D02*
X10905896Y-20883698D01*
X11182087Y-20997984D02*
X11182087Y-20797984D01*
X11267801Y-20997984D02*
X11267801Y-20893222D01*
X11267801Y-20893222D02*
X11258277Y-20874174D01*
X11258277Y-20874174D02*
X11239230Y-20864650D01*
X11239230Y-20864650D02*
X11210658Y-20864650D01*
X11210658Y-20864650D02*
X11191610Y-20874174D01*
X11191610Y-20874174D02*
X11182087Y-20883698D01*
X11391610Y-20997984D02*
X11372563Y-20988460D01*
X11372563Y-20988460D02*
X11363039Y-20978936D01*
X11363039Y-20978936D02*
X11353515Y-20959889D01*
X11353515Y-20959889D02*
X11353515Y-20902746D01*
X11353515Y-20902746D02*
X11363039Y-20883698D01*
X11363039Y-20883698D02*
X11372563Y-20874174D01*
X11372563Y-20874174D02*
X11391610Y-20864650D01*
X11391610Y-20864650D02*
X11420182Y-20864650D01*
X11420182Y-20864650D02*
X11439230Y-20874174D01*
X11439230Y-20874174D02*
X11448753Y-20883698D01*
X11448753Y-20883698D02*
X11458277Y-20902746D01*
X11458277Y-20902746D02*
X11458277Y-20959889D01*
X11458277Y-20959889D02*
X11448753Y-20978936D01*
X11448753Y-20978936D02*
X11439230Y-20988460D01*
X11439230Y-20988460D02*
X11420182Y-20997984D01*
X11420182Y-20997984D02*
X11391610Y-20997984D01*
X11572563Y-20997984D02*
X11553515Y-20988460D01*
X11553515Y-20988460D02*
X11543991Y-20969412D01*
X11543991Y-20969412D02*
X11543991Y-20797984D01*
X11724944Y-20988460D02*
X11705896Y-20997984D01*
X11705896Y-20997984D02*
X11667801Y-20997984D01*
X11667801Y-20997984D02*
X11648753Y-20988460D01*
X11648753Y-20988460D02*
X11639230Y-20969412D01*
X11639230Y-20969412D02*
X11639230Y-20893222D01*
X11639230Y-20893222D02*
X11648753Y-20874174D01*
X11648753Y-20874174D02*
X11667801Y-20864650D01*
X11667801Y-20864650D02*
X11705896Y-20864650D01*
X11705896Y-20864650D02*
X11724944Y-20874174D01*
X11724944Y-20874174D02*
X11734468Y-20893222D01*
X11734468Y-20893222D02*
X11734468Y-20912270D01*
X11734468Y-20912270D02*
X11639230Y-20931317D01*
X11810658Y-20988460D02*
X11829706Y-20997984D01*
X11829706Y-20997984D02*
X11867801Y-20997984D01*
X11867801Y-20997984D02*
X11886849Y-20988460D01*
X11886849Y-20988460D02*
X11896372Y-20969412D01*
X11896372Y-20969412D02*
X11896372Y-20959889D01*
X11896372Y-20959889D02*
X11886849Y-20940841D01*
X11886849Y-20940841D02*
X11867801Y-20931317D01*
X11867801Y-20931317D02*
X11839230Y-20931317D01*
X11839230Y-20931317D02*
X11820182Y-20921793D01*
X11820182Y-20921793D02*
X11810658Y-20902746D01*
X11810658Y-20902746D02*
X11810658Y-20893222D01*
X11810658Y-20893222D02*
X11820182Y-20874174D01*
X11820182Y-20874174D02*
X11839230Y-20864650D01*
X11839230Y-20864650D02*
X11867801Y-20864650D01*
X11867801Y-20864650D02*
X11886849Y-20874174D01*
X11963039Y-21074174D02*
X11972563Y-21064650D01*
X11972563Y-21064650D02*
X11991611Y-21036079D01*
X11991611Y-21036079D02*
X12001134Y-21017031D01*
X12001134Y-21017031D02*
X12010658Y-20988460D01*
X12010658Y-20988460D02*
X12020182Y-20940841D01*
X12020182Y-20940841D02*
X12020182Y-20902746D01*
X12020182Y-20902746D02*
X12010658Y-20855127D01*
X12010658Y-20855127D02*
X12001134Y-20826555D01*
X12001134Y-20826555D02*
X11991611Y-20807508D01*
X11991611Y-20807508D02*
X11972563Y-20778936D01*
X11972563Y-20778936D02*
X11963039Y-20769412D01*
X12324944Y-21074174D02*
X12315420Y-21064650D01*
X12315420Y-21064650D02*
X12296372Y-21036079D01*
X12296372Y-21036079D02*
X12286849Y-21017031D01*
X12286849Y-21017031D02*
X12277325Y-20988460D01*
X12277325Y-20988460D02*
X12267801Y-20940841D01*
X12267801Y-20940841D02*
X12267801Y-20902746D01*
X12267801Y-20902746D02*
X12277325Y-20855127D01*
X12277325Y-20855127D02*
X12286849Y-20826555D01*
X12286849Y-20826555D02*
X12296372Y-20807508D01*
X12296372Y-20807508D02*
X12315420Y-20778936D01*
X12315420Y-20778936D02*
X12324944Y-20769412D01*
X12401134Y-20864650D02*
X12401134Y-20997984D01*
X12401134Y-20883698D02*
X12410658Y-20874174D01*
X12410658Y-20874174D02*
X12429706Y-20864650D01*
X12429706Y-20864650D02*
X12458277Y-20864650D01*
X12458277Y-20864650D02*
X12477325Y-20874174D01*
X12477325Y-20874174D02*
X12486849Y-20893222D01*
X12486849Y-20893222D02*
X12486849Y-20997984D01*
X12610658Y-20997984D02*
X12591611Y-20988460D01*
X12591611Y-20988460D02*
X12582087Y-20978936D01*
X12582087Y-20978936D02*
X12572563Y-20959889D01*
X12572563Y-20959889D02*
X12572563Y-20902746D01*
X12572563Y-20902746D02*
X12582087Y-20883698D01*
X12582087Y-20883698D02*
X12591611Y-20874174D01*
X12591611Y-20874174D02*
X12610658Y-20864650D01*
X12610658Y-20864650D02*
X12639230Y-20864650D01*
X12639230Y-20864650D02*
X12658277Y-20874174D01*
X12658277Y-20874174D02*
X12667801Y-20883698D01*
X12667801Y-20883698D02*
X12677325Y-20902746D01*
X12677325Y-20902746D02*
X12677325Y-20959889D01*
X12677325Y-20959889D02*
X12667801Y-20978936D01*
X12667801Y-20978936D02*
X12658277Y-20988460D01*
X12658277Y-20988460D02*
X12639230Y-20997984D01*
X12639230Y-20997984D02*
X12610658Y-20997984D01*
X12734468Y-20864650D02*
X12810658Y-20864650D01*
X12763039Y-20797984D02*
X12763039Y-20969412D01*
X12763039Y-20969412D02*
X12772563Y-20988460D01*
X12772563Y-20988460D02*
X12791611Y-20997984D01*
X12791611Y-20997984D02*
X12810658Y-20997984D01*
X13029706Y-20864650D02*
X13029706Y-21064650D01*
X13029706Y-20874174D02*
X13048753Y-20864650D01*
X13048753Y-20864650D02*
X13086849Y-20864650D01*
X13086849Y-20864650D02*
X13105896Y-20874174D01*
X13105896Y-20874174D02*
X13115420Y-20883698D01*
X13115420Y-20883698D02*
X13124944Y-20902746D01*
X13124944Y-20902746D02*
X13124944Y-20959889D01*
X13124944Y-20959889D02*
X13115420Y-20978936D01*
X13115420Y-20978936D02*
X13105896Y-20988460D01*
X13105896Y-20988460D02*
X13086849Y-20997984D01*
X13086849Y-20997984D02*
X13048753Y-20997984D01*
X13048753Y-20997984D02*
X13029706Y-20988460D01*
X13239230Y-20997984D02*
X13220182Y-20988460D01*
X13220182Y-20988460D02*
X13210658Y-20969412D01*
X13210658Y-20969412D02*
X13210658Y-20797984D01*
X13401134Y-20997984D02*
X13401134Y-20893222D01*
X13401134Y-20893222D02*
X13391611Y-20874174D01*
X13391611Y-20874174D02*
X13372563Y-20864650D01*
X13372563Y-20864650D02*
X13334468Y-20864650D01*
X13334468Y-20864650D02*
X13315420Y-20874174D01*
X13401134Y-20988460D02*
X13382087Y-20997984D01*
X13382087Y-20997984D02*
X13334468Y-20997984D01*
X13334468Y-20997984D02*
X13315420Y-20988460D01*
X13315420Y-20988460D02*
X13305896Y-20969412D01*
X13305896Y-20969412D02*
X13305896Y-20950365D01*
X13305896Y-20950365D02*
X13315420Y-20931317D01*
X13315420Y-20931317D02*
X13334468Y-20921793D01*
X13334468Y-20921793D02*
X13382087Y-20921793D01*
X13382087Y-20921793D02*
X13401134Y-20912270D01*
X13467801Y-20864650D02*
X13543992Y-20864650D01*
X13496373Y-20797984D02*
X13496373Y-20969412D01*
X13496373Y-20969412D02*
X13505896Y-20988460D01*
X13505896Y-20988460D02*
X13524944Y-20997984D01*
X13524944Y-20997984D02*
X13543992Y-20997984D01*
X13686849Y-20988460D02*
X13667801Y-20997984D01*
X13667801Y-20997984D02*
X13629706Y-20997984D01*
X13629706Y-20997984D02*
X13610658Y-20988460D01*
X13610658Y-20988460D02*
X13601134Y-20969412D01*
X13601134Y-20969412D02*
X13601134Y-20893222D01*
X13601134Y-20893222D02*
X13610658Y-20874174D01*
X13610658Y-20874174D02*
X13629706Y-20864650D01*
X13629706Y-20864650D02*
X13667801Y-20864650D01*
X13667801Y-20864650D02*
X13686849Y-20874174D01*
X13686849Y-20874174D02*
X13696373Y-20893222D01*
X13696373Y-20893222D02*
X13696373Y-20912270D01*
X13696373Y-20912270D02*
X13601134Y-20931317D01*
X13867801Y-20997984D02*
X13867801Y-20797984D01*
X13867801Y-20988460D02*
X13848754Y-20997984D01*
X13848754Y-20997984D02*
X13810658Y-20997984D01*
X13810658Y-20997984D02*
X13791611Y-20988460D01*
X13791611Y-20988460D02*
X13782087Y-20978936D01*
X13782087Y-20978936D02*
X13772563Y-20959889D01*
X13772563Y-20959889D02*
X13772563Y-20902746D01*
X13772563Y-20902746D02*
X13782087Y-20883698D01*
X13782087Y-20883698D02*
X13791611Y-20874174D01*
X13791611Y-20874174D02*
X13810658Y-20864650D01*
X13810658Y-20864650D02*
X13848754Y-20864650D01*
X13848754Y-20864650D02*
X13867801Y-20874174D01*
X13943992Y-21074174D02*
X13953515Y-21064650D01*
X13953515Y-21064650D02*
X13972563Y-21036079D01*
X13972563Y-21036079D02*
X13982087Y-21017031D01*
X13982087Y-21017031D02*
X13991611Y-20988460D01*
X13991611Y-20988460D02*
X14001134Y-20940841D01*
X14001134Y-20940841D02*
X14001134Y-20902746D01*
X14001134Y-20902746D02*
X13991611Y-20855127D01*
X13991611Y-20855127D02*
X13982087Y-20826555D01*
X13982087Y-20826555D02*
X13972563Y-20807508D01*
X13972563Y-20807508D02*
X13953515Y-20778936D01*
X13953515Y-20778936D02*
X13943992Y-20769412D01*
X6897500Y-21096680D02*
X6897500Y-21296680D01*
X6797500Y-21196680D02*
X6997500Y-21196680D01*
X7239229Y-21088164D02*
X7363039Y-21088164D01*
X7363039Y-21088164D02*
X7296372Y-21164354D01*
X7296372Y-21164354D02*
X7324943Y-21164354D01*
X7324943Y-21164354D02*
X7343991Y-21173878D01*
X7343991Y-21173878D02*
X7353515Y-21183402D01*
X7353515Y-21183402D02*
X7363039Y-21202450D01*
X7363039Y-21202450D02*
X7363039Y-21250069D01*
X7363039Y-21250069D02*
X7353515Y-21269116D01*
X7353515Y-21269116D02*
X7343991Y-21278640D01*
X7343991Y-21278640D02*
X7324943Y-21288164D01*
X7324943Y-21288164D02*
X7267801Y-21288164D01*
X7267801Y-21288164D02*
X7248753Y-21278640D01*
X7248753Y-21278640D02*
X7239229Y-21269116D01*
X7448753Y-21269116D02*
X7458277Y-21278640D01*
X7458277Y-21278640D02*
X7448753Y-21288164D01*
X7448753Y-21288164D02*
X7439229Y-21278640D01*
X7439229Y-21278640D02*
X7448753Y-21269116D01*
X7448753Y-21269116D02*
X7448753Y-21288164D01*
X7582086Y-21088164D02*
X7601134Y-21088164D01*
X7601134Y-21088164D02*
X7620182Y-21097688D01*
X7620182Y-21097688D02*
X7629705Y-21107211D01*
X7629705Y-21107211D02*
X7639229Y-21126259D01*
X7639229Y-21126259D02*
X7648753Y-21164354D01*
X7648753Y-21164354D02*
X7648753Y-21211973D01*
X7648753Y-21211973D02*
X7639229Y-21250069D01*
X7639229Y-21250069D02*
X7629705Y-21269116D01*
X7629705Y-21269116D02*
X7620182Y-21278640D01*
X7620182Y-21278640D02*
X7601134Y-21288164D01*
X7601134Y-21288164D02*
X7582086Y-21288164D01*
X7582086Y-21288164D02*
X7563039Y-21278640D01*
X7563039Y-21278640D02*
X7553515Y-21269116D01*
X7553515Y-21269116D02*
X7543991Y-21250069D01*
X7543991Y-21250069D02*
X7534467Y-21211973D01*
X7534467Y-21211973D02*
X7534467Y-21164354D01*
X7534467Y-21164354D02*
X7543991Y-21126259D01*
X7543991Y-21126259D02*
X7553515Y-21107211D01*
X7553515Y-21107211D02*
X7563039Y-21097688D01*
X7563039Y-21097688D02*
X7582086Y-21088164D01*
X7772562Y-21088164D02*
X7791610Y-21088164D01*
X7791610Y-21088164D02*
X7810658Y-21097688D01*
X7810658Y-21097688D02*
X7820182Y-21107211D01*
X7820182Y-21107211D02*
X7829705Y-21126259D01*
X7829705Y-21126259D02*
X7839229Y-21164354D01*
X7839229Y-21164354D02*
X7839229Y-21211973D01*
X7839229Y-21211973D02*
X7829705Y-21250069D01*
X7829705Y-21250069D02*
X7820182Y-21269116D01*
X7820182Y-21269116D02*
X7810658Y-21278640D01*
X7810658Y-21278640D02*
X7791610Y-21288164D01*
X7791610Y-21288164D02*
X7772562Y-21288164D01*
X7772562Y-21288164D02*
X7753515Y-21278640D01*
X7753515Y-21278640D02*
X7743991Y-21269116D01*
X7743991Y-21269116D02*
X7734467Y-21250069D01*
X7734467Y-21250069D02*
X7724943Y-21211973D01*
X7724943Y-21211973D02*
X7724943Y-21164354D01*
X7724943Y-21164354D02*
X7734467Y-21126259D01*
X7734467Y-21126259D02*
X7743991Y-21107211D01*
X7743991Y-21107211D02*
X7753515Y-21097688D01*
X7753515Y-21097688D02*
X7772562Y-21088164D01*
X7963039Y-21088164D02*
X7982086Y-21088164D01*
X7982086Y-21088164D02*
X8001134Y-21097688D01*
X8001134Y-21097688D02*
X8010658Y-21107211D01*
X8010658Y-21107211D02*
X8020182Y-21126259D01*
X8020182Y-21126259D02*
X8029705Y-21164354D01*
X8029705Y-21164354D02*
X8029705Y-21211973D01*
X8029705Y-21211973D02*
X8020182Y-21250069D01*
X8020182Y-21250069D02*
X8010658Y-21269116D01*
X8010658Y-21269116D02*
X8001134Y-21278640D01*
X8001134Y-21278640D02*
X7982086Y-21288164D01*
X7982086Y-21288164D02*
X7963039Y-21288164D01*
X7963039Y-21288164D02*
X7943991Y-21278640D01*
X7943991Y-21278640D02*
X7934467Y-21269116D01*
X7934467Y-21269116D02*
X7924943Y-21250069D01*
X7924943Y-21250069D02*
X7915420Y-21211973D01*
X7915420Y-21211973D02*
X7915420Y-21164354D01*
X7915420Y-21164354D02*
X7924943Y-21126259D01*
X7924943Y-21126259D02*
X7934467Y-21107211D01*
X7934467Y-21107211D02*
X7943991Y-21097688D01*
X7943991Y-21097688D02*
X7963039Y-21088164D01*
X8115420Y-21288164D02*
X8115420Y-21154830D01*
X8115420Y-21173878D02*
X8124943Y-21164354D01*
X8124943Y-21164354D02*
X8143991Y-21154830D01*
X8143991Y-21154830D02*
X8172563Y-21154830D01*
X8172563Y-21154830D02*
X8191610Y-21164354D01*
X8191610Y-21164354D02*
X8201134Y-21183402D01*
X8201134Y-21183402D02*
X8201134Y-21288164D01*
X8201134Y-21183402D02*
X8210658Y-21164354D01*
X8210658Y-21164354D02*
X8229705Y-21154830D01*
X8229705Y-21154830D02*
X8258277Y-21154830D01*
X8258277Y-21154830D02*
X8277324Y-21164354D01*
X8277324Y-21164354D02*
X8286848Y-21183402D01*
X8286848Y-21183402D02*
X8286848Y-21288164D01*
X8382086Y-21288164D02*
X8382086Y-21154830D01*
X8382086Y-21173878D02*
X8391610Y-21164354D01*
X8391610Y-21164354D02*
X8410658Y-21154830D01*
X8410658Y-21154830D02*
X8439229Y-21154830D01*
X8439229Y-21154830D02*
X8458277Y-21164354D01*
X8458277Y-21164354D02*
X8467801Y-21183402D01*
X8467801Y-21183402D02*
X8467801Y-21288164D01*
X8467801Y-21183402D02*
X8477325Y-21164354D01*
X8477325Y-21164354D02*
X8496372Y-21154830D01*
X8496372Y-21154830D02*
X8524944Y-21154830D01*
X8524944Y-21154830D02*
X8543991Y-21164354D01*
X8543991Y-21164354D02*
X8553515Y-21183402D01*
X8553515Y-21183402D02*
X8553515Y-21288164D01*
X8943991Y-21078640D02*
X8772563Y-21335783D01*
X9201134Y-21088164D02*
X9220182Y-21088164D01*
X9220182Y-21088164D02*
X9239229Y-21097688D01*
X9239229Y-21097688D02*
X9248753Y-21107211D01*
X9248753Y-21107211D02*
X9258277Y-21126259D01*
X9258277Y-21126259D02*
X9267801Y-21164354D01*
X9267801Y-21164354D02*
X9267801Y-21211973D01*
X9267801Y-21211973D02*
X9258277Y-21250069D01*
X9258277Y-21250069D02*
X9248753Y-21269116D01*
X9248753Y-21269116D02*
X9239229Y-21278640D01*
X9239229Y-21278640D02*
X9220182Y-21288164D01*
X9220182Y-21288164D02*
X9201134Y-21288164D01*
X9201134Y-21288164D02*
X9182087Y-21278640D01*
X9182087Y-21278640D02*
X9172563Y-21269116D01*
X9172563Y-21269116D02*
X9163039Y-21250069D01*
X9163039Y-21250069D02*
X9153515Y-21211973D01*
X9153515Y-21211973D02*
X9153515Y-21164354D01*
X9153515Y-21164354D02*
X9163039Y-21126259D01*
X9163039Y-21126259D02*
X9172563Y-21107211D01*
X9172563Y-21107211D02*
X9182087Y-21097688D01*
X9182087Y-21097688D02*
X9201134Y-21088164D01*
X9353515Y-21269116D02*
X9363039Y-21278640D01*
X9363039Y-21278640D02*
X9353515Y-21288164D01*
X9353515Y-21288164D02*
X9343991Y-21278640D01*
X9343991Y-21278640D02*
X9353515Y-21269116D01*
X9353515Y-21269116D02*
X9353515Y-21288164D01*
X9553515Y-21288164D02*
X9439229Y-21288164D01*
X9496372Y-21288164D02*
X9496372Y-21088164D01*
X9496372Y-21088164D02*
X9477325Y-21116735D01*
X9477325Y-21116735D02*
X9458277Y-21135783D01*
X9458277Y-21135783D02*
X9439229Y-21145307D01*
X9743991Y-21288164D02*
X9629706Y-21288164D01*
X9686848Y-21288164D02*
X9686848Y-21088164D01*
X9686848Y-21088164D02*
X9667801Y-21116735D01*
X9667801Y-21116735D02*
X9648753Y-21135783D01*
X9648753Y-21135783D02*
X9629706Y-21145307D01*
X9858277Y-21173878D02*
X9839229Y-21164354D01*
X9839229Y-21164354D02*
X9829706Y-21154830D01*
X9829706Y-21154830D02*
X9820182Y-21135783D01*
X9820182Y-21135783D02*
X9820182Y-21126259D01*
X9820182Y-21126259D02*
X9829706Y-21107211D01*
X9829706Y-21107211D02*
X9839229Y-21097688D01*
X9839229Y-21097688D02*
X9858277Y-21088164D01*
X9858277Y-21088164D02*
X9896372Y-21088164D01*
X9896372Y-21088164D02*
X9915420Y-21097688D01*
X9915420Y-21097688D02*
X9924944Y-21107211D01*
X9924944Y-21107211D02*
X9934468Y-21126259D01*
X9934468Y-21126259D02*
X9934468Y-21135783D01*
X9934468Y-21135783D02*
X9924944Y-21154830D01*
X9924944Y-21154830D02*
X9915420Y-21164354D01*
X9915420Y-21164354D02*
X9896372Y-21173878D01*
X9896372Y-21173878D02*
X9858277Y-21173878D01*
X9858277Y-21173878D02*
X9839229Y-21183402D01*
X9839229Y-21183402D02*
X9829706Y-21192926D01*
X9829706Y-21192926D02*
X9820182Y-21211973D01*
X9820182Y-21211973D02*
X9820182Y-21250069D01*
X9820182Y-21250069D02*
X9829706Y-21269116D01*
X9829706Y-21269116D02*
X9839229Y-21278640D01*
X9839229Y-21278640D02*
X9858277Y-21288164D01*
X9858277Y-21288164D02*
X9896372Y-21288164D01*
X9896372Y-21288164D02*
X9915420Y-21278640D01*
X9915420Y-21278640D02*
X9924944Y-21269116D01*
X9924944Y-21269116D02*
X9934468Y-21250069D01*
X9934468Y-21250069D02*
X9934468Y-21211973D01*
X9934468Y-21211973D02*
X9924944Y-21192926D01*
X9924944Y-21192926D02*
X9915420Y-21183402D01*
X9915420Y-21183402D02*
X9896372Y-21173878D01*
X10124944Y-21288164D02*
X10010658Y-21288164D01*
X10067801Y-21288164D02*
X10067801Y-21088164D01*
X10067801Y-21088164D02*
X10048753Y-21116735D01*
X10048753Y-21116735D02*
X10029706Y-21135783D01*
X10029706Y-21135783D02*
X10010658Y-21145307D01*
X10201134Y-21088164D02*
X10201134Y-21126259D01*
X10277325Y-21088164D02*
X10277325Y-21126259D01*
X10572563Y-21364354D02*
X10563039Y-21354830D01*
X10563039Y-21354830D02*
X10543991Y-21326259D01*
X10543991Y-21326259D02*
X10534468Y-21307211D01*
X10534468Y-21307211D02*
X10524944Y-21278640D01*
X10524944Y-21278640D02*
X10515420Y-21231021D01*
X10515420Y-21231021D02*
X10515420Y-21192926D01*
X10515420Y-21192926D02*
X10524944Y-21145307D01*
X10524944Y-21145307D02*
X10534468Y-21116735D01*
X10534468Y-21116735D02*
X10543991Y-21097688D01*
X10543991Y-21097688D02*
X10563039Y-21069116D01*
X10563039Y-21069116D02*
X10572563Y-21059592D01*
X10753515Y-21288164D02*
X10639230Y-21288164D01*
X10696372Y-21288164D02*
X10696372Y-21088164D01*
X10696372Y-21088164D02*
X10677325Y-21116735D01*
X10677325Y-21116735D02*
X10658277Y-21135783D01*
X10658277Y-21135783D02*
X10639230Y-21145307D01*
X10867801Y-21173878D02*
X10848753Y-21164354D01*
X10848753Y-21164354D02*
X10839230Y-21154830D01*
X10839230Y-21154830D02*
X10829706Y-21135783D01*
X10829706Y-21135783D02*
X10829706Y-21126259D01*
X10829706Y-21126259D02*
X10839230Y-21107211D01*
X10839230Y-21107211D02*
X10848753Y-21097688D01*
X10848753Y-21097688D02*
X10867801Y-21088164D01*
X10867801Y-21088164D02*
X10905896Y-21088164D01*
X10905896Y-21088164D02*
X10924944Y-21097688D01*
X10924944Y-21097688D02*
X10934468Y-21107211D01*
X10934468Y-21107211D02*
X10943991Y-21126259D01*
X10943991Y-21126259D02*
X10943991Y-21135783D01*
X10943991Y-21135783D02*
X10934468Y-21154830D01*
X10934468Y-21154830D02*
X10924944Y-21164354D01*
X10924944Y-21164354D02*
X10905896Y-21173878D01*
X10905896Y-21173878D02*
X10867801Y-21173878D01*
X10867801Y-21173878D02*
X10848753Y-21183402D01*
X10848753Y-21183402D02*
X10839230Y-21192926D01*
X10839230Y-21192926D02*
X10829706Y-21211973D01*
X10829706Y-21211973D02*
X10829706Y-21250069D01*
X10829706Y-21250069D02*
X10839230Y-21269116D01*
X10839230Y-21269116D02*
X10848753Y-21278640D01*
X10848753Y-21278640D02*
X10867801Y-21288164D01*
X10867801Y-21288164D02*
X10905896Y-21288164D01*
X10905896Y-21288164D02*
X10924944Y-21278640D01*
X10924944Y-21278640D02*
X10934468Y-21269116D01*
X10934468Y-21269116D02*
X10943991Y-21250069D01*
X10943991Y-21250069D02*
X10943991Y-21211973D01*
X10943991Y-21211973D02*
X10934468Y-21192926D01*
X10934468Y-21192926D02*
X10924944Y-21183402D01*
X10924944Y-21183402D02*
X10905896Y-21173878D01*
X11182087Y-21288164D02*
X11182087Y-21088164D01*
X11267801Y-21288164D02*
X11267801Y-21183402D01*
X11267801Y-21183402D02*
X11258277Y-21164354D01*
X11258277Y-21164354D02*
X11239230Y-21154830D01*
X11239230Y-21154830D02*
X11210658Y-21154830D01*
X11210658Y-21154830D02*
X11191610Y-21164354D01*
X11191610Y-21164354D02*
X11182087Y-21173878D01*
X11391610Y-21288164D02*
X11372563Y-21278640D01*
X11372563Y-21278640D02*
X11363039Y-21269116D01*
X11363039Y-21269116D02*
X11353515Y-21250069D01*
X11353515Y-21250069D02*
X11353515Y-21192926D01*
X11353515Y-21192926D02*
X11363039Y-21173878D01*
X11363039Y-21173878D02*
X11372563Y-21164354D01*
X11372563Y-21164354D02*
X11391610Y-21154830D01*
X11391610Y-21154830D02*
X11420182Y-21154830D01*
X11420182Y-21154830D02*
X11439230Y-21164354D01*
X11439230Y-21164354D02*
X11448753Y-21173878D01*
X11448753Y-21173878D02*
X11458277Y-21192926D01*
X11458277Y-21192926D02*
X11458277Y-21250069D01*
X11458277Y-21250069D02*
X11448753Y-21269116D01*
X11448753Y-21269116D02*
X11439230Y-21278640D01*
X11439230Y-21278640D02*
X11420182Y-21288164D01*
X11420182Y-21288164D02*
X11391610Y-21288164D01*
X11572563Y-21288164D02*
X11553515Y-21278640D01*
X11553515Y-21278640D02*
X11543991Y-21259592D01*
X11543991Y-21259592D02*
X11543991Y-21088164D01*
X11724944Y-21278640D02*
X11705896Y-21288164D01*
X11705896Y-21288164D02*
X11667801Y-21288164D01*
X11667801Y-21288164D02*
X11648753Y-21278640D01*
X11648753Y-21278640D02*
X11639230Y-21259592D01*
X11639230Y-21259592D02*
X11639230Y-21183402D01*
X11639230Y-21183402D02*
X11648753Y-21164354D01*
X11648753Y-21164354D02*
X11667801Y-21154830D01*
X11667801Y-21154830D02*
X11705896Y-21154830D01*
X11705896Y-21154830D02*
X11724944Y-21164354D01*
X11724944Y-21164354D02*
X11734468Y-21183402D01*
X11734468Y-21183402D02*
X11734468Y-21202450D01*
X11734468Y-21202450D02*
X11639230Y-21221497D01*
X11810658Y-21278640D02*
X11829706Y-21288164D01*
X11829706Y-21288164D02*
X11867801Y-21288164D01*
X11867801Y-21288164D02*
X11886849Y-21278640D01*
X11886849Y-21278640D02*
X11896372Y-21259592D01*
X11896372Y-21259592D02*
X11896372Y-21250069D01*
X11896372Y-21250069D02*
X11886849Y-21231021D01*
X11886849Y-21231021D02*
X11867801Y-21221497D01*
X11867801Y-21221497D02*
X11839230Y-21221497D01*
X11839230Y-21221497D02*
X11820182Y-21211973D01*
X11820182Y-21211973D02*
X11810658Y-21192926D01*
X11810658Y-21192926D02*
X11810658Y-21183402D01*
X11810658Y-21183402D02*
X11820182Y-21164354D01*
X11820182Y-21164354D02*
X11839230Y-21154830D01*
X11839230Y-21154830D02*
X11867801Y-21154830D01*
X11867801Y-21154830D02*
X11886849Y-21164354D01*
X11963039Y-21364354D02*
X11972563Y-21354830D01*
X11972563Y-21354830D02*
X11991611Y-21326259D01*
X11991611Y-21326259D02*
X12001134Y-21307211D01*
X12001134Y-21307211D02*
X12010658Y-21278640D01*
X12010658Y-21278640D02*
X12020182Y-21231021D01*
X12020182Y-21231021D02*
X12020182Y-21192926D01*
X12020182Y-21192926D02*
X12010658Y-21145307D01*
X12010658Y-21145307D02*
X12001134Y-21116735D01*
X12001134Y-21116735D02*
X11991611Y-21097688D01*
X11991611Y-21097688D02*
X11972563Y-21069116D01*
X11972563Y-21069116D02*
X11963039Y-21059592D01*
X12324944Y-21364354D02*
X12315420Y-21354830D01*
X12315420Y-21354830D02*
X12296372Y-21326259D01*
X12296372Y-21326259D02*
X12286849Y-21307211D01*
X12286849Y-21307211D02*
X12277325Y-21278640D01*
X12277325Y-21278640D02*
X12267801Y-21231021D01*
X12267801Y-21231021D02*
X12267801Y-21192926D01*
X12267801Y-21192926D02*
X12277325Y-21145307D01*
X12277325Y-21145307D02*
X12286849Y-21116735D01*
X12286849Y-21116735D02*
X12296372Y-21097688D01*
X12296372Y-21097688D02*
X12315420Y-21069116D01*
X12315420Y-21069116D02*
X12324944Y-21059592D01*
X12401134Y-21154830D02*
X12401134Y-21288164D01*
X12401134Y-21173878D02*
X12410658Y-21164354D01*
X12410658Y-21164354D02*
X12429706Y-21154830D01*
X12429706Y-21154830D02*
X12458277Y-21154830D01*
X12458277Y-21154830D02*
X12477325Y-21164354D01*
X12477325Y-21164354D02*
X12486849Y-21183402D01*
X12486849Y-21183402D02*
X12486849Y-21288164D01*
X12610658Y-21288164D02*
X12591611Y-21278640D01*
X12591611Y-21278640D02*
X12582087Y-21269116D01*
X12582087Y-21269116D02*
X12572563Y-21250069D01*
X12572563Y-21250069D02*
X12572563Y-21192926D01*
X12572563Y-21192926D02*
X12582087Y-21173878D01*
X12582087Y-21173878D02*
X12591611Y-21164354D01*
X12591611Y-21164354D02*
X12610658Y-21154830D01*
X12610658Y-21154830D02*
X12639230Y-21154830D01*
X12639230Y-21154830D02*
X12658277Y-21164354D01*
X12658277Y-21164354D02*
X12667801Y-21173878D01*
X12667801Y-21173878D02*
X12677325Y-21192926D01*
X12677325Y-21192926D02*
X12677325Y-21250069D01*
X12677325Y-21250069D02*
X12667801Y-21269116D01*
X12667801Y-21269116D02*
X12658277Y-21278640D01*
X12658277Y-21278640D02*
X12639230Y-21288164D01*
X12639230Y-21288164D02*
X12610658Y-21288164D01*
X12734468Y-21154830D02*
X12810658Y-21154830D01*
X12763039Y-21088164D02*
X12763039Y-21259592D01*
X12763039Y-21259592D02*
X12772563Y-21278640D01*
X12772563Y-21278640D02*
X12791611Y-21288164D01*
X12791611Y-21288164D02*
X12810658Y-21288164D01*
X13029706Y-21154830D02*
X13029706Y-21354830D01*
X13029706Y-21164354D02*
X13048753Y-21154830D01*
X13048753Y-21154830D02*
X13086849Y-21154830D01*
X13086849Y-21154830D02*
X13105896Y-21164354D01*
X13105896Y-21164354D02*
X13115420Y-21173878D01*
X13115420Y-21173878D02*
X13124944Y-21192926D01*
X13124944Y-21192926D02*
X13124944Y-21250069D01*
X13124944Y-21250069D02*
X13115420Y-21269116D01*
X13115420Y-21269116D02*
X13105896Y-21278640D01*
X13105896Y-21278640D02*
X13086849Y-21288164D01*
X13086849Y-21288164D02*
X13048753Y-21288164D01*
X13048753Y-21288164D02*
X13029706Y-21278640D01*
X13239230Y-21288164D02*
X13220182Y-21278640D01*
X13220182Y-21278640D02*
X13210658Y-21259592D01*
X13210658Y-21259592D02*
X13210658Y-21088164D01*
X13401134Y-21288164D02*
X13401134Y-21183402D01*
X13401134Y-21183402D02*
X13391611Y-21164354D01*
X13391611Y-21164354D02*
X13372563Y-21154830D01*
X13372563Y-21154830D02*
X13334468Y-21154830D01*
X13334468Y-21154830D02*
X13315420Y-21164354D01*
X13401134Y-21278640D02*
X13382087Y-21288164D01*
X13382087Y-21288164D02*
X13334468Y-21288164D01*
X13334468Y-21288164D02*
X13315420Y-21278640D01*
X13315420Y-21278640D02*
X13305896Y-21259592D01*
X13305896Y-21259592D02*
X13305896Y-21240545D01*
X13305896Y-21240545D02*
X13315420Y-21221497D01*
X13315420Y-21221497D02*
X13334468Y-21211973D01*
X13334468Y-21211973D02*
X13382087Y-21211973D01*
X13382087Y-21211973D02*
X13401134Y-21202450D01*
X13467801Y-21154830D02*
X13543992Y-21154830D01*
X13496373Y-21088164D02*
X13496373Y-21259592D01*
X13496373Y-21259592D02*
X13505896Y-21278640D01*
X13505896Y-21278640D02*
X13524944Y-21288164D01*
X13524944Y-21288164D02*
X13543992Y-21288164D01*
X13686849Y-21278640D02*
X13667801Y-21288164D01*
X13667801Y-21288164D02*
X13629706Y-21288164D01*
X13629706Y-21288164D02*
X13610658Y-21278640D01*
X13610658Y-21278640D02*
X13601134Y-21259592D01*
X13601134Y-21259592D02*
X13601134Y-21183402D01*
X13601134Y-21183402D02*
X13610658Y-21164354D01*
X13610658Y-21164354D02*
X13629706Y-21154830D01*
X13629706Y-21154830D02*
X13667801Y-21154830D01*
X13667801Y-21154830D02*
X13686849Y-21164354D01*
X13686849Y-21164354D02*
X13696373Y-21183402D01*
X13696373Y-21183402D02*
X13696373Y-21202450D01*
X13696373Y-21202450D02*
X13601134Y-21221497D01*
X13867801Y-21288164D02*
X13867801Y-21088164D01*
X13867801Y-21278640D02*
X13848754Y-21288164D01*
X13848754Y-21288164D02*
X13810658Y-21288164D01*
X13810658Y-21288164D02*
X13791611Y-21278640D01*
X13791611Y-21278640D02*
X13782087Y-21269116D01*
X13782087Y-21269116D02*
X13772563Y-21250069D01*
X13772563Y-21250069D02*
X13772563Y-21192926D01*
X13772563Y-21192926D02*
X13782087Y-21173878D01*
X13782087Y-21173878D02*
X13791611Y-21164354D01*
X13791611Y-21164354D02*
X13810658Y-21154830D01*
X13810658Y-21154830D02*
X13848754Y-21154830D01*
X13848754Y-21154830D02*
X13867801Y-21164354D01*
X13943992Y-21364354D02*
X13953515Y-21354830D01*
X13953515Y-21354830D02*
X13972563Y-21326259D01*
X13972563Y-21326259D02*
X13982087Y-21307211D01*
X13982087Y-21307211D02*
X13991611Y-21278640D01*
X13991611Y-21278640D02*
X14001134Y-21231021D01*
X14001134Y-21231021D02*
X14001134Y-21192926D01*
X14001134Y-21192926D02*
X13991611Y-21145307D01*
X13991611Y-21145307D02*
X13982087Y-21116735D01*
X13982087Y-21116735D02*
X13972563Y-21097688D01*
X13972563Y-21097688D02*
X13953515Y-21069116D01*
X13953515Y-21069116D02*
X13943992Y-21059592D01*
X6968211Y-21587391D02*
X6968211Y-21445969D01*
X6826789Y-21445969D01*
X6826789Y-21587391D01*
X6968211Y-21587391D01*
X7239229Y-21408164D02*
X7363039Y-21408164D01*
X7363039Y-21408164D02*
X7296372Y-21484354D01*
X7296372Y-21484354D02*
X7324943Y-21484354D01*
X7324943Y-21484354D02*
X7343991Y-21493878D01*
X7343991Y-21493878D02*
X7353515Y-21503402D01*
X7353515Y-21503402D02*
X7363039Y-21522450D01*
X7363039Y-21522450D02*
X7363039Y-21570069D01*
X7363039Y-21570069D02*
X7353515Y-21589116D01*
X7353515Y-21589116D02*
X7343991Y-21598640D01*
X7343991Y-21598640D02*
X7324943Y-21608164D01*
X7324943Y-21608164D02*
X7267801Y-21608164D01*
X7267801Y-21608164D02*
X7248753Y-21598640D01*
X7248753Y-21598640D02*
X7239229Y-21589116D01*
X7448753Y-21589116D02*
X7458277Y-21598640D01*
X7458277Y-21598640D02*
X7448753Y-21608164D01*
X7448753Y-21608164D02*
X7439229Y-21598640D01*
X7439229Y-21598640D02*
X7448753Y-21589116D01*
X7448753Y-21589116D02*
X7448753Y-21608164D01*
X7534467Y-21427211D02*
X7543991Y-21417688D01*
X7543991Y-21417688D02*
X7563039Y-21408164D01*
X7563039Y-21408164D02*
X7610658Y-21408164D01*
X7610658Y-21408164D02*
X7629705Y-21417688D01*
X7629705Y-21417688D02*
X7639229Y-21427211D01*
X7639229Y-21427211D02*
X7648753Y-21446259D01*
X7648753Y-21446259D02*
X7648753Y-21465307D01*
X7648753Y-21465307D02*
X7639229Y-21493878D01*
X7639229Y-21493878D02*
X7524943Y-21608164D01*
X7524943Y-21608164D02*
X7648753Y-21608164D01*
X7772562Y-21408164D02*
X7791610Y-21408164D01*
X7791610Y-21408164D02*
X7810658Y-21417688D01*
X7810658Y-21417688D02*
X7820182Y-21427211D01*
X7820182Y-21427211D02*
X7829705Y-21446259D01*
X7829705Y-21446259D02*
X7839229Y-21484354D01*
X7839229Y-21484354D02*
X7839229Y-21531973D01*
X7839229Y-21531973D02*
X7829705Y-21570069D01*
X7829705Y-21570069D02*
X7820182Y-21589116D01*
X7820182Y-21589116D02*
X7810658Y-21598640D01*
X7810658Y-21598640D02*
X7791610Y-21608164D01*
X7791610Y-21608164D02*
X7772562Y-21608164D01*
X7772562Y-21608164D02*
X7753515Y-21598640D01*
X7753515Y-21598640D02*
X7743991Y-21589116D01*
X7743991Y-21589116D02*
X7734467Y-21570069D01*
X7734467Y-21570069D02*
X7724943Y-21531973D01*
X7724943Y-21531973D02*
X7724943Y-21484354D01*
X7724943Y-21484354D02*
X7734467Y-21446259D01*
X7734467Y-21446259D02*
X7743991Y-21427211D01*
X7743991Y-21427211D02*
X7753515Y-21417688D01*
X7753515Y-21417688D02*
X7772562Y-21408164D01*
X7963039Y-21408164D02*
X7982086Y-21408164D01*
X7982086Y-21408164D02*
X8001134Y-21417688D01*
X8001134Y-21417688D02*
X8010658Y-21427211D01*
X8010658Y-21427211D02*
X8020182Y-21446259D01*
X8020182Y-21446259D02*
X8029705Y-21484354D01*
X8029705Y-21484354D02*
X8029705Y-21531973D01*
X8029705Y-21531973D02*
X8020182Y-21570069D01*
X8020182Y-21570069D02*
X8010658Y-21589116D01*
X8010658Y-21589116D02*
X8001134Y-21598640D01*
X8001134Y-21598640D02*
X7982086Y-21608164D01*
X7982086Y-21608164D02*
X7963039Y-21608164D01*
X7963039Y-21608164D02*
X7943991Y-21598640D01*
X7943991Y-21598640D02*
X7934467Y-21589116D01*
X7934467Y-21589116D02*
X7924943Y-21570069D01*
X7924943Y-21570069D02*
X7915420Y-21531973D01*
X7915420Y-21531973D02*
X7915420Y-21484354D01*
X7915420Y-21484354D02*
X7924943Y-21446259D01*
X7924943Y-21446259D02*
X7934467Y-21427211D01*
X7934467Y-21427211D02*
X7943991Y-21417688D01*
X7943991Y-21417688D02*
X7963039Y-21408164D01*
X8115420Y-21608164D02*
X8115420Y-21474830D01*
X8115420Y-21493878D02*
X8124943Y-21484354D01*
X8124943Y-21484354D02*
X8143991Y-21474830D01*
X8143991Y-21474830D02*
X8172563Y-21474830D01*
X8172563Y-21474830D02*
X8191610Y-21484354D01*
X8191610Y-21484354D02*
X8201134Y-21503402D01*
X8201134Y-21503402D02*
X8201134Y-21608164D01*
X8201134Y-21503402D02*
X8210658Y-21484354D01*
X8210658Y-21484354D02*
X8229705Y-21474830D01*
X8229705Y-21474830D02*
X8258277Y-21474830D01*
X8258277Y-21474830D02*
X8277324Y-21484354D01*
X8277324Y-21484354D02*
X8286848Y-21503402D01*
X8286848Y-21503402D02*
X8286848Y-21608164D01*
X8382086Y-21608164D02*
X8382086Y-21474830D01*
X8382086Y-21493878D02*
X8391610Y-21484354D01*
X8391610Y-21484354D02*
X8410658Y-21474830D01*
X8410658Y-21474830D02*
X8439229Y-21474830D01*
X8439229Y-21474830D02*
X8458277Y-21484354D01*
X8458277Y-21484354D02*
X8467801Y-21503402D01*
X8467801Y-21503402D02*
X8467801Y-21608164D01*
X8467801Y-21503402D02*
X8477325Y-21484354D01*
X8477325Y-21484354D02*
X8496372Y-21474830D01*
X8496372Y-21474830D02*
X8524944Y-21474830D01*
X8524944Y-21474830D02*
X8543991Y-21484354D01*
X8543991Y-21484354D02*
X8553515Y-21503402D01*
X8553515Y-21503402D02*
X8553515Y-21608164D01*
X8943991Y-21398640D02*
X8772563Y-21655783D01*
X9201134Y-21408164D02*
X9220182Y-21408164D01*
X9220182Y-21408164D02*
X9239229Y-21417688D01*
X9239229Y-21417688D02*
X9248753Y-21427211D01*
X9248753Y-21427211D02*
X9258277Y-21446259D01*
X9258277Y-21446259D02*
X9267801Y-21484354D01*
X9267801Y-21484354D02*
X9267801Y-21531973D01*
X9267801Y-21531973D02*
X9258277Y-21570069D01*
X9258277Y-21570069D02*
X9248753Y-21589116D01*
X9248753Y-21589116D02*
X9239229Y-21598640D01*
X9239229Y-21598640D02*
X9220182Y-21608164D01*
X9220182Y-21608164D02*
X9201134Y-21608164D01*
X9201134Y-21608164D02*
X9182087Y-21598640D01*
X9182087Y-21598640D02*
X9172563Y-21589116D01*
X9172563Y-21589116D02*
X9163039Y-21570069D01*
X9163039Y-21570069D02*
X9153515Y-21531973D01*
X9153515Y-21531973D02*
X9153515Y-21484354D01*
X9153515Y-21484354D02*
X9163039Y-21446259D01*
X9163039Y-21446259D02*
X9172563Y-21427211D01*
X9172563Y-21427211D02*
X9182087Y-21417688D01*
X9182087Y-21417688D02*
X9201134Y-21408164D01*
X9353515Y-21589116D02*
X9363039Y-21598640D01*
X9363039Y-21598640D02*
X9353515Y-21608164D01*
X9353515Y-21608164D02*
X9343991Y-21598640D01*
X9343991Y-21598640D02*
X9353515Y-21589116D01*
X9353515Y-21589116D02*
X9353515Y-21608164D01*
X9553515Y-21608164D02*
X9439229Y-21608164D01*
X9496372Y-21608164D02*
X9496372Y-21408164D01*
X9496372Y-21408164D02*
X9477325Y-21436735D01*
X9477325Y-21436735D02*
X9458277Y-21455783D01*
X9458277Y-21455783D02*
X9439229Y-21465307D01*
X9629706Y-21427211D02*
X9639229Y-21417688D01*
X9639229Y-21417688D02*
X9658277Y-21408164D01*
X9658277Y-21408164D02*
X9705896Y-21408164D01*
X9705896Y-21408164D02*
X9724944Y-21417688D01*
X9724944Y-21417688D02*
X9734468Y-21427211D01*
X9734468Y-21427211D02*
X9743991Y-21446259D01*
X9743991Y-21446259D02*
X9743991Y-21465307D01*
X9743991Y-21465307D02*
X9734468Y-21493878D01*
X9734468Y-21493878D02*
X9620182Y-21608164D01*
X9620182Y-21608164D02*
X9743991Y-21608164D01*
X9915420Y-21408164D02*
X9877325Y-21408164D01*
X9877325Y-21408164D02*
X9858277Y-21417688D01*
X9858277Y-21417688D02*
X9848753Y-21427211D01*
X9848753Y-21427211D02*
X9829706Y-21455783D01*
X9829706Y-21455783D02*
X9820182Y-21493878D01*
X9820182Y-21493878D02*
X9820182Y-21570069D01*
X9820182Y-21570069D02*
X9829706Y-21589116D01*
X9829706Y-21589116D02*
X9839229Y-21598640D01*
X9839229Y-21598640D02*
X9858277Y-21608164D01*
X9858277Y-21608164D02*
X9896372Y-21608164D01*
X9896372Y-21608164D02*
X9915420Y-21598640D01*
X9915420Y-21598640D02*
X9924944Y-21589116D01*
X9924944Y-21589116D02*
X9934468Y-21570069D01*
X9934468Y-21570069D02*
X9934468Y-21522450D01*
X9934468Y-21522450D02*
X9924944Y-21503402D01*
X9924944Y-21503402D02*
X9915420Y-21493878D01*
X9915420Y-21493878D02*
X9896372Y-21484354D01*
X9896372Y-21484354D02*
X9858277Y-21484354D01*
X9858277Y-21484354D02*
X9839229Y-21493878D01*
X9839229Y-21493878D02*
X9829706Y-21503402D01*
X9829706Y-21503402D02*
X9820182Y-21522450D01*
X10058277Y-21408164D02*
X10077325Y-21408164D01*
X10077325Y-21408164D02*
X10096372Y-21417688D01*
X10096372Y-21417688D02*
X10105896Y-21427211D01*
X10105896Y-21427211D02*
X10115420Y-21446259D01*
X10115420Y-21446259D02*
X10124944Y-21484354D01*
X10124944Y-21484354D02*
X10124944Y-21531973D01*
X10124944Y-21531973D02*
X10115420Y-21570069D01*
X10115420Y-21570069D02*
X10105896Y-21589116D01*
X10105896Y-21589116D02*
X10096372Y-21598640D01*
X10096372Y-21598640D02*
X10077325Y-21608164D01*
X10077325Y-21608164D02*
X10058277Y-21608164D01*
X10058277Y-21608164D02*
X10039229Y-21598640D01*
X10039229Y-21598640D02*
X10029706Y-21589116D01*
X10029706Y-21589116D02*
X10020182Y-21570069D01*
X10020182Y-21570069D02*
X10010658Y-21531973D01*
X10010658Y-21531973D02*
X10010658Y-21484354D01*
X10010658Y-21484354D02*
X10020182Y-21446259D01*
X10020182Y-21446259D02*
X10029706Y-21427211D01*
X10029706Y-21427211D02*
X10039229Y-21417688D01*
X10039229Y-21417688D02*
X10058277Y-21408164D01*
X10201134Y-21408164D02*
X10201134Y-21446259D01*
X10277325Y-21408164D02*
X10277325Y-21446259D01*
X10572563Y-21684354D02*
X10563039Y-21674830D01*
X10563039Y-21674830D02*
X10543991Y-21646259D01*
X10543991Y-21646259D02*
X10534468Y-21627211D01*
X10534468Y-21627211D02*
X10524944Y-21598640D01*
X10524944Y-21598640D02*
X10515420Y-21551021D01*
X10515420Y-21551021D02*
X10515420Y-21512926D01*
X10515420Y-21512926D02*
X10524944Y-21465307D01*
X10524944Y-21465307D02*
X10534468Y-21436735D01*
X10534468Y-21436735D02*
X10543991Y-21417688D01*
X10543991Y-21417688D02*
X10563039Y-21389116D01*
X10563039Y-21389116D02*
X10572563Y-21379592D01*
X10734468Y-21474830D02*
X10734468Y-21608164D01*
X10686849Y-21398640D02*
X10639230Y-21541497D01*
X10639230Y-21541497D02*
X10763039Y-21541497D01*
X10991611Y-21608164D02*
X10991611Y-21408164D01*
X11077325Y-21608164D02*
X11077325Y-21503402D01*
X11077325Y-21503402D02*
X11067801Y-21484354D01*
X11067801Y-21484354D02*
X11048753Y-21474830D01*
X11048753Y-21474830D02*
X11020182Y-21474830D01*
X11020182Y-21474830D02*
X11001134Y-21484354D01*
X11001134Y-21484354D02*
X10991611Y-21493878D01*
X11201134Y-21608164D02*
X11182087Y-21598640D01*
X11182087Y-21598640D02*
X11172563Y-21589116D01*
X11172563Y-21589116D02*
X11163039Y-21570069D01*
X11163039Y-21570069D02*
X11163039Y-21512926D01*
X11163039Y-21512926D02*
X11172563Y-21493878D01*
X11172563Y-21493878D02*
X11182087Y-21484354D01*
X11182087Y-21484354D02*
X11201134Y-21474830D01*
X11201134Y-21474830D02*
X11229706Y-21474830D01*
X11229706Y-21474830D02*
X11248753Y-21484354D01*
X11248753Y-21484354D02*
X11258277Y-21493878D01*
X11258277Y-21493878D02*
X11267801Y-21512926D01*
X11267801Y-21512926D02*
X11267801Y-21570069D01*
X11267801Y-21570069D02*
X11258277Y-21589116D01*
X11258277Y-21589116D02*
X11248753Y-21598640D01*
X11248753Y-21598640D02*
X11229706Y-21608164D01*
X11229706Y-21608164D02*
X11201134Y-21608164D01*
X11382087Y-21608164D02*
X11363039Y-21598640D01*
X11363039Y-21598640D02*
X11353515Y-21579592D01*
X11353515Y-21579592D02*
X11353515Y-21408164D01*
X11534468Y-21598640D02*
X11515420Y-21608164D01*
X11515420Y-21608164D02*
X11477325Y-21608164D01*
X11477325Y-21608164D02*
X11458277Y-21598640D01*
X11458277Y-21598640D02*
X11448753Y-21579592D01*
X11448753Y-21579592D02*
X11448753Y-21503402D01*
X11448753Y-21503402D02*
X11458277Y-21484354D01*
X11458277Y-21484354D02*
X11477325Y-21474830D01*
X11477325Y-21474830D02*
X11515420Y-21474830D01*
X11515420Y-21474830D02*
X11534468Y-21484354D01*
X11534468Y-21484354D02*
X11543991Y-21503402D01*
X11543991Y-21503402D02*
X11543991Y-21522450D01*
X11543991Y-21522450D02*
X11448753Y-21541497D01*
X11620182Y-21598640D02*
X11639230Y-21608164D01*
X11639230Y-21608164D02*
X11677325Y-21608164D01*
X11677325Y-21608164D02*
X11696372Y-21598640D01*
X11696372Y-21598640D02*
X11705896Y-21579592D01*
X11705896Y-21579592D02*
X11705896Y-21570069D01*
X11705896Y-21570069D02*
X11696372Y-21551021D01*
X11696372Y-21551021D02*
X11677325Y-21541497D01*
X11677325Y-21541497D02*
X11648753Y-21541497D01*
X11648753Y-21541497D02*
X11629706Y-21531973D01*
X11629706Y-21531973D02*
X11620182Y-21512926D01*
X11620182Y-21512926D02*
X11620182Y-21503402D01*
X11620182Y-21503402D02*
X11629706Y-21484354D01*
X11629706Y-21484354D02*
X11648753Y-21474830D01*
X11648753Y-21474830D02*
X11677325Y-21474830D01*
X11677325Y-21474830D02*
X11696372Y-21484354D01*
X11772563Y-21684354D02*
X11782087Y-21674830D01*
X11782087Y-21674830D02*
X11801134Y-21646259D01*
X11801134Y-21646259D02*
X11810658Y-21627211D01*
X11810658Y-21627211D02*
X11820182Y-21598640D01*
X11820182Y-21598640D02*
X11829706Y-21551021D01*
X11829706Y-21551021D02*
X11829706Y-21512926D01*
X11829706Y-21512926D02*
X11820182Y-21465307D01*
X11820182Y-21465307D02*
X11810658Y-21436735D01*
X11810658Y-21436735D02*
X11801134Y-21417688D01*
X11801134Y-21417688D02*
X11782087Y-21389116D01*
X11782087Y-21389116D02*
X11772563Y-21379592D01*
X12134468Y-21684354D02*
X12124944Y-21674830D01*
X12124944Y-21674830D02*
X12105896Y-21646259D01*
X12105896Y-21646259D02*
X12096372Y-21627211D01*
X12096372Y-21627211D02*
X12086849Y-21598640D01*
X12086849Y-21598640D02*
X12077325Y-21551021D01*
X12077325Y-21551021D02*
X12077325Y-21512926D01*
X12077325Y-21512926D02*
X12086849Y-21465307D01*
X12086849Y-21465307D02*
X12096372Y-21436735D01*
X12096372Y-21436735D02*
X12105896Y-21417688D01*
X12105896Y-21417688D02*
X12124944Y-21389116D01*
X12124944Y-21389116D02*
X12134468Y-21379592D01*
X12210658Y-21474830D02*
X12210658Y-21608164D01*
X12210658Y-21493878D02*
X12220182Y-21484354D01*
X12220182Y-21484354D02*
X12239230Y-21474830D01*
X12239230Y-21474830D02*
X12267801Y-21474830D01*
X12267801Y-21474830D02*
X12286849Y-21484354D01*
X12286849Y-21484354D02*
X12296372Y-21503402D01*
X12296372Y-21503402D02*
X12296372Y-21608164D01*
X12420182Y-21608164D02*
X12401134Y-21598640D01*
X12401134Y-21598640D02*
X12391611Y-21589116D01*
X12391611Y-21589116D02*
X12382087Y-21570069D01*
X12382087Y-21570069D02*
X12382087Y-21512926D01*
X12382087Y-21512926D02*
X12391611Y-21493878D01*
X12391611Y-21493878D02*
X12401134Y-21484354D01*
X12401134Y-21484354D02*
X12420182Y-21474830D01*
X12420182Y-21474830D02*
X12448753Y-21474830D01*
X12448753Y-21474830D02*
X12467801Y-21484354D01*
X12467801Y-21484354D02*
X12477325Y-21493878D01*
X12477325Y-21493878D02*
X12486849Y-21512926D01*
X12486849Y-21512926D02*
X12486849Y-21570069D01*
X12486849Y-21570069D02*
X12477325Y-21589116D01*
X12477325Y-21589116D02*
X12467801Y-21598640D01*
X12467801Y-21598640D02*
X12448753Y-21608164D01*
X12448753Y-21608164D02*
X12420182Y-21608164D01*
X12543992Y-21474830D02*
X12620182Y-21474830D01*
X12572563Y-21408164D02*
X12572563Y-21579592D01*
X12572563Y-21579592D02*
X12582087Y-21598640D01*
X12582087Y-21598640D02*
X12601134Y-21608164D01*
X12601134Y-21608164D02*
X12620182Y-21608164D01*
X12839230Y-21474830D02*
X12839230Y-21674830D01*
X12839230Y-21484354D02*
X12858277Y-21474830D01*
X12858277Y-21474830D02*
X12896373Y-21474830D01*
X12896373Y-21474830D02*
X12915420Y-21484354D01*
X12915420Y-21484354D02*
X12924944Y-21493878D01*
X12924944Y-21493878D02*
X12934468Y-21512926D01*
X12934468Y-21512926D02*
X12934468Y-21570069D01*
X12934468Y-21570069D02*
X12924944Y-21589116D01*
X12924944Y-21589116D02*
X12915420Y-21598640D01*
X12915420Y-21598640D02*
X12896373Y-21608164D01*
X12896373Y-21608164D02*
X12858277Y-21608164D01*
X12858277Y-21608164D02*
X12839230Y-21598640D01*
X13048753Y-21608164D02*
X13029706Y-21598640D01*
X13029706Y-21598640D02*
X13020182Y-21579592D01*
X13020182Y-21579592D02*
X13020182Y-21408164D01*
X13210658Y-21608164D02*
X13210658Y-21503402D01*
X13210658Y-21503402D02*
X13201134Y-21484354D01*
X13201134Y-21484354D02*
X13182087Y-21474830D01*
X13182087Y-21474830D02*
X13143992Y-21474830D01*
X13143992Y-21474830D02*
X13124944Y-21484354D01*
X13210658Y-21598640D02*
X13191611Y-21608164D01*
X13191611Y-21608164D02*
X13143992Y-21608164D01*
X13143992Y-21608164D02*
X13124944Y-21598640D01*
X13124944Y-21598640D02*
X13115420Y-21579592D01*
X13115420Y-21579592D02*
X13115420Y-21560545D01*
X13115420Y-21560545D02*
X13124944Y-21541497D01*
X13124944Y-21541497D02*
X13143992Y-21531973D01*
X13143992Y-21531973D02*
X13191611Y-21531973D01*
X13191611Y-21531973D02*
X13210658Y-21522450D01*
X13277325Y-21474830D02*
X13353515Y-21474830D01*
X13305896Y-21408164D02*
X13305896Y-21579592D01*
X13305896Y-21579592D02*
X13315420Y-21598640D01*
X13315420Y-21598640D02*
X13334468Y-21608164D01*
X13334468Y-21608164D02*
X13353515Y-21608164D01*
X13496373Y-21598640D02*
X13477325Y-21608164D01*
X13477325Y-21608164D02*
X13439230Y-21608164D01*
X13439230Y-21608164D02*
X13420182Y-21598640D01*
X13420182Y-21598640D02*
X13410658Y-21579592D01*
X13410658Y-21579592D02*
X13410658Y-21503402D01*
X13410658Y-21503402D02*
X13420182Y-21484354D01*
X13420182Y-21484354D02*
X13439230Y-21474830D01*
X13439230Y-21474830D02*
X13477325Y-21474830D01*
X13477325Y-21474830D02*
X13496373Y-21484354D01*
X13496373Y-21484354D02*
X13505896Y-21503402D01*
X13505896Y-21503402D02*
X13505896Y-21522450D01*
X13505896Y-21522450D02*
X13410658Y-21541497D01*
X13677325Y-21608164D02*
X13677325Y-21408164D01*
X13677325Y-21598640D02*
X13658277Y-21608164D01*
X13658277Y-21608164D02*
X13620182Y-21608164D01*
X13620182Y-21608164D02*
X13601134Y-21598640D01*
X13601134Y-21598640D02*
X13591611Y-21589116D01*
X13591611Y-21589116D02*
X13582087Y-21570069D01*
X13582087Y-21570069D02*
X13582087Y-21512926D01*
X13582087Y-21512926D02*
X13591611Y-21493878D01*
X13591611Y-21493878D02*
X13601134Y-21484354D01*
X13601134Y-21484354D02*
X13620182Y-21474830D01*
X13620182Y-21474830D02*
X13658277Y-21474830D01*
X13658277Y-21474830D02*
X13677325Y-21484354D01*
X13753515Y-21684354D02*
X13763039Y-21674830D01*
X13763039Y-21674830D02*
X13782087Y-21646259D01*
X13782087Y-21646259D02*
X13791611Y-21627211D01*
X13791611Y-21627211D02*
X13801134Y-21598640D01*
X13801134Y-21598640D02*
X13810658Y-21551021D01*
X13810658Y-21551021D02*
X13810658Y-21512926D01*
X13810658Y-21512926D02*
X13801134Y-21465307D01*
X13801134Y-21465307D02*
X13791611Y-21436735D01*
X13791611Y-21436735D02*
X13782087Y-21417688D01*
X13782087Y-21417688D02*
X13763039Y-21389116D01*
X13763039Y-21389116D02*
X13753515Y-21379592D01*
X6897500Y-21936680D02*
X6997500Y-21836680D01*
X6897500Y-21736680D01*
X6797500Y-21836680D01*
X6897500Y-21936680D01*
X7239229Y-21728164D02*
X7363039Y-21728164D01*
X7363039Y-21728164D02*
X7296372Y-21804354D01*
X7296372Y-21804354D02*
X7324943Y-21804354D01*
X7324943Y-21804354D02*
X7343991Y-21813878D01*
X7343991Y-21813878D02*
X7353515Y-21823402D01*
X7353515Y-21823402D02*
X7363039Y-21842450D01*
X7363039Y-21842450D02*
X7363039Y-21890069D01*
X7363039Y-21890069D02*
X7353515Y-21909116D01*
X7353515Y-21909116D02*
X7343991Y-21918640D01*
X7343991Y-21918640D02*
X7324943Y-21928164D01*
X7324943Y-21928164D02*
X7267801Y-21928164D01*
X7267801Y-21928164D02*
X7248753Y-21918640D01*
X7248753Y-21918640D02*
X7239229Y-21909116D01*
X7448753Y-21909116D02*
X7458277Y-21918640D01*
X7458277Y-21918640D02*
X7448753Y-21928164D01*
X7448753Y-21928164D02*
X7439229Y-21918640D01*
X7439229Y-21918640D02*
X7448753Y-21909116D01*
X7448753Y-21909116D02*
X7448753Y-21928164D01*
X7553515Y-21928164D02*
X7591610Y-21928164D01*
X7591610Y-21928164D02*
X7610658Y-21918640D01*
X7610658Y-21918640D02*
X7620182Y-21909116D01*
X7620182Y-21909116D02*
X7639229Y-21880545D01*
X7639229Y-21880545D02*
X7648753Y-21842450D01*
X7648753Y-21842450D02*
X7648753Y-21766259D01*
X7648753Y-21766259D02*
X7639229Y-21747211D01*
X7639229Y-21747211D02*
X7629705Y-21737688D01*
X7629705Y-21737688D02*
X7610658Y-21728164D01*
X7610658Y-21728164D02*
X7572562Y-21728164D01*
X7572562Y-21728164D02*
X7553515Y-21737688D01*
X7553515Y-21737688D02*
X7543991Y-21747211D01*
X7543991Y-21747211D02*
X7534467Y-21766259D01*
X7534467Y-21766259D02*
X7534467Y-21813878D01*
X7534467Y-21813878D02*
X7543991Y-21832926D01*
X7543991Y-21832926D02*
X7553515Y-21842450D01*
X7553515Y-21842450D02*
X7572562Y-21851973D01*
X7572562Y-21851973D02*
X7610658Y-21851973D01*
X7610658Y-21851973D02*
X7629705Y-21842450D01*
X7629705Y-21842450D02*
X7639229Y-21832926D01*
X7639229Y-21832926D02*
X7648753Y-21813878D01*
X7763039Y-21813878D02*
X7743991Y-21804354D01*
X7743991Y-21804354D02*
X7734467Y-21794830D01*
X7734467Y-21794830D02*
X7724943Y-21775783D01*
X7724943Y-21775783D02*
X7724943Y-21766259D01*
X7724943Y-21766259D02*
X7734467Y-21747211D01*
X7734467Y-21747211D02*
X7743991Y-21737688D01*
X7743991Y-21737688D02*
X7763039Y-21728164D01*
X7763039Y-21728164D02*
X7801134Y-21728164D01*
X7801134Y-21728164D02*
X7820182Y-21737688D01*
X7820182Y-21737688D02*
X7829705Y-21747211D01*
X7829705Y-21747211D02*
X7839229Y-21766259D01*
X7839229Y-21766259D02*
X7839229Y-21775783D01*
X7839229Y-21775783D02*
X7829705Y-21794830D01*
X7829705Y-21794830D02*
X7820182Y-21804354D01*
X7820182Y-21804354D02*
X7801134Y-21813878D01*
X7801134Y-21813878D02*
X7763039Y-21813878D01*
X7763039Y-21813878D02*
X7743991Y-21823402D01*
X7743991Y-21823402D02*
X7734467Y-21832926D01*
X7734467Y-21832926D02*
X7724943Y-21851973D01*
X7724943Y-21851973D02*
X7724943Y-21890069D01*
X7724943Y-21890069D02*
X7734467Y-21909116D01*
X7734467Y-21909116D02*
X7743991Y-21918640D01*
X7743991Y-21918640D02*
X7763039Y-21928164D01*
X7763039Y-21928164D02*
X7801134Y-21928164D01*
X7801134Y-21928164D02*
X7820182Y-21918640D01*
X7820182Y-21918640D02*
X7829705Y-21909116D01*
X7829705Y-21909116D02*
X7839229Y-21890069D01*
X7839229Y-21890069D02*
X7839229Y-21851973D01*
X7839229Y-21851973D02*
X7829705Y-21832926D01*
X7829705Y-21832926D02*
X7820182Y-21823402D01*
X7820182Y-21823402D02*
X7801134Y-21813878D01*
X7953515Y-21813878D02*
X7934467Y-21804354D01*
X7934467Y-21804354D02*
X7924943Y-21794830D01*
X7924943Y-21794830D02*
X7915420Y-21775783D01*
X7915420Y-21775783D02*
X7915420Y-21766259D01*
X7915420Y-21766259D02*
X7924943Y-21747211D01*
X7924943Y-21747211D02*
X7934467Y-21737688D01*
X7934467Y-21737688D02*
X7953515Y-21728164D01*
X7953515Y-21728164D02*
X7991610Y-21728164D01*
X7991610Y-21728164D02*
X8010658Y-21737688D01*
X8010658Y-21737688D02*
X8020182Y-21747211D01*
X8020182Y-21747211D02*
X8029705Y-21766259D01*
X8029705Y-21766259D02*
X8029705Y-21775783D01*
X8029705Y-21775783D02*
X8020182Y-21794830D01*
X8020182Y-21794830D02*
X8010658Y-21804354D01*
X8010658Y-21804354D02*
X7991610Y-21813878D01*
X7991610Y-21813878D02*
X7953515Y-21813878D01*
X7953515Y-21813878D02*
X7934467Y-21823402D01*
X7934467Y-21823402D02*
X7924943Y-21832926D01*
X7924943Y-21832926D02*
X7915420Y-21851973D01*
X7915420Y-21851973D02*
X7915420Y-21890069D01*
X7915420Y-21890069D02*
X7924943Y-21909116D01*
X7924943Y-21909116D02*
X7934467Y-21918640D01*
X7934467Y-21918640D02*
X7953515Y-21928164D01*
X7953515Y-21928164D02*
X7991610Y-21928164D01*
X7991610Y-21928164D02*
X8010658Y-21918640D01*
X8010658Y-21918640D02*
X8020182Y-21909116D01*
X8020182Y-21909116D02*
X8029705Y-21890069D01*
X8029705Y-21890069D02*
X8029705Y-21851973D01*
X8029705Y-21851973D02*
X8020182Y-21832926D01*
X8020182Y-21832926D02*
X8010658Y-21823402D01*
X8010658Y-21823402D02*
X7991610Y-21813878D01*
X8115420Y-21928164D02*
X8115420Y-21794830D01*
X8115420Y-21813878D02*
X8124943Y-21804354D01*
X8124943Y-21804354D02*
X8143991Y-21794830D01*
X8143991Y-21794830D02*
X8172563Y-21794830D01*
X8172563Y-21794830D02*
X8191610Y-21804354D01*
X8191610Y-21804354D02*
X8201134Y-21823402D01*
X8201134Y-21823402D02*
X8201134Y-21928164D01*
X8201134Y-21823402D02*
X8210658Y-21804354D01*
X8210658Y-21804354D02*
X8229705Y-21794830D01*
X8229705Y-21794830D02*
X8258277Y-21794830D01*
X8258277Y-21794830D02*
X8277324Y-21804354D01*
X8277324Y-21804354D02*
X8286848Y-21823402D01*
X8286848Y-21823402D02*
X8286848Y-21928164D01*
X8382086Y-21928164D02*
X8382086Y-21794830D01*
X8382086Y-21813878D02*
X8391610Y-21804354D01*
X8391610Y-21804354D02*
X8410658Y-21794830D01*
X8410658Y-21794830D02*
X8439229Y-21794830D01*
X8439229Y-21794830D02*
X8458277Y-21804354D01*
X8458277Y-21804354D02*
X8467801Y-21823402D01*
X8467801Y-21823402D02*
X8467801Y-21928164D01*
X8467801Y-21823402D02*
X8477325Y-21804354D01*
X8477325Y-21804354D02*
X8496372Y-21794830D01*
X8496372Y-21794830D02*
X8524944Y-21794830D01*
X8524944Y-21794830D02*
X8543991Y-21804354D01*
X8543991Y-21804354D02*
X8553515Y-21823402D01*
X8553515Y-21823402D02*
X8553515Y-21928164D01*
X8943991Y-21718640D02*
X8772563Y-21975783D01*
X9201134Y-21728164D02*
X9220182Y-21728164D01*
X9220182Y-21728164D02*
X9239229Y-21737688D01*
X9239229Y-21737688D02*
X9248753Y-21747211D01*
X9248753Y-21747211D02*
X9258277Y-21766259D01*
X9258277Y-21766259D02*
X9267801Y-21804354D01*
X9267801Y-21804354D02*
X9267801Y-21851973D01*
X9267801Y-21851973D02*
X9258277Y-21890069D01*
X9258277Y-21890069D02*
X9248753Y-21909116D01*
X9248753Y-21909116D02*
X9239229Y-21918640D01*
X9239229Y-21918640D02*
X9220182Y-21928164D01*
X9220182Y-21928164D02*
X9201134Y-21928164D01*
X9201134Y-21928164D02*
X9182087Y-21918640D01*
X9182087Y-21918640D02*
X9172563Y-21909116D01*
X9172563Y-21909116D02*
X9163039Y-21890069D01*
X9163039Y-21890069D02*
X9153515Y-21851973D01*
X9153515Y-21851973D02*
X9153515Y-21804354D01*
X9153515Y-21804354D02*
X9163039Y-21766259D01*
X9163039Y-21766259D02*
X9172563Y-21747211D01*
X9172563Y-21747211D02*
X9182087Y-21737688D01*
X9182087Y-21737688D02*
X9201134Y-21728164D01*
X9353515Y-21909116D02*
X9363039Y-21918640D01*
X9363039Y-21918640D02*
X9353515Y-21928164D01*
X9353515Y-21928164D02*
X9343991Y-21918640D01*
X9343991Y-21918640D02*
X9353515Y-21909116D01*
X9353515Y-21909116D02*
X9353515Y-21928164D01*
X9553515Y-21928164D02*
X9439229Y-21928164D01*
X9496372Y-21928164D02*
X9496372Y-21728164D01*
X9496372Y-21728164D02*
X9477325Y-21756735D01*
X9477325Y-21756735D02*
X9458277Y-21775783D01*
X9458277Y-21775783D02*
X9439229Y-21785307D01*
X9734468Y-21728164D02*
X9639229Y-21728164D01*
X9639229Y-21728164D02*
X9629706Y-21823402D01*
X9629706Y-21823402D02*
X9639229Y-21813878D01*
X9639229Y-21813878D02*
X9658277Y-21804354D01*
X9658277Y-21804354D02*
X9705896Y-21804354D01*
X9705896Y-21804354D02*
X9724944Y-21813878D01*
X9724944Y-21813878D02*
X9734468Y-21823402D01*
X9734468Y-21823402D02*
X9743991Y-21842450D01*
X9743991Y-21842450D02*
X9743991Y-21890069D01*
X9743991Y-21890069D02*
X9734468Y-21909116D01*
X9734468Y-21909116D02*
X9724944Y-21918640D01*
X9724944Y-21918640D02*
X9705896Y-21928164D01*
X9705896Y-21928164D02*
X9658277Y-21928164D01*
X9658277Y-21928164D02*
X9639229Y-21918640D01*
X9639229Y-21918640D02*
X9629706Y-21909116D01*
X9810658Y-21728164D02*
X9943991Y-21728164D01*
X9943991Y-21728164D02*
X9858277Y-21928164D01*
X10058277Y-21728164D02*
X10077325Y-21728164D01*
X10077325Y-21728164D02*
X10096372Y-21737688D01*
X10096372Y-21737688D02*
X10105896Y-21747211D01*
X10105896Y-21747211D02*
X10115420Y-21766259D01*
X10115420Y-21766259D02*
X10124944Y-21804354D01*
X10124944Y-21804354D02*
X10124944Y-21851973D01*
X10124944Y-21851973D02*
X10115420Y-21890069D01*
X10115420Y-21890069D02*
X10105896Y-21909116D01*
X10105896Y-21909116D02*
X10096372Y-21918640D01*
X10096372Y-21918640D02*
X10077325Y-21928164D01*
X10077325Y-21928164D02*
X10058277Y-21928164D01*
X10058277Y-21928164D02*
X10039229Y-21918640D01*
X10039229Y-21918640D02*
X10029706Y-21909116D01*
X10029706Y-21909116D02*
X10020182Y-21890069D01*
X10020182Y-21890069D02*
X10010658Y-21851973D01*
X10010658Y-21851973D02*
X10010658Y-21804354D01*
X10010658Y-21804354D02*
X10020182Y-21766259D01*
X10020182Y-21766259D02*
X10029706Y-21747211D01*
X10029706Y-21747211D02*
X10039229Y-21737688D01*
X10039229Y-21737688D02*
X10058277Y-21728164D01*
X10201134Y-21728164D02*
X10201134Y-21766259D01*
X10277325Y-21728164D02*
X10277325Y-21766259D01*
X10572563Y-22004354D02*
X10563039Y-21994830D01*
X10563039Y-21994830D02*
X10543991Y-21966259D01*
X10543991Y-21966259D02*
X10534468Y-21947211D01*
X10534468Y-21947211D02*
X10524944Y-21918640D01*
X10524944Y-21918640D02*
X10515420Y-21871021D01*
X10515420Y-21871021D02*
X10515420Y-21832926D01*
X10515420Y-21832926D02*
X10524944Y-21785307D01*
X10524944Y-21785307D02*
X10534468Y-21756735D01*
X10534468Y-21756735D02*
X10543991Y-21737688D01*
X10543991Y-21737688D02*
X10563039Y-21709116D01*
X10563039Y-21709116D02*
X10572563Y-21699592D01*
X10658277Y-21928164D02*
X10696372Y-21928164D01*
X10696372Y-21928164D02*
X10715420Y-21918640D01*
X10715420Y-21918640D02*
X10724944Y-21909116D01*
X10724944Y-21909116D02*
X10743991Y-21880545D01*
X10743991Y-21880545D02*
X10753515Y-21842450D01*
X10753515Y-21842450D02*
X10753515Y-21766259D01*
X10753515Y-21766259D02*
X10743991Y-21747211D01*
X10743991Y-21747211D02*
X10734468Y-21737688D01*
X10734468Y-21737688D02*
X10715420Y-21728164D01*
X10715420Y-21728164D02*
X10677325Y-21728164D01*
X10677325Y-21728164D02*
X10658277Y-21737688D01*
X10658277Y-21737688D02*
X10648753Y-21747211D01*
X10648753Y-21747211D02*
X10639230Y-21766259D01*
X10639230Y-21766259D02*
X10639230Y-21813878D01*
X10639230Y-21813878D02*
X10648753Y-21832926D01*
X10648753Y-21832926D02*
X10658277Y-21842450D01*
X10658277Y-21842450D02*
X10677325Y-21851973D01*
X10677325Y-21851973D02*
X10715420Y-21851973D01*
X10715420Y-21851973D02*
X10734468Y-21842450D01*
X10734468Y-21842450D02*
X10743991Y-21832926D01*
X10743991Y-21832926D02*
X10753515Y-21813878D01*
X10991611Y-21928164D02*
X10991611Y-21728164D01*
X11077325Y-21928164D02*
X11077325Y-21823402D01*
X11077325Y-21823402D02*
X11067801Y-21804354D01*
X11067801Y-21804354D02*
X11048753Y-21794830D01*
X11048753Y-21794830D02*
X11020182Y-21794830D01*
X11020182Y-21794830D02*
X11001134Y-21804354D01*
X11001134Y-21804354D02*
X10991611Y-21813878D01*
X11201134Y-21928164D02*
X11182087Y-21918640D01*
X11182087Y-21918640D02*
X11172563Y-21909116D01*
X11172563Y-21909116D02*
X11163039Y-21890069D01*
X11163039Y-21890069D02*
X11163039Y-21832926D01*
X11163039Y-21832926D02*
X11172563Y-21813878D01*
X11172563Y-21813878D02*
X11182087Y-21804354D01*
X11182087Y-21804354D02*
X11201134Y-21794830D01*
X11201134Y-21794830D02*
X11229706Y-21794830D01*
X11229706Y-21794830D02*
X11248753Y-21804354D01*
X11248753Y-21804354D02*
X11258277Y-21813878D01*
X11258277Y-21813878D02*
X11267801Y-21832926D01*
X11267801Y-21832926D02*
X11267801Y-21890069D01*
X11267801Y-21890069D02*
X11258277Y-21909116D01*
X11258277Y-21909116D02*
X11248753Y-21918640D01*
X11248753Y-21918640D02*
X11229706Y-21928164D01*
X11229706Y-21928164D02*
X11201134Y-21928164D01*
X11382087Y-21928164D02*
X11363039Y-21918640D01*
X11363039Y-21918640D02*
X11353515Y-21899592D01*
X11353515Y-21899592D02*
X11353515Y-21728164D01*
X11534468Y-21918640D02*
X11515420Y-21928164D01*
X11515420Y-21928164D02*
X11477325Y-21928164D01*
X11477325Y-21928164D02*
X11458277Y-21918640D01*
X11458277Y-21918640D02*
X11448753Y-21899592D01*
X11448753Y-21899592D02*
X11448753Y-21823402D01*
X11448753Y-21823402D02*
X11458277Y-21804354D01*
X11458277Y-21804354D02*
X11477325Y-21794830D01*
X11477325Y-21794830D02*
X11515420Y-21794830D01*
X11515420Y-21794830D02*
X11534468Y-21804354D01*
X11534468Y-21804354D02*
X11543991Y-21823402D01*
X11543991Y-21823402D02*
X11543991Y-21842450D01*
X11543991Y-21842450D02*
X11448753Y-21861497D01*
X11620182Y-21918640D02*
X11639230Y-21928164D01*
X11639230Y-21928164D02*
X11677325Y-21928164D01*
X11677325Y-21928164D02*
X11696372Y-21918640D01*
X11696372Y-21918640D02*
X11705896Y-21899592D01*
X11705896Y-21899592D02*
X11705896Y-21890069D01*
X11705896Y-21890069D02*
X11696372Y-21871021D01*
X11696372Y-21871021D02*
X11677325Y-21861497D01*
X11677325Y-21861497D02*
X11648753Y-21861497D01*
X11648753Y-21861497D02*
X11629706Y-21851973D01*
X11629706Y-21851973D02*
X11620182Y-21832926D01*
X11620182Y-21832926D02*
X11620182Y-21823402D01*
X11620182Y-21823402D02*
X11629706Y-21804354D01*
X11629706Y-21804354D02*
X11648753Y-21794830D01*
X11648753Y-21794830D02*
X11677325Y-21794830D01*
X11677325Y-21794830D02*
X11696372Y-21804354D01*
X11772563Y-22004354D02*
X11782087Y-21994830D01*
X11782087Y-21994830D02*
X11801134Y-21966259D01*
X11801134Y-21966259D02*
X11810658Y-21947211D01*
X11810658Y-21947211D02*
X11820182Y-21918640D01*
X11820182Y-21918640D02*
X11829706Y-21871021D01*
X11829706Y-21871021D02*
X11829706Y-21832926D01*
X11829706Y-21832926D02*
X11820182Y-21785307D01*
X11820182Y-21785307D02*
X11810658Y-21756735D01*
X11810658Y-21756735D02*
X11801134Y-21737688D01*
X11801134Y-21737688D02*
X11782087Y-21709116D01*
X11782087Y-21709116D02*
X11772563Y-21699592D01*
X12134468Y-22004354D02*
X12124944Y-21994830D01*
X12124944Y-21994830D02*
X12105896Y-21966259D01*
X12105896Y-21966259D02*
X12096372Y-21947211D01*
X12096372Y-21947211D02*
X12086849Y-21918640D01*
X12086849Y-21918640D02*
X12077325Y-21871021D01*
X12077325Y-21871021D02*
X12077325Y-21832926D01*
X12077325Y-21832926D02*
X12086849Y-21785307D01*
X12086849Y-21785307D02*
X12096372Y-21756735D01*
X12096372Y-21756735D02*
X12105896Y-21737688D01*
X12105896Y-21737688D02*
X12124944Y-21709116D01*
X12124944Y-21709116D02*
X12134468Y-21699592D01*
X12210658Y-21794830D02*
X12210658Y-21928164D01*
X12210658Y-21813878D02*
X12220182Y-21804354D01*
X12220182Y-21804354D02*
X12239230Y-21794830D01*
X12239230Y-21794830D02*
X12267801Y-21794830D01*
X12267801Y-21794830D02*
X12286849Y-21804354D01*
X12286849Y-21804354D02*
X12296372Y-21823402D01*
X12296372Y-21823402D02*
X12296372Y-21928164D01*
X12420182Y-21928164D02*
X12401134Y-21918640D01*
X12401134Y-21918640D02*
X12391611Y-21909116D01*
X12391611Y-21909116D02*
X12382087Y-21890069D01*
X12382087Y-21890069D02*
X12382087Y-21832926D01*
X12382087Y-21832926D02*
X12391611Y-21813878D01*
X12391611Y-21813878D02*
X12401134Y-21804354D01*
X12401134Y-21804354D02*
X12420182Y-21794830D01*
X12420182Y-21794830D02*
X12448753Y-21794830D01*
X12448753Y-21794830D02*
X12467801Y-21804354D01*
X12467801Y-21804354D02*
X12477325Y-21813878D01*
X12477325Y-21813878D02*
X12486849Y-21832926D01*
X12486849Y-21832926D02*
X12486849Y-21890069D01*
X12486849Y-21890069D02*
X12477325Y-21909116D01*
X12477325Y-21909116D02*
X12467801Y-21918640D01*
X12467801Y-21918640D02*
X12448753Y-21928164D01*
X12448753Y-21928164D02*
X12420182Y-21928164D01*
X12543992Y-21794830D02*
X12620182Y-21794830D01*
X12572563Y-21728164D02*
X12572563Y-21899592D01*
X12572563Y-21899592D02*
X12582087Y-21918640D01*
X12582087Y-21918640D02*
X12601134Y-21928164D01*
X12601134Y-21928164D02*
X12620182Y-21928164D01*
X12839230Y-21794830D02*
X12839230Y-21994830D01*
X12839230Y-21804354D02*
X12858277Y-21794830D01*
X12858277Y-21794830D02*
X12896373Y-21794830D01*
X12896373Y-21794830D02*
X12915420Y-21804354D01*
X12915420Y-21804354D02*
X12924944Y-21813878D01*
X12924944Y-21813878D02*
X12934468Y-21832926D01*
X12934468Y-21832926D02*
X12934468Y-21890069D01*
X12934468Y-21890069D02*
X12924944Y-21909116D01*
X12924944Y-21909116D02*
X12915420Y-21918640D01*
X12915420Y-21918640D02*
X12896373Y-21928164D01*
X12896373Y-21928164D02*
X12858277Y-21928164D01*
X12858277Y-21928164D02*
X12839230Y-21918640D01*
X13048753Y-21928164D02*
X13029706Y-21918640D01*
X13029706Y-21918640D02*
X13020182Y-21899592D01*
X13020182Y-21899592D02*
X13020182Y-21728164D01*
X13210658Y-21928164D02*
X13210658Y-21823402D01*
X13210658Y-21823402D02*
X13201134Y-21804354D01*
X13201134Y-21804354D02*
X13182087Y-21794830D01*
X13182087Y-21794830D02*
X13143992Y-21794830D01*
X13143992Y-21794830D02*
X13124944Y-21804354D01*
X13210658Y-21918640D02*
X13191611Y-21928164D01*
X13191611Y-21928164D02*
X13143992Y-21928164D01*
X13143992Y-21928164D02*
X13124944Y-21918640D01*
X13124944Y-21918640D02*
X13115420Y-21899592D01*
X13115420Y-21899592D02*
X13115420Y-21880545D01*
X13115420Y-21880545D02*
X13124944Y-21861497D01*
X13124944Y-21861497D02*
X13143992Y-21851973D01*
X13143992Y-21851973D02*
X13191611Y-21851973D01*
X13191611Y-21851973D02*
X13210658Y-21842450D01*
X13277325Y-21794830D02*
X13353515Y-21794830D01*
X13305896Y-21728164D02*
X13305896Y-21899592D01*
X13305896Y-21899592D02*
X13315420Y-21918640D01*
X13315420Y-21918640D02*
X13334468Y-21928164D01*
X13334468Y-21928164D02*
X13353515Y-21928164D01*
X13496373Y-21918640D02*
X13477325Y-21928164D01*
X13477325Y-21928164D02*
X13439230Y-21928164D01*
X13439230Y-21928164D02*
X13420182Y-21918640D01*
X13420182Y-21918640D02*
X13410658Y-21899592D01*
X13410658Y-21899592D02*
X13410658Y-21823402D01*
X13410658Y-21823402D02*
X13420182Y-21804354D01*
X13420182Y-21804354D02*
X13439230Y-21794830D01*
X13439230Y-21794830D02*
X13477325Y-21794830D01*
X13477325Y-21794830D02*
X13496373Y-21804354D01*
X13496373Y-21804354D02*
X13505896Y-21823402D01*
X13505896Y-21823402D02*
X13505896Y-21842450D01*
X13505896Y-21842450D02*
X13410658Y-21861497D01*
X13677325Y-21928164D02*
X13677325Y-21728164D01*
X13677325Y-21918640D02*
X13658277Y-21928164D01*
X13658277Y-21928164D02*
X13620182Y-21928164D01*
X13620182Y-21928164D02*
X13601134Y-21918640D01*
X13601134Y-21918640D02*
X13591611Y-21909116D01*
X13591611Y-21909116D02*
X13582087Y-21890069D01*
X13582087Y-21890069D02*
X13582087Y-21832926D01*
X13582087Y-21832926D02*
X13591611Y-21813878D01*
X13591611Y-21813878D02*
X13601134Y-21804354D01*
X13601134Y-21804354D02*
X13620182Y-21794830D01*
X13620182Y-21794830D02*
X13658277Y-21794830D01*
X13658277Y-21794830D02*
X13677325Y-21804354D01*
X13753515Y-22004354D02*
X13763039Y-21994830D01*
X13763039Y-21994830D02*
X13782087Y-21966259D01*
X13782087Y-21966259D02*
X13791611Y-21947211D01*
X13791611Y-21947211D02*
X13801134Y-21918640D01*
X13801134Y-21918640D02*
X13810658Y-21871021D01*
X13810658Y-21871021D02*
X13810658Y-21832926D01*
X13810658Y-21832926D02*
X13801134Y-21785307D01*
X13801134Y-21785307D02*
X13791611Y-21756735D01*
X13791611Y-21756735D02*
X13782087Y-21737688D01*
X13782087Y-21737688D02*
X13763039Y-21709116D01*
X13763039Y-21709116D02*
X13753515Y-21699592D01*
M02*
